<svg id="Layer_1" data-name="Layer 1" xmlns="http://www.w3.org/2000/svg" viewBox="0 0 309 113">
  <defs>
    <style>
      .cls-1, .cls-2, .cls-3, .cls-4, .cls-6 {
        fill: none;
        stroke-linecap: round;
        stroke-miterlimit: 10;
      }

      .cls-1, .cls-2 {
        stroke: #66afb8;
      }

      .cls-2 {
        stroke-width: 0.5px;
      }

      .cls-3, .cls-4, .cls-6 {
        stroke: #0776a0;
      }

      .cls-3 {
        stroke-width: 3px;
      }

      .cls-4 {
        stroke-width: 2.5px;
      }

      .cls-5 {
        fill: #66afb8;
      }

      .cls-6 {
        stroke-width: 2px;
      }

      .cls-7 {
        fill: #0776a0;
      }

      .cls-8 {
        fill: #7a95a0;
      }
    </style>
  </defs>
  <title>Artboard 4</title>
  <g id="Finished_Bike" data-name="Finished Bike">
    <path class="cls-1" d="M56.131,64.751a2.718,2.718,0,1,1-2.718-2.719A2.718,2.718,0,0,1,56.131,64.751Z"/>
    <circle class="cls-2" cx="53.413" cy="64.751" r="19.155"/>
    <path class="cls-1" d="M88.9,69.451a6.934,6.934,0,1,1-6.933-6.933A6.933,6.933,0,0,1,88.9,69.451Z"/>
    <line class="cls-3" x1="53.413" y1="64.751" x2="71.392" y2="30.554"/>
    <line class="cls-4" x1="69.512" y1="24.091" x2="81.969" y2="69.451"/>
    <path id="Seat" class="cls-5" d="M63.909,18.058c.78.406,0,0,0,0a9.073,9.073,0,0,0,3.146,1.115,6.707,6.707,0,0,0,3.33-.328,6.968,6.968,0,0,1,4.035-.436A8.986,8.986,0,0,1,77.941,20.3a.5.5,0,0,1-.61.79l-.03-.022a7.925,7.925,0,0,0-3.135-1.433,4.077,4.077,0,0,0-1.615.051,10.3,10.3,0,0,0-1.66.573,8.4,8.4,0,0,1-4.03.656A10.813,10.813,0,0,1,62.9,19.783h0l.506.138-4.347.5a1.511,1.511,0,0,1-1.673-1.328,1.456,1.456,0,0,1,1.328-1.672A21.992,21.992,0,0,1,63.909,18.058Z"/>
    <circle class="cls-6" cx="53.413" cy="64.751" r="22.68"/>
    <circle class="cls-1" cx="123.14" cy="64.751" r="2.291"/>
    <circle class="cls-2" cx="123.14" cy="64.751" r="19.155"/>
    <circle class="cls-6" cx="123.14" cy="64.751" r="22.68"/>
    <polyline class="cls-6" points="123.14 64.751 111.265 41.019 106.89 24.894 112.89 22.019 112.89 18.269"/>
    <g id="Connector">
      <path class="cls-7" d="M110.847,37.333l-28.5,32.444-.42-.079-28.6-4.454a.5.5,0,1,1,.154-.988h.008L82.009,69.2l-.42-.079,27.74-33.095a1,1,0,0,1,1.533,1.285Z"/>
    </g>
    <line class="cls-6" x1="71.392" y1="30.554" x2="108.426" y2="30.554"/>
    <circle class="cls-7" cx="112.89" cy="18.269" r="2.125"/>
  </g>
  <g>
    <path class="cls-7" d="M171.438,29.1h-6.884l-1.939,4.558h-1.989l7.442-16.945,7.249,16.945h-1.988Zm-.7-1.7-2.715-6.472L165.256,27.4Z"/>
    <path class="cls-7" d="M178.616,23.6h1.745v1.164a3.549,3.549,0,0,1,2.885-1.406,3.417,3.417,0,0,1,2.885,1.381,4.489,4.489,0,0,1,.581,2.691v6.231h-1.745V27.474a2.957,2.957,0,0,0-.461-1.842,1.975,1.975,0,0,0-1.648-.727,2.2,2.2,0,0,0-1.77.775,4.242,4.242,0,0,0-.727,2.715v5.261h-1.745Z"/>
    <path class="cls-7" d="M194.64,32.71,190.01,23.6H192l3.564,7.2,3.272-7.2h1.94L193.38,39.231h-1.939Z"/>
    <path class="cls-7" d="M205.865,25.2v8.46H204.12V25.2h-1.067V23.6h1.067V19.959h1.745V23.6h1.746v1.6Z"/>
    <path class="cls-7" d="M210.084,28.662a5.334,5.334,0,1,1,5.333,5.285A5.165,5.165,0,0,1,210.084,28.662Zm1.794,0a3.545,3.545,0,1,0,7.079,0,3.546,3.546,0,1,0-7.079,0Z"/>
    <path class="cls-7" d="M225.358,23.6l2.981,6.836,3.152-7.611,3.127,7.611,3.006-6.836h1.939l-4.994,10.764-3.1-7.515-3.1,7.515L223.418,23.6Z"/>
    <path class="cls-7" d="M242.862,23.6h1.745v1.164a3.549,3.549,0,0,1,2.885-1.406,3.417,3.417,0,0,1,2.885,1.381,4.489,4.489,0,0,1,.581,2.691v6.231h-1.745V27.474a2.957,2.957,0,0,0-.461-1.842,1.975,1.975,0,0,0-1.648-.727,2.2,2.2,0,0,0-1.77.775,4.242,4.242,0,0,0-.727,2.715v5.261h-1.745Z"/>
    <path class="cls-5" d="M165.427,41.788a6,6,0,0,1,3.708,1.018,4.016,4.016,0,0,1,1.455,3.345,3.647,3.647,0,0,1-1.6,3.175,4.055,4.055,0,0,1,3.079,4.073,4.468,4.468,0,0,1-1.649,3.491,5.9,5.9,0,0,1-3.879,1.067h-4.024V41.788Zm-1.116,7.1h1.358c.945,0,3.175-.194,3.175-2.691,0-2.666-2.617-2.715-3.126-2.715h-1.407Zm0,7.37h2.061a4.471,4.471,0,0,0,2.836-.679,2.724,2.724,0,0,0,1.067-2.23,2.622,2.622,0,0,0-1.382-2.376,5.63,5.63,0,0,0-2.739-.485h-1.843Z"/>
    <path class="cls-5" d="M177.258,42.854a1.237,1.237,0,1,1-1.237,1.237A1.241,1.241,0,0,1,177.258,42.854Zm.872,5.042V57.957h-1.745V47.9Z"/>
    <path class="cls-5" d="M190.761,50.708a4.061,4.061,0,0,0-3.152-1.5,3.751,3.751,0,0,0-.024,7.491,4.289,4.289,0,0,0,3.249-1.576v2.085a5.375,5.375,0,0,1-3.2,1.043,5.3,5.3,0,1,1,0-10.594,5.332,5.332,0,0,1,3.127.969Z"/>
    <path class="cls-5" d="M198.131,57.011,193.5,47.9h1.988l3.564,7.2,3.272-7.2h1.94l-7.394,15.636h-1.939Z"/>
    <path class="cls-5" d="M215.441,50.708a4.059,4.059,0,0,0-3.151-1.5,3.751,3.751,0,0,0-.024,7.491,4.286,4.286,0,0,0,3.248-1.576v2.085a5.373,5.373,0,0,1-3.2,1.043,5.3,5.3,0,1,1,0-10.594,5.329,5.329,0,0,1,3.127.969Z"/>
    <path class="cls-5" d="M221.382,40.284V57.957h-1.745V40.284Z"/>
    <path class="cls-5" d="M227.006,42.854a1.237,1.237,0,1,1-1.236,1.237A1.241,1.241,0,0,1,227.006,42.854Zm.873,5.042V57.957h-1.746V47.9Z"/>
    <path class="cls-5" d="M232.631,47.9h1.745V49.06a3.549,3.549,0,0,1,2.885-1.406,3.413,3.413,0,0,1,2.885,1.382,4.484,4.484,0,0,1,.581,2.69v6.231h-1.745V51.775a2.957,2.957,0,0,0-.461-1.842,1.972,1.972,0,0,0-1.648-.728,2.2,2.2,0,0,0-1.77.776,4.242,4.242,0,0,0-.727,2.715v5.261h-1.745Z"/>
    <path class="cls-5" d="M253.189,47.9h1.745v9.818a6.329,6.329,0,0,1-.97,3.952,4.893,4.893,0,0,1-4.024,1.866,4.986,4.986,0,0,1-3.588-1.357,4.537,4.537,0,0,1-1.309-3.249h1.722a3.169,3.169,0,0,0,.775,2.085,3.115,3.115,0,0,0,2.424.969,2.821,2.821,0,0,0,2.667-1.4,4.68,4.68,0,0,0,.558-2.57V56.55a4.244,4.244,0,0,1-3.443,1.7A4.817,4.817,0,0,1,246.3,56.89a5.447,5.447,0,0,1-1.455-3.976,5.272,5.272,0,0,1,1.455-3.9,4.954,4.954,0,0,1,3.442-1.358,4.186,4.186,0,0,1,3.443,1.672Zm-5.528,2.255a3.832,3.832,0,0,0-1.018,2.763,3.878,3.878,0,0,0,1.14,2.958,3.042,3.042,0,0,0,2.157.824,2.979,2.979,0,0,0,2.206-.848,4.08,4.08,0,0,0,1.139-2.91,3.979,3.979,0,0,0-1.066-2.836,3.229,3.229,0,0,0-2.279-.9A3.118,3.118,0,0,0,247.661,50.151Z"/>
    <path class="cls-8" d="M174.881,72.021a7.941,7.941,0,0,0-2.11-1.5,6.866,6.866,0,0,0-2.787-.631,6.668,6.668,0,0,0,.024,13.333,6.712,6.712,0,0,0,3.006-.752,7.348,7.348,0,0,0,1.867-1.357v2.23a8.42,8.42,0,0,1-4.873,1.576,8.364,8.364,0,1,1,.1-16.727,7.62,7.62,0,0,1,4.776,1.6Z"/>
    <path class="cls-8" d="M180.943,66.955V84.627H179.2V66.955Z"/>
    <path class="cls-8" d="M187.44,80.433a3.426,3.426,0,0,0,.485,2.158,2.408,2.408,0,0,0,3.539,0,3.426,3.426,0,0,0,.485-2.158V74.567H193.7v6.06a4,4,0,0,1-.922,3.03,4.388,4.388,0,0,1-6.157,0,4,4,0,0,1-.921-3.03v-6.06h1.745Z"/>
    <path class="cls-8" d="M200.192,84.627h-1.745V66.955h1.745v9.017a4.328,4.328,0,0,1,3.443-1.648c3.151,0,4.9,2.618,4.9,5.333,0,2.764-1.771,5.261-4.825,5.261a4.271,4.271,0,0,1-3.515-1.7Zm6.546-4.97a3.45,3.45,0,0,0-3.3-3.781,3.492,3.492,0,0,0-3.345,3.757,3.441,3.441,0,0,0,3.37,3.733C205.5,83.366,206.738,81.669,206.738,79.657Z"/>
  </g>
</svg>
