<?xml version="1.0" encoding="utf-8"?>
<!-- Generator: Adobe Illustrator 15.0.2, SVG Export Plug-In . SVG Version: 6.00 Build 0)  -->
<!DOCTYPE svg PUBLIC "-//W3C//DTD SVG 1.1//EN" "http://www.w3.org/Graphics/SVG/1.1/DTD/svg11.dtd">
<svg version="1.1" id="Layer_1" xmlns="http://www.w3.org/2000/svg" xmlns:xlink="http://www.w3.org/1999/xlink" x="0px" y="0px"
	 width="222.055px" height="77px" viewBox="0 0 222.055 77" enable-background="new 0 0 222.055 77" xml:space="preserve">
<g id="col-xs-12">
</g>
<g id="col-sm-12">
</g>
<g id="Guides">
</g>
<g id="awt-logo">
	<path id="templates" fill="#027368" d="M79.401,62.607v0.861H26.336v-1.265v-2.586V21.232H73.61h2.586H79.4v4.094h2.586v-5.388
		c0-0.714-0.577-1.293-1.293-1.293h-4.497v-2.558c0-0.714-0.577-1.293-1.293-1.293h-4.498v-2.558c0-0.714-0.577-1.293-1.293-1.293
		H13.463c-0.714,0-1.293,0.579-1.293,1.293v44.825c0,0.715,0.579,1.293,1.293,1.293h4.498v2.56c0,0.714,0.579,1.293,1.293,1.293
		h4.498v2.56c0,0.713,0.579,1.293,1.293,1.293h55.648c0.716,0,1.293-0.58,1.293-1.293v-2.156h-2.586V62.607z M17.96,16.088V55.77
		h-3.205V13.53H67.82v1.265H19.253C18.54,14.795,17.96,15.374,17.96,16.088z M23.751,19.938v39.681h-3.205v-1.266v-2.586V17.381
		H67.82h2.586h3.205v1.265H25.044C24.33,18.646,23.751,19.224,23.751,19.938z"/>
	<g id="awt">
		<path fill="#333333" d="M41.568,35.622h-6.421l-1.742,4.853H31.33l6.629-17.785h0.951l6.652,17.785H43.36L41.568,35.622z
			 M35.818,33.822h5.127l-1.939-5.328l-0.623-2.651h-0.025l-0.623,2.701L35.818,33.822z"/>
		<path fill="#333333" d="M51.69,37.073c0-0.5-0.148-0.892-0.451-1.176c-0.3-0.283-0.671-0.521-1.111-0.713
			c-0.442-0.192-0.925-0.375-1.451-0.55c-0.526-0.175-1.009-0.4-1.451-0.675c-0.44-0.275-0.813-0.629-1.113-1.063
			c-0.3-0.433-0.448-1.017-0.448-1.751c0-1.201,0.342-2.08,1.023-2.639c0.686-0.558,1.635-0.838,2.854-0.838
			c0.898,0,1.653,0.079,2.264,0.238c0.609,0.159,1.138,0.346,1.588,0.563l-0.475,1.651c-0.384-0.183-0.849-0.346-1.39-0.488
			c-0.542-0.141-1.122-0.213-1.737-0.213c-0.734,0-1.271,0.125-1.613,0.375s-0.513,0.684-0.513,1.301
			c0,0.434,0.148,0.772,0.448,1.013c0.303,0.242,0.673,0.459,1.113,0.65c0.442,0.192,0.926,0.379,1.451,0.563
			c0.525,0.184,1.009,0.425,1.451,0.725c0.44,0.3,0.813,0.68,1.113,1.138c0.3,0.459,0.448,1.063,0.448,1.813
			c0,0.534-0.087,1.034-0.263,1.501c-0.175,0.467-0.446,0.867-0.813,1.201c-0.365,0.334-0.82,0.596-1.361,0.787
			c-0.542,0.193-1.182,0.289-1.914,0.289c-0.951,0-1.76-0.092-2.426-0.275c-0.667-0.184-1.228-0.4-1.678-0.65l0.602-1.701
			c0.384,0.217,0.884,0.417,1.501,0.6c0.617,0.184,1.243,0.274,1.876,0.274c0.717,0,1.309-0.142,1.774-0.424
			C51.456,38.316,51.69,37.807,51.69,37.073z"/>
		<path fill="#333333" d="M60.72,37.073c0-0.5-0.15-0.892-0.45-1.176c-0.3-0.283-0.672-0.521-1.111-0.713
			c-0.442-0.192-0.927-0.375-1.451-0.55c-0.526-0.175-1.011-0.4-1.451-0.675c-0.442-0.275-0.813-0.629-1.113-1.063
			c-0.3-0.433-0.451-1.017-0.451-1.751c0-1.201,0.344-2.08,1.026-2.639c0.684-0.558,1.634-0.838,2.852-0.838
			c0.9,0,1.655,0.079,2.266,0.238c0.607,0.159,1.139,0.346,1.588,0.563l-0.477,1.651c-0.384-0.183-0.847-0.346-1.388-0.488
			c-0.542-0.141-1.122-0.213-1.739-0.213c-0.732,0-1.271,0.125-1.611,0.375c-0.343,0.25-0.515,0.684-0.515,1.301
			c0,0.434,0.15,0.772,0.45,1.013c0.3,0.242,0.671,0.459,1.113,0.65c0.442,0.192,0.925,0.379,1.451,0.563
			c0.523,0.184,1.009,0.425,1.451,0.725c0.44,0.3,0.813,0.68,1.111,1.138c0.3,0.459,0.45,1.063,0.45,1.813
			c0,0.534-0.087,1.034-0.263,1.501c-0.175,0.467-0.446,0.867-0.813,1.201s-0.82,0.596-1.361,0.787
			c-0.542,0.193-1.182,0.289-1.914,0.289c-0.95,0-1.762-0.092-2.428-0.275c-0.667-0.184-1.226-0.4-1.676-0.65l0.602-1.701
			c0.383,0.217,0.884,0.417,1.501,0.6c0.615,0.184,1.24,0.274,1.876,0.274c0.717,0,1.309-0.142,1.774-0.424
			C60.486,38.316,60.72,37.807,60.72,37.073z"/>
		<path fill="#333333" d="M63.546,34.222c0-2.118,0.471-3.74,1.414-4.865c0.94-1.126,2.297-1.689,4.063-1.689
			c0.936,0,1.747,0.154,2.439,0.463c0.689,0.309,1.263,0.75,1.713,1.326c0.45,0.575,0.783,1.268,1,2.076
			c0.216,0.809,0.325,1.705,0.325,2.689c0,2.118-0.473,3.74-1.413,4.865c-0.942,1.125-2.297,1.688-4.065,1.688
			c-0.934,0-1.747-0.154-2.438-0.463c-0.692-0.31-1.265-0.75-1.714-1.328c-0.45-0.575-0.784-1.267-1-2.076
			C63.654,36.102,63.546,35.206,63.546,34.222z M65.622,34.222c0,0.634,0.063,1.243,0.188,1.826c0.125,0.584,0.32,1.092,0.588,1.526
			c0.268,0.434,0.617,0.784,1.052,1.051c0.434,0.267,0.959,0.4,1.574,0.4c2.27,0.017,3.402-1.584,3.402-4.803
			c0-0.65-0.063-1.267-0.188-1.851c-0.125-0.583-0.319-1.092-0.587-1.526c-0.267-0.434-0.615-0.779-1.05-1.038
			c-0.435-0.258-0.959-0.388-1.577-0.388C66.756,29.402,65.622,31.003,65.622,34.222z"/>
		<path fill="#333333" d="M84.683,39.65c-0.5,0.367-1.092,0.646-1.773,0.838c-0.687,0.191-1.401,0.287-2.152,0.287
			c-0.967,0-1.784-0.153-2.451-0.463s-1.213-0.75-1.639-1.327c-0.425-0.575-0.734-1.267-0.925-2.076
			c-0.192-0.809-0.288-1.705-0.288-2.689c0-2.118,0.466-3.74,1.399-4.865c0.936-1.126,2.276-1.689,4.027-1.689
			c0.801,0,1.479,0.063,2.039,0.188c0.559,0.125,1.063,0.305,1.513,0.538l-0.575,1.726c-0.384-0.216-0.809-0.388-1.274-0.513
			s-0.967-0.188-1.5-0.188c-2.369,0-3.554,1.601-3.554,4.803c0,0.634,0.063,1.238,0.188,1.814c0.125,0.575,0.333,1.084,0.625,1.526
			s0.676,0.797,1.151,1.063c0.476,0.267,1.063,0.399,1.764,0.399c0.6,0,1.138-0.09,1.614-0.274c0.475-0.183,0.861-0.392,1.163-0.625
			L84.683,39.65z"/>
		<path fill="#333333" d="M85.934,24.166c0-0.383,0.129-0.713,0.388-0.988c0.261-0.275,0.59-0.413,0.988-0.413
			c0.4,0,0.742,0.138,1.025,0.413c0.284,0.275,0.425,0.605,0.425,0.988c0,0.384-0.142,0.7-0.425,0.951
			c-0.283,0.25-0.625,0.375-1.025,0.375c-0.398,0-0.729-0.125-0.988-0.375C86.063,24.866,85.934,24.55,85.934,24.166z
			 M86.359,27.968h2.001v12.507h-2.001V27.968z"/>
		<path fill="#333333" d="M90.937,28.894c0.633-0.383,1.371-0.667,2.213-0.85c0.844-0.183,1.724-0.275,2.641-0.275
			c0.865,0,1.563,0.117,2.088,0.35c0.524,0.234,0.926,0.538,1.201,0.913c0.273,0.375,0.459,0.788,0.551,1.238
			c0.091,0.45,0.137,0.901,0.137,1.351c0,1.001-0.023,1.976-0.075,2.927c-0.05,0.951-0.073,1.851-0.073,2.702
			c0,0.617,0.023,1.201,0.073,1.751c0.052,0.55,0.144,1.06,0.275,1.526H98.49l-0.525-1.751H97.84
			c-0.15,0.234-0.338,0.463-0.563,0.688c-0.225,0.226-0.496,0.425-0.813,0.601c-0.317,0.176-0.686,0.32-1.103,0.438
			s-0.892,0.175-1.426,0.175s-1.028-0.084-1.489-0.25c-0.456-0.167-0.854-0.402-1.188-0.713c-0.334-0.308-0.597-0.679-0.788-1.113
			c-0.192-0.434-0.288-0.926-0.288-1.476c0-0.734,0.15-1.347,0.451-1.839c0.3-0.492,0.721-0.884,1.263-1.176s1.192-0.5,1.951-0.625
			s1.597-0.188,2.514-0.188c0.233,0,0.465,0,0.688,0s0.455,0.017,0.688,0.05c0.052-0.5,0.075-0.951,0.075-1.351
			c0-0.917-0.183-1.559-0.55-1.926c-0.367-0.367-1.035-0.55-2.001-0.55c-0.284,0-0.588,0.021-0.913,0.064s-0.659,0.103-1,0.18
			c-0.342,0.077-0.667,0.172-0.976,0.283c-0.311,0.111-0.58,0.236-0.813,0.373L90.937,28.894z M94.488,38.924
			c0.469,0,0.886-0.063,1.25-0.188c0.367-0.125,0.686-0.283,0.951-0.475c0.269-0.192,0.488-0.404,0.663-0.638
			c0.175-0.233,0.304-0.458,0.39-0.675v-2.076c-0.233-0.016-0.473-0.029-0.715-0.037c-0.24-0.008-0.479-0.013-0.713-0.013
			c-0.517,0-1.021,0.029-1.514,0.087c-0.492,0.059-0.925,0.167-1.301,0.325c-0.375,0.159-0.675,0.375-0.9,0.65
			c-0.225,0.275-0.338,0.621-0.338,1.038c0,0.584,0.208,1.063,0.626,1.438C93.304,38.737,93.838,38.924,94.488,38.924z"/>
		<path fill="#333333" d="M100.392,27.968h1.951v-2.476l2.001-0.575v3.052h3.402v1.751h-3.402v6.929c0,0.867,0.108,1.48,0.325,1.839
			c0.217,0.359,0.583,0.538,1.101,0.538c0.436,0,0.801-0.044,1.103-0.136c0.3-0.091,0.634-0.213,1.001-0.363l0.448,1.526
			c-0.448,0.218-0.94,0.394-1.476,0.525s-1.11,0.198-1.727,0.198c-1.02,0-1.734-0.286-2.151-0.861s-0.625-1.538-0.625-2.889V29.72
			h-1.951V27.968z"/>
		<path fill="#333333" d="M109.021,24.166c0-0.383,0.129-0.713,0.39-0.988c0.258-0.275,0.588-0.413,0.986-0.413
			c0.4,0,0.742,0.138,1.025,0.413c0.284,0.275,0.425,0.605,0.425,0.988c0,0.384-0.142,0.7-0.425,0.951
			c-0.284,0.25-0.625,0.375-1.025,0.375c-0.398,0-0.729-0.125-0.986-0.375C109.15,24.866,109.021,24.55,109.021,24.166z
			 M109.446,27.968h2.001v12.507h-2.001V27.968z"/>
		<path fill="#333333" d="M113.523,34.222c0-2.118,0.473-3.74,1.414-4.865c0.942-1.126,2.297-1.689,4.064-1.689
			c0.934,0,1.747,0.154,2.438,0.463c0.691,0.309,1.265,0.75,1.713,1.326c0.45,0.575,0.783,1.268,1,2.076
			c0.218,0.809,0.325,1.705,0.325,2.689c0,2.118-0.471,3.74-1.413,4.865c-0.94,1.126-2.297,1.688-4.063,1.688
			c-0.936,0-1.747-0.154-2.438-0.463c-0.69-0.31-1.263-0.75-1.714-1.328c-0.45-0.575-0.784-1.267-1-2.076
			C113.632,36.102,113.523,35.206,113.523,34.222z M115.6,34.222c0,0.634,0.063,1.243,0.188,1.826
			c0.125,0.584,0.319,1.092,0.588,1.526c0.266,0.434,0.617,0.784,1.05,1.051c0.434,0.267,0.959,0.4,1.576,0.4
			c2.268,0.017,3.4-1.584,3.4-4.803c0-0.65-0.062-1.267-0.187-1.851c-0.125-0.583-0.322-1.092-0.588-1.526
			c-0.269-0.434-0.617-0.779-1.05-1.038c-0.436-0.258-0.959-0.388-1.577-0.388C116.733,29.402,115.6,31.003,115.6,34.222z"/>
		<path fill="#333333" d="M134.161,40.475v-7.127c0-1.301-0.188-2.28-0.563-2.939c-0.375-0.659-1.063-0.988-2.063-0.988
			c-0.886,0-1.613,0.238-2.189,0.713c-0.575,0.475-0.979,1.072-1.213,1.789v8.557h-2.001V27.968h1.401l0.375,1.526h0.1
			c0.4-0.534,0.938-0.971,1.613-1.313c0.676-0.342,1.479-0.513,2.414-0.513c0.684,0,1.282,0.079,1.801,0.238
			c0.517,0.159,0.946,0.438,1.288,0.838c0.342,0.4,0.601,0.938,0.774,1.614c0.177,0.675,0.264,1.53,0.264,2.564v7.555h-2
			L134.161,40.475L134.161,40.475z"/>
		<path fill="#027368" d="M37.182,52.419l0.325,3.103h0.1l0.352-3.151l3.052-9.729h2.251l3.002,9.779l0.35,3.104h0.102l0.375-3.152
			l2.126-9.73h3.477l-4.828,17.635h-2.301l-3.127-9.73l-0.425-2.677h-0.125l-0.426,2.7l-3.104,9.707H35.93l-4.803-17.635h3.728
			L37.182,52.419z"/>
		<path fill="#027368" d="M61.796,59.073c-0.5,0.399-1.18,0.737-2.039,1.013s-1.772,0.413-2.739,0.413
			c-2.018,0-3.494-0.588-4.427-1.765c-0.937-1.176-1.401-2.789-1.401-4.84c0-2.201,0.525-3.853,1.576-4.953
			c1.051-1.102,2.527-1.65,4.428-1.65c0.636,0,1.25,0.084,1.853,0.25c0.6,0.167,1.134,0.441,1.601,0.825s0.842,0.901,1.126,1.551
			c0.283,0.649,0.426,1.459,0.426,2.427c0,0.35-0.021,0.725-0.063,1.126c-0.042,0.4-0.104,0.817-0.188,1.251h-7.504
			c0.052,1.051,0.321,1.844,0.813,2.377c0.491,0.533,1.288,0.799,2.389,0.799c0.686,0,1.296-0.104,1.838-0.313
			c0.542-0.208,0.955-0.421,1.239-0.639L61.796,59.073z M57.144,49.893c-0.851,0-1.479,0.256-1.889,0.765
			c-0.409,0.509-0.655,1.188-0.738,2.038h4.653c0.065-0.9-0.071-1.592-0.413-2.075C58.415,50.136,57.877,49.893,57.144,49.893z"/>
		<path fill="#027368" d="M63.497,42.639h3.252v6.002h0.1c0.353-0.398,0.801-0.717,1.353-0.949c0.551-0.232,1.157-0.351,1.824-0.351
			c1.501,0,2.647,0.513,3.44,1.538c0.792,1.025,1.188,2.589,1.188,4.689c0,2.252-0.555,3.961-1.662,5.129
			c-1.109,1.168-2.632,1.751-4.565,1.751c-1.067,0-2.043-0.089-2.927-0.263c-0.886-0.177-1.553-0.371-2.001-0.588L63.497,42.639
			L63.497,42.639z M69.075,50.093c-0.603,0-1.09,0.154-1.465,0.464s-0.661,0.754-0.861,1.338v5.453
			c0.266,0.133,0.554,0.226,0.861,0.274c0.311,0.05,0.64,0.075,0.988,0.075c0.884,0,1.555-0.321,2.014-0.963
			c0.461-0.644,0.688-1.664,0.688-3.064C71.301,51.285,70.56,50.093,69.075,50.093z"/>
		<path fill="#027368" d="M81.082,56.697c0-0.333-0.144-0.6-0.425-0.801c-0.284-0.199-0.636-0.383-1.052-0.549
			c-0.417-0.168-0.876-0.34-1.376-0.515s-0.959-0.417-1.376-0.726s-0.768-0.699-1.051-1.176c-0.283-0.476-0.425-1.089-0.425-1.84
			c0-1.234,0.367-2.176,1.101-2.826c0.734-0.649,1.792-0.977,3.179-0.977c0.948,0,1.81,0.1,2.575,0.3
			c0.769,0.2,1.367,0.425,1.803,0.675l-0.728,2.353c-0.384-0.15-0.867-0.31-1.451-0.476c-0.584-0.168-1.176-0.25-1.774-0.25
			c-0.967,0-1.45,0.375-1.45,1.125c0,0.301,0.141,0.543,0.425,0.727s0.634,0.354,1.051,0.513s0.875,0.33,1.376,0.515
			c0.5,0.184,0.959,0.42,1.375,0.713c0.417,0.291,0.769,0.672,1.053,1.138c0.282,0.467,0.425,1.067,0.425,1.801
			c0,1.269-0.405,2.265-1.213,2.989c-0.811,0.726-2.022,1.088-3.641,1.088c-0.885,0-1.714-0.113-2.487-0.338
			c-0.775-0.225-1.405-0.488-1.891-0.788l0.9-2.427c0.383,0.218,0.892,0.431,1.526,0.639c0.633,0.209,1.282,0.313,1.949,0.313
			c0.483,0,0.871-0.09,1.163-0.273S81.082,57.13,81.082,56.697z"/>
		<path fill="#027368" d="M85.259,44.114c0-0.483,0.179-0.896,0.538-1.238c0.356-0.342,0.854-0.513,1.488-0.513
			c0.634,0,1.146,0.171,1.539,0.513c0.392,0.342,0.587,0.755,0.587,1.238s-0.196,0.888-0.587,1.213
			c-0.394,0.325-0.905,0.487-1.539,0.487c-0.636,0-1.132-0.162-1.488-0.487C85.438,45.002,85.259,44.598,85.259,44.114z
			 M85.735,47.641h3.251v12.508h-3.251V47.641z"/>
		<path fill="#027368" d="M89.887,47.641h1.727V45.29l3.254-0.926v3.276h3.051v2.752h-3.051v4.803c0,0.867,0.087,1.488,0.262,1.865
			c0.175,0.375,0.504,0.563,0.988,0.563c0.333,0,0.619-0.033,0.861-0.1c0.242-0.067,0.515-0.168,0.813-0.301l0.575,2.502
			c-0.45,0.217-0.978,0.398-1.576,0.549c-0.602,0.149-1.209,0.226-1.826,0.226c-1.15,0-1.997-0.296-2.539-0.888
			s-0.813-1.563-0.813-2.914v-6.305h-1.727L89.887,47.641L89.887,47.641z"/>
		<path fill="#027368" d="M108.798,59.073c-0.5,0.399-1.18,0.737-2.039,1.013s-1.772,0.413-2.739,0.413
			c-2.018,0-3.494-0.588-4.427-1.765c-0.935-1.176-1.401-2.789-1.401-4.84c0-2.201,0.525-3.853,1.577-4.953
			c1.05-1.102,2.526-1.65,4.427-1.65c0.636,0,1.251,0.084,1.854,0.25c0.6,0.167,1.134,0.441,1.601,0.825
			c0.468,0.384,0.844,0.901,1.125,1.551c0.283,0.649,0.427,1.459,0.427,2.427c0,0.35-0.021,0.725-0.063,1.126
			c-0.042,0.4-0.104,0.817-0.188,1.251h-7.505c0.052,1.051,0.321,1.844,0.813,2.377s1.288,0.799,2.389,0.799
			c0.686,0,1.296-0.104,1.839-0.313c0.542-0.208,0.954-0.421,1.238-0.639L108.798,59.073z M104.146,49.893
			c-0.851,0-1.479,0.256-1.889,0.765c-0.409,0.509-0.655,1.188-0.738,2.038h4.653c0.064-0.9-0.072-1.592-0.413-2.075
			C105.417,50.135,104.879,49.893,104.146,49.893z"/>
		<path fill="#333333" d="M127.833,44.49h-5.453v15.658h-2.076V44.49h-5.453v-1.852h12.982V44.49z"/>
		<path fill="#333333" d="M134.638,59.148c-0.5,0.398-1.13,0.717-1.889,0.951c-0.759,0.231-1.563,0.35-2.414,0.35
			c-0.95,0-1.776-0.154-2.479-0.463c-0.698-0.31-1.273-0.752-1.726-1.326c-0.451-0.575-0.784-1.264-1.001-2.064
			c-0.217-0.8-0.325-1.701-0.325-2.701c0-2.135,0.478-3.761,1.426-4.879c0.951-1.117,2.312-1.676,4.078-1.676
			c0.566,0,1.134,0.063,1.701,0.188s1.076,0.363,1.526,0.715c0.448,0.35,0.815,0.847,1.101,1.486
			c0.283,0.644,0.425,1.488,0.425,2.539c0,0.551-0.05,1.159-0.147,1.826h-8.03c0,0.734,0.075,1.385,0.226,1.951
			c0.151,0.566,0.385,1.047,0.7,1.438c0.317,0.394,0.729,0.692,1.238,0.901s1.129,0.313,1.863,0.313c0.565,0,1.134-0.1,1.699-0.301
			c0.567-0.199,0.992-0.434,1.276-0.699L134.638,59.148z M130.335,49.092c-0.984,0-1.772,0.26-2.364,0.775
			c-0.592,0.517-0.947,1.4-1.063,2.652h6.201c0-1.269-0.239-2.155-0.725-2.664C131.902,49.348,131.219,49.092,130.335,49.092z"/>
		<path fill="#333333" d="M144.043,60.148V53.07c0-0.668-0.03-1.246-0.088-1.738c-0.06-0.492-0.171-0.905-0.337-1.238
			c-0.167-0.333-0.404-0.584-0.715-0.75c-0.309-0.167-0.713-0.25-1.213-0.25c-0.767,0-1.403,0.234-1.914,0.7
			c-0.509,0.467-0.861,1.051-1.063,1.751v8.605h-2.001v-12.51h1.4l0.375,1.525h0.101c0.451-0.534,0.972-0.973,1.563-1.313
			c0.594-0.343,1.363-0.514,2.314-0.514c0.8,0,1.455,0.154,1.963,0.465c0.509,0.309,0.905,0.846,1.188,1.611
			c0.383-0.648,0.911-1.159,1.588-1.525c0.675-0.367,1.438-0.551,2.289-0.551c0.699,0,1.292,0.079,1.774,0.238
			c0.483,0.158,0.884,0.438,1.201,0.838c0.316,0.398,0.546,0.941,0.688,1.626c0.142,0.685,0.212,1.551,0.212,2.603v7.504h-2.001
			v-7.529c0-0.6-0.029-1.121-0.087-1.563c-0.061-0.442-0.177-0.811-0.353-1.103c-0.175-0.292-0.417-0.511-0.725-0.649
			c-0.311-0.142-0.713-0.214-1.213-0.214c-0.834,0-1.484,0.234-1.951,0.7c-0.467,0.467-0.8,1.134-1,2.001v8.354h-1.998V60.148z"/>
		<path fill="#333333" d="M155.524,47.641h1.376l0.375,1.502h0.102c0.383-0.584,0.879-1.031,1.486-1.338
			c0.608-0.309,1.307-0.464,2.091-0.464c1.667,0,2.907,0.492,3.727,1.476c0.817,0.984,1.228,2.595,1.228,4.828
			c0,1.051-0.14,1.998-0.413,2.84c-0.275,0.843-0.663,1.556-1.163,2.14s-1.105,1.034-1.813,1.353
			c-0.709,0.315-1.498,0.475-2.364,0.475c-0.615,0-1.104-0.038-1.463-0.113c-0.356-0.074-0.747-0.204-1.163-0.388v5.202h-2.001
			L155.524,47.641L155.524,47.641z M160.578,49.092c-0.853,0-1.522,0.221-2.016,0.663s-0.838,1.113-1.038,2.015v6.203
			c0.302,0.234,0.644,0.413,1.026,0.538s0.892,0.188,1.525,0.188c1.149,0,2.063-0.43,2.737-1.288
			c0.678-0.859,1.015-2.122,1.015-3.79c0-0.684-0.061-1.305-0.177-1.864c-0.115-0.559-0.304-1.034-0.563-1.426
			s-0.592-0.696-1.001-0.913C161.682,49.201,161.178,49.092,160.578,49.092z"/>
		<path fill="#333333" d="M169.783,57.072c0,0.584,0.1,1.001,0.3,1.251s0.481,0.375,0.851,0.375c0.216,0,0.45-0.017,0.7-0.05
			s0.534-0.108,0.851-0.227l0.227,1.576c-0.269,0.134-0.64,0.242-1.113,0.325c-0.476,0.083-0.889,0.125-1.239,0.125
			c-0.75,0-1.365-0.214-1.851-0.64c-0.484-0.425-0.726-1.146-0.726-2.164V42.639h2.001V57.072L169.783,57.072z"/>
		<path fill="#333333" d="M173.159,48.566c0.634-0.383,1.37-0.666,2.214-0.851c0.842-0.183,1.722-0.274,2.639-0.274
			c0.867,0,1.563,0.117,2.088,0.351c0.526,0.233,0.926,0.538,1.201,0.913s0.458,0.788,0.55,1.238
			c0.091,0.449,0.137,0.899,0.137,1.351c0,1.001-0.022,1.976-0.073,2.927c-0.052,0.951-0.075,1.853-0.075,2.702
			c0,0.617,0.022,1.201,0.075,1.751c0.05,0.551,0.141,1.059,0.273,1.526h-1.476l-0.525-1.751h-0.125
			c-0.148,0.234-0.338,0.463-0.563,0.688c-0.227,0.225-0.497,0.426-0.813,0.6c-0.315,0.177-0.684,0.322-1.101,0.438
			c-0.417,0.117-0.894,0.175-1.426,0.175c-0.534,0-1.03-0.084-1.488-0.25c-0.459-0.166-0.854-0.404-1.188-0.713
			c-0.334-0.308-0.597-0.679-0.789-1.113c-0.189-0.433-0.285-0.926-0.285-1.476c0-0.733,0.148-1.347,0.448-1.839
			c0.302-0.492,0.723-0.884,1.265-1.176s1.19-0.5,1.949-0.625c0.76-0.125,1.599-0.188,2.516-0.188c0.232,0,0.463,0,0.688,0
			c0.227,0,0.454,0.017,0.688,0.05c0.05-0.5,0.075-0.951,0.075-1.351c0-0.917-0.186-1.56-0.552-1.926
			c-0.365-0.367-1.033-0.55-2.001-0.55c-0.282,0-0.588,0.021-0.913,0.063c-0.323,0.043-0.657,0.104-1,0.181
			c-0.342,0.078-0.667,0.172-0.976,0.282c-0.309,0.111-0.58,0.236-0.813,0.373L173.159,48.566z M176.711,58.598
			c0.466,0,0.883-0.063,1.25-0.188s0.684-0.283,0.951-0.475c0.266-0.192,0.485-0.404,0.662-0.64
			c0.175-0.231,0.305-0.458,0.388-0.675v-2.076c-0.234-0.016-0.471-0.027-0.713-0.037c-0.242-0.008-0.479-0.013-0.713-0.013
			c-0.519,0-1.021,0.028-1.515,0.087c-0.49,0.061-0.925,0.167-1.301,0.325c-0.375,0.157-0.675,0.375-0.899,0.649
			c-0.226,0.274-0.338,0.621-0.338,1.037c0,0.584,0.208,1.063,0.625,1.438C175.527,58.41,176.061,58.598,176.711,58.598z"/>
		<path fill="#333333" d="M182.614,47.641h1.951v-2.476l2.001-0.575v3.053h3.402v1.75h-3.402v6.931c0,0.866,0.108,1.479,0.325,1.839
			c0.217,0.357,0.583,0.538,1.103,0.538c0.434,0,0.801-0.048,1.101-0.14c0.3-0.091,0.634-0.213,1.001-0.361l0.45,1.525
			c-0.45,0.217-0.942,0.393-1.478,0.524c-0.532,0.133-1.107,0.2-1.726,0.2c-1.018,0-1.735-0.288-2.152-0.863
			s-0.625-1.538-0.625-2.889v-7.305h-1.949L182.614,47.641L182.614,47.641z"/>
		<path fill="#333333" d="M200.1,59.148c-0.5,0.398-1.13,0.717-1.889,0.951c-0.759,0.231-1.563,0.35-2.414,0.35
			c-0.951,0-1.776-0.154-2.479-0.463c-0.698-0.31-1.273-0.752-1.726-1.326c-0.45-0.575-0.784-1.264-1-2.064
			c-0.217-0.8-0.325-1.701-0.325-2.701c0-2.135,0.478-3.761,1.426-4.879c0.95-1.117,2.311-1.676,4.078-1.676
			c0.566,0,1.136,0.063,1.701,0.188c0.567,0.125,1.076,0.363,1.526,0.715c0.45,0.35,0.815,0.847,1.101,1.486
			c0.283,0.644,0.425,1.488,0.425,2.539c0,0.551-0.05,1.159-0.148,1.826h-8.03c0,0.734,0.075,1.385,0.225,1.951
			c0.15,0.566,0.385,1.047,0.7,1.438c0.317,0.394,0.729,0.692,1.238,0.901s1.13,0.313,1.864,0.313c0.565,0,1.134-0.1,1.701-0.301
			c0.564-0.199,0.99-0.434,1.274-0.699L200.1,59.148z M195.797,49.092c-0.984,0-1.772,0.26-2.364,0.775
			c-0.592,0.517-0.947,1.4-1.063,2.652h6.204c0-1.269-0.242-2.155-0.727-2.664C197.364,49.348,196.681,49.092,195.797,49.092z"/>
		<path fill="#333333" d="M207.679,56.747c0-0.5-0.15-0.892-0.45-1.177c-0.3-0.282-0.671-0.521-1.111-0.713
			c-0.442-0.191-0.928-0.375-1.451-0.549c-0.526-0.177-1.01-0.4-1.451-0.677c-0.442-0.274-0.813-0.629-1.113-1.063
			s-0.45-1.018-0.45-1.752c0-1.199,0.344-2.078,1.025-2.639c0.684-0.558,1.635-0.838,2.852-0.838c0.9,0,1.655,0.079,2.266,0.238
			c0.607,0.158,1.138,0.346,1.588,0.563l-0.478,1.651c-0.384-0.183-0.846-0.347-1.388-0.487s-1.122-0.214-1.738-0.214
			c-0.732,0-1.271,0.125-1.611,0.375c-0.343,0.25-0.515,0.685-0.515,1.302c0,0.435,0.15,0.771,0.451,1.014
			c0.3,0.24,0.671,0.459,1.113,0.648c0.442,0.192,0.926,0.381,1.451,0.563c0.523,0.185,1.009,0.425,1.451,0.725
			c0.44,0.3,0.813,0.681,1.112,1.138c0.302,0.459,0.45,1.063,0.45,1.813c0,0.534-0.087,1.034-0.263,1.501
			c-0.175,0.467-0.446,0.867-0.813,1.201s-0.82,0.597-1.361,0.788c-0.542,0.19-1.182,0.288-1.914,0.288
			c-0.951,0-1.762-0.092-2.428-0.275c-0.667-0.183-1.226-0.4-1.676-0.65l0.602-1.699c0.384,0.217,0.884,0.417,1.501,0.6
			c0.615,0.186,1.24,0.275,1.876,0.275c0.717,0,1.309-0.143,1.774-0.426C207.445,57.989,207.679,57.48,207.679,56.747z"/>
	</g>
</g>
</svg>
