<?xml version="1.0" encoding="utf-8"?>
<!-- Generator: Adobe Illustrator 15.0.2, SVG Export Plug-In . SVG Version: 6.00 Build 0)  -->
<!DOCTYPE svg PUBLIC "-//W3C//DTD SVG 1.1//EN" "http://www.w3.org/Graphics/SVG/1.1/DTD/svg11.dtd">
<svg version="1.1" id="Layer_1" xmlns="http://www.w3.org/2000/svg" xmlns:xlink="http://www.w3.org/1999/xlink" x="0px" y="0px"
	 width="306.055px" height="77px" viewBox="0 0 306.055 77" enable-background="new 0 0 306.055 77" xml:space="preserve">
<g id="col-xs-12">
</g>
<g id="col-sm-12">
</g>
<g id="Guides">
</g>
<g id="logo_16_">
	<path id="conference" fill="#333333" d="M75.051,41.188c-0.774,0.595-1.754,1.006-2.94,1.238c-1.187,0.232-2.451,0.348-3.792,0.348
		c-1.625,0-3.147-0.276-4.565-0.83c-1.419-0.555-2.657-1.399-3.714-2.535c-1.058-1.135-1.896-2.585-2.515-4.353
		c-0.619-1.767-0.929-3.862-0.929-6.287c0-2.527,0.342-4.675,1.025-6.442c0.683-1.767,1.586-3.211,2.708-4.333
		s2.379-1.94,3.772-2.457c1.393-0.516,2.811-0.774,4.256-0.774c1.547,0,2.811,0.084,3.792,0.252c0.98,0.168,1.818,0.394,2.515,0.677
		l-0.774,2.863c-1.238-0.619-3.005-0.929-5.301-0.929c-1.058,0-2.103,0.193-3.134,0.581c-1.032,0.387-1.954,1.019-2.767,1.896
		s-1.464,2.025-1.954,3.443C60.245,24.964,60,26.705,60,28.769c0,1.857,0.232,3.482,0.696,4.875
		c0.464,1.393,1.103,2.554,1.915,3.482c0.812,0.928,1.767,1.625,2.863,2.089c1.096,0.465,2.289,0.697,3.579,0.697
		c1.161,0,2.173-0.116,3.037-0.35c0.864-0.232,1.592-0.527,2.186-0.89L75.051,41.188z M75.09,32.638
		c0-3.275,0.729-5.784,2.186-7.525c1.457-1.741,3.553-2.612,6.287-2.612c1.444,0,2.702,0.239,3.772,0.716
		c1.07,0.478,1.954,1.161,2.65,2.051c0.697,0.891,1.212,1.961,1.548,3.212c0.335,1.251,0.503,2.638,0.503,4.159
		c0,3.276-0.729,5.784-2.186,7.525c-1.458,1.741-3.554,2.611-6.288,2.611c-1.445,0-2.702-0.238-3.772-0.717
		c-1.07-0.477-1.954-1.16-2.65-2.05c-0.697-0.891-1.213-1.96-1.548-3.212C75.257,35.546,75.09,34.16,75.09,32.638z M78.301,32.638
		c0,0.98,0.097,1.922,0.29,2.824c0.193,0.903,0.497,1.69,0.909,2.36c0.413,0.671,0.954,1.213,1.625,1.625
		c0.67,0.412,1.483,0.619,2.438,0.619c3.508,0.025,5.262-2.45,5.262-7.429c0-1.006-0.097-1.96-0.29-2.863
		c-0.193-0.902-0.497-1.689-0.909-2.36c-0.413-0.67-0.955-1.205-1.625-1.605c-0.671-0.399-1.484-0.6-2.438-0.6
		C80.055,25.184,78.301,27.66,78.301,32.638z M107.359,42.311V31.283c0-2.012-0.291-3.526-0.871-4.546
		c-0.581-1.019-1.645-1.528-3.192-1.528c-1.367,0-2.496,0.367-3.385,1.103c-0.89,0.735-1.516,1.658-1.876,2.767v13.231H94.94V22.965
		h2.167l0.581,2.36h0.155c0.619-0.825,1.451-1.503,2.496-2.031c1.044-0.528,2.289-0.794,3.733-0.794
		c1.058,0,1.986,0.123,2.786,0.368c0.799,0.245,1.463,0.677,1.992,1.296c0.529,0.619,0.929,1.451,1.2,2.496
		c0.271,1.044,0.406,2.366,0.406,3.966v11.685H107.359z M112.001,22.965h3.018v-1.083c0-1.187,0.097-2.219,0.29-3.096
		c0.194-0.877,0.509-1.593,0.948-2.147c0.438-0.555,1.006-0.968,1.702-1.238c0.697-0.271,1.561-0.406,2.592-0.406
		c0.825,0,1.554,0.052,2.187,0.155c0.631,0.103,1.296,0.297,1.992,0.58l-0.696,2.592c-0.594-0.257-1.155-0.425-1.683-0.503
		c-0.529-0.077-1.025-0.115-1.49-0.115c-0.671,0-1.193,0.103-1.567,0.31c-0.374,0.206-0.645,0.509-0.813,0.909
		c-0.168,0.399-0.271,0.89-0.31,1.47s-0.058,1.258-0.058,2.031v0.542h5.146v2.708h-5.146v16.639h-3.095v-16.64H112L112.001,22.965
		L112.001,22.965z M138.195,40.764c-0.774,0.618-1.748,1.108-2.921,1.471c-1.174,0.359-2.418,0.541-3.734,0.541
		c-1.47,0-2.747-0.238-3.831-0.717c-1.083-0.477-1.973-1.16-2.669-2.05c-0.697-0.891-1.213-1.954-1.548-3.192
		c-0.335-1.238-0.503-2.631-0.503-4.179c0-3.302,0.735-5.816,2.205-7.545c1.471-1.728,3.573-2.593,6.307-2.593
		c0.876,0,1.753,0.098,2.631,0.291c0.876,0.193,1.664,0.561,2.36,1.103c0.696,0.541,1.263,1.31,1.702,2.302
		c0.438,0.993,0.658,2.303,0.658,3.928c0,0.851-0.077,1.793-0.232,2.824H126.2c0,1.136,0.116,2.142,0.348,3.018
		c0.232,0.878,0.593,1.619,1.083,2.225c0.49,0.606,1.128,1.071,1.915,1.394c0.787,0.322,1.747,0.483,2.882,0.483
		c0.877,0,1.754-0.154,2.631-0.465c0.876-0.31,1.534-0.67,1.973-1.083L138.195,40.764z M131.541,25.209
		c-1.522,0-2.741,0.4-3.656,1.199c-0.916,0.8-1.464,2.167-1.645,4.102h9.596c0-1.96-0.375-3.334-1.122-4.121
		C133.965,25.603,132.907,25.209,131.541,25.209z M150.886,25.944c-0.774-0.258-1.509-0.388-2.205-0.388
		c-1.109,0-1.987,0.304-2.631,0.91c-0.645,0.605-1.044,1.373-1.199,2.302v13.542h-3.095V22.965h2.167l0.581,2.36h0.155
		c0.489-0.877,1.077-1.554,1.76-2.031c0.683-0.478,1.554-0.716,2.612-0.716c0.748,0,1.586,0.129,2.515,0.387L150.886,25.944z
		 M167.059,40.764c-0.772,0.618-1.746,1.108-2.92,1.471c-1.175,0.359-2.418,0.541-3.734,0.541c-1.471,0-2.746-0.238-3.829-0.717
		c-1.084-0.477-1.974-1.16-2.671-2.05c-0.696-0.891-1.212-1.954-1.547-3.192c-0.335-1.238-0.503-2.631-0.503-4.179
		c0-3.302,0.735-5.816,2.205-7.545c1.471-1.728,3.572-2.593,6.308-2.593c0.877,0,1.754,0.098,2.631,0.291s1.664,0.561,2.36,1.103
		c0.695,0.541,1.264,1.31,1.701,2.302c0.439,0.993,0.658,2.303,0.658,3.928c0,0.851-0.076,1.793-0.232,2.824h-12.42
		c0,1.136,0.117,2.142,0.35,3.018c0.23,0.878,0.593,1.619,1.083,2.225c0.489,0.606,1.129,1.071,1.916,1.394
		c0.786,0.322,1.746,0.483,2.882,0.483c0.877,0,1.754-0.154,2.633-0.465c0.875-0.31,1.532-0.67,1.973-1.083L167.059,40.764z
		 M160.404,25.209c-1.522,0-2.741,0.4-3.656,1.199c-0.916,0.8-1.465,2.167-1.645,4.102h9.596c0-1.96-0.375-3.334-1.122-4.121
		C162.828,25.603,161.771,25.209,160.404,25.209z M183.039,42.311V31.283c0-2.012-0.291-3.526-0.871-4.546
		c-0.58-1.019-1.645-1.528-3.191-1.528c-1.367,0-2.496,0.367-3.387,1.103c-0.89,0.735-1.516,1.658-1.876,2.767v13.231h-3.095V22.965
		h2.166l0.58,2.36h0.154c0.619-0.825,1.451-1.503,2.496-2.031c1.045-0.528,2.289-0.794,3.733-0.794c1.058,0,1.985,0.123,2.785,0.368
		c0.799,0.245,1.464,0.677,1.991,1.296c0.529,0.619,0.931,1.451,1.201,2.496c0.271,1.044,0.405,2.366,0.405,3.966v11.685H183.039z
		 M203.003,41.034c-0.772,0.567-1.688,0.999-2.747,1.296c-1.058,0.296-2.166,0.443-3.326,0.443c-1.498,0-2.762-0.237-3.793-0.715
		s-1.877-1.16-2.533-2.051c-0.658-0.891-1.137-1.96-1.433-3.212c-0.297-1.251-0.444-2.637-0.444-4.159
		c0-3.275,0.722-5.784,2.166-7.525c1.444-1.741,3.521-2.612,6.229-2.612c1.237,0,2.289,0.098,3.153,0.291
		c0.863,0.193,1.645,0.471,2.341,0.831l-0.89,2.67c-0.595-0.335-1.252-0.6-1.975-0.793s-1.496-0.29-2.32-0.29
		c-3.664,0-5.494,2.477-5.494,7.429c0,0.98,0.097,1.915,0.289,2.805c0.193,0.891,0.517,1.678,0.969,2.36
		c0.451,0.684,1.045,1.232,1.779,1.646s1.645,0.618,2.729,0.618c0.928,0,1.76-0.142,2.495-0.426
		c0.735-0.283,1.335-0.604,1.799-0.967L203.003,41.034z M218.52,40.764c-0.774,0.618-1.748,1.108-2.922,1.471
		c-1.174,0.359-2.418,0.541-3.734,0.541c-1.469,0-2.745-0.238-3.829-0.717c-1.084-0.477-1.974-1.16-2.671-2.05
		c-0.695-0.891-1.213-1.954-1.547-3.192c-0.336-1.238-0.504-2.631-0.504-4.179c0-3.302,0.735-5.816,2.205-7.545
		c1.471-1.728,3.573-2.593,6.309-2.593c0.876,0,1.753,0.098,2.631,0.291c0.876,0.193,1.663,0.561,2.359,1.103
		c0.697,0.541,1.265,1.31,1.703,2.302c0.438,0.993,0.656,2.303,0.656,3.928c0,0.851-0.076,1.793-0.23,2.824h-12.42
		c0,1.136,0.115,2.142,0.349,3.018c0.231,0.878,0.593,1.619,1.083,2.225c0.488,0.606,1.128,1.071,1.915,1.394
		s1.747,0.483,2.883,0.483c0.877,0,1.754-0.154,2.631-0.465c0.878-0.31,1.534-0.67,1.974-1.083L218.52,40.764z M211.863,25.209
		c-1.521,0-2.74,0.4-3.656,1.199c-0.916,0.8-1.464,2.167-1.645,4.102h9.596c0-1.96-0.374-3.334-1.121-4.121
		C214.288,25.603,213.23,25.209,211.863,25.209z"/>
	<path id="tagline" fill="#333333" d="M57.173,49.9c0.196-0.027,0.418-0.051,0.665-0.069s0.502-0.032,0.763-0.042
		c0.261-0.009,0.516-0.016,0.763-0.021c0.248-0.004,0.469-0.008,0.665-0.008c0.868,0,1.61,0.122,2.226,0.364
		c0.616,0.243,1.115,0.584,1.498,1.022c0.383,0.438,0.663,0.961,0.84,1.566c0.177,0.607,0.266,1.273,0.266,2.002
		c0,0.663-0.084,1.303-0.252,1.918c-0.168,0.616-0.448,1.162-0.84,1.639s-0.908,0.858-1.547,1.147
		c-0.64,0.289-1.431,0.435-2.373,0.435c-0.149,0-0.348-0.004-0.595-0.015c-0.248-0.009-0.504-0.021-0.77-0.034
		c-0.266-0.015-0.521-0.027-0.763-0.041c-0.243-0.016-0.425-0.031-0.546-0.051V49.9z M60.184,51.469
		c-0.206,0-0.413,0.006-0.623,0.016c-0.21,0.009-0.367,0.022-0.469,0.041v6.565c0.038,0.011,0.101,0.017,0.189,0.021
		c0.089,0.006,0.185,0.01,0.287,0.015s0.201,0.01,0.294,0.015c0.093,0.004,0.164,0.008,0.21,0.008c0.542,0,0.992-0.097,1.351-0.287
		c0.359-0.191,0.644-0.445,0.854-0.764c0.21-0.317,0.357-0.684,0.441-1.1c0.084-0.415,0.126-0.842,0.126-1.281
		c0-0.382-0.037-0.768-0.112-1.154c-0.075-0.388-0.212-0.734-0.413-1.043c-0.201-0.309-0.474-0.561-0.819-0.756
		C61.154,51.566,60.715,51.469,60.184,51.469z M66.077,50.729c0-0.271,0.1-0.502,0.301-0.693s0.479-0.287,0.833-0.287
		c0.355,0,0.642,0.096,0.861,0.287c0.219,0.191,0.329,0.423,0.329,0.693c0,0.27-0.109,0.496-0.329,0.679
		c-0.22,0.182-0.506,0.272-0.861,0.272c-0.354,0-0.632-0.092-0.833-0.272C66.177,51.227,66.077,50.998,66.077,50.729z
		 M66.343,52.701h1.82v7h-1.82V52.701z M72.853,57.77c0-0.187-0.079-0.336-0.238-0.447c-0.159-0.112-0.355-0.215-0.588-0.309
		s-0.49-0.188-0.77-0.287c-0.28-0.099-0.537-0.232-0.77-0.406c-0.233-0.172-0.43-0.393-0.588-0.657
		c-0.159-0.267-0.238-0.608-0.238-1.029c0-0.69,0.205-1.218,0.616-1.582c0.411-0.362,1.003-0.546,1.778-0.546
		c0.532,0,1.013,0.057,1.442,0.168c0.429,0.112,0.765,0.238,1.008,0.378l-0.406,1.316c-0.215-0.084-0.485-0.173-0.812-0.267
		s-0.658-0.141-0.994-0.141c-0.542,0-0.812,0.21-0.812,0.63c0,0.168,0.079,0.304,0.238,0.406c0.159,0.103,0.354,0.198,0.588,0.287
		s0.49,0.185,0.77,0.286c0.28,0.104,0.537,0.236,0.77,0.398c0.233,0.164,0.429,0.376,0.588,0.639
		c0.159,0.261,0.238,0.597,0.238,1.008c0,0.709-0.227,1.267-0.679,1.673c-0.452,0.405-1.132,0.608-2.037,0.608
		c-0.495,0-0.959-0.063-1.393-0.188s-0.787-0.272-1.057-0.44l0.504-1.357c0.214,0.121,0.499,0.24,0.854,0.357
		c0.354,0.115,0.719,0.174,1.092,0.174c0.271,0,0.488-0.051,0.651-0.153S72.853,58.012,72.853,57.77z M80.819,59.268
		c-0.28,0.205-0.618,0.361-1.015,0.469c-0.396,0.107-0.805,0.162-1.225,0.162c-0.56,0-1.034-0.09-1.421-0.268
		c-0.387-0.177-0.702-0.427-0.945-0.749c-0.243-0.321-0.418-0.711-0.525-1.169c-0.107-0.457-0.161-0.961-0.161-1.512
		c0-1.186,0.266-2.098,0.798-2.737c0.532-0.639,1.307-0.959,2.324-0.959c0.513,0,0.926,0.042,1.239,0.126s0.595,0.191,0.847,0.322
		l-0.434,1.484c-0.215-0.104-0.427-0.184-0.637-0.238s-0.451-0.084-0.721-0.084c-0.504,0-0.887,0.166-1.148,0.496
		c-0.261,0.332-0.392,0.861-0.392,1.59c0,0.299,0.033,0.574,0.098,0.826s0.163,0.472,0.294,0.658
		c0.13,0.187,0.301,0.332,0.511,0.439s0.455,0.161,0.735,0.161c0.308,0,0.569-0.039,0.784-0.119
		c0.215-0.079,0.406-0.175,0.574-0.287L80.819,59.268z M81.351,56.201c0-1.186,0.289-2.098,0.868-2.737
		c0.579-0.639,1.391-0.959,2.436-0.959c0.56,0,1.045,0.089,1.456,0.267c0.411,0.178,0.751,0.428,1.022,0.75
		c0.271,0.32,0.474,0.711,0.609,1.168c0.135,0.457,0.203,0.961,0.203,1.513c0,1.187-0.287,2.098-0.861,2.737
		c-0.574,0.639-1.384,0.959-2.429,0.959c-0.56,0-1.045-0.09-1.456-0.268c-0.411-0.177-0.754-0.427-1.029-0.749
		c-0.275-0.321-0.48-0.711-0.616-1.169C81.419,57.256,81.351,56.752,81.351,56.201z M83.227,56.201c0,0.308,0.028,0.593,0.084,0.854
		c0.056,0.262,0.14,0.49,0.252,0.688c0.112,0.195,0.259,0.348,0.441,0.455s0.399,0.16,0.651,0.16c0.476,0,0.831-0.172,1.064-0.519
		c0.233-0.345,0.35-0.891,0.35-1.638c0-0.645-0.107-1.164-0.322-1.561c-0.215-0.397-0.579-0.597-1.092-0.597
		c-0.448,0-0.798,0.168-1.05,0.504S83.227,55.436,83.227,56.201z M91.459,56.369l0.238,1.078h0.07l0.196-1.106l1.19-3.64h1.96
		l-2.926,7.07h-1.106l-3.038-7.07h2.114L91.459,56.369z M101.217,59.1c-0.28,0.225-0.66,0.412-1.141,0.566
		c-0.48,0.154-0.992,0.23-1.533,0.23c-1.129,0-1.956-0.328-2.478-0.986c-0.523-0.658-0.784-1.561-0.784-2.709
		c0-1.232,0.294-2.156,0.882-2.771s1.414-0.925,2.478-0.925c0.355,0,0.7,0.047,1.036,0.142c0.336,0.093,0.635,0.246,0.896,0.461
		c0.261,0.216,0.471,0.504,0.63,0.869c0.159,0.362,0.238,0.815,0.238,1.356c0,0.196-0.012,0.406-0.035,0.63
		c-0.023,0.225-0.058,0.458-0.105,0.7h-4.2c0.028,0.588,0.179,1.03,0.455,1.33c0.276,0.299,0.721,0.448,1.337,0.448
		c0.382,0,0.726-0.06,1.029-0.176c0.303-0.117,0.534-0.235,0.693-0.356L101.217,59.1z M98.613,53.961
		c-0.476,0-0.828,0.143-1.057,0.428c-0.229,0.284-0.366,0.664-0.413,1.141h2.604c0.037-0.504-0.04-0.891-0.231-1.161
		S99.024,53.961,98.613,53.961z M106.593,54.409c-0.29-0.103-0.551-0.154-0.784-0.154c-0.327,0-0.6,0.087-0.819,0.261
		c-0.22,0.172-0.367,0.394-0.441,0.664v4.521h-1.82v-7h1.414l0.21,0.924h0.056c0.159-0.345,0.373-0.611,0.644-0.798
		s0.588-0.28,0.952-0.28c0.242,0,0.518,0.053,0.826,0.154L106.593,54.409z M117.681,59.3c-0.299,0.214-0.679,0.366-1.141,0.458
		c-0.462,0.094-0.936,0.141-1.421,0.141c-0.588,0-1.146-0.092-1.673-0.273c-0.528-0.182-0.992-0.477-1.393-0.882
		c-0.401-0.406-0.721-0.935-0.959-1.582c-0.238-0.647-0.357-1.435-0.357-2.359c0-0.961,0.133-1.766,0.399-2.415
		c0.266-0.647,0.611-1.171,1.036-1.566c0.425-0.396,0.898-0.682,1.421-0.854c0.522-0.172,1.045-0.259,1.568-0.259
		c0.56,0,1.034,0.037,1.421,0.111s0.707,0.164,0.959,0.267l-0.378,1.624c-0.215-0.104-0.469-0.177-0.763-0.225
		c-0.294-0.047-0.651-0.069-1.071-0.069c-0.775,0-1.398,0.276-1.869,0.828s-0.707,1.407-0.707,2.567
		c0,0.504,0.056,0.965,0.168,1.381c0.112,0.416,0.282,0.771,0.511,1.065c0.229,0.295,0.513,0.524,0.854,0.688
		c0.34,0.164,0.735,0.246,1.183,0.246c0.42,0,0.774-0.043,1.064-0.127c0.289-0.084,0.541-0.19,0.756-0.321L117.681,59.3z
		 M117.989,56.201c0-1.186,0.289-2.098,0.868-2.737c0.579-0.639,1.391-0.959,2.436-0.959c0.56,0,1.045,0.089,1.456,0.267
		s0.751,0.428,1.022,0.75c0.271,0.32,0.474,0.711,0.609,1.168c0.135,0.457,0.203,0.961,0.203,1.513c0,1.187-0.287,2.098-0.861,2.737
		c-0.574,0.639-1.384,0.959-2.429,0.959c-0.56,0-1.045-0.09-1.456-0.268c-0.411-0.177-0.754-0.427-1.029-0.749
		c-0.275-0.321-0.48-0.711-0.616-1.169C118.057,57.256,117.989,56.752,117.989,56.201z M119.865,56.201
		c0,0.308,0.028,0.593,0.084,0.854c0.056,0.262,0.14,0.49,0.252,0.688c0.112,0.195,0.259,0.348,0.441,0.455s0.399,0.16,0.651,0.16
		c0.476,0,0.831-0.172,1.064-0.519c0.233-0.345,0.35-0.891,0.35-1.638c0-0.645-0.107-1.164-0.322-1.561
		c-0.215-0.397-0.579-0.597-1.092-0.597c-0.448,0-0.798,0.168-1.05,0.504S119.865,55.436,119.865,56.201z M130.127,59.701v-3.977
		c0-0.568-0.082-0.979-0.245-1.231c-0.163-0.252-0.441-0.378-0.833-0.378c-0.345,0-0.637,0.101-0.875,0.301
		c-0.238,0.201-0.408,0.45-0.511,0.749v4.536h-1.82v-7h1.442l0.21,0.924h0.056c0.215-0.299,0.5-0.561,0.854-0.784
		s0.812-0.336,1.372-0.336c0.345,0,0.653,0.047,0.924,0.142c0.271,0.093,0.5,0.246,0.686,0.461c0.187,0.216,0.327,0.507,0.42,0.875
		c0.093,0.369,0.14,0.824,0.14,1.365v4.354L130.127,59.701L130.127,59.701z M132.829,52.701h0.966v-0.391
		c0-0.888,0.187-1.528,0.56-1.927c0.373-0.396,0.915-0.595,1.624-0.595c0.747,0,1.367,0.089,1.862,0.266l-0.35,1.456
		c-0.215-0.073-0.404-0.122-0.567-0.146c-0.164-0.023-0.334-0.035-0.511-0.035c-0.187,0-0.333,0.027-0.441,0.084
		c-0.108,0.056-0.187,0.143-0.238,0.259c-0.051,0.117-0.084,0.263-0.098,0.435c-0.014,0.174-0.021,0.371-0.021,0.596h1.54v1.54
		h-1.54v5.46h-1.82v-5.46h-0.966V52.701L132.829,52.701z M143.497,59.1c-0.28,0.225-0.66,0.412-1.141,0.566
		c-0.48,0.154-0.992,0.23-1.533,0.23c-1.129,0-1.956-0.328-2.478-0.986c-0.523-0.658-0.784-1.561-0.784-2.709
		c0-1.232,0.294-2.156,0.882-2.771s1.414-0.925,2.478-0.925c0.355,0,0.7,0.047,1.036,0.142c0.336,0.093,0.635,0.246,0.896,0.461
		c0.261,0.216,0.471,0.504,0.63,0.869c0.159,0.362,0.238,0.815,0.238,1.356c0,0.196-0.012,0.406-0.035,0.63
		c-0.023,0.225-0.058,0.458-0.105,0.7h-4.2c0.028,0.588,0.179,1.03,0.455,1.33c0.276,0.299,0.721,0.448,1.337,0.448
		c0.382,0,0.726-0.06,1.029-0.176c0.303-0.117,0.534-0.235,0.693-0.356L143.497,59.1z M140.893,53.961
		c-0.476,0-0.828,0.143-1.057,0.428c-0.229,0.284-0.366,0.664-0.413,1.141h2.604c0.037-0.504-0.04-0.891-0.231-1.161
		S141.304,53.961,140.893,53.961z M148.873,54.409c-0.29-0.103-0.551-0.154-0.784-0.154c-0.327,0-0.6,0.087-0.819,0.261
		c-0.22,0.172-0.367,0.394-0.441,0.664v4.521h-1.82v-7h1.414l0.21,0.924h0.056c0.159-0.345,0.373-0.611,0.644-0.798
		s0.588-0.28,0.952-0.28c0.242,0,0.518,0.053,0.826,0.154L148.873,54.409z M155.523,59.1c-0.28,0.225-0.66,0.412-1.143,0.566
		c-0.48,0.154-0.992,0.23-1.533,0.23c-1.129,0-1.956-0.328-2.478-0.986c-0.523-0.658-0.784-1.561-0.784-2.709
		c0-1.232,0.294-2.156,0.882-2.771c0.588-0.615,1.414-0.925,2.478-0.925c0.355,0,0.701,0.047,1.037,0.142
		c0.336,0.093,0.635,0.246,0.896,0.461c0.261,0.216,0.472,0.504,0.63,0.869c0.159,0.362,0.238,0.815,0.238,1.356
		c0,0.196-0.012,0.406-0.035,0.63c-0.023,0.225-0.059,0.458-0.104,0.7h-4.2c0.028,0.588,0.179,1.03,0.455,1.33
		c0.276,0.299,0.721,0.448,1.337,0.448c0.383,0,0.726-0.06,1.029-0.176c0.303-0.117,0.533-0.235,0.691-0.356L155.523,59.1z
		 M152.919,53.961c-0.476,0-0.828,0.143-1.057,0.428c-0.229,0.284-0.366,0.664-0.413,1.141h2.604
		c0.037-0.504-0.039-0.891-0.229-1.161C153.632,54.098,153.33,53.961,152.919,53.961z M161.318,59.701v-3.977
		c0-0.568-0.082-0.979-0.244-1.231c-0.164-0.252-0.441-0.378-0.834-0.378c-0.346,0-0.637,0.101-0.875,0.301
		c-0.237,0.201-0.408,0.45-0.51,0.749v4.536h-1.82v-7h1.441l0.211,0.924h0.055c0.215-0.299,0.5-0.561,0.854-0.784
		c0.354-0.224,0.813-0.336,1.372-0.336c0.347,0,0.653,0.047,0.925,0.142c0.271,0.093,0.5,0.246,0.686,0.461
		c0.188,0.216,0.326,0.507,0.421,0.875c0.093,0.369,0.14,0.824,0.14,1.365v4.354L161.318,59.701L161.318,59.701z M169.621,59.268
		c-0.28,0.205-0.619,0.361-1.016,0.469c-0.397,0.109-0.806,0.162-1.226,0.162c-0.562,0-1.034-0.09-1.422-0.268
		c-0.388-0.177-0.701-0.427-0.944-0.749c-0.242-0.321-0.418-0.711-0.523-1.169c-0.107-0.457-0.162-0.961-0.162-1.512
		c0-1.186,0.268-2.098,0.799-2.737c0.531-0.639,1.307-0.959,2.324-0.959c0.513,0,0.926,0.042,1.238,0.126
		c0.312,0.084,0.596,0.191,0.848,0.322l-0.436,1.484c-0.215-0.104-0.427-0.184-0.637-0.238s-0.449-0.084-0.722-0.084
		c-0.504,0-0.888,0.166-1.147,0.496c-0.26,0.332-0.392,0.861-0.392,1.59c0,0.299,0.032,0.574,0.099,0.826
		c0.063,0.252,0.162,0.472,0.293,0.658s0.301,0.332,0.512,0.439s0.455,0.161,0.734,0.161c0.309,0,0.569-0.039,0.784-0.119
		c0.215-0.079,0.406-0.175,0.574-0.287L169.621,59.268z M176.089,59.1c-0.28,0.225-0.659,0.412-1.142,0.566
		c-0.48,0.154-0.991,0.23-1.532,0.23c-1.13,0-1.956-0.328-2.478-0.986c-0.523-0.658-0.785-1.561-0.785-2.709
		c0-1.232,0.295-2.156,0.883-2.771s1.414-0.925,2.479-0.925c0.354,0,0.699,0.047,1.035,0.142c0.336,0.093,0.635,0.246,0.896,0.461
		c0.261,0.216,0.471,0.504,0.629,0.869c0.158,0.362,0.238,0.815,0.238,1.356c0,0.196-0.013,0.406-0.035,0.63
		c-0.023,0.225-0.059,0.458-0.104,0.7h-4.2c0.028,0.588,0.18,1.03,0.455,1.33c0.275,0.299,0.721,0.448,1.338,0.448
		c0.383,0,0.726-0.06,1.028-0.176c0.304-0.117,0.534-0.235,0.692-0.356L176.089,59.1z M173.484,53.961
		c-0.477,0-0.828,0.143-1.058,0.428c-0.229,0.284-0.366,0.664-0.411,1.141h2.604c0.037-0.504-0.04-0.891-0.23-1.161
		C174.197,54.098,173.896,53.961,173.484,53.961z M185.412,57.068c0-0.299-0.109-0.541-0.328-0.729
		c-0.221-0.188-0.495-0.355-0.826-0.511c-0.332-0.154-0.691-0.313-1.078-0.476c-0.387-0.164-0.746-0.364-1.078-0.604
		c-0.33-0.236-0.605-0.534-0.826-0.889c-0.219-0.354-0.328-0.809-0.328-1.358c0-0.476,0.078-0.889,0.238-1.237
		c0.158-0.352,0.385-0.643,0.678-0.875c0.296-0.233,0.644-0.406,1.044-0.52c0.401-0.112,0.85-0.168,1.344-0.168
		c0.569,0,1.106,0.049,1.61,0.146c0.505,0.099,0.918,0.24,1.246,0.428l-0.603,1.609c-0.206-0.131-0.514-0.25-0.925-0.357
		c-0.41-0.106-0.854-0.16-1.33-0.16c-0.447,0-0.79,0.089-1.027,0.266c-0.238,0.178-0.356,0.416-0.356,0.715
		c0,0.279,0.108,0.514,0.327,0.699c0.221,0.188,0.496,0.359,0.826,0.52c0.332,0.158,0.691,0.322,1.078,0.49s0.746,0.369,1.078,0.607
		c0.331,0.238,0.606,0.532,0.826,0.882c0.219,0.351,0.328,0.787,0.328,1.31c0,0.523-0.086,0.974-0.258,1.352
		c-0.174,0.378-0.416,0.693-0.729,0.945s-0.69,0.438-1.134,0.56c-0.443,0.121-0.932,0.183-1.464,0.183
		c-0.699,0-1.315-0.064-1.849-0.195c-0.53-0.131-0.924-0.262-1.176-0.393l0.616-1.639c0.103,0.057,0.235,0.117,0.399,0.184
		c0.162,0.064,0.348,0.125,0.553,0.182c0.205,0.056,0.422,0.104,0.65,0.14c0.229,0.038,0.465,0.058,0.707,0.058
		c0.568,0,1.006-0.097,1.309-0.287C185.262,57.753,185.412,57.461,185.412,57.068z M188.227,56.201c0-1.186,0.289-2.098,0.869-2.737
		c0.578-0.639,1.391-0.959,2.437-0.959c0.56,0,1.045,0.089,1.454,0.267c0.412,0.178,0.752,0.428,1.022,0.75
		c0.271,0.32,0.474,0.711,0.608,1.168c0.136,0.457,0.203,0.961,0.203,1.513c0,1.187-0.287,2.098-0.861,2.737
		c-0.572,0.639-1.383,0.959-2.428,0.959c-0.561,0-1.047-0.09-1.457-0.268c-0.41-0.177-0.754-0.427-1.029-0.749
		c-0.275-0.321-0.48-0.711-0.615-1.169C188.295,57.256,188.227,56.752,188.227,56.201z M190.104,56.201
		c0,0.308,0.027,0.593,0.084,0.854c0.056,0.262,0.14,0.49,0.252,0.688c0.111,0.197,0.259,0.348,0.44,0.455
		c0.183,0.107,0.399,0.16,0.651,0.16c0.476,0,0.83-0.172,1.063-0.519c0.233-0.345,0.352-0.891,0.352-1.638
		c0-0.645-0.107-1.164-0.322-1.561c-0.215-0.397-0.579-0.597-1.092-0.597c-0.449,0-0.799,0.168-1.051,0.504
		S190.104,55.436,190.104,56.201z M197.957,57.35c0,0.326,0.041,0.564,0.125,0.715c0.084,0.149,0.22,0.224,0.406,0.224
		c0.111,0,0.223-0.009,0.33-0.028c0.105-0.019,0.24-0.061,0.397-0.126l0.195,1.429c-0.147,0.074-0.377,0.148-0.687,0.225
		c-0.308,0.074-0.625,0.111-0.951,0.111c-0.532,0-0.938-0.123-1.219-0.371c-0.279-0.246-0.42-0.655-0.42-1.226v-8.399h1.82v7.447
		H197.957z M201.945,52.701v3.976c0,0.569,0.068,0.98,0.203,1.232c0.137,0.252,0.399,0.378,0.791,0.378
		c0.346,0,0.633-0.104,0.86-0.309c0.229-0.205,0.399-0.457,0.513-0.756v-4.521h1.819v4.872c0,0.383,0.019,0.759,0.056,1.127
		s0.094,0.702,0.168,1.001h-1.371l-0.322-1.036h-0.057c-0.215,0.354-0.513,0.649-0.896,0.882c-0.383,0.233-0.836,0.352-1.358,0.352
		c-0.354,0-0.672-0.047-0.951-0.142c-0.279-0.093-0.514-0.247-0.7-0.462c-0.187-0.214-0.329-0.504-0.427-0.868
		c-0.099-0.362-0.146-0.819-0.146-1.372v-4.354H201.945z M207,52.701h0.967v-1.316l1.819-0.518v1.834h1.708v1.54h-1.708v2.688
		c0,0.485,0.049,0.832,0.147,1.043c0.098,0.211,0.28,0.314,0.553,0.314c0.187,0,0.348-0.02,0.481-0.057
		c0.136-0.037,0.287-0.094,0.455-0.168l0.322,1.399c-0.252,0.122-0.546,0.226-0.882,0.31s-0.678,0.125-1.022,0.125
		c-0.644,0-1.116-0.166-1.42-0.496c-0.305-0.332-0.455-0.875-0.455-1.631v-3.528H207V52.701z M212.502,50.729
		c0-0.271,0.102-0.502,0.301-0.693c0.201-0.191,0.479-0.287,0.834-0.287s0.641,0.096,0.861,0.287
		c0.219,0.191,0.328,0.423,0.328,0.693c0,0.27-0.109,0.496-0.328,0.679c-0.221,0.182-0.507,0.272-0.861,0.272
		s-0.633-0.092-0.834-0.272C212.604,51.225,212.502,50.998,212.502,50.729z M212.77,52.701h1.818v7h-1.818V52.701z M216.044,56.201
		c0-1.186,0.289-2.098,0.868-2.737c0.578-0.639,1.391-0.959,2.436-0.959c0.562,0,1.045,0.089,1.457,0.267
		c0.41,0.178,0.75,0.428,1.021,0.75c0.271,0.32,0.474,0.711,0.609,1.168c0.135,0.457,0.203,0.961,0.203,1.513
		c0,1.187-0.287,2.098-0.861,2.737c-0.574,0.639-1.385,0.959-2.43,0.959c-0.561,0-1.045-0.09-1.455-0.268
		c-0.412-0.177-0.754-0.427-1.029-0.749c-0.275-0.321-0.48-0.711-0.616-1.169C216.111,57.256,216.044,56.752,216.044,56.201z
		 M217.92,56.201c0,0.308,0.028,0.593,0.084,0.854c0.057,0.262,0.141,0.49,0.252,0.688c0.112,0.195,0.26,0.348,0.441,0.455
		c0.181,0.107,0.398,0.16,0.65,0.16c0.477,0,0.83-0.172,1.063-0.519c0.231-0.345,0.35-0.891,0.35-1.638
		c0-0.645-0.106-1.164-0.321-1.561c-0.215-0.397-0.578-0.597-1.092-0.597c-0.447,0-0.799,0.168-1.051,0.504
		S217.92,55.436,217.92,56.201z M228.182,59.701v-3.977c0-0.568-0.082-0.979-0.244-1.231c-0.164-0.252-0.44-0.378-0.834-0.378
		c-0.345,0-0.637,0.101-0.875,0.301c-0.236,0.201-0.408,0.45-0.51,0.749v4.536h-1.82v-7h1.441l0.211,0.924h0.055
		c0.215-0.299,0.5-0.561,0.854-0.784s0.812-0.336,1.372-0.336c0.346,0,0.652,0.047,0.924,0.142c0.271,0.093,0.5,0.246,0.686,0.461
		c0.188,0.216,0.328,0.507,0.422,0.875c0.093,0.369,0.14,0.824,0.14,1.365v4.354L228.182,59.701L228.182,59.701z M234.426,57.77
		c0-0.187-0.078-0.336-0.238-0.447c-0.158-0.112-0.354-0.215-0.588-0.309c-0.231-0.094-0.49-0.188-0.77-0.287
		c-0.28-0.099-0.537-0.232-0.77-0.406c-0.234-0.172-0.431-0.393-0.588-0.657c-0.16-0.267-0.238-0.608-0.238-1.029
		c0-0.69,0.205-1.218,0.615-1.582c0.41-0.362,1.004-0.546,1.777-0.546c0.532,0,1.014,0.057,1.441,0.168
		c0.43,0.112,0.766,0.238,1.009,0.378l-0.406,1.316c-0.215-0.084-0.485-0.173-0.813-0.267c-0.326-0.094-0.656-0.141-0.992-0.141
		c-0.543,0-0.813,0.21-0.813,0.63c0,0.168,0.078,0.304,0.237,0.406s0.354,0.198,0.588,0.287s0.49,0.185,0.771,0.286
		c0.279,0.104,0.537,0.236,0.771,0.398c0.233,0.164,0.431,0.376,0.588,0.639c0.158,0.261,0.238,0.597,0.238,1.008
		c0,0.709-0.228,1.267-0.681,1.673c-0.451,0.405-1.131,0.608-2.037,0.608c-0.493,0-0.959-0.063-1.393-0.188s-0.785-0.272-1.057-0.44
		l0.504-1.357c0.215,0.121,0.499,0.24,0.854,0.357c0.355,0.115,0.719,0.174,1.092,0.174c0.271,0,0.488-0.051,0.652-0.153
		S234.426,58.012,234.426,57.77z"/>
	<path id="leap" fill="#2484B3" d="M237.747,42.311h-17.142V15.227h5.302V37.59h11.84V42.311L237.747,42.311z M253.727,40.646
		c-0.773,0.619-1.826,1.142-3.153,1.566c-1.328,0.426-2.74,0.639-4.236,0.639c-3.121,0-5.403-0.908-6.849-2.729
		c-1.444-1.818-2.168-4.313-2.168-7.486c0-3.405,0.813-5.959,2.438-7.661c1.625-1.702,3.908-2.554,6.851-2.554
		c0.979,0,1.934,0.13,2.861,0.387c0.93,0.259,1.754,0.685,2.478,1.277c0.722,0.594,1.302,1.393,1.741,2.398
		c0.438,1.006,0.658,2.258,0.658,3.753c0,0.542-0.033,1.122-0.099,1.741s-0.161,1.265-0.29,1.935h-11.607
		c0.078,1.625,0.498,2.851,1.258,3.676c0.762,0.826,1.992,1.238,3.695,1.238c1.057,0,2.006-0.16,2.844-0.483
		c0.838-0.322,1.477-0.651,1.916-0.986L253.727,40.646z M246.529,26.447c-1.315,0-2.289,0.394-2.922,1.18
		c-0.633,0.787-1.012,1.838-1.142,3.153h7.197c0.103-1.393-0.11-2.463-0.64-3.211C248.496,26.821,247.664,26.447,246.529,26.447z
		 M256.82,24.087c1.031-0.465,2.258-0.832,3.677-1.103c1.418-0.271,2.901-0.406,4.448-0.406c1.342,0,2.465,0.161,3.367,0.483
		c0.901,0.323,1.619,0.78,2.146,1.373c0.527,0.594,0.902,1.304,1.122,2.129c0.219,0.825,0.329,1.754,0.329,2.785
		c0,1.136-0.039,2.277-0.116,3.425s-0.123,2.276-0.135,3.385c-0.015,1.109,0.019,2.187,0.096,3.23
		c0.078,1.045,0.271,2.031,0.58,2.961h-4.101l-0.813-2.67h-0.192c-0.518,0.799-1.232,1.488-2.147,2.069
		c-0.916,0.58-2.097,0.87-3.541,0.87c-0.901,0-1.715-0.137-2.438-0.406c-0.722-0.271-1.34-0.658-1.855-1.161
		c-0.518-0.503-0.916-1.096-1.2-1.778c-0.282-0.685-0.425-1.451-0.425-2.304c0-1.186,0.266-2.186,0.793-2.998
		s1.29-1.471,2.282-1.974c0.993-0.503,2.18-0.851,3.561-1.045c1.38-0.193,2.921-0.251,4.623-0.174
		c0.181-1.444,0.078-2.482-0.309-3.114c-0.388-0.632-1.253-0.948-2.595-0.948c-1.006,0-2.068,0.104-3.19,0.31
		c-1.122,0.207-2.045,0.478-2.767,0.813L256.82,24.087z M263.205,38.48c1.006,0,1.806-0.226,2.398-0.678
		c0.594-0.451,1.031-0.935,1.315-1.451v-2.515c-0.8-0.077-1.567-0.09-2.303-0.038c-0.734,0.052-1.388,0.168-1.953,0.348
		c-0.568,0.181-1.021,0.439-1.354,0.774s-0.502,0.761-0.502,1.276c0,0.723,0.213,1.283,0.639,1.683
		C261.871,38.28,262.457,38.48,263.205,38.48z M275.16,22.965h3.676l0.58,2.321h0.154c0.672-0.979,1.465-1.702,2.381-2.167
		c0.915-0.464,2.031-0.696,3.347-0.696c2.425,0,4.243,0.768,5.456,2.303c1.211,1.534,1.818,4.004,1.818,7.409
		c0,1.651-0.193,3.141-0.581,4.469c-0.388,1.329-0.962,2.457-1.722,3.386c-0.763,0.929-1.689,1.638-2.785,2.128
		c-1.099,0.489-2.355,0.735-3.773,0.735c-0.799,0-1.457-0.06-1.973-0.176c-0.518-0.115-1.032-0.303-1.549-0.561v7.932h-5.029V22.965
		L275.16,22.965z M283.789,26.679c-0.98,0-1.748,0.246-2.303,0.735c-0.555,0.49-0.986,1.226-1.297,2.206v8.048
		c0.36,0.284,0.756,0.509,1.182,0.677c0.425,0.168,0.986,0.251,1.684,0.251c1.443,0,2.526-0.509,3.25-1.528
		c0.721-1.019,1.082-2.701,1.082-5.049c0-1.702-0.283-3.018-0.852-3.946C285.969,27.144,285.053,26.679,283.789,26.679z"/>
	<path id="check_16_" fill="#2484B3" d="M52.657,13.948L41.82,13.934l-1.421,2.919c-2.689-1.485-5.776-2.335-9.06-2.335
		c-10.373,0-18.812,8.439-18.812,18.811c0,10.373,8.439,18.812,18.812,18.812S50.15,43.702,50.15,33.329
		c0-3.353-0.892-6.496-2.436-9.225L52.657,13.948z M47.708,33.329c0,9.024-7.342,16.368-16.368,16.368
		c-9.026,0-16.368-7.344-16.368-16.368c0-1.977,0.37-3.864,1.015-5.62l8.9,18.227L30.3,34.813l-4.769-9.767h-8.285
		c2.85-4.829,8.092-8.085,14.093-8.085c2.9,0,5.623,0.766,7.987,2.095L25.604,47.254h1.936l4.562-8.003l-3.27,8.003h1.677
		l4.562-8.004l-3.27,8.004h1.677l4.561-8.002l-3.269,8.002h1.68l9.923-20.389C47.228,28.85,47.708,31.034,47.708,33.329z"/>
</g>
</svg>
