<svg xmlns="http://www.w3.org/2000/svg" viewBox="0 0 920 258">
  <defs>
    <style>
      .cls-1 {
        font-size: 95.31px;
        font-family: NimbusSan-Bol, Nimbus Sans;
        font-weight: 700;
        letter-spacing: -0.07em;
      }

      .cls-1, .cls-10 {
        fill: #8fcb3c;
      }

      .cls-2 {
        letter-spacing: -0.071em;
      }

      .cls-3 {
        letter-spacing: -0.072em;
      }

      .cls-4 {
        letter-spacing: -0.05em;
      }

      .cls-5 {
        letter-spacing: -0.07em;
      }

      .cls-6 {
        letter-spacing: -0.084em;
      }

      .cls-7 {
        letter-spacing: -0.082em;
      }

      .cls-8 {
        letter-spacing: -0.094em;
      }

      .cls-9 {
        fill: #5fb335;
      }
    </style>
  </defs>
  <title>drewbie-logo</title>
  <g id="Layer_1" data-name="Layer 1">
    <text class="cls-1" transform="translate(253.111 156.963)">D<tspan class="cls-2" x="58.9" y="0">r</tspan><tspan class="cls-3" x="88.352" y="0">e</tspan><tspan class="cls-4" x="135.244" y="0">w</tspan><tspan class="cls-5" x="198.339" y="0">bie </tspan><tspan class="cls-6" x="334.915" y="0">g</tspan><tspan x="382.855" y="0">oo</tspan><tspan class="cls-7" x="481.978" y="0">b</tspan><tspan class="cls-8" x="529.632" y="0">y</tspan><tspan class="cls-9" x="567.853" y="0">.</tspan></text>
    <rect class="cls-9" x="506.129" y="93.2" width="13.695" height="11.092"/>
  </g>
  <g id="Layer_3" data-name="Layer 3">
    <path class="cls-10" d="M149.848,115.019a75.582,75.582,0,0,0,3.127-10.863,49.268,49.268,0,0,0,.609-17.929,35.713,35.713,0,0,1,3.694-3.089c.48-.351,1-.708,1.584-1.085a50.213,50.213,0,0,1,.92,17.73,66.581,66.581,0,0,1-1.592,8.658,82.109,82.109,0,0,1-2.382,7.911l-.243.69.73-.023c2.368-.072,4.743-.042,7.078.09a75.5,75.5,0,0,1-7.7,5.916,55.915,55.915,0,0,1-6.573-6.031C149.352,116.347,149.6,115.684,149.848,115.019Zm-56.6-19.788A41.84,41.84,0,0,0,94.432,99.7c.278.84.547,1.59.824,2.294a49.933,49.933,0,0,0,9.738,15.322,68.52,68.52,0,0,1,7.434-1.044,48.244,48.244,0,0,1-10.322-13.591h0a37.826,37.826,0,0,1-1.967-4.838c-.289-.883-.533-1.749-.723-2.576a46.438,46.438,0,0,1-.119-19.8c-1.924-.216-3.962-.349-6.072-.4A53.417,53.417,0,0,0,93.246,95.231Zm40.71-37.889a71.2,71.2,0,0,1,5.493,4.568,47.493,47.493,0,0,1,11.659,15.857c.522-.413,1-.772,1.464-1.11,1.156-.841,2.331-1.608,3.577-2.34a53.46,53.46,0,0,0-11.95-16.2c-1.653-1.581-3.473-3.152-5.407-4.671A101.471,101.471,0,0,0,111.583,38.54l-2.113-.713-1.293,1.816A102.9,102.9,0,0,0,95.836,64.726q-.378,1.163-.727,2.357c2.095.091,4.164.266,6.167.52a99.479,99.479,0,0,1,10.316-22.226l.221-.356.389.157A98.074,98.074,0,0,1,133.956,57.342Zm6.176,56.069A55.964,55.964,0,0,0,149,114.427a75.5,75.5,0,0,0,2.755-9.314c-1.967,1.265-3.905,2.637-5.779,4.087l-.578.448-.208-.7a82.573,82.573,0,0,0-2.722-7.8,66.76,66.76,0,0,0-3.8-7.94A50.226,50.226,0,0,0,127.5,79.4c-.249.647-.462,1.243-.643,1.808a35.524,35.524,0,0,0-1.174,4.671,49.27,49.27,0,0,1,10.046,14.863,75.391,75.391,0,0,1,3.855,10.626C139.772,112.053,139.958,112.737,140.132,113.411ZM82.157,128.633a41.788,41.788,0,0,0,3.586,2.917c.718.516,1.377.965,2.015,1.371a49.917,49.917,0,0,0,16.884,6.673,68.191,68.191,0,0,1,5.4-5.215,48.223,48.223,0,0,1-16.34-4.928h0a37.658,37.658,0,0,1-4.434-2.757c-.753-.545-1.46-1.1-2.1-1.659a46.443,46.443,0,0,1-11.733-15.947c-1.684.956-3.411,2.047-5.145,3.248A53.394,53.394,0,0,0,82.157,128.633ZM92.821,74.051a71.191,71.191,0,0,1,7.129.467A47.512,47.512,0,0,1,118.7,80.493c.179-.64.352-1.21.532-1.758.441-1.36.94-2.671,1.519-4a53.474,53.474,0,0,0-19.189-6.08c-2.267-.307-4.663-.509-7.121-.6A101.529,101.529,0,0,0,63.669,71.99l-2.128.665.021,2.229a102.917,102.917,0,0,0,4.759,27.547q.378,1.163.8,2.334c1.748-1.158,3.525-2.233,5.3-3.2a99.459,99.459,0,0,1-4.719-24.045l-.03-.417.407-.1A98.162,98.162,0,0,1,92.821,74.051Zm37.953,41.731a56.011,56.011,0,0,0,7.768-4.388,75.678,75.678,0,0,0-3.246-9.155c-.848,2.18-1.61,4.429-2.273,6.7l-.2.7-.581-.444a82.4,82.4,0,0,0-6.787-4.711,66.764,66.764,0,0,0-7.743-4.189,50.22,50.22,0,0,0-17.147-4.6c.179.67.357,1.277.543,1.842a35.6,35.6,0,0,0,1.8,4.468,49.256,49.256,0,0,1,16.864,6.12,75.424,75.424,0,0,1,9.364,6.33C129.685,114.894,130.238,115.338,130.774,115.782ZM92.818,162.173a41.605,41.605,0,0,0,4.616.252c.884,0,1.681-.028,2.436-.075a49.927,49.927,0,0,0,17.582-4.525,68.1,68.1,0,0,1,1.3-7.394,48.233,48.233,0,0,1-16.116,5.617h0a37.645,37.645,0,0,1-5.209.375c-.929,0-1.828-.033-2.674-.108a46.418,46.418,0,0,1-18.866-6c-.8,1.763-1.555,3.66-2.253,5.652A53.414,53.414,0,0,0,92.818,162.173ZM69.363,111.747a71.15,71.15,0,0,1,6.042-3.812,47.514,47.514,0,0,1,18.684-6.189c-.231-.623-.426-1.186-.6-1.735-.442-1.36-.809-2.714-1.12-4.125a53.444,53.444,0,0,0-19.1,6.36c-2.015,1.083-4.071,2.328-6.113,3.7a101.5,101.5,0,0,0-22.587,21.27L43.237,129l1.327,1.791a102.934,102.934,0,0,0,20.042,19.488q.989.72,2.017,1.42c.734-1.964,1.54-3.878,2.4-5.705A99.511,99.511,0,0,1,51.073,129.32L50.8,129l.269-.321A98.131,98.131,0,0,1,69.363,111.747ZM124.6,123.2a55.979,55.979,0,0,0,3.7-8.116,75.471,75.471,0,0,0-8.007-5.5c.595,2.261,1.3,4.529,2.1,6.759l.247.688-.731-.018a82.246,82.246,0,0,0-8.26.178,66.7,66.7,0,0,0-8.727,1.162,50.209,50.209,0,0,0-16.578,6.354c.538.437,1.04.823,1.521,1.171a35.685,35.685,0,0,0,4.08,2.559,49.268,49.268,0,0,1,17.24-4.961,75.427,75.427,0,0,1,11.3-.383C123.194,123.122,123.9,123.157,124.6,123.2Zm-3.439,59.841a41.732,41.732,0,0,0,3.883-2.509c.713-.523,1.343-1.011,1.927-1.493a49.921,49.921,0,0,0,11.563-13.995,68.166,68.166,0,0,1-3.29-6.748,48.249,48.249,0,0,1-9.737,14.017h0a37.666,37.666,0,0,1-3.993,3.366c-.75.547-1.5,1.047-2.227,1.484a46.428,46.428,0,0,1-18.792,6.231c.39,1.9.893,3.876,1.5,5.9A53.4,53.4,0,0,0,121.158,183.041ZM72.543,156.032A71.331,71.331,0,0,1,75.19,149.4a47.49,47.49,0,0,1,11.478-15.988c-.553-.369-1.042-.709-1.508-1.05-1.157-.839-2.25-1.719-3.33-2.679A53.453,53.453,0,0,0,70.117,146.05c-.993,2.061-1.925,4.277-2.771,6.586a101.516,101.516,0,0,0-5.771,30.484l-.025,2.23,2.126.668a102.9,102.9,0,0,0,27.669,3.987q1.222,0,2.467-.037c-.561-2.021-1.034-4.043-1.411-6.026A99.508,99.508,0,0,1,68.075,181l-.407-.1.029-.418A98.116,98.116,0,0,1,72.543,156.032Zm51.417-23.2a55.98,55.98,0,0,0-1.773-8.743,75.5,75.5,0,0,0-9.71.258c1.811,1.48,3.715,2.9,5.673,4.233l.6.411-.6.415a82.311,82.311,0,0,0-6.578,5,66.64,66.64,0,0,0-6.377,6.07,50.2,50.2,0,0,0-9.677,14.884c.692.038,1.325.055,1.919.054a35.565,35.565,0,0,0,4.8-.328,49.265,49.265,0,0,1,11.032-14.147,75.429,75.429,0,0,1,8.914-6.95C122.779,133.594,123.372,133.205,123.96,132.832Zm32.392,50.434a42.174,42.174,0,0,0,1.666-4.312c.269-.842.492-1.608.681-2.34a49.908,49.908,0,0,0,1.129-18.12,67.882,67.882,0,0,1-6.628-3.525,48.252,48.252,0,0,1,.361,17.063v0a37.772,37.772,0,0,1-1.253,5.07c-.285.884-.6,1.728-.929,2.509A46.426,46.426,0,0,1,139.84,195.7c1.429,1.305,3,2.611,4.679,3.889A53.408,53.408,0,0,0,156.352,183.266Zm-55.206,6.725a71.214,71.214,0,0,1-1.759-6.925,47.517,47.517,0,0,1-.113-19.681c-.664.027-1.259.038-1.836.037-1.43,0-2.831-.069-4.269-.21a53.44,53.44,0,0,0,.147,20.129c.408,2.251.956,4.591,1.629,6.957a101.5,101.5,0,0,0,13.249,28.054l1.29,1.819,2.113-.709a102.919,102.919,0,0,0,24.729-13.038q.989-.72,1.973-1.481c-1.641-1.3-3.213-2.662-4.683-4.046a99.469,99.469,0,0,1-21.41,11.919l-.388.157-.223-.355A98.076,98.076,0,0,1,101.146,189.991ZM129.106,141a55.994,55.994,0,0,0-6.573-6.031,75.407,75.407,0,0,0-7.7,5.916c2.336.133,4.711.162,7.079.09l.73-.023-.243.69a82.209,82.209,0,0,0-2.383,7.911,66.919,66.919,0,0,0-1.592,8.658,50.242,50.242,0,0,0,.92,17.731c.582-.377,1.105-.735,1.584-1.086a35.732,35.732,0,0,0,3.695-3.088,49.274,49.274,0,0,1,.609-17.93,75.405,75.405,0,0,1,3.127-10.862C128.6,142.31,128.85,141.646,129.106,141Zm55.85,21.763a41.836,41.836,0,0,0-1.187-4.468c-.277-.84-.547-1.59-.824-2.294a49.91,49.91,0,0,0-9.737-15.322,68.54,68.54,0,0,1-7.435,1.044A48.21,48.21,0,0,1,176.1,155.314h0a37.583,37.583,0,0,1,1.967,4.837c.289.883.533,1.749.724,2.576a46.438,46.438,0,0,1,.119,19.8c1.924.216,3.962.349,6.071.4A53.4,53.4,0,0,0,184.956,162.762Zm-40.71,37.889a71.009,71.009,0,0,1-5.493-4.568,47.5,47.5,0,0,1-11.659-15.856c-.522.412-1,.771-1.464,1.109-1.157.841-2.331,1.608-3.578,2.34A53.452,53.452,0,0,0,134,199.874c1.653,1.581,3.472,3.152,5.407,4.671a101.471,101.471,0,0,0,27.209,14.908l2.112.713,1.293-1.815a102.89,102.89,0,0,0,12.342-25.083q.378-1.164.727-2.358c-2.095-.091-4.165-.265-6.168-.52a99.486,99.486,0,0,1-10.315,22.226l-.222.356-.388-.156A98.129,98.129,0,0,1,144.246,200.651Zm-6.176-56.069a55.99,55.99,0,0,0-8.863-1.016,75.51,75.51,0,0,0-2.756,9.314c1.967-1.265,3.906-2.637,5.779-4.087l.578-.448.209.7a82.193,82.193,0,0,0,2.722,7.8,66.913,66.913,0,0,0,3.8,7.94,50.23,50.23,0,0,0,11.166,13.8c.25-.647.462-1.243.644-1.808a35.641,35.641,0,0,0,1.173-4.671,49.27,49.27,0,0,1-10.046-14.863,75.642,75.642,0,0,1-3.855-10.626C138.429,145.94,138.243,145.256,138.07,144.582Zm57.975-15.222a42.135,42.135,0,0,0-3.586-2.917c-.718-.516-1.377-.965-2.015-1.371A49.917,49.917,0,0,0,173.56,118.4a68.186,68.186,0,0,1-5.4,5.215,48.245,48.245,0,0,1,16.34,4.928h0a37.546,37.546,0,0,1,4.435,2.758c.753.544,1.459,1.1,2.1,1.658a46.443,46.443,0,0,1,11.733,15.947c1.683-.956,3.41-2.047,5.145-3.248A53.423,53.423,0,0,0,196.045,129.36Zm-10.664,54.582a71.191,71.191,0,0,1-7.129-.467A47.485,47.485,0,0,1,159.5,177.5c-.18.64-.352,1.21-.532,1.758-.442,1.36-.941,2.672-1.519,4a53.474,53.474,0,0,0,19.189,6.08c2.267.308,4.662.509,7.12.6A101.486,101.486,0,0,0,214.532,186l2.128-.665-.021-2.229a102.9,102.9,0,0,0-4.758-27.547q-.378-1.163-.8-2.334c-1.748,1.158-3.525,2.233-5.295,3.2a99.508,99.508,0,0,1,4.719,24.045l.029.418-.406.1A98.122,98.122,0,0,1,185.381,183.942Zm-37.954-41.731a56.057,56.057,0,0,0-7.767,4.388,75.277,75.277,0,0,0,3.246,9.155c.848-2.179,1.609-4.429,2.272-6.7l.205-.7.58.444a82.415,82.415,0,0,0,6.788,4.711,66.6,66.6,0,0,0,7.743,4.189,50.209,50.209,0,0,0,17.146,4.6c-.178-.67-.357-1.277-.542-1.841a35.633,35.633,0,0,0-1.8-4.468,49.3,49.3,0,0,1-16.864-6.12,75.47,75.47,0,0,1-9.364-6.331C148.517,143.1,147.964,142.655,147.427,142.211ZM185.383,95.82a41.575,41.575,0,0,0-4.615-.252c-.885,0-1.682.029-2.437.075a49.9,49.9,0,0,0-17.581,4.526,68.142,68.142,0,0,1-1.305,7.393,48.238,48.238,0,0,1,16.117-5.617h0a37.622,37.622,0,0,1,5.209-.375c.929,0,1.828.033,2.673.108a46.418,46.418,0,0,1,18.866,6c.8-1.763,1.556-3.66,2.253-5.651A53.391,53.391,0,0,0,185.383,95.82Zm23.455,50.426a71.15,71.15,0,0,1-6.042,3.812,47.51,47.51,0,0,1-18.683,6.189c.231.623.426,1.186.6,1.735.442,1.36.809,2.714,1.12,4.125a53.431,53.431,0,0,0,19.1-6.36c2.014-1.083,4.071-2.328,6.113-3.7a101.528,101.528,0,0,0,22.587-21.27l1.33-1.789-1.327-1.79A102.874,102.874,0,0,0,213.6,107.71q-.99-.718-2.018-1.42c-.733,1.964-1.539,3.878-2.4,5.7a99.507,99.507,0,0,1,17.951,16.679l.269.32-.269.322A98.1,98.1,0,0,1,208.838,146.246ZM153.6,134.793a55.972,55.972,0,0,0-3.7,8.116,75.369,75.369,0,0,0,8.007,5.5c-.6-2.261-1.3-4.529-2.1-6.759l-.247-.688.731.018a82.246,82.246,0,0,0,8.26-.178,66.688,66.688,0,0,0,8.726-1.162,50.206,50.206,0,0,0,16.579-6.354c-.539-.437-1.04-.823-1.522-1.171a35.671,35.671,0,0,0-4.079-2.559,49.253,49.253,0,0,1-17.24,4.961,75.432,75.432,0,0,1-11.3.383C155.008,134.871,154.3,134.837,153.6,134.793Zm3.439-59.841a41.846,41.846,0,0,0-3.882,2.509c-.713.523-1.343,1.011-1.927,1.493a49.9,49.9,0,0,0-11.563,14,68.166,68.166,0,0,1,3.29,6.748A48.23,48.23,0,0,1,152.7,85.68h0a37.547,37.547,0,0,1,3.994-3.365c.75-.548,1.5-1.048,2.226-1.485A46.439,46.439,0,0,1,177.71,74.6c-.389-1.9-.893-3.876-1.5-5.9A53.4,53.4,0,0,0,157.043,74.952Zm48.616,27.009a71.23,71.23,0,0,1-2.648,6.636,47.5,47.5,0,0,1-11.477,15.988c.553.369,1.041.709,1.507,1.05,1.157.84,2.25,1.72,3.331,2.679a53.47,53.47,0,0,0,11.713-16.371c.992-2.061,1.925-4.277,2.771-6.586a101.511,101.511,0,0,0,5.771-30.484l.025-2.23-2.126-.668a102.915,102.915,0,0,0-27.67-3.987q-1.222,0-2.466.038c.561,2.02,1.034,4.042,1.411,6.026a99.475,99.475,0,0,1,24.326,2.942l.406.1-.028.418A98.162,98.162,0,0,1,205.659,101.961Zm-51.417,23.2a56.094,56.094,0,0,0,1.772,8.743,75.514,75.514,0,0,0,9.711-.258c-1.811-1.479-3.716-2.9-5.674-4.233l-.6-.411.6-.415a82.311,82.311,0,0,0,6.578-5A66.876,66.876,0,0,0,173,117.519a50.238,50.238,0,0,0,9.677-14.885c-.692-.037-1.325-.055-1.919-.053a35.539,35.539,0,0,0-4.8.327,49.265,49.265,0,0,1-11.032,14.147,75.36,75.36,0,0,1-8.915,6.95C155.423,124.4,154.829,124.788,154.242,125.161ZM121.85,74.727a41.714,41.714,0,0,0-1.666,4.312c-.269.842-.492,1.608-.682,2.34a49.933,49.933,0,0,0-1.128,18.12A68.215,68.215,0,0,1,125,103.024a48.23,48.23,0,0,1-.362-17.063v0a37.769,37.769,0,0,1,1.252-5.07c.285-.884.6-1.728.929-2.509a46.439,46.439,0,0,1,11.541-16.087c-1.43-1.3-3-2.611-4.679-3.889A53.391,53.391,0,0,0,121.85,74.727ZM177.056,68a71.214,71.214,0,0,1,1.759,6.925,47.516,47.516,0,0,1,.112,19.681c.664-.026,1.259-.038,1.837-.037,1.429,0,2.831.069,4.269.21a53.46,53.46,0,0,0-.147-20.129c-.408-2.251-.957-4.591-1.629-6.957a101.487,101.487,0,0,0-13.25-28.054l-1.29-1.818-2.113.708A102.921,102.921,0,0,0,141.876,51.57q-.988.718-1.973,1.48c1.641,1.3,3.212,2.662,4.683,4.046A99.469,99.469,0,0,1,166,45.177l.388-.157.223.355A98.161,98.161,0,0,1,177.056,68Z"/>
  </g>
</svg>
