<svg id="Layer_2" data-name="Layer 2" xmlns="http://www.w3.org/2000/svg" viewBox="0 0 500 174.578">
  <defs>
    <style>
      .cls-1 {
        fill: #ec802e;
      }

      .cls-2 {
        fill: #565d6e;
      }

      .cls-3 {
        fill: #717382;
      }
    </style>
  </defs>
  <title>here-and-there-logo</title>
  <path id="Here_There" data-name="Here &amp; There" class="cls-1" d="M25.388,66.672h10.3V86.8H53.494V66.672H63.756v53.346H53.494V96.626H35.688v23.392h-10.3ZM174.144,89.079,149.168,108.77a10.575,10.575,0,0,0,7.033,2.975,11.526,11.526,0,0,0,7.532-2.774,13.2,13.2,0,0,0,5.088-8.952h9a18.972,18.972,0,0,1-1.836,7.677,23.371,23.371,0,0,1-6.8,8.065q-7.291,5.746-15.5,4.764a19.934,19.934,0,0,1-13.667-7.905A20.6,20.6,0,0,1,135.3,97.241a19.551,19.551,0,0,1,7.769-13.722q7.319-5.769,15.6-4.7T173,87.577Zm-12.6.007a9.946,9.946,0,0,0-6.361-1.819,11.226,11.226,0,0,0-6.543,2.528,11.856,11.856,0,0,0-4.268,6.319,12.938,12.938,0,0,0,.313,6.265Zm56.717,26.8a52.494,52.494,0,0,0,4.818-8.43V89.835l-4.014-.856q-2.2,12.6-6.431,19.242L200.143,90.213q13.345-7.5,13.345-19.027a15.68,15.68,0,0,0-4.367-11.335q-4.371-4.528-12.087-4.53-7.665,0-12.461,4.771a15.118,15.118,0,0,0-4.8,11.041q0,6.912,6.377,16.828-9.024,4.194-12.932,10.594h6.111l-.052,1.514a20.528,20.528,0,0,1-1.98,8.264,24.132,24.132,0,0,1-6.222,7.76,21.383,21.383,0,0,0,4.866,8.768q5.706,6.3,16.319,6.3,10.29,0,18.7-7.557,5.68,7.185,12.6,7.182a21.651,21.651,0,0,0,5.788-.964v-9.434a18.13,18.13,0,0,1-3.376.429Q222.224,120.815,218.258,115.885Zm-25.833-50.38a6.57,6.57,0,0,1,4.824-1.983,5.991,5.991,0,0,1,4.77,2.117,8.048,8.048,0,0,1,1.822,5.44q0,7.557-8.522,12.488-4.878-7.558-4.877-12.7A7.237,7.237,0,0,1,192.425,65.505Zm1.34,56.543a11.11,11.11,0,0,1-8.656-3.645,13.444,13.444,0,0,1-3.3-9.379q0-8.843,9.058-14.255l14.846,21.6A15.481,15.481,0,0,1,193.765,122.048Zm21.31-55.376h29.483V76.681h-9.719v43.337h-10.3V76.681h-9.465ZM384.713,99.825l.023-.176V96.266l-6.582,5.189v7.7a13.41,13.41,0,0,0,2.017-1.33A11.682,11.682,0,0,0,384.713,99.825Zm6.774-10.747L366.513,108.77a10.58,10.58,0,0,0,7.032,2.974,11.54,11.54,0,0,0,7.533-2.774,13.193,13.193,0,0,0,5.086-8.953l9,0a18.971,18.971,0,0,1-1.835,7.676,23.339,23.339,0,0,1-6.8,8.063q-7.29,5.751-15.5,4.764a19.928,19.928,0,0,1-13.668-7.905,20.593,20.593,0,0,1-4.713-15.378,19.55,19.55,0,0,1,7.769-13.721q7.317-5.77,15.6-4.7t14.341,8.759Zm-12.6.007a9.946,9.946,0,0,0-6.361-1.819,11.234,11.234,0,0,0-6.543,2.527,11.858,11.858,0,0,0-4.268,6.32,12.936,12.936,0,0,0,.314,6.264ZM112.608,106.353,107.662,95.11l-11.253,4.937,4.011,1.561a13.114,13.114,0,0,1-4.791,7.363,11.526,11.526,0,0,1-7.532,2.774,10.578,10.578,0,0,1-7.034-2.975l24.976-19.691-1.139-1.5q-6.063-7.69-14.341-8.76t-15.6,4.7a19.548,19.548,0,0,0-7.769,13.722,20.6,20.6,0,0,0,4.714,15.379,19.93,19.93,0,0,0,13.667,7.905q8.211.984,15.5-4.764a23.382,23.382,0,0,0,6.8-8.065,17.855,17.855,0,0,0,1.063-2.77ZM76.265,96.114A11.845,11.845,0,0,1,80.533,89.8a11.221,11.221,0,0,1,6.542-2.528,9.946,9.946,0,0,1,6.361,1.819L76.578,102.379A12.938,12.938,0,0,1,76.265,96.114Zm61.864-12.52a18.03,18.03,0,0,0-5.249-3.172,14.422,14.422,0,0,0-3.806-.876,8.838,8.838,0,0,0-5,1.523,10.6,10.6,0,0,0-3.663,4.46V80.561h-8.486v39.457h9.828V104.061l-.037-1.922q0-8.269,1.577-11.1a5.261,5.261,0,0,1,3.863-2.829c4.259-.9,6.287,3.143,6.287,3.143C134.98,88.807,138.129,83.594,138.129,83.594Zm217.351,0a18.042,18.042,0,0,0-5.25-3.172,14.422,14.422,0,0,0-3.806-.876,8.838,8.838,0,0,0-5,1.523,10.6,10.6,0,0,0-3.663,4.46V80.561h-8.486v39.457H339.1V104.061l-.036-1.922q0-8.269,1.577-11.1a5.258,5.258,0,0,1,3.862-2.829c4.259-.9,6.287,3.143,6.287,3.143Zm-83.6,19.126v11.958l2.171,2.173,7.585-5.9V93.942q0-6.817-3.446-10.335a13.393,13.393,0,0,0-9.9-4.061A15.06,15.06,0,0,0,262.34,80.8,22.578,22.578,0,0,0,256.5,84.55V65.33h-9.827v54.688H256.5V104.169a44.891,44.891,0,0,1,.437-8.123,10.567,10.567,0,0,1,2.991-5.44,7.348,7.348,0,0,1,5.168-1.994,6.264,6.264,0,0,1,3.9,1.2,6.467,6.467,0,0,1,2.231,3.627A42.71,42.71,0,0,1,271.878,102.72Zm46.715-2.7a13.2,13.2,0,0,1-5.087,8.952,11.54,11.54,0,0,1-7.532,2.775,10.576,10.576,0,0,1-7.034-2.975l24.976-19.691-1.14-1.5q-6.061-7.689-14.34-8.759t-15.6,4.7a19.557,19.557,0,0,0-7.769,13.721,19.826,19.826,0,0,0,1.936,11l-2.808,2.186-10.148,7.9-3.195-3.2v12.284l12.288.012-3.652-3.655,9.4-7.316,2.526-1.965a19.512,19.512,0,0,0,12.036,6.034q8.211.986,15.5-4.763a23.354,23.354,0,0,0,6.8-8.066,18.966,18.966,0,0,0,1.835-7.675Zm-24.451-3.905a11.847,11.847,0,0,1,4.268-6.32,11.215,11.215,0,0,1,6.542-2.526,9.935,9.935,0,0,1,6.361,1.819l-16.858,13.292A12.926,12.926,0,0,1,294.142,96.113Z"/>
  <path class="cls-2" d="M127.192,135.8h2.782v3.972a11.147,11.147,0,0,1,3.791-3.4,10.066,10.066,0,0,1,4.783-1.133,10.669,10.669,0,0,1,7.88,3.318,10.961,10.961,0,0,1,3.275,7.987,11.155,11.155,0,0,1-3.246,8.1,10.92,10.92,0,0,1-12.573,2.255,11.921,11.921,0,0,1-3.91-3.2v11.622h-2.782Zm11.126,2.125a8.17,8.17,0,0,0-6.075,2.521,8.606,8.606,0,0,0-2.468,6.271,8.893,8.893,0,0,0,1.1,4.425,8.013,8.013,0,0,0,3.151,3.117,8.722,8.722,0,0,0,4.331,1.151,8.166,8.166,0,0,0,4.212-1.162,8.522,8.522,0,0,0,3.142-3.244,8.764,8.764,0,0,0,.01-8.732,8.371,8.371,0,0,0-7.4-4.347Zm15.451-10.471h2.782v12.22a11.808,11.808,0,0,1,3.716-3.328,9.026,9.026,0,0,1,4.39-1.1,7.668,7.668,0,0,1,4.3,1.232,7.363,7.363,0,0,1,2.772,3.308,17.543,17.543,0,0,1,.893,6.507V157.42h-2.781V147.108a26.352,26.352,0,0,0-.3-4.987,5.644,5.644,0,0,0-1.877-3.227,5.556,5.556,0,0,0-3.567-1.084,6.855,6.855,0,0,0-4.52,1.669,7.82,7.82,0,0,0-2.633,4.133,28.568,28.568,0,0,0-.4,5.881v7.927h-2.782Zm33.991,7.789a10.706,10.706,0,0,1,8.279,3.615,11.607,11.607,0,0,1-.169,15.727,11.426,11.426,0,0,1-16.241,0,11.583,11.583,0,0,1-.169-15.706A10.7,10.7,0,0,1,187.76,135.247Zm-.011,2.722a8.026,8.026,0,0,0-5.961,2.562,8.57,8.57,0,0,0-2.493,6.2,8.788,8.788,0,0,0,1.137,4.371,8.05,8.05,0,0,0,3.071,3.129,8.728,8.728,0,0,0,8.494,0,8.047,8.047,0,0,0,3.07-3.129,8.788,8.788,0,0,0,1.137-4.371,8.551,8.551,0,0,0-2.5-6.2A8.036,8.036,0,0,0,187.749,137.969Zm15.405-2.165h2.781v3.874a11.625,11.625,0,0,1,3.7-3.328,9.071,9.071,0,0,1,4.411-1.1,7.665,7.665,0,0,1,4.3,1.232,7.339,7.339,0,0,1,2.772,3.318,17.546,17.546,0,0,1,.894,6.5V157.42h-2.782V147.108a25.46,25.46,0,0,0-.309-4.987,5.465,5.465,0,0,0-1.855-3.227,5.6,5.6,0,0,0-3.577-1.084,6.857,6.857,0,0,0-4.52,1.669,7.822,7.822,0,0,0-2.634,4.133,28.817,28.817,0,0,0-.4,5.881v7.927h-2.781Zm41.958,14.444,2.344,1.231a12.818,12.818,0,0,1-2.665,3.657,10.542,10.542,0,0,1-3.4,2.115,11.843,11.843,0,0,1-4.275.726,10.331,10.331,0,0,1-8.273-3.468,11.694,11.694,0,0,1-2.983-7.838,11.554,11.554,0,0,1,2.526-7.331,10.322,10.322,0,0,1,8.57-4.093,10.665,10.665,0,0,1,8.829,4.192,11.706,11.706,0,0,1,2.387,7.391H228.72a8.8,8.8,0,0,0,2.406,6.175,7.68,7.68,0,0,0,5.749,2.409,9.208,9.208,0,0,0,3.213-.575,8.451,8.451,0,0,0,2.656-1.524A12.951,12.951,0,0,0,245.112,150.248Zm0-5.821a9.212,9.212,0,0,0-1.623-3.557,7.668,7.668,0,0,0-2.814-2.146,8.626,8.626,0,0,0-3.68-.815,7.928,7.928,0,0,0-5.471,2.047A9.241,9.241,0,0,0,229,144.427ZM263.57,135.8h2.842v3.158a9.956,9.956,0,0,1,2.682-2.791,5.287,5.287,0,0,1,2.94-.924,5.084,5.084,0,0,1,2.464.734l-1.451,2.346a3.87,3.87,0,0,0-1.47-.379,4.024,4.024,0,0,0-2.683,1.144,7.209,7.209,0,0,0-1.966,3.546,33.92,33.92,0,0,0-.516,7.471v7.311H263.57Zm29.578,14.444,2.345,1.231a12.8,12.8,0,0,1-2.664,3.657,10.542,10.542,0,0,1-3.4,2.115,11.851,11.851,0,0,1-4.275.726,10.334,10.334,0,0,1-8.274-3.468,11.7,11.7,0,0,1-2.983-7.838,11.554,11.554,0,0,1,2.526-7.331,10.323,10.323,0,0,1,8.571-4.093,10.666,10.666,0,0,1,8.829,4.192,11.706,11.706,0,0,1,2.386,7.391H276.757a8.8,8.8,0,0,0,2.407,6.175,7.678,7.678,0,0,0,5.749,2.409,9.212,9.212,0,0,0,3.213-.575,8.451,8.451,0,0,0,2.656-1.524A12.926,12.926,0,0,0,293.148,150.248Zm0-5.821a9.182,9.182,0,0,0-1.621-3.557,7.668,7.668,0,0,0-2.814-2.146,8.631,8.631,0,0,0-3.681-.815,7.932,7.932,0,0,0-5.471,2.047,9.24,9.24,0,0,0-2.525,4.471Zm7.065-8.623H303v3.972a11.147,11.147,0,0,1,3.791-3.4,10.063,10.063,0,0,1,4.783-1.133,10.669,10.669,0,0,1,7.88,3.318,10.962,10.962,0,0,1,3.276,7.987,11.159,11.159,0,0,1-3.246,8.1A10.922,10.922,0,0,1,306.9,156.9a11.921,11.921,0,0,1-3.91-3.2v11.622h-2.782Zm11.127,2.125a8.174,8.174,0,0,0-6.077,2.521,8.614,8.614,0,0,0-2.467,6.271,8.892,8.892,0,0,0,1.1,4.425,8.026,8.026,0,0,0,3.151,3.117,8.731,8.731,0,0,0,4.332,1.151,8.175,8.175,0,0,0,4.213-1.162,8.527,8.527,0,0,0,3.141-3.244,8.767,8.767,0,0,0,.011-8.732,8.374,8.374,0,0,0-7.4-4.347Zm36.866-2.125V157.42h-2.742v-3.715a11.9,11.9,0,0,1-3.924,3.2,10.957,10.957,0,0,1-12.6-2.255,11.157,11.157,0,0,1-3.248-8.1,10.956,10.956,0,0,1,3.279-7.987,10.685,10.685,0,0,1,7.887-3.318,10.194,10.194,0,0,1,4.819,1.133,10.957,10.957,0,0,1,3.784,3.4V135.8Zm-11.116,2.125a8.39,8.39,0,0,0-7.413,4.347,8.76,8.76,0,0,0,.011,8.732,8.529,8.529,0,0,0,3.145,3.244,8.22,8.22,0,0,0,4.237,1.162,8.687,8.687,0,0,0,4.326-1.151,8.046,8.046,0,0,0,3.146-3.117,8.893,8.893,0,0,0,1.1-4.425,8.6,8.6,0,0,0-2.472-6.271A8.184,8.184,0,0,0,337.09,137.929ZM354.7,126.9a2.3,2.3,0,0,1,0,4.59,2.3,2.3,0,0,1-2.274-2.284,2.229,2.229,0,0,1,.672-1.63A2.19,2.19,0,0,1,354.7,126.9Zm-1.381,8.9H356.1V157.42h-2.782Zm8.179,0h2.842v3.158a9.97,9.97,0,0,1,2.682-2.791,5.29,5.29,0,0,1,2.94-.924,5.084,5.084,0,0,1,2.464.734l-1.451,2.346a3.861,3.861,0,0,0-1.47-.379,4.022,4.022,0,0,0-2.682,1.144,7.2,7.2,0,0,0-1.966,3.546,33.9,33.9,0,0,0-.517,7.471v7.311h-2.842Z"/>
  <g id="Phone">
    <path class="cls-3" d="M455.259,11.6H395.08A16.974,16.974,0,0,0,378.154,28.52V77.713a21,21,0,0,1,6.582,2.736v-46H465.6V140.128H384.736V118.792a22.629,22.629,0,0,1-6.582,2.776v24.49a16.975,16.975,0,0,0,16.926,16.925h60.179a16.976,16.976,0,0,0,16.926-16.925V28.52A16.975,16.975,0,0,0,455.259,11.6ZM384.736,31.319v-2.8A10.393,10.393,0,0,1,395.08,18.178h60.179A10.392,10.392,0,0,1,465.6,28.52v2.8Zm77.823,122.037a10.268,10.268,0,0,1-7.3,3.045H395.08a10.4,10.4,0,0,1-10.344-10.343v-2.8H465.6v2.8A10.264,10.264,0,0,1,462.559,153.356ZM384.713,99.825l.023-.176V96.266l-6.582,5.189v7.7a13.41,13.41,0,0,0,2.017-1.33A11.682,11.682,0,0,0,384.713,99.825Z"/>
    <path class="cls-3" d="M439.257,23.292H411.084a1.566,1.566,0,0,0,0,3.131h28.173a1.566,1.566,0,0,0,0-3.131Z"/>
    <path class="cls-3" d="M429.414,149.411a4.245,4.245,0,1,1-4.245-4.244A4.244,4.244,0,0,1,429.414,149.411Z"/>
  </g>
</svg>
