<svg xmlns="http://www.w3.org/2000/svg" viewBox="0 0 523.442 337.785">
  <defs>
    <style>
      .cls-1 {
        fill: #4a3459;
      }
    </style>
  </defs>
  <title>lansing-area-creatives-logo</title>
  <g id="_990px" data-name="@990px">
    <g id="LansingAreaCreatives">
      <path class="cls-1" d="M58.718,192.714a51.774,51.774,0,0,1-5.756-.552,17.285,17.285,0,0,1-.152-4.426H73.184a11.671,11.671,0,0,1-.151,4.351,63.062,63.062,0,0,1-7.153.627V236.73H85.161a68.69,68.69,0,0,1,.856-7.77,20.545,20.545,0,0,1,5.053-.552v13.3H51.717a19.065,19.065,0,0,1,.941-4.122,45.326,45.326,0,0,1,6.06-1.007Z"/>
      <path class="cls-1" d="M115.566,237.11c-2.013,3.819-6.211,5.926-10.885,5.926-5.67,0-11.038-3.267-11.038-10.429,0-8.017,6.764-12.139,14.457-12.139a19.365,19.365,0,0,1,7.239,1.33v-4.2c0-5.756-2.489-8.72-7.39-8.72-3.344,0-8.635,1.957-11.351,3.819a6.737,6.737,0,0,1-.39-2.64,8.769,8.769,0,0,1,.855-3.895c2.565-1.481,8.549-2.716,12.672-2.716,8.482,0,12.214,4.123,12.214,14.779v15.083c0,1.559.39,3.421,1.008,4.048a24.953,24.953,0,0,0,5.366-.931,3.475,3.475,0,0,1,.076.854,8.325,8.325,0,0,1-.769,3.5,19.8,19.8,0,0,1-8.406,2.26,8.382,8.382,0,0,1-3.268-5.926Zm-.151-11.893a25.922,25.922,0,0,0-5.444-.627c-6.069,0-9.488,2.736-9.488,6.858,0,4.275,3.343,6.212,7.076,6.212a9.814,9.814,0,0,0,7.856-3.8Z"/>
      <path class="cls-1" d="M142.875,236.957a28.2,28.2,0,0,1,5.68,1.007,12.244,12.244,0,0,1,.153,3.743H130.042a10.566,10.566,0,0,1,1.093-3.5,27.589,27.589,0,0,1,4.976-1.481v-27.6h-5.679a8.9,8.9,0,0,1,1.4-4.123,19.488,19.488,0,0,1,6.459-1.1,13.739,13.739,0,0,1,3.657.475v5.681h.769c1.406-2.641,5.528-6.611,12.529-6.611,6.145,0,11.588,1.937,11.588,14,0,6.535-.162,12.9-.466,19.51a35.2,35.2,0,0,1,6.3,1.007,11.324,11.324,0,0,1,.228,2.413,7.816,7.816,0,0,1-.076,1.33H154.387a10.74,10.74,0,0,1,1.083-3.5,25.835,25.835,0,0,1,4.436-1.481v-18.2c0-5.983-1.872-9.8-7.314-9.8-3.962,0-8.083,2.812-9.717,4.977Z"/>
      <path class="cls-1" d="M194.9,208.424a12.365,12.365,0,0,0-4.588-.931c-4.037,0-6.373,1.862-6.373,4.73,0,8.719,18.124,6.079,18.124,19.606,0,8.093-6.773,11.207-14,11.207a23.754,23.754,0,0,1-11.9-2.963,17.442,17.442,0,0,1-.39-3.723,22.464,22.464,0,0,1,.779-5.528,22.169,22.169,0,0,1,5.6.7v5.356a12.159,12.159,0,0,0,6.535,1.786c3.884,0,6.524-2.317,6.524-5.832,0-9.25-18.275-5.908-18.275-19.661,0-5.681,5.216-9.727,12.909-9.727a30.326,30.326,0,0,1,10.97,2.014,12,12,0,0,1,.153,2.412,25.722,25.722,0,0,1-.856,6.307A11.443,11.443,0,0,1,194.9,213Z"/>
      <path class="cls-1" d="M206.259,209.127a8.9,8.9,0,0,1,1.4-4.123,22.673,22.673,0,0,1,7-1.1,16.824,16.824,0,0,1,4.048.475v32.5a36.843,36.843,0,0,1,6.145,1.083,11.259,11.259,0,0,1,.228,2.413,7.919,7.919,0,0,1-.075,1.33H205.869a10.52,10.52,0,0,1,1.093-3.5,27.552,27.552,0,0,1,4.977-1.481v-27.6ZM219.87,191c0,2.944-1.8,4.578-4.36,4.578-2.878,0-4.426-1.539-4.426-4.578a4.16,4.16,0,0,1,4.426-4.275A4.027,4.027,0,0,1,219.87,191Z"/>
      <path class="cls-1" d="M240.092,236.957a28.2,28.2,0,0,1,5.681,1.007,12.214,12.214,0,0,1,.151,3.743H227.26a10.588,10.588,0,0,1,1.092-3.5,27.613,27.613,0,0,1,4.976-1.481v-27.6h-5.679a8.9,8.9,0,0,1,1.4-4.123,19.488,19.488,0,0,1,6.459-1.1,13.744,13.744,0,0,1,3.657.475v5.681h.779c1.4-2.641,5.518-6.611,12.519-6.611,6.136,0,11.589,1.937,11.589,14,0,6.535-.163,12.9-.476,19.51a35.184,35.184,0,0,1,6.308,1.007,11.389,11.389,0,0,1,.228,2.413,7.716,7.716,0,0,1-.077,1.33H251.605a10.763,10.763,0,0,1,1.082-3.5,25.882,25.882,0,0,1,4.435-1.481v-18.2c0-5.983-1.87-9.8-7.312-9.8-3.962,0-8.084,2.812-9.718,4.977Z"/>
      <path class="cls-1" d="M278.74,240.929a5.638,5.638,0,0,1-3.731-5.53,8.065,8.065,0,0,1,4.283-6.61v-.381c-3.19-1.937-4.976-5.831-4.976-11.036,0-8.644,6.448-13.925,14.931-13.925a17.4,17.4,0,0,1,8.786,2.185,18.638,18.638,0,0,1,7.541-1.482,11.082,11.082,0,0,1,3.345.455,21.824,21.824,0,0,1,.626,4.674h-7.7a14.224,14.224,0,0,1,2.252,8.093c0,8.624-5.6,13.83-14.846,13.83a20.158,20.158,0,0,1-6.308-.856,4.912,4.912,0,0,0-1.159,3.192c0,3.04,4.2,3.572,11.275,3.572,9.024,0,15.939,1.956,15.939,10.277,0,9.327-9.024,13.924-19.52,13.924-9.175,0-17.5-3.818-17.5-11.664a8.87,8.87,0,0,1,6.762-8.32Zm-.227,7.768c0,5.452,6.3,8.169,12.054,8.169,6.146,0,11.893-2.717,11.893-8,0-3.9-2.955-5.833-10.962-5.833a43.677,43.677,0,0,1-8.862-.778A6.785,6.785,0,0,0,278.513,248.7Zm10.734-21.618c5.367,0,7.931-3.8,7.931-9.707,0-5.681-3.039-9.727-7.931-9.727-5.528,0-8.092,3.573-8.092,9.727C281.155,223.2,284.184,227.079,289.247,227.079Z"/>
      <path class="cls-1" d="M359.166,241.707a18.5,18.5,0,0,1,1.007-4.122,40.872,40.872,0,0,1,5.755-.931,29.074,29.074,0,0,1-3.039-5.985l-2.489-6.611H339.8l-2.565,6.991a33.673,33.673,0,0,1-2.8,5.832,50.437,50.437,0,0,1,6.535.7,20.044,20.044,0,0,1,.617,4.122H323.071a14,14,0,0,1,1.254-4.122,22.844,22.844,0,0,1,4.113-.855l20.07-50.077h4.977l19.282,49.925a35.006,35.006,0,0,1,4.9.7,19.945,19.945,0,0,1,.854,4.427Zm-9.338-46.353a52.556,52.556,0,0,1-2.175,7.466l-6.221,16.793H358.69l-6.373-16.945a42.573,42.573,0,0,1-1.947-7.314Z"/>
      <path class="cls-1" d="M393.075,211.767a10.389,10.389,0,0,1,10.106-8.32,10.788,10.788,0,0,1,3.5.626,9.993,9.993,0,0,1,1.018,4.655,8.49,8.49,0,0,1-.237,2.108,10.68,10.68,0,0,0-5.291-1.33c-3.572,0-6.991,1.957-8.939,6.384v20.84a37.984,37.984,0,0,1,7.7,1.405,10.843,10.843,0,0,1,.16,3.572H380.394a10.566,10.566,0,0,1,1.093-3.5,27.576,27.576,0,0,1,4.977-1.481v-27.6h-5.68a8.878,8.878,0,0,1,1.4-4.123,20.206,20.206,0,0,1,6.457-1.1,13.744,13.744,0,0,1,3.657.475v7.39Z"/>
      <path class="cls-1" d="M416.954,224.134c.153,8.322,5.368,13.451,12.673,13.451a35.215,35.215,0,0,0,10.884-2.186,8.369,8.369,0,0,1-1.007,4.446,26.827,26.827,0,0,1-12.292,3.191c-11.113,0-17.5-8.32-17.5-19.054,0-11.435,7.078-20.535,17.973-20.535,9.326,0,13.3,6.763,13.3,16.565a38.577,38.577,0,0,1-.237,4.122Zm17.108-4.521c.541-5.357-1.017-11.892-7.542-11.892-5.529,0-9.1,4.826-9.566,11.892Z"/>
      <path class="cls-1" d="M467.735,237.11c-2.024,3.819-6.232,5.926-10.9,5.926-5.67,0-11.037-3.267-11.037-10.429,0-8.017,6.762-12.139,14.466-12.139a19.307,19.307,0,0,1,7.228,1.33v-4.2c0-5.756-2.488-8.72-7.389-8.72-3.344,0-8.634,1.957-11.352,3.819a6.739,6.739,0,0,1-.388-2.64,8.756,8.756,0,0,1,.854-3.895c2.564-1.481,8.558-2.716,12.671-2.716,8.483,0,12.215,4.123,12.215,14.779v15.083c0,1.559.39,3.421,1.008,4.048a24.964,24.964,0,0,0,5.366-.931,3.475,3.475,0,0,1,.076.854,8.3,8.3,0,0,1-.77,3.5,19.806,19.806,0,0,1-8.4,2.26,8.375,8.375,0,0,1-3.268-5.926Zm-.162-11.893a25.93,25.93,0,0,0-5.444-.627c-6.07,0-9.488,2.736-9.488,6.858,0,4.275,3.343,6.212,7.075,6.212a9.8,9.8,0,0,0,7.857-3.8Z"/>
      <path class="cls-1" d="M87.963,261.9a20.21,20.21,0,0,0-8.4-1.71c-10.344,0-18.75,7.694-18.75,22.7,0,15.958,7.551,23.348,18.589,23.348a49.5,49.5,0,0,0,14.542-2.734,12.608,12.608,0,0,1-.855,4.9A38.967,38.967,0,0,1,76.528,312.3c-13.916,0-23.329-11.589-23.329-27.375,0-18.674,12.206-29.711,26.833-29.711a32.627,32.627,0,0,1,14.381,2.963,80.331,80.331,0,0,1-.931,12.9,14.918,14.918,0,0,1-5.519-1.235Z"/>
      <path class="cls-1" d="M110.912,280.8a10.389,10.389,0,0,1,10.106-8.322,10.805,10.805,0,0,1,3.5.627,10,10,0,0,1,1.017,4.656,8.452,8.452,0,0,1-.238,2.108,10.65,10.65,0,0,0-5.291-1.33c-3.571,0-6.991,1.957-8.938,6.383v20.839a38.085,38.085,0,0,1,7.694,1.407,10.814,10.814,0,0,1,.161,3.572H98.232a10.554,10.554,0,0,1,1.092-3.5,27.656,27.656,0,0,1,4.977-1.482v-27.6h-5.68a8.9,8.9,0,0,1,1.4-4.123,20.225,20.225,0,0,1,6.459-1.1,13.745,13.745,0,0,1,3.657.474V280.8Z"/>
      <path class="cls-1" d="M134.791,293.17c.153,8.319,5.368,13.449,12.671,13.449a35.227,35.227,0,0,0,10.887-2.185,8.367,8.367,0,0,1-1.009,4.446,26.809,26.809,0,0,1-12.29,3.191c-11.113,0-17.5-8.32-17.5-19.054,0-11.436,7.077-20.536,17.972-20.536,9.328,0,13.3,6.763,13.3,16.566a38.618,38.618,0,0,1-.238,4.123Zm17.108-4.522c.541-5.357-1.017-11.892-7.543-11.892-5.527,0-9.1,4.825-9.565,11.892Z"/>
      <path class="cls-1" d="M185.57,306.145c-2.022,3.817-6.23,5.926-10.895,5.926-5.669,0-11.037-3.266-11.037-10.429,0-8.017,6.763-12.138,14.467-12.138a19.323,19.323,0,0,1,7.228,1.329v-4.2c0-5.755-2.489-8.719-7.39-8.719-3.343,0-8.634,1.957-11.35,3.818a6.718,6.718,0,0,1-.391-2.64,8.763,8.763,0,0,1,.856-3.894c2.565-1.483,8.559-2.718,12.671-2.718,8.482,0,12.215,4.123,12.215,14.781v15.083c0,1.559.39,3.419,1.006,4.046a24.894,24.894,0,0,0,5.367-.93,3.467,3.467,0,0,1,.076.854,8.287,8.287,0,0,1-.769,3.5,19.817,19.817,0,0,1-8.407,2.26,8.382,8.382,0,0,1-3.266-5.926Zm-.161-11.892a25.838,25.838,0,0,0-5.442-.628c-6.07,0-9.489,2.737-9.489,6.859,0,4.275,3.343,6.212,7.076,6.212a9.8,9.8,0,0,0,7.855-3.8Z"/>
      <path class="cls-1" d="M205.708,264.313a13.715,13.715,0,0,1,5.205-1.235v10.715h11.274a20.078,20.078,0,0,1,.237,4.522H210.913v21.39c0,5.054.7,7.218,5.053,7.218a30.275,30.275,0,0,0,7.238-1.006,5.308,5.308,0,0,1,.076,1.006,6.951,6.951,0,0,1-.779,3.039,24.8,24.8,0,0,1-9.565,2.109c-5.985,0-9.024-3.266-9.024-11.284,0-4.6.086-14.628.389-22.472h-5.366a12.093,12.093,0,0,1,.94-4.047,26.013,26.013,0,0,1,4.5-1.407Z"/>
      <path class="cls-1" d="M225.312,278.162a8.9,8.9,0,0,1,1.4-4.123,22.683,22.683,0,0,1,7-1.1,16.818,16.818,0,0,1,4.045.474v32.5A36.719,36.719,0,0,1,243.9,307a11.317,11.317,0,0,1,.228,2.413,7.834,7.834,0,0,1-.076,1.331h-19.13a10.577,10.577,0,0,1,1.092-3.5,27.743,27.743,0,0,1,4.976-1.482v-27.6Zm13.611-18.124c0,2.945-1.8,4.578-4.359,4.578-2.878,0-4.426-1.538-4.426-4.578a4.159,4.159,0,0,1,4.426-4.274A4.027,4.027,0,0,1,238.923,260.038Z"/>
      <path class="cls-1" d="M263.411,306.145c.389-1.787,1.245-5.054,1.8-6.688l4.588-13.753a51.1,51.1,0,0,1,2.877-6.933,20.332,20.332,0,0,1-4.6-1.007,13.5,13.5,0,0,1-.616-3.971h14.694a15.548,15.548,0,0,1-.779,4.292,20.708,20.708,0,0,1-3.647.686l-11.978,32.2-7.078.779-11.511-32.58a17.719,17.719,0,0,1-3.97-1.33,17.117,17.117,0,0,1-.77-4.046h17.42a16.757,16.757,0,0,1-.626,4.122,41.293,41.293,0,0,1-5.519.856,47.735,47.735,0,0,1,2.792,6.609l4.826,14.4a64.316,64.316,0,0,1,1.557,6.365Z"/>
      <path class="cls-1" d="M290.253,293.17c.153,8.319,5.367,13.449,12.672,13.449a35.268,35.268,0,0,0,10.885-2.185,8.355,8.355,0,0,1-1.007,4.446,26.813,26.813,0,0,1-12.291,3.191c-11.113,0-17.5-8.32-17.5-19.054,0-11.436,7.076-20.536,17.961-20.536,9.337,0,13.308,6.763,13.308,16.566a38.618,38.618,0,0,1-.238,4.123Zm17.108-4.522c.542-5.357-1.017-11.892-7.542-11.892-5.528,0-9.1,4.825-9.566,11.892Z"/>
      <path class="cls-1" d="M338.534,277.46a12.336,12.336,0,0,0-4.588-.931c-4.035,0-6.373,1.86-6.373,4.729,0,8.72,18.123,6.08,18.123,19.605,0,8.093-6.772,11.208-14,11.208a23.763,23.763,0,0,1-11.9-2.962,17.584,17.584,0,0,1-.39-3.725,22.463,22.463,0,0,1,.779-5.527,22.156,22.156,0,0,1,5.6.7v5.357a12.183,12.183,0,0,0,6.535,1.787c3.886,0,6.526-2.32,6.526-5.833,0-9.253-18.274-5.91-18.274-19.663,0-5.679,5.213-9.727,12.908-9.727a30.336,30.336,0,0,1,10.971,2.015,12.075,12.075,0,0,1,.152,2.412,25.714,25.714,0,0,1-.856,6.306,11.444,11.444,0,0,1-5.215-1.177Z"/>
    </g>
    <g>
      <path id="C" class="cls-1" d="M469.36,53.011,440.241,87.564C431.122,75.179,417.426,67.13,405.7,67.13c-18.25,0-31.51,14.56-31.51,34.764,0,20.435,13.26,35.207,31.51,35.207,10.863,0,24.547-6.74,34.543-17.391l29.119,31.067c-16.947,18.47-42.805,30.43-66.272,30.43-46.716,0-80.614-33.243-80.614-78.658,0-44.761,34.765-77.349,82.569-77.349C428.29,25.2,453.713,36.063,469.36,53.011Z"/>
      <path id="A" class="cls-1" d="M245.726,175.811v3.22H234.677v-3.22c0-10.509,0-19.036,5.432-19.036C245.726,156.775,245.726,165.3,245.726,175.811ZM222.54,159.5c-4.166,0-4.166,7.607-4.166,17.019v2.512h8.333v-2.512C226.707,167.107,226.707,159.5,222.54,159.5Zm-10.509,19.531h-51.3l64.318-152.31h51.705l61.933,152.31h-49.3v-3.769c-.549-37.329-16.851-42.584-37.683-42.937h-2.178c-20.83.353-37.135,5.608-37.5,42.937Zm19.744-53.96s7.246-3.256,18.666-3.433h.539c11.234.177,18.48,3.433,18.48,3.433,0-20.469-7.068-25.353-16.3-26.078l-2.449-26.821-2.442,26.821C239.021,99.718,231.775,104.6,231.775,125.071Zm29.351,31.7c-5.617,0-5.617,8.527-5.617,19.036v3.22h11.235v-3.22C266.744,165.3,266.744,156.775,261.126,156.775ZM278.7,159.5c-4.166,0-4.166,7.607-4.166,17.019v2.512h8.517v-2.512C283.046,167.107,283.046,159.5,278.7,159.5Z"/>
      <path id="L" class="cls-1" d="M159.8,137.1v41.93H56.378V26.721H106.79V137.1Z"/>
    </g>
  </g>
</svg>
