<?xml version="1.0" encoding="utf-8"?>
<!-- Generator: Adobe Illustrator 15.0.2, SVG Export Plug-In . SVG Version: 6.00 Build 0)  -->
<!DOCTYPE svg PUBLIC "-//W3C//DTD SVG 1.1//EN" "http://www.w3.org/Graphics/SVG/1.1/DTD/svg11.dtd">
<svg version="1.1" xmlns="http://www.w3.org/2000/svg" xmlns:xlink="http://www.w3.org/1999/xlink" x="0px" y="0px" width="556px"
	 height="148.392px" viewBox="0 0 556 148.392" enable-background="new 0 0 556 148.392" xml:space="preserve">
<g id="Horizontal_logo">
	<path id="Adventures" fill-rule="evenodd" clip-rule="evenodd" fill="#743C25" d="M530.074,51.409
		c0.879,2.891,0.473,2.543,1.514,2.994c1.047,0.453,1.865,1.57,1.818,2.053c-0.531,3.549,3.16,2.293,2.629,5.844
		c-1.822-0.191-1.537,1.473-3.693,0.988c0.387-2.045-1.641-1.346-2.391-2.102c-7.52,2.785-14.133,5.393-16.396,13.832
		c-0.256,0.953-0.611,3.262-0.508,3.789c0.41,2.059,3.553,4.535,5.674,6.4c0.578,0.508,1.873,0.773,2.342,1.352
		c0.516,0.641,0.484,1.566,0.893,2.197c0.244,0.383,0.697-0.145,0.795,0.701c0.027,0.223,2.965,2.707,3.637,3.363
		c3.832,3.746,3.996,8.463,4.207,13.418c0.039,0.863-0.027,3.115-0.459,4.539c-0.092,0.305-0.709,0.023-0.701,0.797
		c0.023,2.041-1.564,2.582-3.453,4.73c-0.934,1.063-1.305,2.541-2.053,3.139c-0.258,0.205-1.313-0.16-1.498,0.096
		c-0.697,0.977-1.143,1.605-2.848,2.438c-1.186,0.58-2.031,0.508-2.947,0.941c-0.705,0.336-1.07,0.828-2.197,0.893
		c-2.57,0.148-2.084-1.398-6.084-1.111c0.41-2.34-2.146-1.307-1.736-3.646c-1.838-1.389-4.773-1.531-5.529-4.154
		c2.416-0.309,4.609-0.5,6.689-1.182c0.525-0.17,2.104-0.504,2.945-0.939c0.48-0.25,1.004-1.354,1.4-1.594
		c0.266-0.16,1.328,0.141,1.496-0.096c0.172-0.238,0.439-1.395,0.652-1.545c0.764-0.537,1.574-0.301,2.197-0.895
		c2.705-2.57,4.838-6.504,4.711-8.568c-0.27-4.393-5.559-7.006-8.906-9.949c-1.104-0.971-2.402-1.908-3.188-2.803
		c-0.555-0.631-0.309-1.645-0.893-2.197c-0.279-0.264-1.336-0.369-1.545-0.65c-0.193-0.262,0.158-1.316-0.096-1.498
		c-0.094-0.066-0.697,0.139-0.748,0.049c-0.146-0.264,0.133-1.332-0.098-1.498c-0.645-0.461-0.553-0.537-0.844-1.447
		c-0.443-1.387-2.492-7.58-1.375-9.684c0.824,0.135,0.605,1.457,1.594,1.402c-0.213-1.154,0.193-2.355,0.508-3.791
		c0.229-1.039,0.658-3.203,1.209-4.588c0.146-0.371,0.709,0.027,0.699-0.795c-0.012-0.963,1.189-1.027,1.4-1.594
		c0.145-0.379-0.309-1.158-0.096-1.498c0.402-0.635,1.963-2.229,2.801-3.186c2.18-2.479,3.941-3.883,7.896-5.768
		c0.26-0.123,1.342,0.121,1.496-0.098c0.045-0.059-0.1-0.732-0.047-0.748c2.221-0.596,4.893-0.297,6.035,0.363
		C527.438,50.368,529.293,50.489,530.074,51.409z M419.868,87.249c0.027-0.428,0.832-1.426,0.854-1.941
		c0.043-1.07-0.363-2.357-0.389-3.068c-0.182-5.207-2.199-12.996-2.762-17.436c-0.396-3.115-2.58-5.629-3.418-6.717
		c-1.6-2.063-2.529-3.191-4.43-3.105c1.209,2.037-0.75,3.492-0.736,4.311c0.045,2.576,2.35,5.006,1.322,7.533
		c-2.02-0.391,0.502-2.746-2.213-1.553c0.439,3.256,0.723,6.77,0.738,10.174c0.008,1.447,0.32,3.117,0.234,4.738
		c-0.02,0.408-0.805,1.447-0.854,1.941c-0.119,1.17,0.553,1.939,0.391,3.068c-0.072,0.486-0.754,1.395-0.855,1.941
		c-0.346,1.852-0.332,3.057-0.736,4.311c-0.729,2.25-1.367,4.477-2.289,6.525c-1.682,3.725-3.96,7.316-7.693,9.811l-1.74-2.521
		c-2.088-2.068-3.025-5.572-3.555-8.568c-0.414-2.334,0.213-2.826,0.186-3.82c-0.049-1.898-0.824-3.703-0.775-5.191
		c0-0.051,0.582-0.348,0.631-0.854c0.342-3.537,0.09-6.654,0.895-9.232c-2.736,0.268-4.961,0.678-5.822,1.627
		c-0.209,0.23,0.436,1.264,0.221,1.484c-0.574,0.594-1.607,0.516-2.113,1.074c-0.209,0.23,0.354,1.188,0.221,1.484
		c-0.422,0.945-1.408,1.527-1.039,3.188c-0.371,1.266-3.656,0.375-2.635,2.67c0.488,6.725,2.41,14.008,4.775,16.727
		c0.652,0.754-0.23,1.709,0.588,2.197c0.242,0.145,0.055,1.232,0.221,1.482c0.057,0.086,0.645-0.168,0.742-0.111
		c0.273,0.164-0.01,1.246,0.223,1.484c0.299,0.309,0.686,0.561,1.092,0.777l-3.367,1.713c0.268,0.088,0.324,1.191,0.543,1.398
		c0.074,0.072,0.59-0.307,0.699-0.271c0.303,0.1,0.266,1.217,0.545,1.396c1.1,0.721,2.877,0.771,3.611,1.01
		c0.311,0.102,0.24,1.26,0.545,1.398c0.316,0.145,1.076-0.686,1.396-0.545c0.303,0.135,0.234,1.301,0.545,1.398
		c0.357,0.115,1.012-0.564,1.396-0.543c0.605,0.031,1.027,1.154,1.941,0.854c0.766-0.252,0.596,0.412,0.973,0.426
		c3.299,0.137,7.074-2.395,8.385-3.264c0.588-0.389,1.564-0.363,2.1-0.816c0.219-0.186,0.613-1.623,0.854-1.941
		c0.48-0.643,1.324-0.797,1.824-1.516c0.471-0.676,0.514-1.232,0.854-1.941c1.582-3.297,4.004-6.258,5.24-9.281
		c0.5-1.219,0.322-2.889,0.738-4.311c0.166-0.58,0.641-1.287,0.854-1.943c0.27-0.838,0.4-1.686,0.582-2.641
		c0.096-0.521,0.791-1.354,0.854-1.941C420.378,89.136,419.79,88.405,419.868,87.249z M277.565,94.067
		c2.102-0.582,2.656-0.285,3.166-1.143c0.121-0.201,1.09-0.066,1.309-0.195c1.018-0.594,2.355-1.646,3.07-1.793
		c0.701-0.143,0.271-0.57,0.555-0.752c2.639-1.689,5.443-3.051,6.6-4.992c0.145-0.242,1.098,0.01,1.307-0.195
		c0.254-0.25,0.221-1.105,0.457-1.404c0.443-0.555,1.346-0.41,1.863-0.945c0.609-0.631,1.1-1.615,1.666-2.252
		c0.961-1.082,1.91-1.762,2.32-2.352c0.373-0.535,0.369-1.74,0.916-2.807c0.273-0.531,1.191-0.654,1.111-1.502
		c-0.072-0.756,0.391-0.361,0.555-0.752c0.633-1.498,1.406-3.502,1.277-4.863c-0.053-0.547,0.551-0.656,0.555-0.752
		c0.115-2.49-1.023-4.352-0.977-6.531c-2.658-2.426-5.682-4.357-7.244-8.268c-2.826-0.248-6.541-2.152-8.035-0.135
		c-0.553,0.75-2.01,0.199-2.514,1.045c-0.105,0.178-1.096,0.102-1.307,0.195c-1.457,0.641-2.639,1.305-3.725,1.893
		c-0.732,0.395-0.863,0.742-1.861,0.945c-0.717,0.146-0.254,0.543-0.557,0.75c-1.391,0.969-2.896,2.1-4.182,3.297
		c-0.598,0.559-0.971,1.502-1.666,2.252c-1.271,1.375-3.02,1.602-2.875,3.102c0.074,0.77-0.314,0.336-0.557,0.75
		c-1.51,2.586-3.115,4.918-4.25,7.313c-1.76,3.719-3.146,7.543-3.662,11.232c-0.969-0.16-4.1-3.443-4.018-0.068
		c-1.721,2.381,3.123,2.551,2.838,5.588c-2.742,8.541,1.74,20.4,10.406,20.48c1.221,1.314,2.188,2.047,3.102,2.875
		c0.209,0.189,1.814,0.252,2.057,0.361c1.322,0.588,2.129,0.945,3.463,0.818c0.605-0.059,0.572,0.535,0.75,0.555
		c1.045,0.121,2.211-0.484,3.266-0.488c0.994-0.002,1.279,0.613,2.711,0.264c1.563-0.383,2.484-2.438,4.377-1.99
		c1.49-1.561-3.123-1.482-3.199-3.529c3.477-1.494,7.813-2.352,9.213-5.383c-7.076,2.672-19.734,5.797-25.113,1.75
		c-1.758-2.684-2.148-8.787-1.008-11.201C272.706,96.444,275.849,94.542,277.565,94.067z M294.532,60.146
		c-0.543,1.592-0.074,3.951-0.525,5.422c-0.125,0.404-1.021,0.504-1.209,0.848c-0.139,0.258,0.387,1.098,0.195,1.307
		c-0.086,0.094-0.602-0.014-0.654,0.098c-0.506,1.074-0.475,2.125-0.916,2.807c-0.988,1.533-2.598,2.498-4.084,3.951
		c-0.678,0.662-0.92,1.559-1.666,2.252c-0.211,0.197-1.164-0.043-1.307,0.195c-0.807,1.355-2.629,2.814-4.736,4.047
		c-0.219,0.127-1.188-0.008-1.307,0.195c-0.045,0.074,0.162,0.617,0.098,0.652c-1.961,1.094-4.09,1.1-5.588,2.838
		c-1.488,0.223-0.707-1.936-0.391-2.611c0.127-0.266,0.518-0.641,0.557-0.752c0.164-0.447,0.084-1.543,0.361-2.057
		c0.186-0.346,1.051-0.523,1.209-0.85c0.488-1.018,0.861-2.434,1.471-3.559c0.32-0.59,0.801-0.775,1.111-1.5
		c0.148-0.35,0.229-1.08,0.457-1.404c0.656-0.926,2.068-1.426,2.975-2.449c0.832-0.938,1.316-2.139,2.221-3.002
		c0.369-0.352,0.762-1.205,1.111-1.502c0.639-0.541,1.371-1.262,2.418-1.697c0.371-0.152,0.969,0.014,1.307-0.195
		c0.279-0.172,0.914-1.416,1.111-1.502c0.43-0.182,3.535,0.059,3.918-0.586C293.013,60.519,293.511,60.202,294.532,60.146z
		 M252.171,54.749c0.158,1.66-1.227,1.242-1.041,3.189c0.104,1.074-1.246,1.453-1.15,2.447c0.08,0.838-0.486,0.441-0.631,0.852
		c-0.578,1.648-0.596,3.182-0.93,3.932c-0.244,0.549-0.338,1.072-0.52,1.594c-0.801,2.311-1.656,4.027-2.191,5.637
		c-0.324,0.977,0.09,1.859-0.299,3.076c-0.051,0.168-1.221,0.799-1.371,0.965c-0.191,0.211,0.314,1.193,0.221,1.482
		c-0.463,1.451-1.635,3.99-1.561,4.783c0.08,0.826-0.508,0.461-0.631,0.854c-0.357,1.137,0.092,1.99-0.297,3.078
		c-0.07,0.195-1.205,0.777-1.373,0.963c-0.936,1.031,1.148,5.006-1.672,4.041c0.463-4.406-2.309-13.006-3.291-16.949
		c-0.842-3.385-0.871-5.371-1.85-7.307c-0.83-0.828-1.688-1.305-2.559-1.893c-0.805-0.541-2.299-0.73-2.559-1.893
		c-2.639,0.002-2.143-4.236-5.746-2.934c0.803,1.861-0.922,2.885-0.818,4.672c0.09,1.533,1.141,3.404,1.518,5.082
		c0.83,3.691,1.514,6.551,2.072,8.791c0.334,1.338,0.426,3.158,0.666,4.449c0.205,1.119,0.98,0.648,0.221,1.484
		c-0.449,0.496,0.9,1.336,0.963,1.373c0.172,0.102,0.162,1.266,0.223,1.482c1.279,4.67,2.746,11.449,3.701,14.615
		c0.678,2.246,1.113,3.633,1.406,4.338c1.531,3.691,1.68,6.24,1.441,9.645c2.205,1.684,3.551-0.635,4.783,1.559
		c2.418-0.48,3.766,2.83,5.414,0.709c1.984-2.348,1.881-5.117,2.6-7.973c0.531-2.105,1.848-5.861,1.969-7.119
		c0.045-0.445-0.342-1.057-0.221-1.484c0.082-0.273,1.238-0.635,1.373-0.963c0.152-0.365-0.262-1.08-0.223-1.482
		c0.07-0.701,0.525-0.516,0.631-0.854c0.445-1.408,0.32-3.211,0.818-4.672c0.107-0.314,1.225-0.602,1.373-0.965
		c0.152-0.365-0.26-1.08-0.221-1.482c0.072-0.748,0.482-0.455,0.631-0.854c0.307-0.813,0.08-1.422,0.408-2.336
		c0.162-0.447,1.082-1.184,1.262-1.705c0.41-1.186,0.537-2.686,0.93-3.93c0.254-0.807,0.086-1.441,0.408-2.336
		c0.162-0.451,1.094-1.182,1.262-1.705c0.207-0.643-0.488-1.566-0.332-2.227c0.082-0.35,1.063-1.121,1.262-1.705
		c0.277-0.809,0.084-1.43,0.41-2.336c0.162-0.449,1.078-1.186,1.262-1.705c0.434-1.227,0.541-2.771,0.93-3.93
		c0.537-1.604,1.248-2.547,1.67-4.043c0.83-2.932,1.1-5.676,1.748-8.602c-1.506-0.168-3.016-2.166-3.41-2.523
		c-0.873-0.793-3.66,1.113-3.189-1.041c-1.264-0.369-0.373-3.654-2.668-2.635C254.454,50.296,252.022,53.198,252.171,54.749z
		 M349.54,124.382c-2.113-0.189-4.055-0.709-5.48-2.207c-0.611-0.176-0.971-0.207-1.676-0.258c-0.289-0.02-1.227,0.602-1.451,0.457
		c-0.887-0.572-1.678-0.768-2.852-1.461c-0.557-0.473-0.268-2.537-0.9-2.861c-0.791-0.404-0.393-0.66-0.678-2.146
		c-0.336-1.77-0.813-3.758-0.848-5.238c-0.008-0.221,0.674-0.26,0.498-0.943c-0.154-0.602-0.049-3.025,0.102-4.748
		c0.031-0.348,0.699-0.178,0.5-0.943c-0.049-0.193-0.24-0.52-0.227-0.717c0.307-3.75,0.883-10.244,0.805-15.191
		c-0.121-7.588-0.426-15.412-2.848-24.264c-2.496,1.238-4.881,2.652-6.584,4.43c-1.48,1.549-2.984,4.377-4.23,6.836
		c-0.414,0.82-0.408,1.752-0.777,2.604c-0.328,0.764-1.422,1.357-1.727,2.115c-0.123,0.314,0.633,1.158,0.449,1.432
		c-0.164,0.248-1.156,0.916-1.225,1.172c-0.119,0.455-0.565,0.398-1.045,0.182c0.004,0.252,0.008,0.51,0.012,0.766
		c0.042,0.355,0.058,0.676,0.014,1.027c0.012,0.879,0.024,1.766,0.043,2.672l-0.247,0.016c0.031,0.447,0.094,0.883,0.202,1.248
		c0.193,0.656-0.391,1.549-0.914,1.916c0.746,1.371,0.283,2.041,0.297,3.078c0.001,0.09-0.002,0.195-0.003,0.291l1.271,0.822
		c-0.801,1.264-0.363,6.316-0.24,8.775c0.066,1.342-0.299,3.051,0.711,4.506c-1.217,0.184-1.002,1.082-1.898,1.424
		c0.082,0.83-1.256,0.953-0.949,1.896c-1.68-0.42-3.146-1.266-4.296-2.746c-0.692,0.375-1.413,0.684-2.13,0.887
		c-2.406-1.137-2.58-2.404-3.455-4.541l0.511-4.238c-0.493-4.404-0.342-8.873-0.347-13.793l0.497,0.322
		c-0.194-1.199-0.637-2.609-0.706-3.676c-0.004-0.076,0.508-0.463,0.457-0.957c-0.047-0.508-1.24-2.434-1-2.828
		c0.773-1.279,0.24-6.322,0.07-8.777c-0.092-1.342,0.24-3.057-0.797-4.492c1.211-0.205,0.98-1.1,1.871-1.459
		c-0.1-0.83,1.236-0.979,0.914-1.914c2.074,0.479,3.839,1.609,5.105,3.787c0.446-0.537,1.061-0.992,1.375-1.592
		c0.369-0.695,0.316-1.988,0.775-2.602c0.203-0.27,1.332-0.16,1.451-0.457c0.561-1.365,0.973-1.582,2.229-3.061
		c1.854-2.176,7.262-5.225,11.889-5.314c0.803,0.848,2.162,1.473,3.078,2.178c0.535,0.412,0.77,1.471,1.4,1.918
		c0.355,0.252,1.371,0.008,1.678,0.258c1.088,0.885,1.221,2.076,2.576,3.119c0.387,0.299,1.303-0.004,1.678,0.26
		c0.273,0.195,0.148,1.313,0.449,1.432c0.744,0.291,0.674,0.387,1.176,1.201c1.182,1.914,4.039,8.668,3.828,12.162
		c-0.016,0.283,0.598,1.211,0.449,1.432c-0.836,1.26,0.561,4.379,0.574,6.895c0.002,0.109-0.529,0.426-0.5,0.943
		c0.166,2.924,0.373,7.225,0.25,10.93c-0.004,0.172-0.533,0.377-0.502,0.943c0.074,1.318,0.516,2.006,0.4,3.807
		c-0.012,0.219-0.533,0.34-0.498,0.943c0.023,0.455,0.494,0.982,0.447,1.432c-0.049,0.48-0.967,1.504-1,1.887
		c-0.043,0.455,0.424,0.973,0.451,1.43c0.043,0.785-0.459,1.877-0.553,3.32c-0.1,1.559-0.09,3.24-0.1,4.75
		C347.323,117.931,346.788,121.083,349.54,124.382z M329.104,56.905c-2.4,0.291-3.908,1.547-4.131,2.086
		c-0.059,0.143-1.27,0.416-1.451,0.457c-0.801,0.186-1.396,1.588-1.729,2.115c-0.389,0.627-1.631,1.57-0.273,1.66
		c-0.141-0.871,0.9-1.139,1.951-1.4c-0.012-0.607-0.424-1.418,0.275-1.66c0.564,0.846,1.133,0.332,1.453-0.457
		C325.735,58.392,330.198,58.401,329.104,56.905z M493.303,57.104c-1.068-0.602-4.92-0.914-7.539-0.105
		c-0.055,0.018,0.1-0.439,0.057-0.377c-0.172,0.25-1.234-0.049-1.496,0.131c-0.408,0.277-0.893,1.381-1.385,1.654
		c-0.6,0.336-1.609-0.061-2.246,0.197c-0.246,0.102-1.07,1.439-1.385,1.656c-0.557,0.381-0.945,0.521-1.441,0.893
		c-0.561,0.42-1.496,1.631-2.131,1.723c-0.846,0.119-0.316,0.57-0.693,0.826c-1.967,1.342-2.883,1.787-4.268,3.443
		c-1.654,1.979-2.543,3.574-4.154,4.967c-0.742,0.641-0.846,0.863-1.385,1.654c-0.188,0.273-1.291-0.133-1.496,0.131
		c-0.215,0.279,0.232,1.182,0.111,1.525c-0.092,0.256-1.275,0.596-1.441,0.893c-0.205,0.371,0.254,1.121,0.111,1.525
		c-0.098,0.27-1.283,0.572-1.439,0.893c-0.512,1.037-0.094,2.064-0.525,3.113c-0.043,0.105-0.662-0.02-0.748,0.066
		c-0.572,0.559,0.098,3.711-1.33,3.557c-0.182-0.885-0.029-2.174-0.914-2.219c-2.029,5.039-0.525,11.984,0.309,14.543
		c0.299,0.924,0.211,1.004,0.861,1.459c0.238,0.17-0.055,1.258,0.111,1.525c0.059,0.096,0.648-0.137,0.748-0.066
		c0.264,0.184-0.107,1.271,0.111,1.523c0.916,1.059,1.766,1.186,2.412,2.09c0.406,0.566,1.582,1.506,1.664,2.154
		c0.184,1.469,5.432,4.881,5.629,4.875c0.93-0.033,2.758,1.598,3.16,2.023c0.234,0.248,2.016,0.404,2.299,0.564
		c1.172,0.66,3.736,1.006,5.35,1.064c4.154,0.152,8.184-1.115,10.42-1.682c0.988-0.098,0.586-1.396,1.385-1.656
		c2.617-0.588,3.955-2.283,5.764-3.572c0.387-2.396-2.162-1.285-1.775-3.68c-0.92-0.006-1.789-0.072-1.609-1.393
		c-0.889-0.043-2.113,0.316-2.299-0.566c0.396-0.5,1.486-3.768-0.279-3.809c-0.648,1.496-2.66,1.273-4.379,1.918
		c-1.596,0.598-3.328,1.719-5.125,1.982c-6.029,0.887-12.598-0.498-16.049-3.191c-0.174-4.432-1.5-9.865,1.408-11.629
		c2.023,1.264,4.559,2.463,6.957,2.459c1.256-0.004,6.164-1.275,9.561-3.141c0.336-0.186,1.006-1.369,1.385-1.656
		c0.682-0.516,1.434-0.4,2.189-0.959c0.424-0.313,0.918-1.301,1.385-1.654c2.094-1.582,3.381-2.385,4.961-4.271
		c0.871-1.043,2.549-2.885,2.77-3.311c0.344-0.668,0.053-2.613,0.469-3.875c0.029-0.092,0.672,0.008,0.746-0.066
		c0.207-0.201-0.219-1.236-0.109-1.523c0.037-0.1,0.666,0.014,0.748-0.066c1.383-1.357-1.615-6.844-0.615-8.383
		C496.137,59.687,495.066,58.099,493.303,57.104z M492.197,64.729c0.092,1.27,0.768,2.369,0.279,3.811
		c-1.332-0.068-1.803,0.24-1.721-1.516c-1.41,0.209-0.336,2.566-2.078,2.484c1.104,2.385-2.379-0.607-1.273,1.777
		c-5.482,2.627-7.834,7.967-15.959,8.305c-0.791-1.971,1.309-1.48,1.273-3.18c-0.008-0.363,1.063-2.174,1.33-2.418
		c0.496-0.459,1.662-0.434,2.188-0.959c0.975-0.977,1.137-2.504,2.023-3.244c0.664-0.561,1.551-0.479,2.188-0.961
		c0.439-0.332,0.984-1.387,1.385-1.654c0.803-0.537,1.463-0.498,2.189-0.959c0.137-0.09,2.801-0.826,2.936-1.025
		c0.039-0.057-0.102-0.752-0.053-0.762C488.6,64.009,490.605,63.923,492.197,64.729z M218.097,14.185
		c-2.014,2.344-2.633,5.166-5.047,6.82c-0.457,2.74-0.84,5.537-2.711,7.23c-0.246-0.855-0.188-2.125-1.074-2.115
		c-1.393,5.209-1.461,13.182-1.9,17.727c-0.096,0.982-0.342,2.633-0.299,3.078c0.063,0.639-0.621,0.715-0.631,0.852
		c-0.285,4.334,0.58,8.912,0.512,13.574c-3.346,1.088-6.51,3.145-9.088,5.148c-0.391,0.303-0.828,1.355-1.262,1.707
		c-0.34,0.271-1.119-0.016-1.484,0.221c-0.234,0.15-0.258,1.371-0.52,1.594s-1.127,0.914-1.373,0.965
		c-0.813,0.164-0.295,0.621-0.631,0.852c-0.9,0.617-2.133,0.434-2.855,1.186c-0.338,0.35-0.945,1.277-1.262,1.705
		c-0.402,0.541-0.887,1.162-1.262,1.705c-0.662,0.951-0.684,3.262-2.525,3.41c-1.293-3.596,1.762-3.975,1.229-7.008
		c-2.064-0.707-1.184,1.51-1.893,2.559c-0.891,1.313-2.625,2.363-2.523,3.41c0.082,0.863-0.428,0.4-0.631,0.852
		c-0.773,1.703-1.063,2.748-1.672,4.043c-0.771,1.641-0.434,3.172-0.707,5.414c-0.227,1.852-0.861,3.371-0.818,4.672
		c0.07,2.26,0.248,5.793,1.219,8.158c0.082,0.199,1.504,0.982,1.705,1.262c0.633,0.885,0.432,2.139,1.186,2.857
		c-0.018-0.018,4.484,2.074,4.895,2.301c0.689,0.385,1.041,0.898,1.705,1.262c2.08,1.139,4.133,2.176,5.746,2.934
		c0.811,0.381,1.291,0.309,2.336,0.408c3.607,0.35,9.279-0.156,13.352-1.994c0.867,3.404,1.146,4.303,2.703,7.938
		c4.656-0.35,6.6,2.969,10.42,3.752c-0.961-6.43-1.922-12.857-2.883-19.287c0.244-1.797,2.168-2.354,2.412-4.152
		c-1.92,0.516-2.586-0.662-2.668-2.635c-0.135-28.469-3.117-59.043,1.898-83.699c-0.25-0.553-0.75-0.77-1.594-0.52
		C220.009,13.394,218.671,13.517,218.097,14.185z M205.72,68.358c0.609-0.23,0.742,0.186,0.852,0.631
		c0.863,0.016,0.523,0.684,0.111,0.742c1.166,9.879-0.197,17.887,1.135,27.889c-4.014,2.969-9.398,4.922-15.766,6.146
		c-2.396-3.57-2.879-7.305-2.404-11.016c0.033-0.26-0.383-1.305-0.221-1.482c0.055-0.063,0.732-0.043,0.742-0.111
		c0.332-2.475-0.043-3.822,0.707-5.414c0.4-0.855,0.697-1.596,1.15-2.447c0.295-0.557,0.986-1.182,1.262-1.705
		c0.641-1.221,1.91-2.582,3.154-4.264c1.535-2.072,1.701-2.686,3.896-4.373c0.357-0.275-0.203-0.684,0.631-0.854
		c1.355-0.275,2.002-1.938,3.377-2.779C205.226,69.313,205.642,68.962,205.72,68.358z M177.139,139.39
		c-2.434,0.064-3.205-1.766-5.639-1.701c0.041-2.514-3.73-0.676-4.951-1.746c-1.48-7.252-1.193-14.018-2.004-19.904
		c-0.176-1.266-0.826-2.828-0.961-4.082c-0.059-0.549-0.26-1.527-0.135-2.063c0.076-0.342,0.646-0.805,0.643-0.734
		c0.035-0.531-0.912-0.656-0.779-1.33c0.039-0.205,0.703-0.055,0.643-0.732c0.01,0.133-0.689-0.254-0.732-0.643
		c-0.146-1.221-0.158-2.865-0.318-4.816c-0.096-1.156,0.834-0.566-0.092-1.375c-1.213-1.064,0.34-7.631-0.678-10.318
		c-0.779-1.66-2.58,1.121-4.816,0.316c-1.99,0.049-4.479,0.674-5.549-0.324c-2.057,1.699-1.051,4.785-2.299,7.059
		c-0.414,0.756,0.113,2.832-0.461,3.486c-0.057,0.064-0.67-0.027-0.688,0.045c-0.432,1.758-0.549,3.813-1.014,5.594
		c-0.273,1.053-0.645,2.807-1.104,4.219c-0.266,0.818-0.23,1.607-0.506,2.797l-0.467,2.002c-0.416,0.756,0.113,2.832-0.461,3.484
		c-0.059,0.066-0.67-0.027-0.688,0.047c-0.264,1.025-0.094,1.795-0.508,2.797c-0.635,1.541-2.176,2.445-2.479,4.309
		c-1.912-1.406-2.434-1.586-4.264-1.791c-0.539-1.627-0.881-1.502-2.199-1.928c-1.174-0.379-2.043,0.227-2.797-0.508
		c0.27-1.811,0.682-3.053,1.059-4.904c0.047-0.236-0.252-1.229-0.092-1.377c0.061-0.059,0.67,0.023,0.689-0.045
		c0.383-1.447,0.539-3.232,1.025-4.787l-0.055-0.012c0.082-0.252-0.27-1.209-0.09-1.377c0.904-0.846,1.088-3.998,1.656-6.326
		c2.402-9.867,4.941-20.066,7.678-30.217c0.066-0.244-0.26-1.215-0.09-1.375c0.076-0.07,0.654,0.043,0.688-0.045
		c0.104-0.258-0.279-1.199-0.09-1.377c0.752-0.701-0.135-2.066,0.506-2.797c0.063-0.068,0.666,0.033,0.688-0.045
		c0.439-1.543,0.453-3.598,1.061-4.906c0.133-0.287,0.477-0.17,0.641-0.732c0.434-1.488,0.586-3.445,1.059-4.906
		c0.197-0.604,0.773-2.516,1.105-4.219c0.248-1.283,0.232-2.51,0.461-3.484c0.049-0.221,0.65-0.07,0.643-0.734
		c-0.02-1.51,0.525-2.826,1.059-4.904c0.061-0.242,0.65-0.055,0.643-0.734c-0.004-0.26-0.303-1.908-0.137-2.064
		c0.961-0.898,1.205-3.881,1.656-6.326c0.373-2.021,1.48-3.502,2.389-5.686c-0.275-1.215,0.557-1.453,0.643-0.732
		c1.123,0.121,1.141-0.729,2.018-0.824c0.988-3.887,2.451-7.357,4.867-9.994c2.07-0.635,2.555,0.539,4.174,0.416
		c-0.867,3.502,0.133,6.73,0.682,10.318c1.084,7.145,0.533,14.725,1.449,22.014c0.199,1.566,0.824,3.166,1.006,4.77
		c0.533,4.715,0.258,9.305,0.953,14.447c0.17,1.264,0.879,2.779,0.959,4.082c-0.012-0.182-1.1,0.414-0.643,0.732
		c0.818,0.572,0.105,0.354,0.092,1.377c-0.018,1.145,0.223,2.293,0.227,3.439c0.303,0.887,1.281,1.002,1.512,1.973
		c2.973-0.436,4.159,0.211,4.158,1.643c0,2.082-1.445,4.123-5.125,4.639c1.541,6.893,1.752,16.1,2.365,25.408
		C175.932,121.079,176.57,130.778,177.139,139.39z M160.402,74.167c-0.002-0.025,0.652-0.012,0.688-0.045
		c0.137-0.129-0.107-1.164-0.092-1.377c0.32-4.199-1.152-11.525-1.443-13.668c0.006,0.041,1.313-1.334-0.092-1.375
		c-0.119-0.768,0.93-1.137-0.09-1.377c-1.631,7.43-4.385,16.555-5.441,24.486c2.58-0.547,4.188-1.947,7.477-1.875
		C162.02,77.647,160.504,75.733,160.402,74.167z M466.052,62.599c-0.275-0.135-0.082-1.18-0.322-1.383
		c-0.494-0.416-1.449-0.188-1.703-1.063c-0.227-0.789-0.512-0.205-0.848-0.531c-1.383-1.336-2.35-2.205-3.566-2.814
		c-0.455-2.111-2.082-2.35-3.033-3.666c-0.898,0.51-1.654-0.314-2.234-0.211c-0.654,0.115-0.645-0.523-0.852-0.533
		c-1.506-0.066-3.543,0.814-4.836,1.121c-0.488,0.115-0.158-0.924-0.693,0.16c-0.1,0.205-1.164,0.197-1.381,0.32
		c-1.846,1.045-4,1.975-4.518,2.502c-0.371,0.379-0.84,0.73-1.223,1.012c-1.816,1.33-2.354,1.609-2.977,2.873
		c-0.131,0.268-1.17,0.096-1.379,0.32c-0.197,0.207-0.238,1.268-0.373,1.543c-0.137,0.275-1.189,0.07-1.383,0.32
		c-0.438,0.561,0.141,1.605-0.211,2.232c-0.143,0.252-1.143,0.139-1.381,0.32c-0.123,0.094-0.273,1.361-0.373,1.543
		c-0.505,0.932-0.97,1.732-1.351,2.455c-0.052-0.01-0.094-0.023-0.147-0.033c-0.111-0.018,0.094-0.621,0.102-0.742
		c0.158-1.836-1.703-2.037-2.662-2.641c-0.855-0.537-1.59-4.58-3.51-2c1.162,1.609,1.688,3.666,2.252,5.611
		c0.588,2.02,1.412,4.475,1.305,6.996l0.687,2.029c-0.382,1.902-0.763,3.945-0.886,4.758c-0.236,1.525-0.18,2.002,0.109,3.615
		c0.105,0.602-0.535,0.721-0.531,0.852c0.031,2.635,1.027,5.936,0.217,7.232c-0.266,0.426,0.627,2.227,0.641,2.764
		c0.025,1.152-0.564,3.492-0.582,3.775c-0.158,2.408,0.625,3.914,0.59,5.689c-0.002,0.066-0.648,0.094-0.691,0.16
		c-0.531,0.848,0.596,2.088-0.051,2.924c-0.154,0.201,0.361,1.115,0.32,1.383l0.652-0.107c0.051,1.465,1.569,2.424,3.122,2.475
		c0.528,0.867,1.263,1.455,2.415,1.479c0.979-0.102,1.48-0.574,2-1.016c1.08-0.914,0.553-0.967,1.09-2.314
		c0.21-0.529,0.382-1.295,0.513-2.045c0.056-0.043,0.11-0.088,0.168-0.129l1.259-0.211c-0.002-0.057-0.066-0.1-0.029-0.16
		c0.051-0.082,0.082-0.23,0.105-0.404c0.09-0.041,0.173-0.092,0.266-0.129l-0.479-6.834c-0.115-3.154-0.226-6.365-0.395-9.551
		c0.004-0.908-0.064-1.857-0.159-2.729c-0.162-2.408-0.381-4.779-0.676-7.08c-0.002-0.02-0.004-0.039-0.008-0.057
		c-0.115-0.9-0.236-1.797-0.38-2.674c2.879-4.041,4.223-11.24,9.027-14.469c1.994-1.34,3.979-1.373,6.063-2.133
		c2.184-0.797,1.676-1.48,2.764-0.641c0.197,0.154,1.113-0.361,1.381-0.318c1.258,0.193,4.598,1.146,4.787,1.803
		c0.494,1.717,1.824,1.064,2.234,0.211c0.344-0.715,1.234,1.125,2.006-0.234C467.155,62.614,466.403,62.772,466.052,62.599z
		 M389.877,66.532c0.088-1.082,1.123-1.365,1.305-2.369c-2.025-1.711-4.113-3.35-7.111-3.906c-1.453-1.791,0.891-2.996-1.75-2.861
		c-1.291-1.762-6.398,1.01-7.602-0.854c-0.141-13.293,0.639-25.811,2.027-37.813c-2.033-0.604-2.77-2.748-4.803-3.352
		c-1.318-0.066-2.709,1.617-2.52,0.377c0.342-2.24,0.188-3.342-0.854-3.164c-2.881,0.58-1.869,2.996-2.414,5.541
		c-0.951-0.084-1.627-1.033-1.43,0.875c-1.508,13.059-2.102,26.887-2.518,40.865c-5.033,1.77-13.246,0.865-13.752,6.447
		c0.391,1.734,2.459,1.475,3.248,2.734c-0.271,3.338,2.68,2.852,3.436,4.975c2.629,0.758,5.072-2.113,5.979-0.514l0.506-0.135
		c0.01,0.156,0.012,0.32,0.025,0.473c0.025,0.283-0.553,1.232-0.4,1.445c0.541,0.771,0.307,1.145,0.119,2.369
		c-0.035,0.223-0.518,1.281-0.402,1.445c0.807,1.146-0.033,5.588-0.045,8.551c-0.004,1.293,0.398,2.801,0.439,4.016
		c0.066,1.828,0.279,3.279,0.24,4.736c-0.035,1.357,0.135,2.277,0.206,3.551l-1.106,0.402c0.021,0.23,0.537,0.309,0.521,0.924
		c-0.041,1.531-0.232,1.928-0.082,3.09c0.047,0.359,0.693,0.145,0.521,0.924c-0.566,2.551,1.205,6.611,1.199,9.676
		c-0.361,1.777,5.953,0.477,6.465-3.65c-0.205,2.854,3.715,2.627,4.857,2.131s0.162-3.637-0.037-5.461
		c-0.033-0.287,0.555-1.229,0.402-1.445c-0.059-0.082-0.715-0.113-0.723-0.201c-0.196-1.844-0.179-3.672-0.257-5.479l0.837-0.119
		c-0.068-0.396-0.699-0.119-0.521-0.924c0.189-0.855,0.387-2.188,0.283-3.814c-0.02-0.293-0.686-0.186-0.521-0.924
		c0.256-1.148-0.084-1.404-0.121-2.367c-0.066-1.846-0.045-3.686-0.037-5.461c0.002-0.26,0.539-1.25,0.402-1.445
		c-0.256-0.363-0.668-1.836-0.641-3.291c0.078-4.172,0.787-8.16,0.914-12.512C378.957,68.481,384.607,67.667,389.877,66.532z"/>
	<g id="Sign_5_">
		<path id="Post_right" fill="#6D6E71" d="M69.848,127.892l9.953-1.514h0.029V16.011l-10.285-1.834v113.664L69.848,127.892z
			 M74.885,119.384c-0.791-0.033-1.436-0.773-1.436-1.648c0-0.877,0.645-1.559,1.436-1.523c0.795,0.035,1.436,0.771,1.436,1.65
			C76.32,118.733,75.68,119.415,74.885,119.384z M74.477,101.884c0.795,0.059,1.436,0.975,1.436,2.043
			c0,1.07-0.641,1.896-1.436,1.844c-0.791-0.051-1.436-0.967-1.436-2.041C73.041,102.653,73.686,101.829,74.477,101.884z"/>
		<path id="Post_left" fill="#A7A9AC" d="M60.762,126.378l8.861,1.477V14.099l-9.271,1.83v110.449H60.762z M64.742,101.644
			c0.717-0.057,1.295,0.768,1.295,1.838c0,1.072-0.578,1.984-1.295,2.039c-0.713,0.053-1.291-0.771-1.291-1.842
			C63.451,102.612,64.029,101.7,64.742,101.644z M64.742,115.218c0.717-0.037,1.295,0.652,1.295,1.537
			c0,0.887-0.578,1.631-1.295,1.664c-0.713,0.033-1.291-0.656-1.291-1.539S64.029,115.253,64.742,115.218z"/>
		<g id="Little_Sign_2_">
			<g id="Sign_shadow_1_">
				<path fill="#6D6E71" d="M120.572,11.2l-0.328-0.314c0,0-95.502,60.656-95.574,60.656c-0.201,0-0.389-0.047-0.572-0.111
					c0.367,0.467,0.848,0.727,1.377,0.658l91.715-11.959c4.004-0.523,4.004-4.209,4.004-5.395V13.452
					C121.193,12.546,120.955,11.772,120.572,11.2z"/>
			</g>
			<g id="Sign_1_">
				<path fill="#2A6941" d="M120.244,54.831c0,2.055-1.189,3.881-2.654,4.074L24.701,71.142c-1.15,0.152-2.08-1.199-2.08-3.012
					V30.733c0-1.814,0.93-3.463,2.08-3.686l92.889-17.82c1.465-0.283,2.654,1.16,2.654,3.217V54.831z"/>
				<path fill="#FFFFFF" d="M24.525,71.403c-1.228,0-2.154-1.406-2.154-3.273V30.733c0-1.957,1.002-3.684,2.283-3.93l92.889-17.82
					c1.633-0.326,2.951,1.279,2.951,3.461v42.387c0,2.174-1.288,4.113-2.872,4.322L24.734,71.39
					C24.664,71.399,24.594,71.403,24.525,71.403z M117.954,9.442c-0.104,0-0.209,0.01-0.317,0.031l-92.889,17.82
					c-1.017,0.197-1.877,1.771-1.877,3.439V68.13c0,1.637,0.805,2.91,1.797,2.764l92.889-12.236
					c1.344-0.176,2.437-1.893,2.437-3.826V12.444C119.994,10.733,119.117,9.442,117.954,9.442z"/>
			</g>
			<g id="Little">
				<g id="L_3_">
					<path fill="#FFFFFF" d="M43.205,52.188c0,0.807-0.191,1.539-0.578,2.195c-0.197,0.34-0.451,0.592-0.762,0.756
						c-0.314,0.16-0.762,0.285-1.346,0.373l-3.736,0.559c-0.586,0.088-1.012,0.127-1.279,0.115
						c-0.271-0.006-0.486-0.063-0.648-0.164c-0.164-0.102-0.348-0.279-0.551-0.535c-0.262-0.344-0.436-0.764-0.518-1.258
						c-0.082-0.498-0.125-1.346-0.125-2.543V41.114c0-1.066,0.035-1.881,0.109-2.443c0.072-0.563,0.223-1.045,0.447-1.453
						c0.428-0.744,0.943-1.172,1.547-1.277c0.604-0.107,1.123,0.129,1.553,0.709c0.238,0.328,0.393,0.756,0.467,1.287
						c0.074,0.529,0.111,1.354,0.111,2.457v9.771l2.623-0.41c0.604-0.098,1.059-0.115,1.359-0.061s0.545,0.215,0.732,0.482
						C43.008,50.726,43.205,51.397,43.205,52.188z"/>
				</g>
				<g id="I_1_">
					<path fill="#FFFFFF" d="M49.648,49.542c0,1.098-0.039,1.924-0.115,2.48s-0.234,1.041-0.475,1.451
						c-0.422,0.777-0.957,1.215-1.602,1.313c-0.627,0.094-1.162-0.166-1.605-0.779c-0.236-0.33-0.393-0.773-0.469-1.332
						c-0.074-0.561-0.111-1.377-0.111-2.451V39.138c0-1.084,0.037-1.914,0.111-2.49c0.076-0.572,0.232-1.064,0.469-1.473
						c0.109-0.186,0.242-0.369,0.4-0.555c0.16-0.186,0.342-0.346,0.549-0.482c0.205-0.133,0.418-0.225,0.639-0.262
						c0.314-0.057,0.611-0.021,0.887,0.1c0.277,0.119,0.518,0.326,0.719,0.615c0.242,0.332,0.404,0.779,0.484,1.344
						c0.078,0.564,0.119,1.383,0.119,2.459V49.542z"/>
				</g>
				<g id="T_5_">
					<path fill="#FFFFFF" d="M64.32,34.173c0,0.832-0.203,1.588-0.609,2.268c-0.221,0.369-0.492,0.637-0.816,0.807
						c-0.324,0.168-0.795,0.307-1.414,0.408l-1.176,0.199v10.027c0,1.123-0.043,1.969-0.123,2.543
						c-0.082,0.574-0.246,1.066-0.49,1.475c-0.471,0.777-1.014,1.213-1.631,1.307c-0.291,0.041-0.578-0.006-0.863-0.146
						c-0.287-0.135-0.545-0.352-0.771-0.645c-0.238-0.334-0.4-0.791-0.484-1.369c-0.088-0.578-0.129-1.4-0.129-2.465v-9.967
						l-1.137,0.191c-0.375,0.063-0.697,0.094-0.971,0.088c-0.271-0.006-0.5-0.045-0.68-0.125c-0.182-0.078-0.346-0.211-0.494-0.404
						c-0.416-0.547-0.625-1.221-0.625-2.021c0-0.818,0.184-1.553,0.551-2.201c0.197-0.371,0.457-0.639,0.779-0.807
						c0.32-0.17,0.801-0.313,1.439-0.424l6.805-1.203c0.613-0.107,1.082-0.131,1.41-0.068c0.326,0.061,0.588,0.223,0.787,0.484
						C64.105,32.692,64.32,33.378,64.32,34.173z"/>
				</g>
				<g id="T_4_">
					<path fill="#FFFFFF" d="M78.42,31.741c0,0.846-0.211,1.617-0.633,2.311c-0.227,0.377-0.51,0.648-0.848,0.824
						c-0.336,0.172-0.824,0.313-1.465,0.42l-1.221,0.209V45.71c0,1.143-0.043,2.006-0.125,2.59c-0.086,0.584-0.254,1.084-0.51,1.502
						c-0.486,0.793-1.049,1.238-1.691,1.332c-0.299,0.047-0.598-0.002-0.895-0.143c-0.295-0.139-0.561-0.357-0.797-0.654
						c-0.248-0.342-0.416-0.805-0.504-1.393S69.6,47.519,69.6,46.433V36.286l-1.176,0.199c-0.389,0.066-0.725,0.096-1.006,0.094
						c-0.283-0.004-0.52-0.045-0.705-0.125c-0.189-0.076-0.361-0.215-0.514-0.41c-0.432-0.555-0.646-1.242-0.646-2.057
						c0-0.83,0.191-1.58,0.57-2.242c0.205-0.375,0.473-0.65,0.805-0.822c0.336-0.176,0.834-0.32,1.496-0.438l7.051-1.244
						c0.637-0.111,1.123-0.137,1.461-0.076c0.34,0.063,0.609,0.225,0.816,0.49C78.197,30.233,78.42,30.929,78.42,31.741z"/>
				</g>
				<g id="L_2_">
					<path fill="#FFFFFF" d="M91.621,44.757c0,0.863-0.219,1.641-0.654,2.34c-0.225,0.367-0.512,0.637-0.867,0.814
						c-0.352,0.176-0.861,0.313-1.523,0.412l-4.229,0.633c-0.658,0.098-1.143,0.143-1.447,0.137
						c-0.307-0.004-0.551-0.063-0.734-0.17c-0.182-0.107-0.389-0.293-0.621-0.563c-0.295-0.363-0.49-0.809-0.584-1.336
						c-0.096-0.527-0.143-1.428-0.143-2.699V33.081c0-1.135,0.041-2.002,0.125-2.602c0.082-0.598,0.25-1.115,0.504-1.549
						c0.484-0.797,1.068-1.258,1.75-1.377c0.684-0.121,1.271,0.123,1.76,0.734c0.27,0.344,0.443,0.799,0.527,1.363
						s0.125,1.438,0.125,2.613v10.396l2.967-0.467c0.688-0.107,1.203-0.133,1.543-0.078c0.342,0.057,0.617,0.225,0.83,0.508
						C91.396,43.204,91.621,43.915,91.621,44.757z"/>
				</g>
				<g id="E_1_">
					<path fill="#FFFFFF" d="M105.584,42.735c0,0.85-0.217,1.615-0.648,2.297c-0.232,0.355-0.531,0.623-0.898,0.797
						c-0.365,0.176-0.859,0.309-1.484,0.402l-5.041,0.754c-0.469,0.07-0.848,0.115-1.137,0.131
						c-0.295,0.018-0.543,0.006-0.746-0.035c-0.205-0.039-0.377-0.111-0.516-0.219c-0.137-0.105-0.305-0.266-0.5-0.475
						c-0.305-0.367-0.506-0.818-0.604-1.355c-0.098-0.535-0.145-1.451-0.145-2.744V31.241c0-0.977,0.016-1.697,0.049-2.16
						c0.035-0.465,0.096-0.84,0.188-1.125c0.092-0.283,0.25-0.619,0.477-1.002c0.205-0.354,0.42-0.623,0.637-0.811
						c0.217-0.189,0.488-0.34,0.813-0.449c0.326-0.111,0.82-0.223,1.484-0.342l4.895-0.863c0.672-0.119,1.17-0.152,1.496-0.104
						c0.324,0.051,0.592,0.213,0.797,0.49c0.189,0.217,0.344,0.502,0.471,0.855c0.125,0.354,0.188,0.754,0.188,1.201
						c0,0.82-0.213,1.57-0.639,2.252c-0.225,0.357-0.51,0.629-0.854,0.809c-0.344,0.178-0.83,0.318-1.459,0.424l-3.582,0.607v1.529
						l3.113-0.521c0.66-0.111,1.152-0.137,1.473-0.086c0.322,0.055,0.586,0.219,0.793,0.498c0.424,0.535,0.637,1.215,0.637,2.037
						c0,0.803-0.213,1.543-0.637,2.217c-0.227,0.357-0.504,0.619-0.834,0.785c-0.332,0.162-0.809,0.295-1.432,0.393l-3.113,0.5
						v2.365l3.729-0.586c0.668-0.104,1.176-0.125,1.523-0.064c0.348,0.063,0.627,0.236,0.84,0.525
						C105.359,41.181,105.584,41.888,105.584,42.735z"/>
				</g>
			</g>
		</g>
		<g id="Town_Sign_2_">
			<g id="Sign_shadow">
				<path fill="#6D6E71" d="M125.355,111.554c0,1.811-1.021,3.209-2.281,3.178l-101.08-6.689c-2.697-0.176-3.916-2.92-3.916-4.574
					V61.806c0-2.051,1.307-3.557,2.914-3.363L123.07,70.698c1.264,0.152,2.285,1.744,2.285,3.553V111.554z"/>
			</g>
			<g id="Sign">
				<path fill="#2A6941" d="M126.078,110.563c0,1.807-1.021,3.207-2.281,3.121l-101.883-6.82c-1.604-0.107-2.908-1.855-2.908-3.908
					V60.733c0-2.047,1.305-3.551,2.908-3.354l101.883,12.361c1.26,0.154,2.281,1.746,2.281,3.555V110.563z"/>
				<path fill="#FFFFFF" d="M123.907,113.938c-0.042,0-0.084-0.002-0.127-0.004l-101.882-6.82c-1.732-0.115-3.142-1.98-3.142-4.158
					V60.733c0-2.193,1.402-3.809,3.189-3.602l101.882,12.361c1.379,0.17,2.501,1.875,2.501,3.803v37.268
					C126.328,112.456,125.265,113.938,123.907,113.938z M21.633,57.612c-1.355,0-2.377,1.342-2.377,3.121v42.223
					c0,1.92,1.2,3.561,2.675,3.66l101.883,6.82c1.145,0.076,2.015-1.215,2.015-2.873V73.296c0-1.684-0.925-3.166-2.062-3.307
					L21.884,57.628C21.799,57.618,21.715,57.612,21.633,57.612z"/>
			</g>
			<g id="Town">
				<g id="T_1_">
					<path fill="#FFFFFF" d="M48.598,73.562c0,1.088-0.305,2.002-0.912,2.736c-0.33,0.398-0.738,0.648-1.227,0.752
						c-0.486,0.098-1.197,0.104-2.139,0.01l-1.793-0.182v13.268c0,1.486-0.061,2.6-0.188,3.33c-0.123,0.729-0.373,1.328-0.752,1.793
						c-0.721,0.881-1.561,1.283-2.518,1.211c-0.449-0.039-0.895-0.197-1.342-0.473c-0.441-0.279-0.848-0.648-1.201-1.115
						c-0.373-0.527-0.631-1.191-0.764-1.998c-0.131-0.805-0.201-1.92-0.201-3.352V76.165l-1.791-0.182
						c-0.596-0.063-1.107-0.15-1.541-0.26c-0.436-0.113-0.797-0.256-1.084-0.436c-0.293-0.176-0.555-0.424-0.795-0.742
						c-0.668-0.908-1.004-1.906-1.004-2.994c0-1.111,0.297-2.031,0.887-2.758c0.316-0.422,0.732-0.68,1.242-0.775
						c0.516-0.096,1.283-0.086,2.295,0.027l10.549,1.166c0.932,0.102,1.641,0.26,2.133,0.471c0.492,0.209,0.885,0.521,1.182,0.945
						C48.279,71.542,48.598,72.521,48.598,73.562z"/>
				</g>
				<g id="O_1_">
					<path fill="#FFFFFF" d="M70.354,85.704c0,1.949-0.195,3.73-0.586,5.346c-0.391,1.617-0.986,3.012-1.789,4.18
						c-0.805,1.17-1.844,2.055-3.121,2.654c-1.279,0.6-2.764,0.832-4.453,0.697c-1.656-0.127-3.133-0.584-4.426-1.365
						c-1.299-0.779-2.375-1.836-3.229-3.158c-0.852-1.326-1.494-2.863-1.922-4.617c-0.43-1.756-0.645-3.664-0.645-5.723
						c0-2.596,0.367-4.898,1.105-6.908c0.732-2.008,1.863-3.547,3.385-4.609c1.518-1.064,3.387-1.467,5.607-1.221
						c1.723,0.191,3.227,0.701,4.516,1.531c1.285,0.826,2.332,1.896,3.152,3.205c0.814,1.301,1.418,2.791,1.813,4.463
						S70.354,83.69,70.354,85.704z M63.76,84.731c0-1.4-0.213-2.75-0.639-4.027c-0.426-1.287-1.338-1.998-2.742-2.143
						c-1.119-0.113-1.963,0.334-2.535,1.35c-0.572,1.012-0.857,2.496-0.857,4.453c0,0.834,0.049,1.578,0.137,2.229
						c0.094,0.652,0.215,1.197,0.373,1.635c0.156,0.438,0.326,0.811,0.508,1.123c0.57,1.02,1.355,1.57,2.352,1.658
						c0.605,0.053,1.154-0.09,1.635-0.422c0.484-0.336,0.865-0.805,1.145-1.414c0.414-0.92,0.625-2.309,0.625-4.162V84.731z"/>
				</g>
				<g id="W_1_">
					<path fill="#FFFFFF" d="M96.797,78.94c0,0.594-0.111,1.539-0.33,2.83l-2.262,13.186c-0.234,1.412-0.453,2.449-0.648,3.125
						c-0.201,0.672-0.459,1.232-0.779,1.682c-0.648,0.879-1.475,1.275-2.488,1.195c-0.422-0.033-0.77-0.143-1.047-0.313
						c-0.277-0.176-0.604-0.479-0.98-0.9c-0.402-0.496-0.734-1.143-0.996-1.934c-0.262-0.787-0.518-1.896-0.752-3.32l-1.582-9.766
						l-1.553,9.494c-0.201,1.264-0.422,2.244-0.66,2.947c-0.238,0.697-0.531,1.291-0.875,1.775c-0.58,0.85-1.348,1.238-2.305,1.162
						c-0.977-0.08-1.809-0.564-2.496-1.455c-0.383-0.482-0.68-1.107-0.898-1.875c-0.217-0.764-0.455-1.926-0.707-3.486
						l-2.355-13.896c-0.232-1.297-0.346-2.279-0.346-2.945c0-0.734,0.133-1.396,0.402-1.986c0.268-0.582,0.633-1.041,1.105-1.363
						c0.467-0.324,0.988-0.457,1.551-0.393c0.57,0.063,1.141,0.354,1.709,0.881c0.396,0.346,0.68,0.848,0.852,1.502
						c0.174,0.656,0.348,1.711,0.521,3.166l1.039,8.717l1.209-7.293c0.223-1.314,0.436-2.367,0.641-3.162
						c0.209-0.793,0.574-1.48,1.098-2.068c0.521-0.582,1.238-0.82,2.146-0.719c0.678,0.074,1.23,0.281,1.666,0.621
						c0.432,0.342,0.781,0.795,1.041,1.355c0.264,0.564,0.465,1.178,0.607,1.84c0.145,0.662,0.305,1.588,0.479,2.785l1.141,7.369
						l0.99-8.24c0.152-1.326,0.316-2.293,0.486-2.898c0.174-0.602,0.447-1.053,0.82-1.348c0.549-0.396,1.105-0.559,1.668-0.5
						c0.531,0.063,1.016,0.293,1.451,0.691c0.436,0.402,0.783,0.914,1.045,1.549C96.664,77.585,96.797,78.245,96.797,78.94z"/>
				</g>
				<g id="N_1_">
					<path fill="#FFFFFF" d="M116.252,95.995c0,1.238-0.029,2.199-0.086,2.885c-0.057,0.68-0.166,1.229-0.322,1.646
						c-0.16,0.416-0.408,0.826-0.748,1.229c-0.664,0.729-1.396,1.064-2.195,0.998c-0.545-0.041-0.992-0.197-1.348-0.463
						c-0.354-0.27-0.688-0.688-1.006-1.273c-0.318-0.582-0.721-1.5-1.213-2.748l-3.275-8.369v6.506c0,1.297-0.051,2.264-0.15,2.904
						c-0.098,0.641-0.309,1.172-0.627,1.59c-0.592,0.785-1.279,1.148-2.068,1.086c-0.395-0.031-0.775-0.176-1.145-0.422
						c-0.367-0.248-0.688-0.578-0.957-0.998c-0.307-0.477-0.514-1.051-0.623-1.738c-0.109-0.68-0.162-1.652-0.162-2.918V82.495
						c0-0.912,0.016-1.678,0.045-2.307c0.031-0.625,0.084-1.131,0.156-1.518c0.076-0.383,0.184-0.727,0.326-1.023
						c0.143-0.299,0.348-0.598,0.619-0.9c0.678-0.719,1.434-1.033,2.266-0.939c0.541,0.061,1.002,0.225,1.385,0.496
						c0.379,0.27,0.74,0.711,1.08,1.318c0.338,0.607,0.73,1.494,1.172,2.66l3.287,8.721v-6.621c0-1.291,0.049-2.268,0.146-2.924
						c0.1-0.664,0.303-1.191,0.607-1.592c0.566-0.742,1.248-1.066,2.041-0.979c0.367,0.039,0.736,0.184,1.1,0.432
						c0.367,0.244,0.672,0.564,0.918,0.961c0.301,0.443,0.508,1.012,0.615,1.703c0.107,0.697,0.162,1.688,0.162,2.979V95.995z"/>
				</g>
			</g>
		</g>
	</g>
</g>
<g id="Horizontal_logo_TM">
</g>
<g id="Centered_Logo">
</g>
<g id="Centered_logo_TM">
</g>
</svg>
