<svg id="Layer_1" data-name="Layer 1" xmlns="http://www.w3.org/2000/svg" viewBox="0 0 307.831 90.01">
  <defs>
    <style>
      .cls-1 {
        fill: #274864;
      }

      .cls-2 {
        fill: #d32f2f;
      }

      .cls-3 {
        fill: #386890;
      }

      .cls-4 {
        fill: #fff;
      }
    </style>
  </defs>
  <title>masca-logo</title>
  <g id="Layer_2" data-name="Layer 2">
    <g id="final">
      <g>
        <g>
          <path class="cls-1" d="M24.945,75.718l2.528-6.382h3.19v.435c-.973,0-1.129.332-1.129,1.648v4.247c0,1.44.166,1.616,1.243,1.647v.435H26.634v-.435c1.036,0,1.253-.217,1.253-1.575V70.621h-.01l-2.942,7.252H24.1l-3.014-7.252h-.093v5.045c0,1.44.165,1.616,1.243,1.647v.435H18.916v-.435c1.036,0,1.264-.217,1.264-1.575V71.356c0-1.232-.166-1.574-1.15-1.574v-.435h3.315l2.548,6.381Z"/>
          <path class="cls-1" d="M33.927,75.966c0,1.161.114,1.326.953,1.358v.435H31.43v-.435c.818,0,.974-.249.974-1.285V74.692a10.644,10.644,0,0,0-.073-1.606c-.083-.393-.279-.393-.984-.393V72.32l2.538-.415Zm-.767-7.251a.85.85,0,1,1-.839.86v-.011a.839.839,0,0,1,.8-.879h.042Z"/>
          <path class="cls-1" d="M40.329,77.065h0a2.591,2.591,0,0,1-1.958.808,2.788,2.788,0,0,1-2.884-2.686c0-.093,0-.185,0-.277a2.86,2.86,0,0,1,2.654-3.051l.112,0a2.009,2.009,0,0,1,1.709.725h0v-.922a12.828,12.828,0,0,0-.062-1.72c-.062-.311-.425-.435-1.191-.435v-.373l2.766-.435V74.91a13.213,13.213,0,0,0,.114,1.927c.062.383.186.445.808.445v.425l-2.072.124Zm-.342-2.435a2.635,2.635,0,0,0-.352-1.409,1.345,1.345,0,0,0-1.16-.642c-.85,0-1.327.818-1.327,2.31s.467,2.362,1.316,2.362a1.483,1.483,0,0,0,1.223-.684,2.725,2.725,0,0,0,.3-1.512Z"/>
          <path class="cls-1" d="M47.922,77.065h0a2.59,2.59,0,0,1-1.958.808,2.787,2.787,0,0,1-2.833-2.74c0-.074,0-.149.005-.223a2.86,2.86,0,0,1,2.652-3.053l.062,0a2.01,2.01,0,0,1,1.71.725h0v-.922a13.169,13.169,0,0,0-.062-1.72c-.063-.311-.425-.435-1.192-.435v-.373l2.766-.435V74.91a13.5,13.5,0,0,0,.114,1.927c.062.383.187.445.808.445v.425l-2.072.166Zm-.341-2.435a2.63,2.63,0,0,0-.353-1.4,1.348,1.348,0,0,0-1.16-.642c-.849,0-1.326.819-1.326,2.31s.466,2.362,1.316,2.362a1.479,1.479,0,0,0,1.222-.683,2.729,2.729,0,0,0,.3-1.513Z"/>
          <path class="cls-1" d="M52.947,75.966c0,1.161.114,1.326.953,1.358v.435H50.45v-.435c.819,0,.974-.249.974-1.285V71.533a10.632,10.632,0,0,0-.073-1.606c-.072-.363-.269-.446-.942-.446v-.373l2.538-.414Z"/>
          <path class="cls-1" d="M60.033,76.743a3.109,3.109,0,0,1-2.476,1.13,2.819,2.819,0,0,1-3-2.623,2.9,2.9,0,0,1,0-.309,3,3,0,0,1,2.876-3.108c.077,0,.155,0,.232,0a2.217,2.217,0,0,1,2.448,1.959,2.191,2.191,0,0,1,.008.413c0,.228,0,.249-.363.249H56.21a.958.958,0,0,0,0,.362c0,1.42.663,2.321,1.73,2.321a2.713,2.713,0,0,0,1.792-.8Zm-2.072-2.88c.59,0,.694,0,.694-.279a1.036,1.036,0,0,0-.964-1.1,1.5,1.5,0,0,0-1.315,1.377Z"/>
          <path class="cls-1" d="M68.486,75.21H65.378a4.817,4.817,0,0,0-.518,1.606c0,.435.332.508,1.036.508v.435H62.861v-.435a1.254,1.254,0,0,0,1.253-.891l2.88-7.252H67.8l2.611,6.392c.6,1.481.766,1.6,1.751,1.7v.445H68.02v-.445c.7,0,1.036-.114,1.036-.456a3.417,3.417,0,0,0-.28-1.036Zm-2.849-.652h2.6l-1.253-3.316h0Z"/>
          <path class="cls-1" d="M72.039,72.568v-.5a2.7,2.7,0,0,0,1.782-1.45h.56v1.347h1.253v.6H74.36v3.357c0,.9.186,1.243.642,1.243a.673.673,0,0,0,.642-.394l.228.322a1.4,1.4,0,0,1-1.44.777c-1.036,0-1.595-.5-1.595-1.337V72.568Z"/>
          <path class="cls-1" d="M78.649,75.966c0,1.161.114,1.326.953,1.358v.435h-3.45v-.435c.818,0,.974-.249.974-1.285V71.533a10.632,10.632,0,0,0-.073-1.606c-.072-.363-.269-.446-.942-.446v-.373l2.538-.414Z"/>
          <path class="cls-1" d="M83.59,74.071v-.456c0-.839-.3-1.212-.922-1.212-.414,0-.6.207-.787.735a.767.767,0,0,1-.808.591c-.4,0-.632-.259-.632-.715,0-.684.777-1.14,2.31-1.14s2.279.539,2.279,1.927v2.393q0,.933.373.933a.569.569,0,0,0,.383-.145l.166.321a1.345,1.345,0,0,1-1.2.59c-.663,0-1.035-.424-1.035-1.17h-.052a2.158,2.158,0,0,1-1.948,1.15A1.388,1.388,0,0,1,80.2,76.626c0-.051-.007-.1-.007-.152,0-.632.529-1.191,1.844-1.73Zm0,.58c-1.212.559-1.844,1.036-1.844,1.512a.622.622,0,0,0,.545.69.487.487,0,0,0,.066,0,1.18,1.18,0,0,0,1.232-1.128V74.651Z"/>
          <path class="cls-1" d="M88.915,75.977c0,1.181.073,1.3.953,1.347v.435H86.429v-.435c.849-.052.973-.177.973-1.275V74.692a9.9,9.9,0,0,0-.113-1.585c-.083-.383-.27-.456-.943-.456v-.373l2.072-.414.145.963h0a2.457,2.457,0,0,1,1.937-.963,2.072,2.072,0,0,1,1.968.829,2.721,2.721,0,0,1,.466,1.751v1.543c0,1.181.083,1.3.933,1.347v.435H90.49v-.435c.859,0,.973-.187.973-1.274V74.568c0-1.492-.321-2-1.263-2a1.15,1.15,0,0,0-1.036.746,2.828,2.828,0,0,0-.239,1.161Z"/>
          <path class="cls-1" d="M94.333,72.568v-.5a2.7,2.7,0,0,0,1.761-1.45h.518v1.347h1.254v.6H96.612v3.357c0,.9.187,1.243.642,1.243a.674.674,0,0,0,.643-.394l.228.322a1.4,1.4,0,0,1-1.44.777c-1.036,0-1.6-.5-1.6-1.337V72.568Z"/>
          <path class="cls-1" d="M101.046,75.966c0,1.161.114,1.326.953,1.358v.435H98.56v-.435c.818,0,.973-.249.973-1.285V74.692a10.514,10.514,0,0,0-.072-1.606c-.073-.362-.269-.445-.943-.445v-.373l2.538-.414Zm-.767-7.251a.85.85,0,1,1-.839.86v-.011a.839.839,0,0,1,.8-.879.464.464,0,0,1,.053,0Z"/>
          <path class="cls-1" d="M108.008,76.837a3.173,3.173,0,0,1-2.373.963,2.8,2.8,0,0,1-2.971-2.612,2.845,2.845,0,0,1,0-.32,2.942,2.942,0,0,1,2.843-3.038c.088,0,.177,0,.265,0,1.316,0,2.289.559,2.289,1.3a.632.632,0,0,1-.565.692.642.642,0,0,1-.1,0c-.342,0-.569-.166-.818-.559-.435-.7-.559-.788-.932-.788-.84,0-1.337.829-1.337,2.238s.591,2.383,1.627,2.383a2.921,2.921,0,0,0,1.75-.653Z"/>
          <path class="cls-1" d="M111.861,74.972h.425a2.445,2.445,0,0,0,2.507,2.227c1.1,0,1.823-.549,1.823-1.357s-.362-1.036-2.072-1.616-2.486-1.533-2.486-2.673a2.415,2.415,0,0,1,2.488-2.337c.072,0,.144.008.216.017a3.275,3.275,0,0,1,2.072.7l.2-.549h.259l.041,2.362h-.425a2.237,2.237,0,0,0-2.072-1.844c-.9,0-1.522.5-1.522,1.191s.352.9,1.864,1.461c2.072.777,2.87,1.595,2.87,2.808,0,1.481-1.347,2.507-3.263,2.507a3.567,3.567,0,0,1-2.269-.767l-.218.653h-.259Z"/>
          <path class="cls-1" d="M118.73,72.568v-.5a2.7,2.7,0,0,0,1.709-1.45H121v1.347H122.3v.6H121.05v3.357c0,.9.187,1.243.642,1.243a.674.674,0,0,0,.643-.394l.228.322a1.4,1.4,0,0,1-1.44.777c-1.036,0-1.6-.5-1.6-1.337V72.568Z"/>
          <path class="cls-1" d="M126.4,74.071v-.456c0-.839-.3-1.212-.922-1.212-.415,0-.6.207-.788.735a.765.765,0,0,1-.777.58c-.4,0-.632-.259-.632-.714,0-.684.777-1.14,2.311-1.14s2.279.539,2.279,1.927v2.393q0,.933.373.932a.569.569,0,0,0,.383-.145l.166.321a1.347,1.347,0,0,1-1.2.591c-.663,0-1.036-.425-1.036-1.171H126.5a2.155,2.155,0,0,1-1.968,1.161,1.388,1.388,0,0,1-1.516-1.247c0-.051-.007-.1-.007-.152,0-.632.528-1.191,1.844-1.73Zm0,.58c-1.212.559-1.844,1.036-1.844,1.512a.622.622,0,0,0,.544.69.512.512,0,0,0,.067,0,1.181,1.181,0,0,0,1.232-1.128V74.651Z"/>
          <path class="cls-1" d="M129.182,72.568v-.5a2.706,2.706,0,0,0,1.762-1.429h.559v1.326h1.253v.6H131.5v3.357c0,.9.186,1.243.642,1.243a.674.674,0,0,0,.643-.394l.227.322a1.4,1.4,0,0,1-1.44.777c-1.035,0-1.595-.5-1.595-1.337V72.568Z"/>
          <path class="cls-1" d="M139,76.743a3.108,3.108,0,0,1-2.486,1.13,2.819,2.819,0,0,1-3-2.623,2.9,2.9,0,0,1,0-.309,2.994,2.994,0,0,1,2.875-3.108c.078,0,.155,0,.233,0a2.216,2.216,0,0,1,2.458,1.945,2.165,2.165,0,0,1,.007.448c0,.228,0,.249-.362.249H135.2a.958.958,0,0,0,0,.362c0,1.419.663,2.321,1.73,2.321a2.718,2.718,0,0,0,1.793-.8Zm-2.072-2.88c.591,0,.694,0,.694-.279a1.035,1.035,0,0,0-.963-1.1,1.5,1.5,0,0,0-1.316,1.377Z"/>
          <path class="cls-1" d="M140.422,77.759h-.3V75.8h.456c.249,1.036.7,1.512,1.44,1.512.539,0,.849-.238.849-.632s-.352-.777-1.16-1.212c-1.108-.6-1.554-1.15-1.554-1.9a1.7,1.7,0,0,1,1.7-1.7l.085,0a2.3,2.3,0,0,1,1.253.373l.2-.259h.28v1.648h-.435c-.342-.829-.663-1.171-1.171-1.171A.6.6,0,0,0,141.4,73a.487.487,0,0,0,0,.066c0,.4.342.746,1.161,1.181,1.181.632,1.647,1.191,1.647,1.978,0,1.036-.788,1.679-1.989,1.679a2.33,2.33,0,0,1-1.544-.5Z"/>
          <path class="cls-1" d="M155.237,69.336h.538l-.217,2.766h-.435a2.539,2.539,0,0,0-2.5-2.165c-1.72,0-2.7,1.4-2.7,3.688s.953,3.522,2.745,3.522a2.776,2.776,0,0,0,2.829-2.382h.476v2.963h-.518l-.155-.86a4.483,4.483,0,0,1-2.922.973,4,4,0,0,1-4.371-4.143,4.263,4.263,0,0,1,4.547-4.465,4.426,4.426,0,0,1,2.507.787Z"/>
          <path class="cls-1" d="M163.317,74.817a3.107,3.107,0,0,1-3.157,3.057H160.1a3.109,3.109,0,0,1-3.18-3.035v-.021a3.035,3.035,0,0,1,3.1-2.966c.026,0,.052,0,.077,0A3.107,3.107,0,0,1,163.317,74.817Zm-4.693,0c0,1.439.57,2.372,1.461,2.372s1.512-.943,1.512-2.372-.6-2.342-1.512-2.342-1.461.953-1.461,2.352Z"/>
          <path class="cls-1" d="M166.549,76.07c0,1.129.145,1.243,1.16,1.254v.435h-3.656v-.435c.89-.052.973-.177.973-1.285V74.713c0-1.8-.134-2.072-1.036-2.072v-.383l2.186-.4.176,1.253h0a2.071,2.071,0,0,1,1.793-1.253c.559,0,.942.31.942.735a.766.766,0,0,1-.7.826.489.489,0,0,1-.054,0c-.445,0-.642-.435-.953-.435s-.549.394-.7,1.036a6.216,6.216,0,0,0-.2,1.554Z"/>
          <path class="cls-1" d="M172,76.07c0,1.129.145,1.243,1.161,1.254v.435H169.5v-.435c.891-.052.973-.177.973-1.285V74.713c0-1.8-.134-2.072-1.036-2.072v-.383l2.186-.4.176,1.253h0a2.071,2.071,0,0,1,1.793-1.253c.559,0,.942.31.942.735a.766.766,0,0,1-.7.826.489.489,0,0,1-.054,0c-.445,0-.642-.435-.953-.435s-.549.394-.7,1.036a6.216,6.216,0,0,0-.2,1.554Z"/>
          <path class="cls-1" d="M180.462,76.743a3.109,3.109,0,0,1-2.486,1.13,2.819,2.819,0,0,1-3-2.623,2.9,2.9,0,0,1,0-.309,3,3,0,0,1,2.876-3.108c.077,0,.155,0,.232,0a2.214,2.214,0,0,1,2.445,2.393c0,.228,0,.249-.362.249h-3.523a.958.958,0,0,0,0,.362c0,1.419.663,2.321,1.73,2.321a2.716,2.716,0,0,0,1.793-.8Zm-2.072-2.88c.591,0,.694,0,.694-.279a1.035,1.035,0,0,0-.963-1.1,1.5,1.5,0,0,0-1.316,1.377Z"/>
          <path class="cls-1" d="M186.74,76.837a3.169,3.169,0,0,1-2.372.963,2.8,2.8,0,0,1-2.971-2.612,2.845,2.845,0,0,1,0-.32,2.942,2.942,0,0,1,2.843-3.038c.088,0,.177,0,.265,0,1.316,0,2.29.559,2.29,1.3a.631.631,0,0,1-.663.694c-.342,0-.57-.166-.819-.559-.435-.7-.559-.788-.932-.788-.839,0-1.336.829-1.336,2.238s.58,2.362,1.626,2.362a2.92,2.92,0,0,0,1.751-.653Z"/>
          <path class="cls-1" d="M187.393,72.568v-.5a2.7,2.7,0,0,0,1.761-1.429h.559v1.326h1.254v.6h-1.254v3.357c0,.9.187,1.243.642,1.243a.674.674,0,0,0,.643-.394l.228.322a1.4,1.4,0,0,1-1.44.777c-1.036,0-1.6-.5-1.6-1.337V72.568Z"/>
          <path class="cls-1" d="M194.116,75.966c0,1.161.114,1.326.953,1.358v.435h-3.45v-.435c.819,0,.974-.249.974-1.285V74.692a10.515,10.515,0,0,0-.073-1.606c-.072-.362-.269-.445-.942-.445v-.373l2.538-.414Zm-.767-7.251a.85.85,0,1,1-.839.86v-.011a.839.839,0,0,1,.8-.879h.042Z"/>
          <path class="cls-1" d="M202.062,74.817a3.108,3.108,0,0,1-3.158,3.057h-.064a3.109,3.109,0,0,1-3.18-3.035v-.021a3.037,3.037,0,0,1,3.1-2.966l.077,0A3.108,3.108,0,0,1,202.062,74.817Zm-4.693,0c0,1.439.57,2.372,1.46,2.372s1.513-.943,1.513-2.372-.6-2.342-1.513-2.342-1.45.953-1.45,2.352Z"/>
          <path class="cls-1" d="M205.283,75.977c0,1.181.073,1.3.953,1.347v.435h-3.449v-.435c.849-.052.974-.177.974-1.275V74.692a10.12,10.12,0,0,0-.073-1.585c-.083-.383-.269-.456-.943-.456v-.373l2.072-.414.145.963h0a2.457,2.457,0,0,1,1.937-.963,2.075,2.075,0,0,1,1.907.829,2.727,2.727,0,0,1,.466,1.751v1.543c0,1.181.083,1.3.932,1.347v.435h-3.429v-.435c.86,0,.974-.187.974-1.274V74.568c0-1.492-.321-2-1.264-2a1.151,1.151,0,0,0-1.036.746,2.811,2.811,0,0,0-.238,1.161Z"/>
          <path class="cls-1" d="M214.193,74.071v-.456c0-.839-.3-1.212-.922-1.212-.415,0-.6.207-.788.735a.765.765,0,0,1-.777.58c-.4,0-.632-.259-.632-.714,0-.684.777-1.14,2.311-1.14s2.279.539,2.279,1.927v2.393q0,.933.373.932a.569.569,0,0,0,.383-.145l.166.321a1.347,1.347,0,0,1-1.2.591c-.663,0-1.036-.425-1.036-1.171H214.3a2.155,2.155,0,0,1-1.968,1.161,1.39,1.39,0,0,1-1.517-1.247c0-.051-.007-.1-.006-.152,0-.632.528-1.191,1.844-1.73Zm0,.58c-1.212.559-1.844,1.036-1.844,1.512a.621.621,0,0,0,.544.69.5.5,0,0,0,.067,0,1.181,1.181,0,0,0,1.232-1.128V74.651Z"/>
          <path class="cls-1" d="M219.4,75.966c0,1.161.114,1.326.953,1.358v.435h-3.449v-.435c.818,0,.974-.249.974-1.285V71.533a10.632,10.632,0,0,0-.073-1.606c-.072-.363-.269-.446-.943-.446v-.373l2.538-.414Z"/>
          <path class="cls-1" d="M228.541,75.21h-3.108a4.794,4.794,0,0,0-.518,1.606c0,.435.331.508,1.036.508v.435h-2.994v-.435a1.254,1.254,0,0,0,1.253-.891l2.88-7.252h.808l2.611,6.392c.6,1.481.766,1.6,1.751,1.7v.445h-4.144v-.445c.7,0,1.036-.114,1.036-.456a3.417,3.417,0,0,0-.28-1.036Zm-2.849-.652h2.6l-1.254-3.316h0Z"/>
          <path class="cls-1" d="M232.84,77.759H232.5V75.8h.456c.248,1.036.7,1.512,1.44,1.512.538,0,.849-.238.849-.632s-.352-.777-1.16-1.212c-1.109-.6-1.554-1.15-1.554-1.9a1.7,1.7,0,0,1,1.7-1.7l.085,0a2.3,2.3,0,0,1,1.253.373l.2-.259h.28v1.648h-.425c-.342-.829-.663-1.171-1.171-1.171a.6.6,0,0,0-.659.535.487.487,0,0,0,0,.066c0,.4.342.746,1.161,1.181,1.181.632,1.647,1.191,1.647,1.978,0,1.036-.787,1.679-1.989,1.679a2.33,2.33,0,0,1-1.544-.5Z"/>
          <path class="cls-1" d="M237.937,77.759H237.6V75.8h.456c.248,1.036.7,1.512,1.44,1.512.538,0,.849-.238.849-.632s-.352-.777-1.16-1.212c-1.109-.6-1.554-1.15-1.554-1.9a1.7,1.7,0,0,1,1.7-1.7l.085,0a2.3,2.3,0,0,1,1.253.373l.2-.259h.28v1.648h-.425c-.342-.829-.663-1.171-1.171-1.171a.6.6,0,0,0-.659.535.487.487,0,0,0,0,.066c0,.4.342.746,1.161,1.181,1.181.632,1.647,1.191,1.647,1.978,0,1.036-.788,1.679-1.989,1.679a2.33,2.33,0,0,1-1.544-.5Z"/>
          <path class="cls-1" d="M248.9,74.817a3.109,3.109,0,0,1-3.158,3.057H245.7a3.109,3.109,0,0,1-3.18-3.035v-.021a3.037,3.037,0,0,1,3.1-2.966l.077,0A3.107,3.107,0,0,1,248.9,74.817Zm-4.693,0c0,1.439.57,2.372,1.471,2.372s1.513-.943,1.513-2.372-.6-2.342-1.513-2.342-1.45.953-1.45,2.352Z"/>
          <path class="cls-1" d="M255.113,76.837a3.172,3.172,0,0,1-2.373.963,2.8,2.8,0,0,1-2.971-2.612,3.1,3.1,0,0,1,0-.32,2.942,2.942,0,0,1,2.843-3.038c.088,0,.177,0,.265,0,1.316,0,2.289.559,2.289,1.3a.632.632,0,0,1-.565.692.642.642,0,0,1-.1,0c-.341,0-.569-.166-.818-.559-.435-.7-.559-.788-.932-.788-.839,0-1.337.829-1.337,2.238s.58,2.362,1.627,2.362a2.92,2.92,0,0,0,1.751-.653Z"/>
          <path class="cls-1" d="M258.3,75.966c0,1.161.114,1.326.953,1.358v.435h-3.449v-.435c.818,0,.974-.249.974-1.285V74.692a10.644,10.644,0,0,0-.073-1.606c-.073-.362-.269-.445-.943-.445v-.373l2.538-.414Zm-.766-7.251a.85.85,0,1,1-.839.86v-.011a.838.838,0,0,1,.8-.879h.043Z"/>
          <path class="cls-1" d="M263.214,74.071v-.456c0-.839-.3-1.212-.922-1.212-.415,0-.6.207-.788.735a.765.765,0,0,1-.776.58c-.4,0-.632-.259-.632-.714,0-.684.777-1.14,2.31-1.14s2.279.539,2.279,1.927v2.393q0,.933.373.932a.569.569,0,0,0,.383-.145l.166.321a1.348,1.348,0,0,1-1.171.581c-.663,0-1.036-.425-1.036-1.171h-.052a2.154,2.154,0,0,1-2.02,1.171,1.388,1.388,0,0,1-1.516-1.247,1.288,1.288,0,0,1-.006-.152c0-.632.528-1.191,1.844-1.73Zm0,.58c-1.212.559-1.844,1.036-1.844,1.512a.622.622,0,0,0,.545.69.487.487,0,0,0,.066,0,1.181,1.181,0,0,0,1.232-1.128V74.651Z"/>
          <path class="cls-1" d="M266,72.568v-.5a2.7,2.7,0,0,0,1.761-1.429h.559v1.326h1.295v.6h-1.254v3.357c0,.9.187,1.243.643,1.243a.674.674,0,0,0,.642-.394l.228.322a1.4,1.4,0,0,1-1.44.777c-1.036,0-1.6-.5-1.6-1.337V72.568Z"/>
          <path class="cls-1" d="M272.724,75.966c0,1.161.114,1.326.953,1.358v.435h-3.45v-.435c.819,0,.974-.249.974-1.285V74.692a10.644,10.644,0,0,0-.073-1.606c-.072-.362-.269-.445-.942-.445v-.373l2.538-.414Zm-.767-7.251a.85.85,0,1,1-.839.86v-.011a.839.839,0,0,1,.8-.879h.032Z"/>
          <path class="cls-1" d="M280.67,74.817a3.109,3.109,0,0,1-3.157,3.058l-.076,0a3.109,3.109,0,0,1-3.18-3.035v-.021a3.036,3.036,0,0,1,3.1-2.966c.025,0,.051,0,.076,0A3.108,3.108,0,0,1,280.67,74.817Zm-4.693,0c0,1.439.57,2.372,1.471,2.372s1.512-.943,1.512-2.372-.6-2.342-1.512-2.342-1.471.953-1.471,2.352Z"/>
          <path class="cls-1" d="M283.881,75.977c0,1.181.073,1.3.953,1.347v.435h-3.45v-.435c.85-.052.974-.177.974-1.275V74.692a10,10,0,0,0-.072-1.585c-.083-.383-.27-.456-.943-.456v-.373l2.072-.414.145.963h0a2.457,2.457,0,0,1,1.937-.963,2.073,2.073,0,0,1,1.906.829,2.721,2.721,0,0,1,.466,1.751v1.543c0,1.181.083,1.3.933,1.347v.435h-3.429v-.435c.86,0,.974-.187.974-1.274V74.568c0-1.492-.322-2-1.275-2a1.151,1.151,0,0,0-1.036.746,2.827,2.827,0,0,0-.238,1.161Z"/>
        </g>
        <g>
          <path class="cls-2" d="M290.964,40.879s-15.9,3.843-20.771,15.674c0,0-7.78-13.468-18.419-14.245C254.54,42.174,282,31.255,290.964,40.879Z"/>
          <path class="cls-3" d="M224.311,15.125s15.643-1.8,23.381-9.769c0,0,3.4,9.841,12.96,10.96C258.073,16.254,229.864,22.335,224.311,15.125Z"/>
          <g>
            <path class="cls-4" d="M228.662,25.246c21.662,7.014,32.187-6.143,53.869.85l-4.351-6.807C263.874,14,254.209,17.114,243.1,17.622a47.166,47.166,0,0,1-19.683-2.849Z"/>
            <g>
              <path class="cls-3" d="M242.191,27.991A41.854,41.854,0,0,1,229.17,25.92l-4.994-10.08a46.482,46.482,0,0,0,16.089,2.807c1.036,0,2.071,0,3.252-.093,2.632-.124,5.18-.394,7.729-.653a99.97,99.97,0,0,1,10.5-.714,46.932,46.932,0,0,1,16.772,3.024l4.04,6.382a42.055,42.055,0,0,0-12.8-2,72.187,72.187,0,0,0-13.83,1.7,71.937,71.937,0,0,1-13.768,1.7Z"/>
              <path class="cls-4" d="M224.446,16.119a46.514,46.514,0,0,0,15.767,2.7c1.036,0,2.072,0,3.263-.093,2.631-.124,5.18-.394,7.739-.653a99.781,99.781,0,0,1,10.494-.714,46.767,46.767,0,0,1,16.575,2.983l3.906,5.967a42.088,42.088,0,0,0-12.432-1.875,72.347,72.347,0,0,0-13.861,1.7,71.935,71.935,0,0,1-13.737,1.689,41.713,41.713,0,0,1-12.908-2.072l-4.837-9.645m-.643-.57,5.253,10.474a41.9,41.9,0,0,0,13.166,2.134c9.821,0,17.777-3.4,27.6-3.4a41.868,41.868,0,0,1,13.105,2.072l-4.351-6.806a47.054,47.054,0,0,0-16.834-3.036c-6.33,0-12.069,1.088-18.243,1.378-1.036.062-2.145.093-3.243.093a46.407,46.407,0,0,1-16.409-2.942Z"/>
            </g>
            <path class="cls-4" d="M235.012,37.957c1.72,3.346,4.144,9.686,5.18,10.049,13.768,5.18,27.691-7.2,43.355-7.593a35.339,35.339,0,0,1,8.194.725c-1.16-2.072-2.756-4.248-4.144-6.371C266.391,29.349,256.208,43.375,235.012,37.957Z"/>
            <g>
              <path class="cls-2" d="M247.029,48.161a35.316,35.316,0,0,1-7.313-.776L234.65,37.47a38.705,38.705,0,0,0,9.593,1.223c6.07,0,11.4-1.492,16.575-2.932s10.422-2.921,16.44-2.921a38.508,38.508,0,0,1,9.8,1.284l3.978,6.154a34.979,34.979,0,0,0-6.869-.694h-1.036c-6.6.166-12.224,2.258-17.611,4.278C259.792,45.986,253.96,48.161,247.029,48.161Z"/>
              <path class="cls-4" d="M277.217,32.995a38.318,38.318,0,0,1,9.7,1.264l2.186,3.388,1.554,2.413a35.051,35.051,0,0,0-6.537-.621H283.08c-6.63.166-12.265,2.258-17.7,4.289-5.625,2.071-11.395,4.257-18.336,4.257a35.063,35.063,0,0,1-7.252-.756l-3.74-7.3-1.139-2.238a38.752,38.752,0,0,0,9.323,1.15c6.092,0,11.4-1.492,16.575-2.932s10.36-2.911,16.4-2.911m0-.321c-12.09,0-20.916,5.832-32.964,5.832a38.788,38.788,0,0,1-9.894-1.3l5.273,10.308a35.709,35.709,0,0,0,7.418.8c13.622,0,22.615-8.215,36.051-8.556h1.036a35.191,35.191,0,0,1,7.251.756l-4.216-6.527a38.83,38.83,0,0,0-9.893-1.3Z"/>
            </g>
            <g>
              <path class="cls-4" d="M244.408,38.03a38.07,38.07,0,0,1-9.924-1.337l-5.128-10.079a42.48,42.48,0,0,0,12.68,1.958,72.729,72.729,0,0,0,13.944-1.72,72.509,72.509,0,0,1,13.892-1.709,42.19,42.19,0,0,1,12.867,2.072l1.688,2.61,2.362,3.7A38.239,38.239,0,0,0,277.1,32.26c-6.019,0-11.292,1.481-16.4,2.921S250.375,38.03,244.408,38.03Z"/>
              <path class="cls-4" d="M269.893,25.3a42.024,42.024,0,0,1,12.763,2.01l1.657,2.559,2.145,3.356a38.275,38.275,0,0,0-9.324-1.171c-6.039,0-11.333,1.482-16.44,2.922s-10.36,2.9-16.275,2.9a37.882,37.882,0,0,1-9.821-1.315l-3.17-6.268-1.73-3.418a42.465,42.465,0,0,0,12.369,1.854,72.73,72.73,0,0,0,13.975-1.72A72.359,72.359,0,0,1,269.9,25.3m0-.321c-9.914,0-17.922,3.429-27.836,3.429a42.3,42.3,0,0,1-12.991-2.072l5.3,10.484a38.306,38.306,0,0,0,10.039,1.367c11.986,0,20.719-5.822,32.715-5.822a38.349,38.349,0,0,1,10.039,1.368l-2.58-4.041-1.72-2.652a42.256,42.256,0,0,0-12.97-2.071Z"/>
            </g>
          </g>
          <polygon class="cls-4" points="236.639 22.48 235.499 23.495 236.525 25.371 234.246 24.179 232.578 24.687 232.308 22.936 230.257 21.372 232.371 21.496 232.764 20.015 234.339 21.838 236.639 22.48"/>
          <polygon class="cls-4" points="251.432 21.558 250.365 22.926 251.391 24.345 249.174 24.034 247.589 25.132 247.288 23.568 245.289 22.832 247.309 22.169 247.661 20.616 249.215 21.776 251.432 21.558"/>
          <polygon class="cls-4" points="265.842 20.367 265.003 21.382 265.946 22.739 264.04 22.149 262.745 22.843 262.403 21.465 260.652 20.543 262.351 20.284 262.569 19.01 263.957 20.232 265.842 20.367"/>
          <polygon class="cls-4" points="277.569 22.024 276.875 22.625 277.486 23.775 276.109 23.029 275.083 23.34 274.938 22.273 273.695 21.31 274.979 21.392 275.228 20.491 276.181 21.61 277.569 22.024"/>
        </g>
        <path class="cls-1" d="M288.916,62.24h-270v-1.3h270Z"/>
        <g>
          <path class="cls-2" d="M47.612,42.257,59.535,15.715H74.619v1.824a10.539,10.539,0,0,0-2.766.248,2.917,2.917,0,0,0-1.627,1.036,4.58,4.58,0,0,0-.745,2.072,26.089,26.089,0,0,0-.177,3.388V41.894a24.415,24.415,0,0,0,.208,3.595,4.08,4.08,0,0,0,.828,2.072,3.007,3.007,0,0,0,1.782.953,18.93,18.93,0,0,0,3.108.269v1.823H55.765V48.949a16.958,16.958,0,0,0,3.107-.3,3.4,3.4,0,0,0,1.8-.932,3.6,3.6,0,0,0,.829-1.958,21.935,21.935,0,0,0,.207-3.388V21.092h-.259L47.56,51.218H43.779l-14.4-30.126h-.207V42.07a24.278,24.278,0,0,0,.207,3.595,4.073,4.073,0,0,0,.829,2.072,3,3,0,0,0,1.781.953,18.94,18.94,0,0,0,3.108.269v1.823H19.154V48.949a17.52,17.52,0,0,0,3.108-.3,3.414,3.414,0,0,0,1.833-.932,3.6,3.6,0,0,0,.84-1.958,21.906,21.906,0,0,0,.2-3.367V24.1a20.4,20.4,0,0,0-.2-3.2,4.538,4.538,0,0,0-.777-2.072,2.985,2.985,0,0,0-1.616-1.036,10.825,10.825,0,0,0-2.818-.3V15.715H35.367L47.4,42.257Z"/>
          <path class="cls-2" d="M102.61,40.164H87.993q-2.424,4.827-2.424,6.692a1.616,1.616,0,0,0,1.16,1.73,12.4,12.4,0,0,0,3.481.363v1.823H76.059V48.949a16.051,16.051,0,0,0,2.144-.363,6.059,6.059,0,0,0,1.606-.632,4.288,4.288,0,0,0,1.212-1.036,8.945,8.945,0,0,0,.984-1.616L95.576,15.27h3.833l12.338,26.572a34.1,34.1,0,0,0,1.834,3.636,7.235,7.235,0,0,0,1.606,2.072,4.828,4.828,0,0,0,1.958.974,18.265,18.265,0,0,0,2.869.414V50.8H100.487V48.866a13.956,13.956,0,0,0,3.563-.456,1.43,1.43,0,0,0,1.036-1.461,5.083,5.083,0,0,0-.362-1.636q-.363-1.037-.985-2.456ZM89.184,37.47h12.287l-5.9-13.83h-.207Z"/>
          <path class="cls-2" d="M121.3,39.159h2.01a10.426,10.426,0,0,0,3.926,6.806,12.511,12.511,0,0,0,7.9,2.476,14.188,14.188,0,0,0,3.512-.414,8.97,8.97,0,0,0,2.735-1.16,5.653,5.653,0,0,0,1.751-1.772,4.35,4.35,0,0,0,.621-2.3,3.689,3.689,0,0,0-1.854-3.439,16.037,16.037,0,0,0-2.973-1.523q-1.886-.777-4.88-1.771a24.745,24.745,0,0,1-8.93-4.755,8.478,8.478,0,0,1-2.89-6.392A8.285,8.285,0,0,1,123.164,21a9.1,9.1,0,0,1,2.61-3.046,12.6,12.6,0,0,1,3.989-1.979,18.035,18.035,0,0,1,5.179-.7,16.526,16.526,0,0,1,4.963.725,19.178,19.178,0,0,1,4.6,2.186l.932-2.279h1.244l.569,9.831H145.3a11.4,11.4,0,0,0-3.875-5.708,9.862,9.862,0,0,0-6.091-1.979,8.879,8.879,0,0,0-5.18,1.389,4.143,4.143,0,0,0-2.041,3.532,3.441,3.441,0,0,0,1.71,3.139,14.478,14.478,0,0,0,2.683,1.388q1.7.7,4.392,1.575a52.819,52.819,0,0,1,6.216,2.476,18.867,18.867,0,0,1,4.144,2.683,9.82,9.82,0,0,1,2.4,3.025,7.9,7.9,0,0,1,.777,3.5,8.135,8.135,0,0,1-1.139,4.237,10.244,10.244,0,0,1-3.181,3.274,16.571,16.571,0,0,1-4.858,2.134,23.453,23.453,0,0,1-6.216.777,19.211,19.211,0,0,1-5.574-.746A20.729,20.729,0,0,1,124.365,48l-1.036,2.735h-1.243Z"/>
          <path class="cls-2" d="M189.257,15.715h2.528l-1.036,11.51h-2.072a11.787,11.787,0,0,0-4.206-6.6,12.017,12.017,0,0,0-7.562-2.414,13.086,13.086,0,0,0-5.418,1.036,10.9,10.9,0,0,0-4,3.046,13.673,13.673,0,0,0-2.507,4.879,22.275,22.275,0,0,0-.85,6.392q0,7.055,3.284,10.857t9.687,3.8a14.168,14.168,0,0,0,8.6-2.466,13.463,13.463,0,0,0,4.827-7.324H192.8V50.762h-2.424l-.725-3.595a23.131,23.131,0,0,1-13.789,4.051,27.762,27.762,0,0,1-8.515-1.233,19.077,19.077,0,0,1-6.506-3.471,15.385,15.385,0,0,1-4.144-5.48,17.156,17.156,0,0,1-1.471-7.189,18.075,18.075,0,0,1,1.471-7.563,17.064,17.064,0,0,1,4.362-5.874,19.957,19.957,0,0,1,6.713-3.8,26.446,26.446,0,0,1,8.65-1.346,21.539,21.539,0,0,1,5.884.777,29.613,29.613,0,0,1,5.936,2.507Z"/>
          <path class="cls-2" d="M221.123,40.164H206.506q-2.424,4.827-2.424,6.692a1.616,1.616,0,0,0,1.16,1.73,12.4,12.4,0,0,0,3.481.363v1.823H194.582V48.949a16.024,16.024,0,0,0,2.144-.363,6.059,6.059,0,0,0,1.606-.632,4.288,4.288,0,0,0,1.212-1.036,8.945,8.945,0,0,0,.984-1.616L214.11,15.26h3.822L230.25,41.842a34.127,34.127,0,0,0,1.833,3.636,7.253,7.253,0,0,0,1.606,2.072,4.841,4.841,0,0,0,1.958.974,18.236,18.236,0,0,0,2.89.342v1.865H219V48.866a13.958,13.958,0,0,0,3.564-.456,1.43,1.43,0,0,0,1.036-1.461,5.058,5.058,0,0,0-.363-1.636q-.361-1.037-.984-2.456Zm-13.467-2.735h12.286L214.006,23.64H213.8Z"/>
        </g>
      </g>
    </g>
  </g>
</svg>
