<?xml version="1.0" encoding="utf-8"?>
<!-- Generator: Adobe Illustrator 15.0.2, SVG Export Plug-In . SVG Version: 6.00 Build 0)  -->
<!DOCTYPE svg PUBLIC "-//W3C//DTD SVG 1.1//EN" "http://www.w3.org/Graphics/SVG/1.1/DTD/svg11.dtd">
<svg version="1.1" id="Layer_1" xmlns="http://www.w3.org/2000/svg" xmlns:xlink="http://www.w3.org/1999/xlink" x="0px" y="0px"
	 width="268.055px" height="77px" viewBox="0 0 268.055 77" enable-background="new 0 0 268.055 77" xml:space="preserve">
<g id="col-xs-12">
</g>
<g id="col-sm-12">
</g>
<g id="Guides">
</g>
<g id="logo_4_">
	<g id="memberleap_2_">
		<path fill="#333333" d="M79.015,24.224v-2.706l-1.277,2.357l-7.042,12.227h-0.967l-7.467-12.265l-1.045-2.007v2.356V42.41h-3.018
			V15.325h2.397l8.474,13.852l1.277,2.018l1.277-2.095l8.086-13.774h2.515V42.41h-3.211V24.224L79.015,24.224z"/>
		<path fill="#333333" d="M100.295,40.861c-0.774,0.619-1.748,1.108-2.921,1.471c-1.174,0.361-2.418,0.542-3.734,0.542
			c-1.47,0-2.747-0.239-3.831-0.716c-1.083-0.477-1.973-1.161-2.669-2.051c-0.697-0.892-1.213-1.956-1.548-3.192
			c-0.335-1.238-0.503-2.631-0.503-4.179c0-3.301,0.735-5.816,2.205-7.545c1.471-1.728,3.573-2.593,6.307-2.593
			c0.876,0,1.754,0.097,2.631,0.29c0.876,0.193,1.664,0.561,2.36,1.103s1.263,1.309,1.702,2.302
			c0.438,0.993,0.658,2.302,0.658,3.927c0,0.851-0.077,1.793-0.232,2.824H88.3c0,1.135,0.116,2.141,0.348,3.018
			c0.232,0.877,0.595,1.619,1.083,2.225c0.49,0.606,1.128,1.07,1.915,1.393c0.787,0.323,1.747,0.484,2.882,0.484
			c0.877,0,1.756-0.155,2.633-0.464c0.876-0.31,1.532-0.671,1.973-1.083L100.295,40.861z M93.64,25.308
			c-1.521,0-2.741,0.4-3.656,1.199c-0.916,0.8-1.464,2.167-1.645,4.101h9.596c0-1.96-0.375-3.334-1.122-4.121
			C96.064,25.701,95.007,25.308,93.64,25.308z"/>
		<path fill="#333333" d="M114.843,42.409V31.46c0-1.031-0.045-1.928-0.135-2.689c-0.091-0.76-0.267-1.399-0.522-1.915
			c-0.258-0.516-0.626-0.903-1.103-1.161c-0.479-0.258-1.104-0.387-1.877-0.387c-1.188,0-2.173,0.362-2.96,1.083
			c-0.787,0.722-1.334,1.625-1.646,2.708v13.31h-3.095V23.063h2.167l0.581,2.36h0.155c0.694-0.825,1.502-1.502,2.418-2.031
			c0.916-0.528,2.107-0.793,3.579-0.793c1.236,0,2.25,0.239,3.035,0.716c0.787,0.478,1.399,1.309,1.84,2.495
			c0.593-1.006,1.41-1.792,2.455-2.36c1.046-0.567,2.227-0.851,3.54-0.851c1.083,0,1.999,0.123,2.747,0.368
			c0.748,0.245,1.367,0.677,1.857,1.296c0.49,0.619,0.845,1.457,1.063,2.515c0.221,1.058,0.33,2.399,0.33,4.024V42.41h-3.096V30.763
			c0-0.929-0.045-1.734-0.135-2.418c-0.091-0.683-0.271-1.251-0.542-1.703c-0.271-0.451-0.646-0.786-1.122-1.006
			c-0.479-0.219-1.104-0.329-1.876-0.329c-1.291,0-2.296,0.362-3.021,1.083c-0.722,0.722-1.236,1.754-1.547,3.095v12.923
			L114.843,42.409L114.843,42.409z"/>
		<path fill="#333333" d="M132.603,15.325h3.097v9.634h0.153c0.593-0.748,1.35-1.328,2.265-1.741
			c0.916-0.412,1.916-0.619,2.999-0.619c2.502,0,4.378,0.8,5.63,2.399c1.251,1.6,1.876,4.076,1.876,7.429
			c0,3.38-0.826,5.946-2.478,7.7c-1.65,1.754-3.973,2.631-6.965,2.631c-1.445,0-2.753-0.154-3.927-0.464s-2.059-0.644-2.65-1.006
			V15.325L132.603,15.325z M140.573,25.308c-1.29,0-2.337,0.362-3.136,1.083c-0.8,0.722-1.38,1.741-1.739,3.057v9.75
			c0.488,0.284,1.081,0.497,1.778,0.638c0.696,0.143,1.418,0.213,2.167,0.213c1.754,0,3.153-0.619,4.198-1.857
			c1.044-1.238,1.567-3.173,1.567-5.804c0-1.006-0.093-1.947-0.271-2.824c-0.181-0.877-0.464-1.625-0.851-2.244
			c-0.389-0.619-0.886-1.109-1.49-1.47C142.191,25.488,141.449,25.308,140.573,25.308z"/>
		<path fill="#333333" d="M165.296,40.861c-0.774,0.619-1.748,1.108-2.921,1.471c-1.174,0.361-2.418,0.542-3.734,0.542
			c-1.47,0-2.747-0.239-3.831-0.716c-1.083-0.477-1.973-1.161-2.669-2.051c-0.697-0.892-1.213-1.956-1.548-3.192
			c-0.335-1.238-0.503-2.631-0.503-4.179c0-3.301,0.735-5.816,2.205-7.545c1.471-1.728,3.573-2.593,6.307-2.593
			c0.876,0,1.754,0.097,2.631,0.29c0.876,0.193,1.664,0.561,2.36,1.103s1.263,1.309,1.702,2.302
			c0.438,0.993,0.658,2.302,0.658,3.927c0,0.851-0.077,1.793-0.232,2.824h-12.42c0,1.135,0.116,2.141,0.348,3.018
			c0.232,0.877,0.595,1.619,1.083,2.225c0.49,0.606,1.128,1.07,1.915,1.393c0.787,0.323,1.747,0.484,2.882,0.484
			c0.879,0,1.756-0.155,2.633-0.464c0.876-0.31,1.532-0.671,1.973-1.083L165.296,40.861z M158.641,25.308
			c-1.521,0-2.741,0.4-3.656,1.199c-0.917,0.8-1.464,2.167-1.645,4.101h9.596c0-1.96-0.375-3.334-1.122-4.121
			C161.065,25.701,160.008,25.308,158.641,25.308z"/>
		<path fill="#333333" d="M177.639,26.043c-0.772-0.258-1.509-0.387-2.205-0.387c-1.107,0-1.987,0.304-2.631,0.909
			c-0.645,0.606-1.044,1.374-1.199,2.302v13.542h-3.095V23.063h2.167l0.581,2.36h0.155c0.487-0.877,1.075-1.554,1.76-2.031
			c0.683-0.477,1.554-0.716,2.612-0.716c0.748,0,1.586,0.129,2.515,0.387L177.639,26.043z"/>
		<path fill="#AE0E0D" d="M196.598,42.409h-17.141V15.325h5.301v22.364h11.84V42.409L196.598,42.409z"/>
		<path fill="#AE0E0D" d="M212.577,40.746c-0.774,0.619-1.825,1.141-3.153,1.566c-1.329,0.427-2.741,0.64-4.237,0.64
			c-3.122,0-5.402-0.909-6.849-2.728c-1.446-1.82-2.167-4.314-2.167-7.489c0-3.405,0.813-5.958,2.438-7.661
			c1.625-1.703,3.908-2.554,6.851-2.554c0.979,0,1.935,0.129,2.861,0.387c0.931,0.258,1.756,0.684,2.479,1.277
			c0.722,0.594,1.302,1.393,1.741,2.399c0.438,1.006,0.655,2.257,0.655,3.753c0,0.542-0.03,1.122-0.096,1.741
			c-0.064,0.619-0.162,1.264-0.291,1.935h-11.605c0.075,1.625,0.497,2.851,1.258,3.676c0.76,0.826,1.992,1.238,3.692,1.238
			c1.06,0,2.008-0.161,2.846-0.484c0.838-0.322,1.477-0.651,1.916-0.987L212.577,40.746z M205.38,26.546
			c-1.315,0-2.29,0.394-2.921,1.18c-0.633,0.787-1.015,1.838-1.144,3.153h7.197c0.104-1.393-0.111-2.463-0.639-3.211
			S206.515,26.546,205.38,26.546z"/>
		<path fill="#AE0E0D" d="M215.091,24.186c1.031-0.464,2.257-0.832,3.676-1.103c1.418-0.271,2.902-0.406,4.449-0.406
			c1.341,0,2.463,0.161,3.366,0.484c0.901,0.323,1.619,0.781,2.146,1.374c0.528,0.594,0.903,1.303,1.122,2.128
			c0.218,0.826,0.329,1.754,0.329,2.786c0,1.135-0.039,2.277-0.116,3.424c-0.077,1.148-0.123,2.277-0.135,3.385
			c-0.014,1.109,0.021,2.186,0.097,3.231c0.077,1.045,0.271,2.03,0.58,2.96h-4.101l-0.813-2.67h-0.19
			c-0.519,0.8-1.232,1.49-2.147,2.07c-0.916,0.58-2.096,0.869-3.541,0.869c-0.901,0-1.715-0.135-2.438-0.404
			c-0.725-0.271-1.341-0.658-1.857-1.162c-0.517-0.502-0.916-1.096-1.2-1.779c-0.282-0.683-0.425-1.451-0.425-2.302
			c0-1.186,0.266-2.186,0.793-2.999c0.528-0.813,1.29-1.47,2.283-1.973s2.18-0.851,3.56-1.045c1.382-0.194,2.923-0.252,4.624-0.174
			c0.182-1.444,0.077-2.482-0.31-3.115c-0.387-0.632-1.251-0.948-2.593-0.948c-1.006,0-2.07,0.103-3.192,0.309
			c-1.122,0.207-2.044,0.478-2.767,0.813L215.091,24.186z M221.476,38.579c1.006,0,1.805-0.226,2.399-0.677
			c0.593-0.451,1.031-0.935,1.313-1.451v-2.515c-0.8-0.077-1.565-0.09-2.302-0.039c-0.735,0.052-1.387,0.168-1.954,0.348
			c-0.565,0.181-1.019,0.439-1.354,0.774c-0.335,0.336-0.503,0.761-0.503,1.277c0,0.723,0.213,1.283,0.638,1.683
			C220.141,38.379,220.727,38.579,221.476,38.579z"/>
		<path fill="#AE0E0D" d="M232.851,23.063h3.676l0.58,2.322h0.155c0.67-0.979,1.464-1.702,2.379-2.167
			c0.915-0.465,2.032-0.696,3.347-0.696c2.426,0,4.243,0.768,5.456,2.302c1.212,1.535,1.818,4.005,1.818,7.409
			c0,1.651-0.193,3.141-0.581,4.469c-0.387,1.329-0.961,2.457-1.722,3.385c-0.763,0.929-1.689,1.638-2.786,2.128
			s-2.354,0.735-3.772,0.735c-0.8,0-1.458-0.058-1.973-0.175c-0.517-0.115-1.032-0.303-1.548-0.562v7.933h-5.03L232.851,23.063
			L232.851,23.063z M241.479,26.778c-0.979,0-1.748,0.245-2.302,0.735c-0.555,0.49-0.987,1.225-1.296,2.205v8.048
			c0.361,0.284,0.754,0.51,1.18,0.677c0.425,0.168,0.986,0.252,1.685,0.252c1.442,0,2.525-0.509,3.25-1.528
			c0.722-1.019,1.083-2.702,1.083-5.049c0-1.703-0.284-3.018-0.854-3.947C243.656,27.242,242.742,26.778,241.479,26.778z"/>
	</g>
	<path id="check_4_" fill="#AE0E0D" d="M53.129,14.014L42.292,14l-1.42,2.919c-2.689-1.485-5.776-2.335-9.062-2.335
		C21.438,14.584,13,23.023,13,33.395c0,10.373,8.438,18.811,18.811,18.811s18.813-8.438,18.813-18.811
		c0-3.353-0.894-6.496-2.438-9.225L53.129,14.014z M48.18,33.395c0,9.025-7.343,16.369-16.369,16.369
		c-9.023,0-16.368-7.344-16.368-16.369c0-1.977,0.37-3.865,1.017-5.62l8.898,18.227l5.414-11.123l-4.77-9.767h-8.285
		c2.85-4.829,8.092-8.085,14.093-8.085c2.901,0,5.623,0.766,7.988,2.095L26.075,47.32h1.936l4.561-8.004l-3.269,8.004h1.676
		l4.563-8.004l-3.271,8.004h1.676l4.563-8.002l-3.27,8.002h1.68l9.923-20.389C47.7,28.916,48.18,31.1,48.18,33.395z"/>
	<path id="aProductOf" fill="#333333" d="M62.67,58.83h-3.01L58.918,61H57l3.528-9.87h1.414L65.47,61h-2.016L62.67,58.83z
		 M60.15,57.29h2.1l-0.728-2.184l-0.294-1.54h-0.07l-0.294,1.554L60.15,57.29z M69.194,54h1.33l0.21,0.84h0.056
		c0.243-0.354,0.53-0.616,0.861-0.784c0.332-0.168,0.735-0.252,1.211-0.252c0.877,0,1.535,0.278,1.974,0.833
		c0.438,0.556,0.658,1.449,0.658,2.682c0,0.597-0.07,1.136-0.21,1.616c-0.14,0.481-0.348,0.89-0.623,1.226
		c-0.275,0.336-0.611,0.593-1.008,0.77c-0.396,0.178-0.852,0.267-1.365,0.267c-0.29,0-0.527-0.021-0.714-0.063
		c-0.187-0.042-0.374-0.109-0.56-0.203v2.87h-1.82V54z M72.316,55.344c-0.354,0-0.632,0.089-0.833,0.267
		c-0.201,0.177-0.357,0.443-0.469,0.798v2.912c0.13,0.103,0.273,0.185,0.427,0.245c0.154,0.061,0.357,0.091,0.609,0.091
		c0.523,0,0.915-0.185,1.176-0.554c0.261-0.368,0.392-0.978,0.392-1.826c0-0.616-0.103-1.093-0.308-1.429
		C73.105,55.512,72.773,55.344,72.316,55.344z M80.618,55.708c-0.29-0.103-0.551-0.154-0.784-0.154c-0.327,0-0.6,0.087-0.819,0.26
		c-0.22,0.172-0.367,0.394-0.441,0.664V61h-1.82v-7h1.414l0.21,0.924h0.056c0.159-0.345,0.373-0.611,0.644-0.798
		c0.271-0.187,0.588-0.28,0.952-0.28c0.242,0,0.518,0.052,0.826,0.154L80.618,55.708z M81.332,57.5c0-1.186,0.289-2.098,0.868-2.737
		c0.579-0.639,1.391-0.959,2.436-0.959c0.56,0,1.045,0.089,1.456,0.267c0.411,0.177,0.751,0.427,1.022,0.749
		c0.271,0.321,0.474,0.712,0.609,1.169s0.203,0.961,0.203,1.512c0,1.186-0.287,2.098-0.861,2.737
		c-0.574,0.639-1.384,0.959-2.429,0.959c-0.56,0-1.045-0.089-1.456-0.267c-0.411-0.177-0.754-0.427-1.029-0.749
		c-0.275-0.321-0.48-0.711-0.616-1.169C81.4,58.555,81.332,58.051,81.332,57.5z M83.208,57.5c0,0.308,0.028,0.593,0.084,0.854
		c0.056,0.262,0.14,0.49,0.252,0.687c0.112,0.196,0.259,0.348,0.441,0.455c0.182,0.107,0.399,0.161,0.651,0.161
		c0.476,0,0.831-0.173,1.064-0.519c0.233-0.345,0.35-0.891,0.35-1.638c0-0.644-0.107-1.164-0.322-1.561
		c-0.215-0.397-0.579-0.596-1.092-0.596c-0.448,0-0.798,0.168-1.05,0.504S83.208,56.734,83.208,57.5z M95.136,58.536
		c0,0.392,0.004,0.784,0.014,1.176c0.009,0.392,0.051,0.826,0.126,1.302h-1.302l-0.252-0.91h-0.056
		c-0.187,0.327-0.455,0.591-0.805,0.791c-0.35,0.201-0.763,0.302-1.239,0.302c-0.877,0-1.559-0.289-2.044-0.868
		s-0.728-1.484-0.728-2.716c0-1.195,0.271-2.123,0.812-2.786s1.334-0.994,2.38-0.994c0.29,0,0.527,0.017,0.714,0.049
		c0.187,0.033,0.373,0.087,0.56,0.161V51.2h1.82V58.536z M92.042,59.656c0.355,0,0.635-0.087,0.84-0.259
		c0.205-0.173,0.35-0.423,0.434-0.749V55.68c-0.131-0.103-0.275-0.18-0.434-0.23c-0.159-0.052-0.364-0.077-0.616-0.077
		c-0.513,0-0.898,0.173-1.155,0.518c-0.257,0.346-0.385,0.938-0.385,1.778c0,0.598,0.105,1.078,0.315,1.442
		C91.251,59.474,91.585,59.656,92.042,59.656z M98.482,54v3.976c0,0.569,0.068,0.98,0.203,1.232s0.399,0.378,0.791,0.378
		c0.345,0,0.632-0.103,0.861-0.308c0.229-0.205,0.399-0.457,0.511-0.756V54h1.82v4.872c0,0.383,0.019,0.759,0.056,1.127
		c0.037,0.369,0.093,0.702,0.168,1.001h-1.372l-0.322-1.036h-0.056c-0.215,0.354-0.513,0.649-0.896,0.882
		c-0.383,0.233-0.835,0.351-1.358,0.351c-0.355,0-0.672-0.047-0.952-0.141c-0.28-0.093-0.513-0.247-0.7-0.462
		c-0.187-0.214-0.329-0.504-0.427-0.868c-0.098-0.363-0.147-0.82-0.147-1.372V54H98.482z M109.219,60.566
		c-0.28,0.205-0.618,0.361-1.015,0.469c-0.396,0.107-0.805,0.161-1.225,0.161c-0.56,0-1.034-0.089-1.421-0.267
		c-0.387-0.177-0.702-0.427-0.945-0.749c-0.243-0.321-0.418-0.711-0.525-1.169c-0.107-0.457-0.161-0.961-0.161-1.512
		c0-1.186,0.266-2.098,0.798-2.737c0.532-0.639,1.307-0.959,2.324-0.959c0.513,0,0.926,0.042,1.239,0.126
		c0.313,0.084,0.595,0.191,0.847,0.322l-0.434,1.484c-0.215-0.103-0.427-0.183-0.637-0.238s-0.451-0.084-0.721-0.084
		c-0.504,0-0.887,0.166-1.148,0.497s-0.392,0.861-0.392,1.589c0,0.299,0.033,0.574,0.098,0.826c0.065,0.252,0.163,0.472,0.294,0.658
		c0.13,0.187,0.301,0.333,0.511,0.44c0.21,0.107,0.455,0.161,0.735,0.161c0.308,0,0.569-0.039,0.784-0.119
		c0.215-0.079,0.406-0.175,0.574-0.287L109.219,60.566z M109.597,54h0.966v-1.316l1.82-0.518V54h1.708v1.54h-1.708v2.688
		c0,0.486,0.049,0.833,0.147,1.044c0.098,0.21,0.282,0.314,0.553,0.314c0.187,0,0.348-0.019,0.483-0.056s0.287-0.094,0.455-0.168
		l0.322,1.399c-0.252,0.122-0.546,0.225-0.882,0.309s-0.677,0.126-1.022,0.126c-0.644,0-1.118-0.166-1.421-0.497
		c-0.304-0.331-0.455-0.875-0.455-1.631V55.54h-0.966V54z M118.417,57.5c0-1.186,0.289-2.098,0.868-2.737
		c0.579-0.639,1.391-0.959,2.436-0.959c0.56,0,1.045,0.089,1.456,0.267c0.411,0.177,0.751,0.427,1.022,0.749
		c0.271,0.321,0.474,0.712,0.609,1.169s0.203,0.961,0.203,1.512c0,1.186-0.287,2.098-0.861,2.737
		c-0.574,0.639-1.384,0.959-2.429,0.959c-0.56,0-1.045-0.089-1.456-0.267c-0.411-0.177-0.754-0.427-1.029-0.749
		c-0.275-0.321-0.48-0.711-0.616-1.169C118.485,58.555,118.417,58.051,118.417,57.5z M120.293,57.5c0,0.308,0.028,0.593,0.084,0.854
		c0.056,0.262,0.14,0.49,0.252,0.687c0.112,0.196,0.259,0.348,0.441,0.455c0.182,0.107,0.399,0.161,0.651,0.161
		c0.476,0,0.831-0.173,1.064-0.519c0.233-0.345,0.35-0.891,0.35-1.638c0-0.644-0.107-1.164-0.322-1.561
		c-0.215-0.397-0.579-0.596-1.092-0.596c-0.448,0-0.798,0.168-1.05,0.504S120.293,56.734,120.293,57.5z M125.459,54h0.966v-0.392
		c0-0.887,0.187-1.528,0.56-1.926c0.373-0.396,0.915-0.595,1.624-0.595c0.747,0,1.367,0.089,1.862,0.266l-0.35,1.456
		c-0.215-0.074-0.404-0.123-0.567-0.146c-0.164-0.023-0.334-0.035-0.511-0.035c-0.187,0-0.333,0.028-0.441,0.084
		s-0.187,0.143-0.238,0.259c-0.051,0.117-0.084,0.262-0.098,0.435s-0.021,0.371-0.021,0.595h1.54v1.54h-1.54V61h-1.82v-5.46h-0.966
		V54z M136.981,56.954l0.252,1.666h0.07l0.28-1.68l1.876-5.74h2.016l-3.64,9.87h-1.372l-3.668-9.87h2.227L136.981,56.954z
		 M142.035,52.026c0-0.271,0.1-0.502,0.301-0.693c0.2-0.191,0.479-0.287,0.832-0.287c0.355,0,0.643,0.096,0.861,0.287
		c0.22,0.191,0.329,0.423,0.329,0.693s-0.109,0.497-0.329,0.679c-0.219,0.182-0.506,0.272-0.861,0.272
		c-0.354,0-0.632-0.091-0.832-0.272C142.135,52.523,142.035,52.297,142.035,52.026z M142.301,54h1.82v7h-1.82V54z M151.513,60.398
		c-0.28,0.224-0.66,0.412-1.142,0.566c-0.48,0.154-0.991,0.231-1.532,0.231c-1.13,0-1.956-0.329-2.478-0.987
		c-0.523-0.658-0.785-1.561-0.785-2.709c0-1.232,0.295-2.156,0.883-2.772c0.588-0.615,1.414-0.924,2.478-0.924
		c0.354,0,0.7,0.047,1.036,0.141c0.336,0.093,0.635,0.247,0.896,0.462c0.261,0.215,0.471,0.504,0.629,0.868
		c0.159,0.363,0.238,0.816,0.238,1.357c0,0.196-0.012,0.406-0.035,0.63c-0.023,0.225-0.058,0.458-0.104,0.7h-4.2
		c0.028,0.588,0.18,1.031,0.455,1.33s0.721,0.448,1.338,0.448c0.382,0,0.725-0.059,1.028-0.175c0.304-0.117,0.534-0.236,0.692-0.357
		L151.513,60.398z M148.908,55.26c-0.476,0-0.828,0.143-1.057,0.427c-0.229,0.285-0.366,0.665-0.412,1.142h2.604
		c0.037-0.504-0.04-0.892-0.231-1.162S149.32,55.26,148.908,55.26z M152.297,54h0.966v-1.316l1.819-0.518V54h1.709v1.54h-1.709
		v2.688c0,0.486,0.049,0.833,0.147,1.044c0.099,0.21,0.282,0.314,0.554,0.314c0.186,0,0.348-0.019,0.482-0.056
		s0.287-0.094,0.455-0.168l0.322,1.399c-0.252,0.122-0.547,0.225-0.883,0.309s-0.676,0.126-1.021,0.126
		c-0.645,0-1.118-0.166-1.421-0.497c-0.304-0.331-0.455-0.875-0.455-1.631V55.54h-0.966V54z M162.196,61v-3.976
		c0-0.569-0.08-0.98-0.238-1.232c-0.159-0.252-0.448-0.378-0.868-0.378c-0.308,0-0.591,0.104-0.847,0.314
		c-0.258,0.211-0.428,0.479-0.512,0.806V61h-1.82v-9.8h1.82v3.584h0.057c0.224-0.299,0.499-0.537,0.826-0.714
		c0.326-0.178,0.742-0.267,1.246-0.267c0.354,0,0.666,0.047,0.938,0.141c0.271,0.093,0.497,0.247,0.679,0.462
		c0.183,0.215,0.317,0.506,0.406,0.875c0.089,0.368,0.133,0.823,0.133,1.365V61H162.196z M175.578,60.599
		c-0.299,0.213-0.679,0.366-1.141,0.458c-0.462,0.093-0.936,0.14-1.421,0.14c-0.588,0-1.146-0.091-1.673-0.273
		c-0.527-0.182-0.992-0.476-1.393-0.882c-0.402-0.406-0.722-0.934-0.959-1.582c-0.238-0.648-0.357-1.435-0.357-2.359
		c0-0.961,0.133-1.766,0.398-2.415c0.266-0.648,0.611-1.171,1.036-1.567s0.898-0.682,1.421-0.854
		c0.523-0.172,1.045-0.259,1.568-0.259c0.561,0,1.033,0.037,1.421,0.112c0.388,0.074,0.707,0.163,0.959,0.266l-0.378,1.624
		c-0.215-0.103-0.469-0.177-0.764-0.224c-0.293-0.047-0.65-0.07-1.07-0.07c-0.775,0-1.398,0.276-1.869,0.828
		s-0.707,1.407-0.707,2.567c0,0.505,0.057,0.966,0.168,1.382c0.112,0.416,0.282,0.771,0.512,1.065
		c0.229,0.295,0.513,0.524,0.854,0.688c0.34,0.164,0.734,0.246,1.184,0.246c0.42,0,0.773-0.042,1.063-0.126
		c0.289-0.084,0.541-0.191,0.756-0.322L175.578,60.599z M175.887,57.5c0-1.186,0.289-2.098,0.868-2.737
		c0.579-0.639,1.391-0.959,2.437-0.959c0.56,0,1.045,0.089,1.455,0.267c0.411,0.177,0.752,0.427,1.022,0.749
		c0.271,0.321,0.474,0.712,0.608,1.169c0.136,0.457,0.203,0.961,0.203,1.512c0,1.186-0.287,2.098-0.861,2.737
		c-0.573,0.639-1.383,0.959-2.428,0.959c-0.561,0-1.046-0.089-1.457-0.267c-0.41-0.177-0.754-0.427-1.029-0.749
		c-0.275-0.321-0.48-0.711-0.615-1.169C175.955,58.555,175.887,58.051,175.887,57.5z M177.763,57.5c0,0.308,0.028,0.593,0.084,0.854
		c0.056,0.262,0.14,0.49,0.252,0.687s0.259,0.348,0.441,0.455c0.182,0.107,0.399,0.161,0.651,0.161c0.476,0,0.83-0.173,1.063-0.519
		c0.233-0.345,0.351-0.891,0.351-1.638c0-0.644-0.107-1.164-0.322-1.561c-0.215-0.397-0.579-0.596-1.092-0.596
		c-0.449,0-0.799,0.168-1.051,0.504S177.763,56.734,177.763,57.5z M188.025,61v-3.976c0-0.569-0.082-0.98-0.245-1.232
		s-0.441-0.378-0.833-0.378c-0.345,0-0.637,0.101-0.875,0.301c-0.237,0.201-0.408,0.45-0.511,0.749V61h-1.82v-7h1.442l0.21,0.924
		h0.056c0.215-0.299,0.499-0.56,0.854-0.784c0.354-0.224,0.812-0.336,1.371-0.336c0.346,0,0.654,0.047,0.924,0.141
		c0.271,0.093,0.5,0.247,0.687,0.462s0.327,0.506,0.421,0.875c0.092,0.368,0.139,0.823,0.139,1.365V61H188.025z M194.268,59.068
		c0-0.187-0.078-0.336-0.237-0.448s-0.354-0.215-0.588-0.309c-0.233-0.093-0.49-0.188-0.771-0.286
		c-0.279-0.099-0.537-0.233-0.77-0.406c-0.233-0.173-0.43-0.393-0.588-0.658c-0.159-0.266-0.238-0.609-0.238-1.029
		c0-0.69,0.205-1.218,0.616-1.582c0.411-0.363,1.003-0.546,1.778-0.546c0.531,0,1.012,0.057,1.441,0.168
		c0.43,0.112,0.766,0.238,1.008,0.378l-0.406,1.316c-0.215-0.084-0.484-0.173-0.812-0.266c-0.327-0.094-0.657-0.141-0.993-0.141
		c-0.542,0-0.813,0.21-0.813,0.63c0,0.168,0.079,0.304,0.238,0.406c0.158,0.103,0.354,0.198,0.588,0.287
		c0.232,0.089,0.49,0.185,0.77,0.287c0.28,0.103,0.537,0.235,0.77,0.398c0.234,0.164,0.43,0.376,0.588,0.638
		c0.159,0.261,0.238,0.597,0.238,1.008c0,0.709-0.227,1.267-0.679,1.673s-1.132,0.609-2.037,0.609c-0.495,0-0.959-0.063-1.393-0.189
		c-0.435-0.126-0.786-0.272-1.058-0.44l0.504-1.358c0.215,0.121,0.5,0.24,0.854,0.357c0.354,0.116,0.719,0.175,1.092,0.175
		c0.271,0,0.487-0.052,0.651-0.154C194.187,59.483,194.268,59.311,194.268,59.068z M199.029,54v3.976
		c0,0.569,0.067,0.98,0.203,1.232s0.399,0.378,0.791,0.378c0.345,0,0.632-0.103,0.86-0.308c0.229-0.205,0.399-0.457,0.512-0.756V54
		h1.82v4.872c0,0.383,0.018,0.759,0.056,1.127c0.037,0.369,0.093,0.702,0.168,1.001h-1.372l-0.322-1.036h-0.056
		c-0.215,0.354-0.513,0.649-0.896,0.882c-0.383,0.233-0.836,0.351-1.358,0.351c-0.354,0-0.672-0.047-0.952-0.141
		c-0.279-0.093-0.514-0.247-0.7-0.462c-0.187-0.214-0.329-0.504-0.427-0.868c-0.098-0.363-0.146-0.82-0.146-1.372V54H199.029z
		 M206.686,58.648c0,0.326,0.043,0.564,0.127,0.714s0.219,0.224,0.406,0.224c0.111,0,0.221-0.009,0.328-0.028
		c0.107-0.019,0.24-0.061,0.399-0.126l0.196,1.429c-0.15,0.074-0.379,0.148-0.687,0.224c-0.308,0.074-0.626,0.112-0.952,0.112
		c-0.531,0-0.938-0.124-1.218-0.371s-0.42-0.656-0.42-1.226V51.2h1.819V58.648z M208.198,54h0.966v-1.316l1.82-0.518V54h1.708v1.54
		h-1.708v2.688c0,0.486,0.049,0.833,0.146,1.044c0.099,0.21,0.283,0.314,0.554,0.314c0.187,0,0.348-0.019,0.483-0.056
		c0.135-0.037,0.287-0.094,0.455-0.168l0.321,1.399c-0.252,0.122-0.546,0.225-0.882,0.309s-0.677,0.126-1.021,0.126
		c-0.645,0-1.119-0.166-1.422-0.497s-0.455-0.875-0.455-1.631V55.54h-0.966V54z M213.7,52.026c0-0.271,0.101-0.502,0.301-0.693
		s0.479-0.287,0.833-0.287c0.355,0,0.642,0.096,0.861,0.287c0.219,0.191,0.328,0.423,0.328,0.693s-0.109,0.497-0.328,0.679
		c-0.22,0.182-0.506,0.272-0.861,0.272c-0.354,0-0.633-0.091-0.833-0.272S213.7,52.297,213.7,52.026z M213.967,54h1.819v7h-1.819V54
		z M221.863,61v-3.976c0-0.569-0.082-0.98-0.245-1.232s-0.441-0.378-0.833-0.378c-0.345,0-0.637,0.101-0.875,0.301
		c-0.237,0.201-0.408,0.45-0.511,0.749V61h-1.82v-7h1.442l0.21,0.924h0.056c0.215-0.299,0.499-0.56,0.854-0.784
		c0.354-0.224,0.812-0.336,1.371-0.336c0.346,0,0.654,0.047,0.924,0.141c0.271,0.093,0.5,0.247,0.687,0.462s0.327,0.506,0.421,0.875
		c0.092,0.368,0.139,0.823,0.139,1.365V61H221.863z M231.131,61c0,1.018-0.275,1.767-0.826,2.247s-1.321,0.721-2.311,0.721
		c-0.672,0-1.201-0.047-1.589-0.14c-0.388-0.094-0.679-0.191-0.875-0.294l0.378-1.442c0.215,0.084,0.465,0.168,0.749,0.252
		s0.637,0.126,1.058,0.126c0.634,0,1.065-0.138,1.295-0.413c0.229-0.275,0.342-0.66,0.342-1.154v-0.448h-0.055
		c-0.328,0.438-0.906,0.658-1.736,0.658c-0.906,0-1.58-0.28-2.023-0.84c-0.443-0.561-0.665-1.438-0.665-2.633
		c0-1.25,0.299-2.197,0.896-2.842c0.598-0.644,1.466-0.966,2.604-0.966c0.597,0,1.132,0.042,1.603,0.126
		c0.472,0.084,0.857,0.182,1.156,0.294V61z M228.051,59.656c0.354,0,0.627-0.079,0.818-0.238c0.191-0.158,0.338-0.396,0.441-0.714
		v-3.15c-0.29-0.121-0.649-0.182-1.078-0.182c-0.467,0-0.831,0.175-1.092,0.525c-0.262,0.35-0.393,0.907-0.393,1.673
		c0,0.681,0.112,1.199,0.336,1.554C227.309,59.479,227.631,59.656,228.051,59.656z"/>
</g>
</svg>
