<?xml version="1.0" encoding="utf-8"?>
<!-- Generator: Adobe Illustrator 15.0.2, SVG Export Plug-In . SVG Version: 6.00 Build 0)  -->
<!DOCTYPE svg PUBLIC "-//W3C//DTD SVG 1.1//EN" "http://www.w3.org/Graphics/SVG/1.1/DTD/svg11.dtd">
<svg version="1.1" id="Layer_1" xmlns="http://www.w3.org/2000/svg" xmlns:xlink="http://www.w3.org/1999/xlink" x="0px" y="0px"
	 width="306px" height="92px" viewBox="0 0 306 92" enable-background="new 0 0 306 92" xml:space="preserve">
<g id="col-xs-12">
</g>
<g id="col-sm-12">
</g>
<g id="Guides">
</g>
<g id="sm_highlight" display="none">
	
		<rect x="-401.875" y="-1273.163" display="inline" opacity="0.1" fill="#FF00FF" enable-background="new    " width="53.333" height="1773.451"/>
	
		<rect x="-318.405" y="-1273.163" display="inline" opacity="0.1" fill="#FF00FF" enable-background="new    " width="53.333" height="1773.451"/>
	
		<rect x="-234.936" y="-1273.163" display="inline" opacity="0.1" fill="#FF00FF" enable-background="new    " width="53.333" height="1773.451"/>
	
		<rect x="-151.466" y="-1273.163" display="inline" opacity="0.1" fill="#FF00FF" enable-background="new    " width="53.333" height="1773.451"/>
	
		<rect x="-67.996" y="-1273.163" display="inline" opacity="0.1" fill="#FF00FF" enable-background="new    " width="53.333" height="1773.451"/>
	
		<rect x="15.474" y="-1273.163" display="inline" opacity="0.1" fill="#FF00FF" enable-background="new    " width="53.333" height="1773.451"/>
	
		<rect x="98.943" y="-1273.163" display="inline" opacity="0.1" fill="#FF00FF" enable-background="new    " width="53.333" height="1773.451"/>
	
		<rect x="182.413" y="-1273.163" display="inline" opacity="0.1" fill="#FF00FF" enable-background="new    " width="53.333" height="1773.451"/>
	
		<rect x="265.882" y="-1273.163" display="inline" opacity="0.1" fill="#FF00FF" enable-background="new    " width="53.333" height="1773.451"/>
	
		<rect x="349.352" y="-1273.163" display="inline" opacity="0.1" fill="#FF00FF" enable-background="new    " width="53.333" height="1773.451"/>
	
		<rect x="432.822" y="-1273.163" display="inline" opacity="0.1" fill="#FF00FF" enable-background="new    " width="53.333" height="1773.451"/>
	
		<rect x="516.292" y="-1273.163" display="inline" opacity="0.1" fill="#FF00FF" enable-background="new    " width="53.333" height="1773.451"/>
</g>
<g id="md_highlight" display="none">
	
		<rect x="1407.588" y="-1274.232" display="inline" opacity="0.1" fill="#FF00FF" enable-background="new    " width="67.451" height="1800.5"/>
	
		<rect x="1505.18" y="-1274.232" display="inline" opacity="0.1" fill="#FF00FF" enable-background="new    " width="67.451" height="1800.5"/>
	
		<rect x="1602.771" y="-1274.232" display="inline" opacity="0.1" fill="#FF00FF" enable-background="new    " width="67.45" height="1800.5"/>
	
		<rect x="1700.364" y="-1274.232" display="inline" opacity="0.1" fill="#FF00FF" enable-background="new    " width="67.451" height="1800.5"/>
	
		<rect x="1797.956" y="-1274.232" display="inline" opacity="0.1" fill="#FF00FF" enable-background="new    " width="67.451" height="1800.5"/>
	
		<rect x="1895.548" y="-1274.232" display="inline" opacity="0.1" fill="#FF00FF" enable-background="new    " width="67.451" height="1800.5"/>
	
		<rect x="1993.14" y="-1274.232" display="inline" opacity="0.1" fill="#FF00FF" enable-background="new    " width="67.451" height="1800.5"/>
	
		<rect x="2090.732" y="-1274.232" display="inline" opacity="0.1" fill="#FF00FF" enable-background="new    " width="67.449" height="1800.5"/>
	
		<rect x="2188.324" y="-1274.232" display="inline" opacity="0.1" fill="#FF00FF" enable-background="new    " width="67.451" height="1800.5"/>
	
		<rect x="2285.916" y="-1274.232" display="inline" opacity="0.1" fill="#FF00FF" enable-background="new    " width="67.451" height="1800.5"/>
	
		<rect x="2383.508" y="-1274.232" display="inline" opacity="0.1" fill="#FF00FF" enable-background="new    " width="67.451" height="1800.5"/>
	
		<rect x="2481.1" y="-1274.232" display="inline" opacity="0.1" fill="#FF00FF" enable-background="new    " width="67.451" height="1800.5"/>
</g>
<g id="Layer_8">
	<g>
		<path id="ofAmerica" fill="#716558" d="M15.906,56.42c0-0.865,0.125-1.658,0.376-2.377c0.251-0.72,0.604-1.34,1.058-1.859
			c0.455-0.521,0.998-0.926,1.631-1.217c0.632-0.291,1.331-0.436,2.094-0.436c0.771,0,1.474,0.146,2.11,0.436
			c0.636,0.291,1.18,0.696,1.63,1.217c0.451,0.521,0.802,1.141,1.053,1.859c0.25,0.721,0.376,1.512,0.376,2.377v0.458
			c0,0.865-0.124,1.658-0.371,2.378c-0.248,0.721-0.598,1.34-1.053,1.859c-0.454,0.52-0.998,0.926-1.63,1.216
			c-0.632,0.291-1.331,0.437-2.094,0.437c-0.771,0-1.474-0.146-2.11-0.437c-0.636-0.291-1.182-0.696-1.636-1.216
			c-0.454-0.521-0.807-1.141-1.058-1.859c-0.251-0.719-0.376-1.512-0.376-2.378V56.42z M16.495,56.878
			c0,0.705,0.104,1.378,0.311,2.019s0.507,1.203,0.9,1.69c0.393,0.488,0.872,0.874,1.439,1.161s1.214,0.432,1.941,0.432
			c0.72,0,1.361-0.144,1.925-0.432c0.564-0.288,1.04-0.674,1.429-1.161s0.687-1.051,0.894-1.69c0.208-0.641,0.311-1.313,0.311-2.019
			V56.42c0-0.691-0.104-1.354-0.311-1.99c-0.207-0.636-0.507-1.199-0.899-1.689c-0.392-0.491-0.873-0.885-1.44-1.18
			c-0.567-0.293-1.21-0.44-1.93-0.44c-0.72,0-1.363,0.146-1.93,0.44c-0.567,0.295-1.045,0.688-1.435,1.18
			c-0.389,0.49-0.687,1.054-0.894,1.689c-0.207,0.637-0.311,1.301-0.311,1.99V56.878z M29.269,62.55v-11.2h-2.05v-0.601h2.05v-1.681
			c0-0.566,0.071-1.066,0.213-1.5c0.142-0.433,0.345-0.797,0.611-1.095c0.265-0.298,0.589-0.523,0.971-0.676
			c0.381-0.153,0.813-0.229,1.292-0.229c0.226,0,0.457,0.013,0.693,0.038c0.236,0.025,0.471,0.074,0.703,0.147l-0.087,0.567
			c-0.102-0.029-0.2-0.053-0.294-0.071c-0.095-0.018-0.191-0.034-0.289-0.049c-0.098-0.015-0.206-0.025-0.322-0.033
			c-0.117-0.007-0.248-0.011-0.393-0.011c-0.778,0-1.391,0.253-1.838,0.758c-0.447,0.505-0.671,1.223-0.671,2.154v1.68h3.119v0.6
			h-3.119V62.55H29.269z M49.424,57.805h-7.776l-1.767,4.744h-0.644l5.944-15.879h0.72l5.944,15.879h-0.644L49.424,57.805z
			 M41.866,57.216h7.34l-3.665-9.837L41.866,57.216z M62.593,62.55h-0.589v-7.853c0-0.705-0.081-1.289-0.24-1.75
			c-0.16-0.461-0.383-0.829-0.671-1.103c-0.287-0.271-0.629-0.464-1.025-0.571c-0.396-0.109-0.827-0.164-1.292-0.164
			c-0.654,0-1.225,0.135-1.712,0.404c-0.487,0.269-0.898,0.604-1.232,1.008c-0.334,0.403-0.6,0.836-0.796,1.299
			c-0.196,0.462-0.331,0.885-0.403,1.271v7.46h-0.6V50.749h0.6v2.792c0.174-0.422,0.394-0.816,0.66-1.184
			c0.265-0.366,0.576-0.686,0.933-0.953c0.356-0.271,0.75-0.482,1.183-0.639c0.433-0.156,0.9-0.233,1.401-0.233
			c0.989,0,1.798,0.218,2.427,0.653c0.629,0.437,1.042,1.148,1.238,2.139c0.16-0.393,0.376-0.758,0.649-1.096
			s0.594-0.635,0.965-0.885c0.371-0.251,0.785-0.447,1.243-0.594s0.952-0.218,1.483-0.218c0.596,0,1.128,0.082,1.598,0.243
			c0.469,0.164,0.865,0.424,1.188,0.774c0.324,0.354,0.571,0.806,0.742,1.358c0.171,0.553,0.256,1.221,0.256,2.007v7.634H70.01
			v-7.634c0-0.749-0.08-1.37-0.24-1.865c-0.16-0.493-0.384-0.885-0.671-1.172s-0.629-0.489-1.025-0.604s-0.827-0.172-1.292-0.164
			c-0.466,0.008-0.889,0.07-1.271,0.19c-0.381,0.12-0.725,0.278-1.03,0.474c-0.306,0.197-0.571,0.42-0.796,0.672
			c-0.226,0.252-0.416,0.508-0.572,0.77c-0.157,0.264-0.278,0.521-0.366,0.78c-0.087,0.258-0.138,0.493-0.152,0.703v7.851
			L62.593,62.55L62.593,62.55z M78.206,62.768c-0.72,0-1.392-0.146-2.018-0.436c-0.625-0.291-1.172-0.696-1.641-1.216
			c-0.469-0.521-0.838-1.138-1.107-1.854c-0.269-0.716-0.404-1.503-0.404-2.361v-0.479c0-0.857,0.131-1.646,0.393-2.372
			c0.262-0.723,0.616-1.345,1.063-1.864c0.447-0.521,0.971-0.926,1.57-1.217c0.6-0.291,1.242-0.436,1.925-0.436
			c0.654,0,1.256,0.122,1.805,0.363c0.549,0.244,1.021,0.588,1.418,1.031c0.396,0.444,0.705,0.975,0.927,1.592
			c0.222,0.619,0.333,1.304,0.333,2.051v0.688h-8.845v0.164V56.9c0,0.733,0.116,1.424,0.349,2.066
			c0.232,0.645,0.554,1.203,0.965,1.682c0.411,0.476,0.896,0.853,1.456,1.129c0.56,0.274,1.163,0.414,1.81,0.414
			c0.334,0,0.66-0.025,0.976-0.076s0.62-0.139,0.911-0.262c0.291-0.125,0.571-0.289,0.84-0.496s0.527-0.473,0.774-0.791l0.415,0.295
			c-0.196,0.283-0.422,0.541-0.676,0.772c-0.254,0.233-0.543,0.435-0.867,0.601c-0.323,0.168-0.682,0.299-1.074,0.394
			C79.111,62.72,78.678,62.768,78.206,62.768z M77.988,51.12c-0.596,0-1.144,0.116-1.642,0.349
			c-0.498,0.233-0.936,0.555-1.314,0.965c-0.378,0.411-0.686,0.895-0.922,1.445c-0.236,0.553-0.387,1.148-0.453,1.789h8.224v-0.143
			c0-0.588-0.093-1.15-0.278-1.686c-0.186-0.533-0.447-1.003-0.785-1.406c-0.338-0.404-0.747-0.725-1.227-0.959
			C79.111,51.238,78.577,51.12,77.988,51.12z M90.077,51.174c-0.116-0.014-0.238-0.029-0.365-0.043
			c-0.127-0.015-0.26-0.021-0.398-0.021c-0.545,0-1.036,0.096-1.472,0.283c-0.436,0.189-0.814,0.449-1.134,0.78
			s-0.583,0.722-0.791,1.172c-0.208,0.451-0.358,0.942-0.453,1.472v7.732h-0.589v-11.8h0.589v2.454
			c0.32-0.822,0.8-1.473,1.439-1.952c0.64-0.479,1.443-0.72,2.41-0.72c0.182,0,0.342,0.011,0.48,0.033
			c0.138,0.021,0.254,0.051,0.349,0.086L90.077,51.174z M91.896,47.063c0-0.166,0.058-0.311,0.174-0.431
			c0.116-0.12,0.258-0.18,0.425-0.18s0.311,0.06,0.431,0.18c0.12,0.12,0.18,0.263,0.18,0.431s-0.06,0.311-0.18,0.427
			c-0.12,0.114-0.263,0.175-0.431,0.175s-0.309-0.059-0.425-0.175C91.954,47.372,91.896,47.23,91.896,47.063z M92.79,62.55h-0.589
			V50.749h0.589V62.55z M100.275,62.18c0.458,0,0.907-0.063,1.347-0.186c0.44-0.124,0.834-0.314,1.184-0.573
			c0.349-0.258,0.636-0.589,0.861-0.991c0.226-0.404,0.356-0.89,0.393-1.457h0.589c-0.029,0.604-0.166,1.142-0.409,1.609
			c-0.244,0.469-0.563,0.865-0.96,1.189c-0.396,0.321-0.853,0.569-1.369,0.739c-0.516,0.173-1.062,0.257-1.636,0.257
			c-0.764,0-1.445-0.146-2.045-0.437c-0.6-0.291-1.105-0.696-1.516-1.216c-0.411-0.521-0.723-1.141-0.938-1.859
			c-0.214-0.72-0.321-1.512-0.321-2.378V56.42c0-0.865,0.107-1.658,0.321-2.377c0.215-0.72,0.527-1.34,0.938-1.859
			c0.411-0.521,0.913-0.926,1.505-1.217c0.592-0.291,1.271-0.436,2.034-0.436c0.567,0,1.111,0.087,1.631,0.262
			c0.52,0.174,0.979,0.434,1.379,0.78c0.4,0.345,0.723,0.774,0.971,1.286c0.247,0.514,0.385,1.106,0.415,1.783h-0.589
			c-0.029-0.588-0.152-1.104-0.371-1.543c-0.219-0.439-0.5-0.808-0.845-1.103c-0.345-0.295-0.742-0.515-1.189-0.66
			c-0.447-0.146-0.914-0.218-1.401-0.218c-0.72,0-1.345,0.138-1.875,0.415c-0.531,0.274-0.969,0.653-1.314,1.134
			c-0.345,0.479-0.602,1.042-0.769,1.686c-0.167,0.645-0.25,1.334-0.25,2.066v0.458c0,0.742,0.083,1.435,0.25,2.078
			s0.426,1.204,0.774,1.68c0.349,0.478,0.789,0.854,1.32,1.13C98.919,62.041,99.548,62.18,100.275,62.18z M115.08,62.55
			c-0.08-0.276-0.136-0.608-0.169-0.998c-0.033-0.389-0.049-0.776-0.049-1.161c-0.196,0.32-0.44,0.625-0.731,0.911
			c-0.291,0.287-0.629,0.54-1.014,0.759c-0.385,0.217-0.818,0.392-1.298,0.519s-1.014,0.19-1.603,0.19
			c-0.553,0-1.053-0.078-1.5-0.233c-0.447-0.156-0.829-0.376-1.146-0.66c-0.316-0.283-0.56-0.622-0.73-1.015
			c-0.171-0.394-0.256-0.824-0.256-1.299c0-0.521,0.124-1.006,0.371-1.451c0.247-0.441,0.605-0.821,1.074-1.139
			c0.469-0.315,1.042-0.563,1.718-0.742c0.676-0.179,1.44-0.268,2.291-0.268h2.825V54.24c0-0.989-0.311-1.756-0.933-2.301
			c-0.622-0.545-1.51-0.818-2.667-0.818c-0.538,0-1.036,0.072-1.494,0.218s-0.856,0.347-1.194,0.604
			c-0.338,0.259-0.604,0.563-0.796,0.916c-0.193,0.354-0.289,0.732-0.289,1.141l-0.589-0.021c0-0.459,0.107-0.896,0.322-1.313
			c0.214-0.418,0.516-0.785,0.905-1.103c0.389-0.316,0.851-0.566,1.385-0.752c0.534-0.187,1.118-0.277,1.75-0.277
			c0.611,0,1.172,0.076,1.685,0.232c0.513,0.156,0.954,0.391,1.325,0.698c0.371,0.31,0.66,0.698,0.867,1.167
			c0.208,0.469,0.311,1.014,0.311,1.63v5.911c0,0.211,0.007,0.428,0.022,0.648c0.014,0.223,0.034,0.434,0.06,0.634
			c0.025,0.2,0.057,0.387,0.093,0.562c0.037,0.174,0.08,0.32,0.131,0.438v0.098L115.08,62.55L115.08,62.55z M110.216,62.189
			c0.567,0,1.092-0.064,1.576-0.195c0.483-0.131,0.92-0.32,1.309-0.567s0.73-0.544,1.025-0.889c0.294-0.345,0.54-0.736,0.736-1.172
			v-2.804h-2.792c-0.764,0-1.447,0.076-2.05,0.225c-0.604,0.148-1.116,0.357-1.538,0.627c-0.421,0.27-0.745,0.591-0.971,0.965
			c-0.225,0.375-0.338,0.783-0.338,1.227c0,0.356,0.075,0.691,0.224,1.004c0.149,0.313,0.358,0.586,0.627,0.822
			s0.589,0.422,0.96,0.558C109.354,62.123,109.765,62.189,110.216,62.189z"/>
		<path id="drizzle" fill="#A21E22" d="M123.955,54.949c11.059,2.005,22.596,0.988,33.49-2.049
			c5.459-1.52,10.797-3.487,15.994-5.781c5.168-2.358,10.224-4.972,15.129-7.855c4.912-2.876,9.705-5.943,14.552-8.981
			c2.425-1.52,4.866-3.026,7.446-4.376c1.289-0.677,2.607-1.324,4.041-1.849c0.713-0.263,1.457-0.496,2.276-0.634
			c0.813-0.133,1.724-0.196,2.729,0.109c0.256,0.083,0.549,0.207,0.854,0.443c0.304,0.225,0.619,0.626,0.744,1.075
			c0.236,0.93-0.063,1.508-0.253,1.943c-0.443,0.87-0.958,1.438-1.492,1.997c-1.061,1.099-2.223,1.978-3.365,2.868l-3.476,2.564
			l-3.396,2.618c-4.523,3.482-9.014,7.006-13.176,10.874c-2.047,1.96-4.104,3.935-5.769,6.19c-0.825,1.129-1.521,2.345-2.065,3.556
			c-0.527,1.215-0.857,2.465-0.797,3.502c0.059,1.032,0.594,1.875,1.544,2.625c0.472,0.362,1.017,0.694,1.603,0.987
			c0.582,0.291,1.148,0.505,1.777,0.647c1.239,0.288,2.59,0.271,3.93,0.046c1.338-0.244,2.652-0.712,3.916-1.3
			c2.521-1.198,4.886-2.76,7.164-4.43c2.275-1.679,4.471-3.479,6.623-5.335c4.301-3.719,8.442-7.635,12.604-11.54
			c8.35-7.774,16.59-15.776,26.075-22.403c4.755-3.261,9.821-6.25,15.505-8.031c2.834-0.876,5.836-1.403,8.893-1.346
			c3.051,0.044,6.125,0.739,8.93,2.004c0.848,0.382,1.225,1.379,0.843,2.226s-1.378,1.225-2.226,0.843
			c-0.017-0.006-0.037-0.016-0.052-0.023c-2.362-1.159-4.946-1.841-7.604-1.97c-2.655-0.139-5.364,0.231-8.004,0.953
			c-5.301,1.446-10.295,4.162-14.982,7.265c-4.701,3.117-9.148,6.654-13.486,10.327c-4.345,3.67-8.545,7.525-12.746,11.387
			c-4.205,3.858-8.406,7.738-12.787,11.436c-2.192,1.847-4.435,3.645-6.772,5.325c-2.341,1.676-4.782,3.246-7.433,4.477
			c-1.319,0.621-2.689,1.168-4.135,1.561c-1.438,0.412-2.986,0.635-4.568,0.463c-0.782-0.08-1.59-0.277-2.321-0.543
			c-0.729-0.26-1.462-0.582-2.151-1.054c-0.69-0.456-1.363-1.055-1.854-1.841c-0.502-0.771-0.805-1.716-0.827-2.623
			c-0.071-1.841,0.683-3.357,1.481-4.642c0.82-1.298,1.812-2.402,2.789-3.482c1.963-2.153,4-4.182,6.156-6.079
			c4.278-3.824,8.769-7.367,13.162-11.009c2.221-1.787,4.385-3.656,6.357-5.688c1-0.993,1.957-2.033,2.814-3.05
			c0.407-0.505,0.826-1.041,1.014-1.457c0.104-0.198,0.062-0.348,0.099-0.12c0.026,0.105,0.118,0.207,0.14,0.217
			c0.024,0.017-0.011-0.015-0.095-0.04c-0.76-0.251-2.127,0.005-3.351,0.459c-1.256,0.441-2.516,1.034-3.76,1.668
			c-2.483,1.284-4.944,2.71-7.414,4.126c-4.926,2.861-9.854,5.782-14.895,8.504c-5.033,2.729-10.126,5.373-15.388,7.66
			c-5.228,2.356-10.61,4.397-16.138,5.987c-5.529,1.563-11.186,2.777-16.938,3.32c-2.875,0.268-5.767,0.407-8.664,0.387
			c-2.896-0.026-5.795-0.228-8.682-0.569c-0.705-0.084-1.209-0.724-1.125-1.431c0.084-0.705,0.724-1.209,1.429-1.125
			C123.901,54.939,123.931,54.945,123.955,54.949z M291.127,17.039c0.633,0,1.145,0.513,1.145,1.145s-0.512,1.145-1.145,1.145
			s-1.145-0.513-1.145-1.145S290.494,17.039,291.127,17.039z"/>
		<path id="pastryChefs" fill="#749AA6" d="M20.33,32.052c0,1.323,0.028,5.152,0.056,5.546c0.056,0.619,0.338,0.901,0.929,0.901
			h1.802c0.197,0,0.225,0.084,0.225,0.197v0.676c0,0.141-0.028,0.225-0.253,0.225c-0.394,0-1.267-0.084-3.913-0.084
			c-2.478,0-3.576,0.084-3.885,0.084c-0.197,0-0.225-0.084-0.225-0.197v-0.704c0-0.141,0.028-0.197,0.169-0.197h1.21
			c0.957,0,1.154-0.141,1.239-0.901c0.028-0.281,0.113-4.673,0.113-7.939v-3.237c0-1.858-0.028-4.927-0.057-5.208
			c-0.056-0.563-0.338-0.619-1.098-0.619h-1.605c-0.141,0-0.169-0.056-0.169-0.225v-0.676c0-0.141,0.028-0.197,0.169-0.197
			c0.31,0,1.323,0.084,3.998,0.084c0.507,0,2.168-0.084,3.097-0.084c3.181,0,4.673,0.31,6.278,1.408
			c1.323,0.901,2.14,2.477,2.14,4.082c0,3.547-2.674,5.743-7.151,5.743c-1.042,0-2.167-0.028-3.068-0.141L20.33,32.052L20.33,32.052
			z M20.33,29.575c0.563,0.169,1.492,0.253,2.59,0.253c1.717,0,3.238-0.929,3.97-1.914c0.619-0.816,0.732-1.858,0.732-2.843
			c0-3.688-3.435-4.673-5.096-4.673c-0.479,0-1.633,0-2.196,0.197V29.575z M39.049,38.274c0.451,0,0.845-0.225,0.985-0.422
			c0.113-0.141,0.169-0.197,0.282-0.113l0.281,0.225c0.084,0.084,0.141,0.225-0.028,0.507c-0.226,0.422-0.76,1.379-2.196,1.379
			c-1.013,0-1.745-0.732-1.999-1.886h-0.056c-0.591,0.704-1.521,1.295-2.787,1.717c-0.535,0.169-1.042,0.169-1.661,0.169
			c-0.676,0-1.689-0.563-1.689-2.337c0-1.295,0.591-2.421,2.815-3.406c1.267-0.563,2.731-1.239,3.181-1.633v-1.802
			c-0.056-0.479-0.084-1.21-0.394-1.577c-0.31-0.366-0.873-0.619-1.689-0.619c-0.563,0-1.436,0.225-1.83,0.591
			c-0.394,0.366-0.141,0.788-0.141,1.295c0,0.985-0.338,1.604-1.492,1.604c-0.451,0-0.676-0.253-0.676-0.901
			c0-0.901,0.789-1.971,1.943-2.646c1.182-0.704,2.167-0.985,3.435-0.985c1.323,0,1.858,0.394,2.252,0.76
			c0.591,0.591,0.619,1.239,0.619,1.999v5.968C38.204,37.767,38.542,38.274,39.049,38.274z M36.149,33.319
			c-1.014,0.76-3.772,1.323-3.772,3.66c0,1.042,0.619,1.548,1.464,1.548c0.816,0,2.309-0.985,2.309-1.745L36.149,33.319
			L36.149,33.319z M42.595,39.034c-0.141-0.084-0.141-0.253-0.169-0.394l-0.479-2.675c-0.028-0.141,0.056-0.197,0.169-0.225
			l0.366-0.084c0.113-0.028,0.197,0.028,0.253,0.169l0.704,1.379c0.563,1.042,0.958,1.745,2.449,1.745
			c0.985,0,2.224-0.591,2.224-1.914c0-1.267-0.619-1.999-2.73-2.59c-1.661-0.479-3.322-1.351-3.322-3.575
			c0-1.942,1.83-3.435,3.941-3.435c1.352,0,2.083,0.338,2.59,0.591c0.422,0.197,0.479,0.338,0.507,0.507l0.422,1.971
			c0,0.113-0.056,0.197-0.197,0.253l-0.338,0.113c-0.113,0.028-0.169,0-0.253-0.141l-0.958-1.295
			c-0.337-0.535-0.873-1.098-1.971-1.098c-1.069,0-2.167,0.647-2.167,1.858c0,1.633,1.323,1.943,2.703,2.337
			c2.055,0.591,3.35,1.436,3.378,3.604c-0.028,2.28-1.886,3.716-4.279,3.716C44.059,39.851,42.933,39.288,42.595,39.034z
			 M55.543,35.994c0,2.111,0.957,2.478,1.464,2.478c0.647,0,1.464-0.113,1.858-0.366c0.141-0.084,0.253-0.056,0.338,0.056
			l0.141,0.253c0.084,0.113,0.028,0.225-0.057,0.31c-0.281,0.282-1.436,1.126-3.125,1.126c-1.379,0-2.73-1.323-2.73-2.393
			c0-1.154,0.084-3.632,0.084-4.026v-0.619c0-0.507,0.028-2.421,0.056-3.604h-1.717c-0.253,0-0.422-0.113-0.422-0.338
			s0.169-0.31,0.507-0.507c0.676-0.396,2.843-2.563,3.209-3.521c0.084-0.225,0.225-0.281,0.394-0.281
			c0.225,0,0.281,0.197,0.281,0.422l-0.141,2.759h3.913c0.169,0,0.253,0.141,0.197,0.253l-0.282,0.985
			c-0.028,0.141-0.084,0.225-0.253,0.225h-3.632c-0.056,1.295-0.084,2.674-0.084,3.969L55.543,35.994L55.543,35.994z M62.495,32.024
			c0-1.436-0.226-1.717-1.014-2.14l-0.535-0.281c-0.169-0.056-0.226-0.084-0.226-0.197v-0.169c0-0.113,0.057-0.169,0.226-0.253
			l2.787-1.436c0.168-0.084,0.281-0.113,0.394-0.113c0.169,0,0.197,0.169,0.197,0.338l0.141,1.999h0.112
			c0.845-1.295,2.168-2.449,3.378-2.449c0.957,0,1.436,0.591,1.436,1.239c0,0.816-0.675,1.38-1.182,1.38
			c-0.31,0-0.591-0.113-0.816-0.225c-0.225-0.141-0.563-0.225-0.929-0.225c-0.45,0-1.182,0.281-1.661,1.182
			c-0.168,0.31-0.281,0.816-0.281,0.901v5.856c0,0.873,0.197,1.154,0.788,1.154h1.323c0.169,0,0.197,0.085,0.197,0.253v0.507
			c0,0.169-0.028,0.253-0.141,0.253c-0.169,0-1.464-0.084-2.984-0.084c-1.746,0-2.928,0.084-3.097,0.084
			c-0.113,0-0.169-0.056-0.169-0.281v-0.479c0-0.197,0.056-0.253,0.31-0.253h1.098c0.422,0,0.619-0.169,0.619-0.535
			c0.028-0.929,0.028-1.914,0.028-3.378L62.495,32.024L62.495,32.024z M70.319,45.735c0-0.591,0.62-1.098,1.295-1.098
			c0.535,0,1.042,0.253,1.295,0.31c0.197,0.028,0.422,0,0.591-0.169c0.422-0.507,1.858-3.716,2.252-4.814
			c-0.141-0.704-3.125-9.516-3.35-10.107c-0.338-0.704-0.591-1.182-1.323-1.182h-0.732c-0.197,0-0.225-0.084-0.225-0.253v-0.563
			c0-0.112,0.028-0.197,0.225-0.197c0.253,0,0.929,0.085,2.59,0.085c1.436,0,2.309-0.085,2.618-0.085
			c0.226,0,0.253,0.085,0.253,0.197v0.591c0,0.141-0.028,0.225-0.169,0.225h-0.535c-0.31,0-0.422,0.197-0.366,0.619
			c0.084,0.62,1.999,6.841,2.309,7.461h0.113c0.281-0.451,2.73-6.306,2.899-7.01s-0.056-1.07-0.479-1.07h-0.45
			c-0.169,0-0.197-0.084-0.197-0.225v-0.563c0-0.141,0.028-0.225,0.169-0.225c0.366,0,0.957,0.085,2.309,0.085
			c0.76,0,1.408-0.085,1.717-0.085c0.169,0,0.169,0.113,0.169,0.225v0.535c0,0.169,0,0.253-0.141,0.253h-0.451
			c-0.31,0-0.704,0.141-0.985,0.507c-0.619,0.76-2.478,5.067-4.42,9.487c-1.379,3.125-2.478,5.743-2.984,6.672
			c-0.395,0.732-0.901,1.83-2.393,1.83C70.854,47.17,70.319,46.579,70.319,45.735z M94.134,37.345
			c-2.027-1.914-3.012-5.18-3.012-7.883c0-2.618,0.844-5.321,2.871-7.461c1.436-1.52,3.97-2.843,7.038-2.843
			c2.562,0,4.673,0.957,5.687,1.548c0.366,0.225,0.507,0.197,0.563,0l0.225-0.816c0.057-0.169,0.113-0.169,0.366-0.169
			s0.31,0.056,0.31,0.45c0,0.535,0.563,4.673,0.704,5.461c0.028,0.141,0,0.253-0.113,0.281l-0.422,0.113
			c-0.141,0.028-0.197,0-0.281-0.225c-0.395-0.929-1.014-2.28-2.196-3.491s-2.674-2.168-4.898-2.168
			c-5.039,0-7.066,4.476-7.038,8.587c0,1.633,0.507,4.814,2.703,7.235c1.915,2.14,3.519,2.365,5.405,2.365
			c3.181,0,5.659-1.745,6.954-3.575c0.084-0.141,0.141-0.169,0.225-0.084l0.366,0.282c0.084,0.056,0.141,0.113,0.056,0.253
			c-1.689,2.449-4.42,4.73-8.389,4.73C97.935,39.935,95.823,38.894,94.134,37.345z M113.528,24.17c0-1.717-0.338-2.027-1.351-2.365
			l-0.479-0.169c-0.169-0.056-0.197-0.084-0.197-0.169v-0.253c0-0.113,0.084-0.141,0.338-0.281l2.928-1.548
			c0.225-0.113,0.422-0.225,0.647-0.225c0.169,0,0.282,0.225,0.226,0.704c-0.057,0.479-0.084,6.194-0.084,7.601v1.802h0.141
			c0.985-1.182,2.618-1.83,3.857-1.83c1.182,0,1.999,0.366,2.787,1.126c1.267,1.182,1.21,2.618,1.21,4.138v1.605
			c0,1.577,0.056,3.322,0.056,3.857c0,0.338,0.451,0.422,1.042,0.422h0.479c0.225,0,0.31,0.056,0.31,0.253v0.422
			c0,0.225-0.056,0.338-0.225,0.338c-0.197,0-1.098-0.084-2.703-0.084c-1.38,0-2.393,0.084-2.646,0.084
			c-0.197,0-0.253-0.084-0.253-0.31v-0.479c0-0.141,0.028-0.225,0.197-0.225h0.647c0.479,0,1.042-0.056,1.07-0.535
			c0.028-0.394,0-1.886,0-2.787v-2.28c0-1.577-0.113-2.703-0.929-3.463c-0.563-0.535-1.154-0.788-1.858-0.788
			c-0.816,0-1.83,0.281-2.618,1.182c-0.253,0.31-0.563,0.873-0.563,1.379v6.137c0,0.901,0.084,1.154,0.619,1.154h0.845
			c0.197,0,0.31,0.056,0.31,0.225v0.479c0,0.197-0.056,0.31-0.225,0.31c-0.226,0-1.38-0.084-2.675-0.084
			c-1.407,0-2.477,0.084-2.73,0.084c-0.113,0-0.197-0.084-0.197-0.281v-0.507c0-0.197,0.113-0.225,0.422-0.225h0.591
			c0.45,0,0.873-0.112,0.929-0.45c0.084-0.535,0.084-3.632,0.084-5.462V24.17H113.528z M129.179,32.024
			c-0.056,0.253-0.084,0.704-0.084,1.351c0,2.759,1.745,4.842,3.998,4.842c1.717,0,2.928-0.985,3.406-1.914
			c0.056-0.113,0.169-0.169,0.253-0.141l0.366,0.197c0.084,0.028,0.141,0.113,0,0.422c-0.507,1.126-1.971,3.069-4.477,3.069
			c-1.604,0-3.378-0.479-4.42-1.999c-0.985-1.436-1.239-2.478-1.239-4.448c0-1.098,0.282-2.984,1.774-4.476
			c1.21-1.239,2.618-1.492,4.025-1.492c3.238,0,4.139,3.041,4.139,4.138c0,0.394-0.338,0.45-0.788,0.45L129.179,32.024
			L129.179,32.024z M133.655,31.18c0.535,0,0.76-0.141,0.76-0.394c0-0.647-0.338-2.505-2.168-2.505c-1.239,0-2.421,0.816-2.956,2.9
			L133.655,31.18L133.655,31.18z M139.002,29.097c-0.141,0-0.197-0.056-0.141-0.31l0.112-0.845c0.028-0.169,0.113-0.197,0.338-0.197
			h1.633v-0.507c0-2.787,0.789-4.617,1.886-5.856c1.492-1.633,3.041-2.224,4.617-2.224c1.323,0,2.562,0.507,2.562,1.577
			c0,0.676-0.732,1.21-1.183,1.21c-0.282,0-0.563-0.056-0.788-0.169c-0.253-0.141-0.563-0.507-0.676-0.647
			c-0.366-0.45-0.76-0.647-1.295-0.647c-0.732,0-1.492,0.197-2.112,0.985c-1.042,1.323-0.985,3.773-0.985,5.743v0.535h3.407
			c0.197,0,0.225,0.169,0.197,0.281l-0.141,0.929c-0.028,0.113-0.141,0.141-0.366,0.141h-3.097v2.534c0,3.322,0,5.912,0.028,6.222
			c0.056,0.479,0.141,0.732,0.732,0.732h1.605c0.253,0,0.31,0.056,0.31,0.225v0.45c0,0.225-0.057,0.338-0.197,0.338
			c-0.169,0-1.21-0.084-3.378-0.084c-1.548,0-2.984,0.084-3.209,0.084c-0.169,0-0.226-0.056-0.226-0.197v-0.619
			c0-0.141,0.057-0.197,0.282-0.197h1.351c0.535,0,0.648-0.338,0.676-0.985v-8.502H139.002z M148.827,39.034
			c-0.141-0.084-0.141-0.253-0.169-0.394l-0.479-2.675c-0.028-0.141,0.056-0.197,0.168-0.225l0.366-0.084
			c0.113-0.028,0.197,0.028,0.253,0.169l0.704,1.379c0.563,1.042,0.958,1.745,2.449,1.745c0.985,0,2.224-0.591,2.224-1.914
			c0-1.267-0.618-1.999-2.73-2.59c-1.661-0.479-3.322-1.351-3.322-3.575c0-1.942,1.83-3.435,3.941-3.435
			c1.352,0,2.083,0.338,2.59,0.591c0.422,0.197,0.479,0.338,0.507,0.507l0.422,1.971c0,0.113-0.056,0.197-0.196,0.253l-0.338,0.113
			c-0.113,0.028-0.169,0-0.253-0.141l-0.958-1.295c-0.337-0.535-0.873-1.098-1.971-1.098c-1.069,0-2.167,0.647-2.167,1.858
			c0,1.633,1.323,1.943,2.703,2.337c2.055,0.591,3.35,1.436,3.378,3.604c-0.028,2.28-1.887,3.716-4.279,3.716
			C150.291,39.851,149.165,39.288,148.827,39.034z"/>
	</g>
</g>
</svg>
