<svg xmlns="http://www.w3.org/2000/svg" viewBox="0 0 443.842 207.912">
  <defs>
    <style>
      .cls-1 {
        fill: #8ed1c0;
      }

      .cls-2 {
        fill: #56c1a9;
      }
    </style>
  </defs>
  <title>romance-for-ransom-logo</title>
  <g id="Shaded">
    <path id="Shadow" class="cls-1" d="M114.5,43.051c-.594,0-1.18.03-1.763.075.1.29.467.4.791.4A24.305,24.305,0,0,1,137.029,63L117.682,90.677a.707.707,0,0,0-.024.759c.106-.014.212-.025.318-.04L137.7,63.14C135.755,51.741,126.1,43.051,114.5,43.051Zm119.013,75.623M55.964,37.012H45.4v.58h9.481A13.5,13.5,0,0,1,68.841,51.549a.75.75,0,0,0,.457.69,14.373,14.373,0,0,0,.123-1.77A13.016,13.016,0,0,0,55.964,37.012Zm12.915,64.582L45.837,71.775v1.24L68.37,102.174h11.9a.739.739,0,0,0,.715-.58Zm-36.161,0V28.815a.85.85,0,0,0-.689.716v72.643H43.507a.74.74,0,0,0,.716-.58Zm167.756,0V53.718l-.58.824v46.881a.75.75,0,0,0,.75.75.74.74,0,0,0,.715-.58ZM170.257,75.714,199.058,35a.74.74,0,0,0-.947.225L170.257,74.6Zm-11.682,25.879V53.9l-.58.83v47.439h6.335a.74.74,0,0,0,.716-.58ZM157.335,35a.744.744,0,0,0-.953.227L145.461,50.876a.742.742,0,0,0,.117.973Zm54.818,66.59H200.474s-.188.58.226.58h10.923a.739.739,0,0,0,.716-.58Zm34.614-48.806-.581.856v17.64h.581Zm0,48.758V81.493l-19.471,0-.506.774a.681.681,0,0,0,.111.022l19.285,0v19.835h10.67a.74.74,0,0,0,.716-.58Zm-1.426-66.45,0-.005a.751.751,0,0,0-1.044.19L212.153,81.8V83.13Zm60.751,45.651V34.99c-.33.079-.8.362-.8.716V79.677Zm.37,20.894L274.643,54.112v1.471l31.331,46.636h10.11a.739.739,0,0,0,.716-.58Zm-43.6,0V34.99c-.33.079-.9.362-.9.716v66.513h10.029c.354,0,.962-.25,1.041-.58ZM373.221,51.378A23.628,23.628,0,0,0,355.914,43.8c-.6,0-1.192.029-1.781.074a.744.744,0,0,0,.7.506,24.13,24.13,0,0,1,17.674,7.737.749.749,0,0,0,1.059.042.718.718,0,0,0,.165-.227ZM320.365,67.719a.738.738,0,0,0-.59.717A35.1,35.1,0,0,0,354.834,103.5a.741.741,0,0,0,.718-.589A35.592,35.592,0,0,1,320.365,67.719Zm82.135,6.59h20.941a.75.75,0,0,0,.75-.75.312.312,0,0,0-.009-.046H402.5Zm-.148-28.832h21.089a.75.75,0,0,0,.75-.75.373.373,0,0,0-.009-.046h-21.83Zm-11.633,56.067V35.182a.394.394,0,0,0-.047-.01.75.75,0,0,0-.75.75V102.34h33.3a.75.75,0,0,0,.75-.75.424.424,0,0,0-.01-.046ZM115.5,120.024h-10.56v.581h9.48a13.5,13.5,0,0,1,13.957,13.958.75.75,0,0,0,.457.69,14.376,14.376,0,0,0,.123-1.771A13.016,13.016,0,0,0,115.5,120.024ZM92.253,184.606V111.828a.739.739,0,0,0-.58.716v72.642h11.369a.739.739,0,0,0,.716-.58Zm36.161,0H117.286l5.212-7.656-17.126-22.161v1.552l16.036,20.784-5.449,8.061H138.5a.739.739,0,0,0,.716-.58h-10.8Zm35.675-48-.58.857v16.356a.744.744,0,0,0,.1.347h.485Zm0,48v-18.63H144.226l-.393.58h19.676v18.63H174.4a.739.739,0,0,0,.716-.58Zm-1.871-66a.9.9,0,0,0-1,.261l-32.377,47.56a.765.765,0,0,0,.193.926Zm61.305,45.106V117.958a.739.739,0,0,0-.58.716v44.188Zm.371,20.892-31.837-47.551-.006,1.3,31.354,46.831h10.111a.739.739,0,0,0,.715-.58Zm-43.923,0V117.958a.848.848,0,0,0-.689.716v66.512h10.249a.739.739,0,0,0,.716-.58Zm79.616,1.142c-14.749,0-21.658-10.647-22.024-21.312-.344.075-.277.37-.269.734a22.965,22.965,0,0,0,5.228,14.291c3.862,4.5,9.5,6.867,16.324,6.867.212,0,.1,0,.316-.007a.738.738,0,0,0,.7-.576Zm-7.663-32.8c1.789.779,3.607,1.409,5.366,2.019,6.314,2.188,11.084,3.916,11.257,10.669.008.315,0,.576.275.678a12.026,12.026,0,0,0,.088-1.746c-.164-6.406-5.006-8.085-11.137-10.209-1.768-.613-3.6-1.246-5.4-2.032-6.4-2.787-12.962-6.968-13.319-16.765-.348.072-.176.369-.168.735C239.092,146.061,245.593,150.2,251.924,152.95Zm14.865-17.49.072-1.347a8.059,8.059,0,0,0-1.96-5.356c-1.393-1.459-3.5-2.2-6.256-2.2l-.341,0a10.36,10.36,0,0,0-1.76.192.721.721,0,0,0,.669.389c3.059-.073,5.484.6,7.036,2.2a8.392,8.392,0,0,1,2.031,5.883l-.04.8,10.105-.219a.74.74,0,0,0,.7-.572Zm50.261-9.292c-.6,0-1.192.031-1.78.076a.743.743,0,0,0,.7.5c13.263,0,24.054,11.128,24.054,24.806a.742.742,0,0,0,.51.7c.042-.589.07-1.182.07-1.781C340.6,137.071,330.038,126.168,317.05,126.168ZM281.5,150.836a.74.74,0,0,0-.59.718,35.1,35.1,0,0,0,35.059,35.06.741.741,0,0,0,.718-.589A35.59,35.59,0,0,1,281.5,150.836Zm132.489,33.77V135.623l-.688,1.566v48h10.139a.739.739,0,0,0,.716-.58Zm-23.044-20.064L409.815,118a.494.494,0,0,0-.042-.027.749.749,0,0,0-.977.413l-18.271,45.067Zm-3.594,20.064-19.5-48.983v2.442l18.758,47.121h5.953a.739.739,0,0,0,.715-.58Zm-31.282,0V118.148c-.016,0-.03-.01-.047-.01a.75.75,0,0,0-.75.75V185.4h10.032a.75.75,0,0,0,.75-.75c0-.016-.009-.03-.01-.047ZM78.953,67.719a.541.541,0,0,0-.48.609,35.1,35.1,0,0,0,35.058,35.061.542.542,0,0,0,.61-.481A35.593,35.593,0,0,1,78.953,67.719Z"/>
    <path id="Block-2" data-name="Block" class="cls-2" d="M26.567,145.015h6.874q1.708-7.191,3.887-10.7a16.186,16.186,0,0,1,5.7-5.541,13.325,13.325,0,0,1,6.624-2.029,4.277,4.277,0,0,1,2.645.692,2.021,2.021,0,0,1,.888,1.638,1.887,1.887,0,0,1-.6,1.438,2.179,2.179,0,0,1-1.582.577,21.7,21.7,0,0,1-3.8-.609,12.163,12.163,0,0,0-2.163-.284c-1.268,0-2.414.783-3.427,2.35a19.761,19.761,0,0,0-2.454,6.34L37.7,145.015h6.543l-.461,2.044H37.146L32.64,165.418q-2.1,8.373-6.722,12.689a14.45,14.45,0,0,1-10.024,4.317,4.513,4.513,0,0,1-2.75-.706,2.122,2.122,0,0,1-.937-1.74,1.736,1.736,0,0,1,.649-1.423,2.843,2.843,0,0,1,1.857-.534,15.7,15.7,0,0,1,1.784.142,30.075,30.075,0,0,0,3.853.261,5.558,5.558,0,0,0,4.143-1.339q1.3-1.337,2.59-6.548l5.843-23.478H26.049Zm27.858-1.869a5.873,5.873,0,0,1,4.689,2.241,9.5,9.5,0,0,1,1.868,6.249A16.849,16.849,0,0,1,56.5,163.1q-4.491,5.079-9.493,5.079a6.484,6.484,0,0,1-4.97-2.015,7.719,7.719,0,0,1-1.883-5.5A19.6,19.6,0,0,1,43.605,149.5Q47.952,143.149,54.425,143.146ZM51.979,145.3q-2.445,0-4.738,3.5t-2.289,9.651a10.689,10.689,0,0,0,1.413,5.9,3.167,3.167,0,0,0,2.765,1.582q2.416,0,4.4-2.99a17.261,17.261,0,0,0,2.536-9.639q0-4.32-1.165-6.162A3.408,3.408,0,0,0,51.979,145.3Zm15.49,22.043H63.182l2.013-7.741q1.469-5.7,2.56-10.823a10.921,10.921,0,0,0,.259-1.579c0-.463-.21-.692-.631-.692a2.9,2.9,0,0,0-1.322.59,26.981,26.981,0,0,0-3.223,2.921l-.9-1.008a22.237,22.237,0,0,1,5.514-4.444,9.991,9.991,0,0,1,4.209-1.482,1.252,1.252,0,0,1,.822.246.765.765,0,0,1,.305.616,13.239,13.239,0,0,1-.385,2l-1.245,5.175a36.875,36.875,0,0,1,6.571-7.858,5,5,0,0,1,2.944-1.561,2,2,0,0,1,1.438.563,1.779,1.779,0,0,1,.579,1.309,1.8,1.8,0,0,1-.561,1.326,8.6,8.6,0,0,1-2.806,1.3,12.207,12.207,0,0,0-3.465,1.726A16.715,16.715,0,0,0,72.926,151a16.463,16.463,0,0,0-2.228,3.61,59.8,59.8,0,0,0-1.93,7.148ZM366.6,183.356H357.32V117.591h14.1l19.5,50.344,20.41-50.344h13.192v65.765H415.24V129.1l-21.6,54.252H388.2L366.6,129.1ZM317.05,124.918c-13.7,0-24.805,11.441-24.805,25.556s11.106,25.554,24.805,25.554,24.8-11.441,24.8-25.554S330.749,124.918,317.05,124.918Zm34.31,25.556a34.312,34.312,0,1,1-10.611-24.81A34.31,34.31,0,0,1,351.36,150.474Zm-73.952-16.495c-.238-11.114-9.226-17.728-18.752-17.525s-18.638,6.479-18.377,18.749c.2,9.206,6.09,13.151,12.59,15.98,8.088,3.518,17.053,4.057,17.291,13.355.369,14.513-21.252,16.023-21.609-.673l-9.752.209c.2,9.3,6.117,20.745,21.428,20.417s19.363-12.214,19.173-21.059c-.242-11.318-7.5-15.6-14.736-18.079-7.264-2.491-14.5-3.173-14.685-11.694-.09-4.229,2.263-8.219,8.3-8.348,10.321-.22,9.832,8.87,9.832,8.87Zm-86.584-1.012,33.736,50.389H234.6V117.594h-9.823v50.177l-34.162-50.177h-9.39v65.762h9.6Zm-15.343-15.5v65.892H165.339v-18.63H143.561l-6.845,10.123-1.316,1.706,5.156,6.8H119.649l4.393-6.452-19.92-25.777v32.229H93.5V111.464h17.949c4.846,0,5.918.042,5.918.042a22.185,22.185,0,0,1,2.268,44.253l9.9,13.066,34.967-51.361ZM117,148.112c7.416,0,13.2-7.016,13.2-14.63,0-8.123-5.787-14.708-14.707-14.708h-11.81v29.338Zm48.336-15.589-15.48,22.89h15.48Zm259.183-97.9H391.969v65.668h32.553V91.411H401.25V72.263h23.272V63.718H401.1V43.431h23.42ZM377.207,80.341a24.923,24.923,0,1,1-3.068-29.812l5.474-7.982a34.31,34.31,0,1,0-23.7,59.12c14.213,0,26.4-9.012,31.613-21.326ZM273.393,50l33.736,50.39h10.035V34.626h-9.822V84.8L273.18,34.626h-9.067v65.763h9.28ZM257.936,34.626v65.668h-9.919V80.243l-21.4,0-13.158,20.1H201.724V49.766l-35.555,50.577h-6.344V49.933L148.772,65.754c.024.531.042,1.065.042,1.6A34.325,34.325,0,0,1,124.775,100.1l-.837.242a34.3,34.3,0,1,1,21.98-46.8l13.239-18.969h9.85V79.646l31.881-45.069H210.9V87.138l36.28-52.512Zm-118.6,32.73a25.856,25.856,0,0,0-6.988-17.745c-.033-.034-.064-.069-.1-.1-.454-.479-.928-.938-1.417-1.378-.075-.069-.15-.136-.227-.2q-.71-.624-1.463-1.2c-.095-.071-.191-.139-.287-.209-.5-.371-1.022-.726-1.555-1.057-.085-.053-.173-.1-.259-.153q-.773-.468-1.578-.879c-.068-.035-.133-.073-.2-.107-.566-.281-1.146-.533-1.734-.77-.116-.047-.23-.1-.347-.142-.577-.222-1.163-.419-1.759-.6-.13-.039-.26-.077-.391-.114q-.9-.255-1.834-.438c-.12-.025-.24-.045-.361-.068-.643-.116-1.293-.212-1.952-.277-.084-.008-.169-.013-.253-.02-.7-.062-1.412-.1-2.13-.1a24.258,24.258,0,0,0-15.784,5.842,26,26,0,0,0,0,39.43A24.266,24.266,0,0,0,114.5,92.911c.676,0,1.343-.036,2-.091l.191-.014c.672-.061,1.335-.151,1.991-.265l.011,0h0A25.391,25.391,0,0,0,139.336,67.356ZM248.017,48.713,231.878,72.532h16.139ZM119.742,91.048a24.189,24.189,0,0,0,18.323-23.692c0-.808-.04-1.606-.115-2.394ZM55.964,35.762c8.92,0,14.707,6.584,14.707,14.707,0,7.613-5.787,14.631-13.2,14.631H44.153V35.762ZM80.019,50.678A22.186,22.186,0,0,0,57.835,28.492s-1.072-.041-5.918-.041H33.968v71.893H44.587V68.113l24.906,32.231H81.021L60.1,72.746A22.187,22.187,0,0,0,80.019,50.678Z"/>
  </g>
</svg>
