<svg id="Block" xmlns="http://www.w3.org/2000/svg" viewBox="0 0 442.842 207.912">
  <defs>
    <style>
      .cls-1 {
        fill: #56c1a9;
      }
    </style>
  </defs>
  <title>romance-for-ransom-logo-shadow</title>
  <path class="cls-1" d="M139.534,66.037q.038.657.037,1.322a23.383,23.383,0,0,1-16.749,22.622ZM379.206,80.344a24.923,24.923,0,1,1-3.068-29.812l5.474-7.982a34.31,34.31,0,1,0-23.7,59.12c14.213,0,26.4-9.012,31.613-21.326ZM116.835,41.8c-13.7,0-24.8,11.441-24.8,25.555s11.106,25.555,24.8,25.555,24.8-11.441,24.8-25.555S130.534,41.8,116.835,41.8Zm34.311,25.555A34.313,34.313,0,1,1,140.534,42.55,34.311,34.311,0,0,1,151.146,67.359ZM274.962,50l33.736,50.39h10.035V34.629h-9.822V84.806L274.749,34.629h-9.066v65.763h9.279ZM425.87,34.629H393.317V100.3H425.87V91.414H402.6V72.266H425.87V63.721H402.45V43.434h23.42Zm-165.6,0V100.3h-9.92V80.246l-21.4,0-13.158,20.1H204.056V49.769L168.5,100.346h-6.344V49.936l-9.249,13.237a35.048,35.048,0,0,0-3.124-11.822L161.489,34.58h9.85V79.648L203.22,34.58h10.015V87.141l36.28-52.512Zm-9.92,14.087L234.21,72.535h16.139ZM57.971,35.765c8.92,0,14.707,6.584,14.707,14.707,0,7.613-5.787,14.631-13.2,14.631H46.16V35.765ZM82.025,50.681A22.185,22.185,0,0,0,59.842,28.5s-1.072-.041-5.918-.041H35.975v71.893H46.594V68.116L71.5,100.347H83.027l-20.916-27.6A22.186,22.186,0,0,0,82.025,50.681Zm-52.018,96.38h6.877l-5.843,23.48q-1.29,5.21-2.59,6.547a5.554,5.554,0,0,1-4.143,1.34,29.9,29.9,0,0,1-3.853-.262,15.521,15.521,0,0,0-1.784-.143,2.838,2.838,0,0,0-1.856.536,1.734,1.734,0,0,0-.65,1.422,2.118,2.118,0,0,0,.937,1.74,4.519,4.519,0,0,0,2.75.707,14.444,14.444,0,0,0,10.024-4.319Q34.5,173.8,36.6,165.422L41.1,147.061h6.639l.461-2.042H41.661l1.445-6.129a19.758,19.758,0,0,1,2.454-6.341c1.013-1.567,2.159-2.349,3.427-2.349a12.07,12.07,0,0,1,2.163.284,21.665,21.665,0,0,0,3.8.608,2.185,2.185,0,0,0,1.582-.576,1.884,1.884,0,0,0,.6-1.438,2.02,2.02,0,0,0-.888-1.639,4.275,4.275,0,0,0-2.645-.691,13.323,13.323,0,0,0-6.624,2.028,16.188,16.188,0,0,0-5.695,5.542q-2.189,3.507-3.887,10.7H30.525Zm17.557,2.446a19.587,19.587,0,0,0-3.456,11.164,7.721,7.721,0,0,0,1.883,5.5,6.487,6.487,0,0,0,4.97,2.014q5.006,0,9.493-5.079A16.848,16.848,0,0,0,64.94,151.64a9.5,9.5,0,0,0-1.868-6.25,5.87,5.87,0,0,0-4.689-2.241Q51.912,143.149,47.564,149.507Zm11.294-2.36q1.161,1.842,1.164,6.16a17.262,17.262,0,0,1-2.535,9.64q-1.979,2.991-4.4,2.989a3.165,3.165,0,0,1-2.765-1.581,10.685,10.685,0,0,1-1.413-5.9q0-6.151,2.289-9.652t4.737-3.5A3.407,3.407,0,0,1,58.858,147.147Zm13.868,14.619a59.723,59.723,0,0,1,1.93-7.149,16.486,16.486,0,0,1,2.228-3.61,16.747,16.747,0,0,1,2.933-3.081,12.18,12.18,0,0,1,3.465-1.725,8.666,8.666,0,0,0,2.806-1.295,1.8,1.8,0,0,0,.561-1.326,1.778,1.778,0,0,0-.579-1.309,1.994,1.994,0,0,0-1.438-.563,4.991,4.991,0,0,0-2.943,1.56,36.831,36.831,0,0,0-6.572,7.859l1.245-5.175a13.242,13.242,0,0,0,.385-2,.762.762,0,0,0-.305-.615,1.247,1.247,0,0,0-.822-.247,10,10,0,0,0-4.209,1.482,22.259,22.259,0,0,0-5.514,4.444l.9,1.008A26.975,26.975,0,0,1,70.02,147.1a2.9,2.9,0,0,1,1.321-.59c.421,0,.631.23.631.693a10.986,10.986,0,0,1-.259,1.579q-1.092,5.127-2.56,10.822l-2.013,7.741h4.287ZM193.8,132.97l33.736,50.389h10.035V117.6h-9.822v50.176L193.59,117.6H184.2v65.762h9.6Zm125.137-8.049c-13.7,0-24.8,11.441-24.8,25.556s11.1,25.554,24.8,25.554,24.805-11.441,24.805-25.554S332.64,124.921,318.94,124.921Zm34.311,25.556a34.312,34.312,0,1,1-10.611-24.81A34.31,34.31,0,0,1,353.251,150.477Zm14.912-21.371,21.6,54.253H395.2l21.6-54.253v54.253h9.064V117.594H412.892l-20.411,50.344-19.5-50.344H358.665v65.765h9.5Zm-88.643,4.875c-.239-11.113-9.227-17.727-18.752-17.524s-18.639,6.479-18.377,18.749c.2,9.206,6.089,13.15,12.589,15.98,8.088,3.518,17.053,4.057,17.292,13.355.369,14.513-21.252,16.023-21.61-.673l-9.752.209c.2,9.3,6.117,20.745,21.428,20.417s19.363-12.214,19.174-21.059c-.242-11.318-7.5-15.6-14.737-18.08-7.263-2.49-14.5-3.172-14.685-11.693-.09-4.229,2.264-8.219,8.3-8.348,10.32-.22,9.832,8.87,9.832,8.87Zm-100.3-16.514v65.892H169.076v-18.63H147.3l-6.846,10.123-1.315,1.706,5.155,6.8H123.387l4.392-6.452-19.92-25.777v32.229H97.24V111.467h17.95c4.845,0,5.917.042,5.917.042a22.185,22.185,0,0,1,2.268,44.253l9.9,13.067,34.967-51.362ZM120.74,148.115c7.416,0,13.2-7.016,13.2-14.63,0-8.123-5.787-14.708-14.707-14.708h-11.81v29.338Zm48.336-15.59L153.6,155.416h15.479Z"/>
</svg>
