<?xml version="1.0" encoding="utf-8"?>
<!-- Generator: Adobe Illustrator 15.0.2, SVG Export Plug-In . SVG Version: 6.00 Build 0)  -->
<!DOCTYPE svg PUBLIC "-//W3C//DTD SVG 1.1//EN" "http://www.w3.org/Graphics/SVG/1.1/DTD/svg11.dtd">
<svg version="1.1" id="Layer_1" xmlns="http://www.w3.org/2000/svg" xmlns:xlink="http://www.w3.org/1999/xlink" x="0px" y="0px"
	 width="234.055px" height="77px" viewBox="0 0 234.055 77" enable-background="new 0 0 234.055 77" xml:space="preserve">
<g id="col-xs-12">
</g>
<g id="col-sm-12">
</g>
<g id="Guides">
</g>
<path fill="#3B8686" d="M55.317,23.489c1.687-8.608-26.89-11.482-34.73-6.468l-0.095-0.03c-4.12,4.134-7.104,9.492-8.31,15.651
	c-2.19,11.199,2.052,22.16,10.153,29.075C28.513,35.135,53.632,32.096,55.317,23.489z M47.975,8.57
	c-7.161-1.402-14.226-0.171-20.198,3.016c8.324-1.003,30.218-2.42,37.206,10.236c6.873,12.444-25.899,17.09-25.377,47.076
	C54.9,70.18,69.031,59.773,72.048,44.364C75.284,27.831,64.506,11.806,47.975,8.57z M88.877,24.247
	c-0.516-1.656-1.342-2.369-2.685-2.369c-1.171,0-1.999,0.714-1.999,1.741c0,1.085,0.542,1.513,3.283,2.541
	c1.856,0.714,2.541,1.057,3.369,1.741c1.229,0.999,1.884,2.398,1.884,4.111c0,3.654-2.712,6.081-6.735,6.081
	c-3.514,0-5.653-1.685-6.624-5.225l3.652-1.028c0.542,1.999,1.456,2.855,3.057,2.855c1.456,0,2.427-0.828,2.427-2.055
	c0-1.085-0.657-1.685-2.626-2.398c-2.398-0.856-3.026-1.17-3.968-1.941c-1.145-0.999-1.771-2.369-1.771-3.996
	c0-3.483,2.427-5.824,6.109-5.824c1.685,0,3.14,0.456,4.225,1.342c0.914,0.714,1.37,1.484,1.884,3.083L88.877,24.247z
	 M97.953,31.413v0.742c0,2.256,0.543,3.198,1.884,3.198c1.199,0,1.799-0.685,1.999-2.398l3.511,0.228
	c-0.342,1.627-0.713,2.398-1.484,3.284c-1,1.113-2.341,1.627-4.109,1.627c-3.711,0-5.854-2.598-5.854-7.138
	c0-4.71,2.17-7.507,5.854-7.507c1.97,0,3.711,0.97,4.566,2.569c0.801,1.484,0.999,2.655,1.027,5.396L97.953,31.413L97.953,31.413z
	 M101.636,29.158c0-1.085-0.085-1.656-0.285-2.113c-0.286-0.628-0.855-0.999-1.542-0.999c-1.227,0-1.771,0.914-1.827,3.112H101.636z
	 M108.943,23.734l1.941,8.308l1.971-8.308h3.254l-3.854,14.075h-3.112l-3.968-14.075H108.943z M119.959,31.413v0.742
	c0,2.256,0.543,3.198,1.885,3.198c1.199,0,1.799-0.685,1.999-2.398l3.511,0.228c-0.342,1.627-0.714,2.398-1.482,3.284
	c-1,1.113-2.343,1.627-4.111,1.627c-3.711,0-5.853-2.598-5.853-7.138c0-4.71,2.17-7.507,5.853-7.507c1.969,0,3.711,0.97,4.567,2.569
	c0.799,1.484,1,2.655,1.026,5.396L119.959,31.413L119.959,31.413z M123.643,29.158c0-1.085-0.086-1.656-0.286-2.113
	c-0.286-0.628-0.855-0.999-1.542-0.999c-1.228,0-1.771,0.914-1.827,3.112H123.643z M132.806,23.734v1.913
	c0.713-1.599,1.687-2.198,3.54-2.198c1.485,0,2.541,0.542,3.14,1.598c0.4,0.714,0.516,1.427,0.516,3.54v9.221h-3.911v-9.221
	c0-1.627-0.315-2.084-1.371-2.084c-0.856,0-1.37,0.342-1.599,1.056c-0.114,0.371-0.145,0.856-0.145,1.999v8.25h-3.912V23.734
	H132.806z M151.388,18.766v19.042h-4.168V18.766H151.388z M160.549,27.959c-0.457-1.371-1.056-1.913-2.055-1.913
	c-0.742,0-1.229,0.486-1.229,1.228c0,0.914,0.399,1.228,2.341,1.913c1.801,0.628,2.199,0.828,2.855,1.371
	c0.854,0.714,1.313,1.741,1.313,2.941c0,2.741-2.169,4.596-5.339,4.596c-1.654,0-3.083-0.485-3.996-1.342
	c-0.74-0.685-1.056-1.427-1.285-2.826l3.112-0.514c0.313,1.427,1.027,2.084,2.255,2.084c0.973,0,1.542-0.486,1.542-1.313
	c0-0.914-0.398-1.256-2.255-1.827c-2.969-0.97-4.225-2.284-4.225-4.425c0-2.655,2.055-4.482,4.996-4.482
	c1.341,0,2.512,0.428,3.367,1.227c0.715,0.656,1.057,1.229,1.398,2.427L160.549,27.959z M169.084,18.766v19.042h-3.912V18.766
	H169.084z M171.454,27.845c0.428-2.854,2.427-4.396,5.681-4.396c1.798,0,3.255,0.542,4.139,1.512
	c0.687,0.714,0.887,1.713,0.887,4.111v5.595c0,1.97,0.026,2.541,0.228,3.14h-3.654c-0.17-0.6-0.198-0.856-0.198-1.713v-0.428
	c-0.456,0.77-0.687,1.085-1.058,1.427c-0.714,0.628-1.713,0.999-2.798,0.999c-2.284,0-3.711-1.456-3.711-3.854
	c0-2.055,0.97-3.626,2.683-4.282c1.229-0.486,2.712-0.771,4.568-0.885V28.53c0-1.913-0.314-2.484-1.398-2.484
	c-1.057,0-1.514,0.6-1.655,2.141L171.454,27.845z M178.219,31.071c-2.397,0.285-3.197,0.942-3.197,2.655
	c0,1.142,0.485,1.77,1.313,1.77c0.514,0,0.97-0.286,1.342-0.885c0.4-0.628,0.542-1.37,0.542-2.855V31.071z M188.209,23.734v1.913
	c0.714-1.599,1.685-2.198,3.541-2.198c1.483,0,2.541,0.542,3.14,1.598c0.4,0.714,0.514,1.427,0.514,3.54v9.221h-3.908v-9.221
	c0-1.627-0.315-2.084-1.371-2.084c-0.856,0-1.37,0.342-1.601,1.056c-0.112,0.371-0.143,0.856-0.143,1.999v8.25h-3.912V23.734
	H188.209z M208.248,18.766v19.042h-3.625v-2.341c-0.742,1.885-1.57,2.541-3.228,2.541c-2.854,0-4.481-2.627-4.481-7.223
	c0-4.596,1.713-7.252,4.652-7.252c1.371,0,2.143,0.429,2.826,1.513v-6.281L208.248,18.766L208.248,18.766z M204.394,29.644
	c0-1.456-0.057-1.77-0.342-2.57c-0.2-0.57-0.743-0.942-1.371-0.942c-1.228,0-1.713,1.142-1.713,3.968
	c0,2.141,0.029,2.683,0.171,3.454c0.2,1.142,0.687,1.713,1.513,1.713c1.229,0,1.741-0.942,1.741-3.14L204.394,29.644L204.394,29.644
	z M217.039,27.959c-0.457-1.371-1.058-1.913-2.057-1.913c-0.74,0-1.228,0.486-1.228,1.228c0,0.914,0.397,1.228,2.341,1.913
	c1.799,0.628,2.198,0.828,2.854,1.371c0.854,0.714,1.313,1.741,1.313,2.941c0,2.741-2.169,4.596-5.339,4.596
	c-1.656,0-3.083-0.485-3.997-1.342c-0.742-0.685-1.056-1.427-1.285-2.826l3.112-0.514c0.313,1.427,1.028,2.084,2.255,2.084
	c0.971,0,1.541-0.486,1.541-1.313c0-0.914-0.399-1.256-2.255-1.827c-2.969-0.97-4.227-2.284-4.227-4.425
	c0-2.655,2.057-4.482,4.996-4.482c1.344,0,2.515,0.428,3.369,1.227c0.714,0.656,1.058,1.229,1.399,2.427L217.039,27.959z
	 M83.053,41.434l1.998,13.188l2.484-13.188h3.824l2.343,13.219l2.341-13.219h3.511l-4.082,19.127h-3.74l-2.541-13.218l-2.597,13.218
	H82.91L78.77,41.434H83.053z M103.319,54.08v0.742c0,2.256,0.542,3.197,1.886,3.197c1.197,0,1.799-0.686,1.999-2.397l3.511,0.228
	c-0.342,1.627-0.714,2.398-1.484,3.284c-1,1.113-2.341,1.627-4.109,1.627c-3.711,0-5.854-2.598-5.854-7.138
	c0-4.71,2.17-7.508,5.854-7.508c1.97,0,3.711,0.97,4.565,2.568c0.8,1.483,1,2.654,1.028,5.396L103.319,54.08L103.319,54.08z
	 M107.002,51.825c0-1.085-0.086-1.656-0.286-2.113c-0.286-0.628-0.857-0.999-1.542-0.999c-1.229,0-1.771,0.914-1.827,3.112H107.002z
	 M116.193,41.434v6.28c0.914-1.112,1.713-1.513,2.941-1.513c2.826,0,4.539,2.684,4.539,7.138c0,4.769-1.799,7.423-5.025,7.423
	c-1.598,0-2.541-0.6-3.254-2.113c-0.313,0.602-0.457,0.973-0.742,1.828h-2.313V41.434H116.193z M116.193,54.622
	c0,1.542,0.029,1.885,0.259,2.456c0.257,0.628,0.74,0.97,1.397,0.97c1.284,0,1.771-1.228,1.771-4.596
	c0-3.397-0.457-4.654-1.713-4.654c-0.63,0-1.199,0.343-1.456,0.914c-0.2,0.429-0.259,0.714-0.259,1.656V54.622z M128.067,57.393
	v3.082h-2.597v-3.082H128.067z M138.002,51.197c-0.229-1.399-0.371-1.942-0.628-2.428c-0.43-0.686-1.058-1.027-1.972-1.027
	c-2.084,0-2.884,1.712-2.884,6.166c0,3.598,0.914,5.225,2.94,5.225c1,0,1.713-0.484,2.112-1.398c0.199-0.457,0.313-1,0.429-2.026
	l2.111,0.257c-0.284,1.854-0.569,2.626-1.197,3.426c-0.714,0.942-2.057,1.484-3.625,1.484c-3.313,0-5.082-2.541-5.082-7.337
	c0-4.938,1.798-7.537,5.252-7.537c1.428,0,2.568,0.457,3.284,1.313c0.685,0.828,0.999,1.6,1.368,3.455L138.002,51.197z
	 M150.276,47.229c1.343,1.256,1.999,3.313,1.999,6.225c0,4.822-1.913,7.422-5.425,7.422c-3.425,0-5.367-2.655-5.367-7.395
	c0-4.854,1.912-7.479,5.426-7.479C148.221,46,149.42,46.43,150.276,47.229z M143.795,53.424c0,3.768,1.057,5.709,3.083,5.709
	c2.025,0,3.083-1.941,3.083-5.709c0-3.683-1.058-5.681-3.054-5.681C144.853,47.742,143.795,49.684,143.795,53.424z M156.127,46.4
	v2.141C157.069,46.6,157.869,46,159.582,46c1.913,0,2.912,0.857,3.369,2.855c0.799-1.998,1.911-2.855,3.711-2.855
	c1.397,0,2.598,0.629,3.169,1.686c0.398,0.741,0.542,1.771,0.542,4.11v8.679h-2.084v-8.563c0-1.801-0.06-2.456-0.314-3.026
	c-0.343-0.771-0.94-1.142-1.827-1.142c-1.798,0-2.824,1.598-2.824,4.425v8.31h-2.086v-8.31c-0.026-2.427-0.026-2.455-0.172-2.969
	c-0.283-0.972-0.97-1.456-2.025-1.456c-1.084,0-1.912,0.568-2.397,1.74c-0.313,0.742-0.372,1.199-0.372,2.826v8.166h-2.083V46.4
	H156.127z"/>
</svg>
