<?xml version="1.0" encoding="utf-8"?>
<!-- Generator: Adobe Illustrator 15.0.2, SVG Export Plug-In . SVG Version: 6.00 Build 0)  -->
<!DOCTYPE svg PUBLIC "-//W3C//DTD SVG 1.1//EN" "http://www.w3.org/Graphics/SVG/1.1/DTD/svg11.dtd">
<svg version="1.1" id="Layer_1" xmlns="http://www.w3.org/2000/svg" xmlns:xlink="http://www.w3.org/1999/xlink" x="0px" y="0px"
	 width="302px" height="78px" viewBox="0 0 302 78" enable-background="new 0 0 302 78" xml:space="preserve">
<g id="col-xs-12">
</g>
<g id="col-sm-12">
</g>
<g id="vc-logo">
	<g id="Vieth_Consulting">
		<path id="check_1_" fill="#355729" d="M54.138,15.014L43.3,15l-1.42,2.919c-2.689-1.485-5.776-2.335-9.06-2.335
			c-10.373,0-18.811,8.439-18.811,18.811c0,10.373,8.438,18.811,18.811,18.811s18.812-8.438,18.812-18.811
			c0-3.353-0.892-6.496-2.436-9.225L54.138,15.014z M49.188,34.395c0,9.025-7.342,16.369-16.368,16.369
			c-9.026,0-16.368-7.344-16.368-16.369c0-1.977,0.37-3.865,1.015-5.62l8.9,18.227l5.414-11.123l-4.77-9.767h-8.285
			c2.85-4.829,8.092-8.085,14.093-8.085c2.901,0,5.623,0.766,7.988,2.095L27.084,48.32h1.936l4.561-8.004l-3.269,8.004h1.676
			l4.562-8.004l-3.27,8.004h1.676l4.561-8.002l-3.269,8.002h1.68l9.923-20.389C48.709,29.916,49.188,32.1,49.188,34.395z"/>
		<path id="tagline_1_" fill="#333333" d="M62.263,51.174c0.196-0.027,0.418-0.051,0.665-0.07c0.247-0.019,0.502-0.033,0.763-0.041
			c0.262-0.01,0.516-0.017,0.763-0.021c0.248-0.005,0.47-0.007,0.665-0.007c0.868,0,1.61,0.121,2.227,0.363
			c0.616,0.242,1.115,0.582,1.498,1.021c0.383,0.439,0.663,0.961,0.84,1.568c0.177,0.605,0.266,1.272,0.266,2.002
			c0,0.662-0.084,1.302-0.251,1.918c-0.168,0.615-0.448,1.162-0.84,1.638s-0.907,0.859-1.547,1.147
			c-0.64,0.289-1.431,0.435-2.373,0.435c-0.149,0-0.348-0.005-0.595-0.014c-0.248-0.009-0.504-0.021-0.77-0.035
			c-0.266-0.015-0.521-0.028-0.763-0.042c-0.244-0.014-0.425-0.031-0.546-0.049v-9.814H62.263z M65.272,52.742
			c-0.205,0-0.413,0.005-0.623,0.014c-0.21,0.01-0.366,0.023-0.469,0.042v6.566c0.037,0.009,0.1,0.016,0.188,0.021
			c0.089,0.006,0.185,0.01,0.287,0.014c0.103,0.007,0.201,0.011,0.294,0.016c0.094,0.005,0.164,0.007,0.21,0.007
			c0.542,0,0.992-0.096,1.352-0.287c0.359-0.19,0.644-0.444,0.854-0.763c0.21-0.316,0.357-0.686,0.441-1.1
			c0.084-0.416,0.126-0.842,0.126-1.28c0-0.384-0.037-0.769-0.112-1.155c-0.074-0.387-0.212-0.734-0.413-1.043
			c-0.2-0.309-0.473-0.561-0.818-0.756C66.243,52.84,65.805,52.742,65.272,52.742z M70.887,52c0-0.271,0.1-0.502,0.301-0.693
			c0.2-0.189,0.479-0.287,0.833-0.287s0.642,0.098,0.861,0.287c0.219,0.191,0.328,0.422,0.328,0.693s-0.109,0.497-0.328,0.68
			c-0.22,0.182-0.507,0.272-0.861,0.272s-0.633-0.091-0.833-0.272C70.986,52.497,70.887,52.271,70.887,52z M71.152,53.975h1.82v7
			h-1.82V53.975z M77.382,59.042c0-0.187-0.079-0.336-0.237-0.448c-0.159-0.111-0.355-0.215-0.588-0.308
			c-0.234-0.093-0.49-0.188-0.771-0.287c-0.28-0.099-0.537-0.233-0.77-0.406s-0.43-0.392-0.588-0.657
			c-0.159-0.267-0.238-0.608-0.238-1.028c0-0.69,0.205-1.22,0.616-1.582c0.41-0.364,1.003-0.548,1.778-0.548
			c0.532,0,1.012,0.058,1.442,0.168c0.429,0.113,0.765,0.238,1.008,0.38l-0.407,1.315c-0.214-0.084-0.485-0.174-0.812-0.267
			s-0.658-0.14-0.994-0.14c-0.542,0-0.812,0.209-0.812,0.63c0,0.168,0.079,0.303,0.237,0.405c0.159,0.104,0.354,0.197,0.588,0.287
			c0.233,0.09,0.49,0.185,0.771,0.286c0.28,0.104,0.537,0.236,0.77,0.399c0.233,0.162,0.429,0.376,0.587,0.637
			c0.159,0.264,0.238,0.598,0.238,1.01c0,0.709-0.226,1.266-0.679,1.672c-0.453,0.405-1.132,0.608-2.037,0.608
			c-0.495,0-0.959-0.063-1.393-0.188c-0.434-0.125-0.787-0.272-1.058-0.44l0.504-1.358c0.215,0.121,0.499,0.24,0.854,0.357
			c0.354,0.117,0.719,0.175,1.092,0.175c0.271,0,0.487-0.051,0.651-0.153C77.301,59.457,77.382,59.285,77.382,59.042z M85.068,60.54
			c-0.28,0.205-0.618,0.362-1.016,0.469c-0.396,0.107-0.805,0.161-1.225,0.161c-0.56,0-1.034-0.089-1.421-0.266
			c-0.388-0.178-0.702-0.428-0.945-0.749c-0.242-0.322-0.418-0.712-0.524-1.169c-0.107-0.457-0.161-0.961-0.161-1.512
			c0-1.187,0.266-2.1,0.798-2.738c0.532-0.639,1.307-0.959,2.324-0.959c0.513,0,0.926,0.043,1.239,0.127s0.595,0.191,0.847,0.322
			L84.55,55.71c-0.215-0.103-0.427-0.183-0.636-0.237c-0.21-0.057-0.451-0.084-0.721-0.084c-0.504,0-0.887,0.166-1.148,0.496
			c-0.261,0.332-0.392,0.861-0.392,1.59c0,0.299,0.032,0.573,0.098,0.825s0.164,0.472,0.294,0.658
			c0.131,0.187,0.301,0.334,0.512,0.44c0.21,0.106,0.454,0.162,0.734,0.162c0.309,0,0.569-0.041,0.784-0.119
			c0.215-0.08,0.406-0.176,0.574-0.287L85.068,60.54z M85.32,57.475c0-1.186,0.289-2.099,0.868-2.738
			c0.578-0.639,1.391-0.959,2.436-0.959c0.561,0,1.045,0.091,1.457,0.268c0.411,0.178,0.75,0.428,1.022,0.749
			c0.271,0.322,0.474,0.712,0.608,1.169c0.136,0.457,0.203,0.961,0.203,1.514c0,1.186-0.287,2.098-0.861,2.735
			c-0.573,0.64-1.384,0.959-2.429,0.959c-0.56,0-1.045-0.089-1.456-0.266c-0.41-0.179-0.754-0.429-1.029-0.749
			c-0.275-0.322-0.48-0.713-0.615-1.17C85.388,58.529,85.32,58.025,85.32,57.475z M87.196,57.475c0,0.309,0.028,0.592,0.084,0.854
			c0.056,0.262,0.14,0.489,0.252,0.687c0.112,0.195,0.259,0.348,0.441,0.454c0.182,0.107,0.398,0.161,0.65,0.161
			c0.477,0,0.831-0.173,1.064-0.52c0.232-0.344,0.35-0.891,0.35-1.637c0-0.645-0.108-1.164-0.323-1.562
			c-0.214-0.397-0.578-0.595-1.092-0.595c-0.448,0-0.798,0.168-1.05,0.504C87.322,56.158,87.196,56.709,87.196,57.475z
			 M95.148,57.643l0.238,1.077h0.069l0.196-1.104l1.19-3.641h1.96l-2.926,7.069h-1.106l-3.038-7.069h2.114L95.148,57.643z
			 M104.626,60.372c-0.28,0.224-0.661,0.413-1.141,0.567c-0.48,0.152-0.992,0.229-1.533,0.229c-1.129,0-1.955-0.329-2.478-0.985
			c-0.523-0.658-0.784-1.563-0.784-2.709c0-1.232,0.294-2.156,0.882-2.772c0.588-0.616,1.414-0.925,2.478-0.925
			c0.355,0,0.7,0.048,1.036,0.141c0.336,0.094,0.635,0.247,0.896,0.462c0.261,0.216,0.471,0.504,0.63,0.868
			c0.158,0.363,0.238,0.816,0.238,1.357c0,0.195-0.012,0.405-0.035,0.631c-0.023,0.224-0.059,0.457-0.105,0.699h-4.199
			c0.028,0.588,0.179,1.03,0.454,1.33c0.275,0.299,0.722,0.447,1.338,0.447c0.382,0,0.726-0.058,1.028-0.175
			c0.304-0.117,0.534-0.236,0.693-0.356L104.626,60.372z M102.022,55.234c-0.477,0-0.828,0.142-1.058,0.427
			c-0.229,0.284-0.366,0.665-0.412,1.141h2.604c0.037-0.504-0.04-0.891-0.231-1.161C102.733,55.369,102.433,55.234,102.022,55.234z
			 M109.723,55.682c-0.29-0.102-0.551-0.154-0.784-0.154c-0.327,0-0.6,0.088-0.819,0.261c-0.22,0.173-0.366,0.396-0.44,0.665v4.521
			h-1.82v-7h1.414l0.21,0.924h0.056c0.159-0.346,0.373-0.61,0.644-0.799c0.271-0.187,0.588-0.279,0.952-0.279
			c0.242,0,0.518,0.053,0.825,0.154L109.723,55.682z M121.398,55.893l0.21-1.947h-0.084l-0.603,1.568l-2.086,3.654h-0.615
			l-2.198-3.668l-0.616-1.555h-0.07l0.28,1.933v5.097h-1.82v-9.801h1.75l2.618,4.48l0.462,1.119h0.056l0.42-1.147l2.478-4.452h1.736
			v9.801h-1.918V55.893z M130.273,60.372c-0.279,0.224-0.66,0.413-1.141,0.567c-0.48,0.152-0.992,0.229-1.533,0.229
			c-1.129,0-1.955-0.329-2.478-0.985c-0.523-0.658-0.784-1.563-0.784-2.709c0-1.232,0.294-2.156,0.882-2.772
			c0.587-0.616,1.414-0.925,2.477-0.925c0.355,0,0.7,0.048,1.036,0.141c0.336,0.094,0.635,0.247,0.896,0.462
			c0.261,0.216,0.471,0.504,0.63,0.868c0.158,0.363,0.238,0.816,0.238,1.357c0,0.195-0.012,0.405-0.035,0.631
			c-0.023,0.224-0.059,0.457-0.105,0.699h-4.199c0.027,0.588,0.179,1.03,0.454,1.33c0.275,0.299,0.722,0.447,1.338,0.447
			c0.382,0,0.726-0.058,1.028-0.175c0.304-0.117,0.534-0.236,0.693-0.356L130.273,60.372z M127.67,55.234
			c-0.477,0-0.828,0.142-1.058,0.427c-0.228,0.284-0.366,0.665-0.412,1.141h2.604c0.037-0.504-0.04-0.891-0.231-1.161
			C128.381,55.369,128.081,55.234,127.67,55.234z M135.481,60.975v-3.809c0-0.645-0.061-1.102-0.182-1.372
			c-0.121-0.271-0.373-0.405-0.756-0.405c-0.317,0-0.574,0.086-0.771,0.258c-0.195,0.174-0.345,0.396-0.447,0.666v4.662h-1.82v-7
			h1.414l0.21,0.924h0.056c0.215-0.299,0.488-0.561,0.819-0.783s0.758-0.338,1.281-0.338c0.447,0,0.813,0.093,1.099,0.273
			c0.284,0.182,0.506,0.488,0.665,0.917c0.215-0.364,0.49-0.653,0.826-0.868s0.742-0.322,1.218-0.322
			c0.392,0,0.726,0.049,1.001,0.142c0.275,0.095,0.499,0.254,0.672,0.481c0.173,0.229,0.301,0.535,0.385,0.918
			c0.084,0.384,0.126,0.867,0.126,1.455v4.201h-1.819V57.04c0-0.551-0.059-0.964-0.175-1.239c-0.117-0.275-0.376-0.412-0.777-0.412
			c-0.327,0-0.586,0.088-0.777,0.267c-0.191,0.177-0.334,0.42-0.427,0.728v4.594h-1.821V60.975z M142.495,51.174h1.82v3.36h0.056
			c0.196-0.224,0.448-0.401,0.756-0.532c0.308-0.13,0.648-0.195,1.021-0.195c0.84,0,1.481,0.286,1.925,0.86
			c0.444,0.574,0.665,1.449,0.665,2.625c0,1.26-0.311,2.217-0.931,2.87c-0.621,0.652-1.473,0.98-2.555,0.98
			c-0.598,0-1.144-0.051-1.639-0.147c-0.494-0.099-0.868-0.208-1.12-0.329v-9.492H142.495z M145.618,55.346
			c-0.336,0-0.609,0.086-0.819,0.26c-0.21,0.172-0.371,0.422-0.483,0.748v3.054c0.149,0.073,0.311,0.126,0.483,0.153
			c0.172,0.027,0.356,0.041,0.553,0.041c0.494,0,0.87-0.18,1.127-0.539c0.257-0.357,0.385-0.931,0.385-1.715
			C146.864,56.014,146.448,55.346,145.618,55.346z M155.318,60.372c-0.278,0.224-0.659,0.413-1.142,0.567
			c-0.479,0.152-0.991,0.229-1.532,0.229c-1.129,0-1.956-0.329-2.479-0.985c-0.523-0.658-0.784-1.563-0.784-2.709
			c0-1.232,0.294-2.156,0.882-2.772c0.588-0.616,1.416-0.925,2.478-0.925c0.354,0,0.699,0.048,1.035,0.141
			c0.336,0.094,0.636,0.247,0.896,0.462c0.262,0.216,0.473,0.504,0.631,0.868c0.157,0.363,0.237,0.816,0.237,1.357
			c0,0.195-0.013,0.405-0.035,0.631c-0.022,0.224-0.06,0.457-0.104,0.699h-4.198c0.027,0.588,0.179,1.03,0.454,1.33
			c0.275,0.299,0.722,0.447,1.338,0.447c0.382,0,0.727-0.058,1.027-0.175c0.305-0.117,0.535-0.236,0.692-0.356L155.318,60.372z
			 M152.716,55.234c-0.478,0-0.827,0.142-1.058,0.427c-0.228,0.284-0.366,0.665-0.412,1.141h2.604
			c0.037-0.504-0.039-0.891-0.229-1.161C153.427,55.369,153.126,55.234,152.716,55.234z M160.416,55.682
			c-0.29-0.102-0.551-0.154-0.784-0.154c-0.327,0-0.6,0.088-0.819,0.261c-0.219,0.173-0.364,0.396-0.438,0.665v4.521h-1.819v-7
			h1.413l0.21,0.924h0.057c0.16-0.346,0.375-0.61,0.646-0.799c0.271-0.187,0.588-0.279,0.952-0.279c0.242,0,0.518,0.053,0.824,0.154
			L160.416,55.682z M164.083,59.042c0-0.187-0.079-0.336-0.237-0.448c-0.158-0.111-0.354-0.215-0.588-0.308
			c-0.232-0.093-0.49-0.188-0.771-0.287c-0.278-0.099-0.535-0.233-0.77-0.406c-0.232-0.173-0.43-0.392-0.588-0.657
			c-0.158-0.267-0.238-0.608-0.238-1.028c0-0.69,0.205-1.22,0.616-1.582c0.41-0.364,1.003-0.548,1.777-0.548
			c0.532,0,1.013,0.058,1.442,0.168c0.428,0.113,0.765,0.238,1.008,0.38l-0.406,1.315c-0.215-0.084-0.485-0.174-0.813-0.267
			c-0.326-0.093-0.658-0.14-0.994-0.14c-0.541,0-0.813,0.209-0.813,0.63c0,0.168,0.079,0.303,0.236,0.405
			c0.158,0.104,0.354,0.197,0.589,0.287c0.231,0.09,0.489,0.185,0.771,0.286c0.279,0.104,0.535,0.236,0.771,0.399
			c0.231,0.162,0.43,0.376,0.588,0.637c0.157,0.264,0.237,0.598,0.237,1.01c0,0.709-0.228,1.266-0.68,1.672
			c-0.453,0.405-1.132,0.608-2.037,0.608c-0.494,0-0.959-0.063-1.393-0.188c-0.436-0.125-0.787-0.272-1.059-0.44l0.504-1.358
			c0.216,0.121,0.5,0.24,0.854,0.357s0.721,0.175,1.094,0.175c0.271,0,0.485-0.051,0.649-0.153
			C164.002,59.457,164.083,59.285,164.083,59.042z M171.098,60.975v-3.977c0-0.568-0.08-0.98-0.238-1.232
			c-0.157-0.252-0.446-0.377-0.866-0.377c-0.31,0-0.591,0.104-0.849,0.314c-0.256,0.21-0.427,0.479-0.511,0.805v4.467h-1.819v-9.801
			h1.819v3.584h0.056c0.226-0.299,0.5-0.537,0.826-0.714s0.742-0.267,1.246-0.267c0.354,0,0.668,0.048,0.938,0.141
			c0.271,0.094,0.498,0.247,0.679,0.462c0.184,0.215,0.316,0.506,0.407,0.875c0.088,0.369,0.133,0.824,0.133,1.365v4.354H171.098
			L171.098,60.975z M174.052,52c0-0.271,0.101-0.502,0.302-0.693c0.199-0.189,0.479-0.287,0.832-0.287
			c0.354,0,0.644,0.098,0.861,0.287c0.219,0.191,0.328,0.422,0.328,0.693s-0.109,0.497-0.328,0.68
			c-0.22,0.182-0.507,0.272-0.861,0.272c-0.354,0-0.633-0.091-0.832-0.272C174.15,52.497,174.052,52.271,174.052,52z
			 M174.318,53.975h1.82v7h-1.82V53.975z M177.648,53.975h1.33l0.211,0.84h0.056c0.243-0.354,0.53-0.615,0.86-0.783
			c0.332-0.17,0.734-0.254,1.211-0.254c0.877,0,1.535,0.279,1.975,0.834c0.439,0.556,0.658,1.449,0.658,2.682
			c0,0.598-0.07,1.137-0.211,1.617c-0.139,0.48-0.348,0.889-0.622,1.225c-0.275,0.336-0.611,0.594-1.009,0.771
			c-0.396,0.177-0.853,0.266-1.364,0.266c-0.289,0-0.527-0.021-0.714-0.063c-0.188-0.043-0.375-0.11-0.562-0.203v2.869h-1.819
			V53.975L177.648,53.975z M180.771,55.318c-0.354,0-0.633,0.089-0.834,0.266s-0.356,0.443-0.47,0.798v2.912
			c0.132,0.103,0.273,0.185,0.429,0.245c0.152,0.061,0.354,0.091,0.607,0.091c0.521,0,0.915-0.185,1.178-0.553
			c0.26-0.369,0.392-0.978,0.392-1.827c0-0.616-0.103-1.092-0.308-1.428S181.229,55.318,180.771,55.318z M192.461,58.342
			c0-0.299-0.109-0.541-0.329-0.728c-0.219-0.188-0.493-0.357-0.825-0.511c-0.332-0.154-0.689-0.313-1.078-0.478
			c-0.388-0.164-0.746-0.362-1.078-0.603c-0.33-0.237-0.604-0.533-0.824-0.89c-0.221-0.354-0.329-0.807-0.329-1.358
			c0-0.476,0.079-0.889,0.237-1.237c0.158-0.351,0.386-0.644,0.68-0.875s0.643-0.406,1.043-0.519c0.4-0.111,0.85-0.168,1.343-0.168
			c0.569,0,1.104,0.049,1.611,0.146c0.504,0.098,0.918,0.24,1.246,0.427l-0.603,1.61c-0.207-0.131-0.515-0.25-0.926-0.357
			c-0.41-0.105-0.854-0.16-1.33-0.16c-0.447,0-0.79,0.088-1.027,0.267c-0.237,0.177-0.356,0.415-0.356,0.714
			c0,0.279,0.108,0.513,0.329,0.7c0.219,0.187,0.495,0.358,0.824,0.518c0.332,0.159,0.691,0.322,1.078,0.49
			c0.389,0.168,0.748,0.371,1.078,0.608c0.332,0.238,0.606,0.531,0.826,0.883c0.219,0.35,0.328,0.785,0.328,1.309
			s-0.086,0.975-0.259,1.352c-0.173,0.379-0.415,0.692-0.728,0.944c-0.313,0.253-0.691,0.439-1.136,0.562
			c-0.444,0.121-0.932,0.182-1.464,0.182c-0.697,0-1.314-0.066-1.85-0.195c-0.53-0.131-0.924-0.262-1.176-0.393l0.617-1.639
			c0.102,0.057,0.234,0.117,0.397,0.183s0.348,0.126,0.553,0.183c0.206,0.057,0.423,0.104,0.651,0.141s0.464,0.056,0.707,0.056
			c0.568,0,1.006-0.096,1.309-0.287C192.311,59.025,192.461,58.734,192.461,58.342z M194.995,57.475c0-1.186,0.29-2.099,0.868-2.738
			c0.58-0.639,1.391-0.959,2.437-0.959c0.56,0,1.046,0.091,1.456,0.268c0.41,0.178,0.751,0.428,1.021,0.749
			c0.27,0.322,0.474,0.712,0.607,1.169c0.137,0.457,0.203,0.961,0.203,1.514c0,1.186-0.287,2.098-0.859,2.735
			c-0.574,0.64-1.386,0.959-2.431,0.959c-0.562,0-1.046-0.089-1.456-0.266c-0.41-0.179-0.754-0.429-1.027-0.749
			c-0.275-0.322-0.48-0.713-0.616-1.17C195.063,58.53,194.995,58.025,194.995,57.475z M196.872,57.475
			c0,0.309,0.028,0.592,0.084,0.854c0.056,0.262,0.14,0.489,0.251,0.687c0.111,0.195,0.26,0.348,0.441,0.454
			c0.181,0.107,0.397,0.161,0.649,0.161c0.478,0,0.831-0.173,1.063-0.52c0.232-0.344,0.351-0.891,0.351-1.637
			c0-0.645-0.106-1.164-0.321-1.562c-0.216-0.397-0.578-0.595-1.093-0.595c-0.446,0-0.798,0.168-1.051,0.504
			C196.997,56.158,196.872,56.709,196.872,57.475z M204.445,58.622c0,0.327,0.041,0.565,0.125,0.714s0.22,0.225,0.406,0.225
			c0.11,0,0.223-0.01,0.33-0.027c0.105-0.02,0.238-0.063,0.397-0.126l0.194,1.428c-0.147,0.075-0.377,0.147-0.687,0.226
			c-0.308,0.072-0.625,0.11-0.95,0.11c-0.533,0-0.938-0.124-1.22-0.371c-0.278-0.247-0.42-0.655-0.42-1.225v-8.4h1.819v7.448
			L204.445,58.622L204.445,58.622z M208.154,53.975v3.977c0,0.568,0.068,0.979,0.203,1.23c0.136,0.252,0.397,0.379,0.791,0.379
			c0.346,0,0.633-0.104,0.859-0.309c0.229-0.205,0.399-0.457,0.514-0.756v-4.521h1.817v4.871c0,0.383,0.021,0.758,0.058,1.127
			s0.094,0.702,0.168,1.002h-1.371l-0.322-1.037h-0.057c-0.215,0.355-0.515,0.649-0.896,0.883c-0.383,0.232-0.835,0.351-1.355,0.351
			c-0.355,0-0.672-0.047-0.953-0.14c-0.279-0.094-0.514-0.247-0.699-0.463c-0.188-0.215-0.329-0.504-0.428-0.867
			c-0.099-0.364-0.146-0.821-0.146-1.372v-4.354H208.154z M212.93,53.975h0.965v-1.315l1.82-0.519v1.834h1.708v1.539h-1.708v2.688
			c0,0.485,0.049,0.833,0.146,1.043c0.099,0.21,0.281,0.315,0.554,0.315c0.187,0,0.349-0.021,0.481-0.058
			c0.137-0.037,0.287-0.093,0.455-0.168l0.321,1.399c-0.252,0.121-0.546,0.225-0.882,0.309s-0.678,0.126-1.021,0.126
			c-0.645,0-1.117-0.166-1.42-0.497c-0.306-0.331-0.455-0.875-0.455-1.631v-3.527h-0.968v-1.539H212.93L212.93,53.975z M218.15,52
			c0-0.271,0.101-0.502,0.301-0.693c0.201-0.189,0.479-0.287,0.833-0.287s0.642,0.098,0.86,0.287c0.221,0.191,0.33,0.422,0.33,0.693
			s-0.109,0.497-0.33,0.68c-0.22,0.182-0.506,0.272-0.86,0.272s-0.632-0.091-0.833-0.272C218.251,52.497,218.15,52.271,218.15,52z
			 M218.417,53.975h1.819v7h-1.819V53.975z M221.413,57.475c0-1.186,0.289-2.099,0.868-2.738c0.578-0.639,1.391-0.959,2.436-0.959
			c0.561,0,1.045,0.091,1.456,0.268c0.411,0.178,0.751,0.428,1.022,0.749c0.271,0.322,0.474,0.712,0.606,1.169
			c0.138,0.457,0.203,0.961,0.203,1.514c0,1.186-0.287,2.098-0.86,2.735c-0.572,0.64-1.383,0.959-2.43,0.959
			c-0.561,0-1.045-0.089-1.456-0.266c-0.409-0.179-0.754-0.429-1.028-0.749c-0.274-0.322-0.479-0.713-0.614-1.17
			C221.48,58.529,221.413,58.025,221.413,57.475z M223.289,57.475c0,0.309,0.027,0.592,0.084,0.854
			c0.057,0.262,0.141,0.489,0.252,0.687c0.111,0.195,0.259,0.348,0.441,0.454c0.182,0.107,0.396,0.161,0.648,0.161
			c0.479,0,0.831-0.173,1.063-0.52c0.234-0.344,0.352-0.891,0.352-1.637c0-0.645-0.105-1.164-0.32-1.562
			c-0.217-0.397-0.58-0.595-1.094-0.595c-0.447,0-0.798,0.168-1.05,0.504C223.415,56.158,223.289,56.709,223.289,57.475z
			 M233.271,60.975v-3.977c0-0.568-0.082-0.98-0.246-1.232s-0.44-0.377-0.832-0.377c-0.346,0-0.637,0.101-0.875,0.301
			c-0.238,0.201-0.408,0.449-0.512,0.748v4.537h-1.82v-7h1.443l0.209,0.924h0.057c0.215-0.299,0.5-0.561,0.854-0.783
			s0.813-0.338,1.372-0.338c0.345,0,0.653,0.049,0.925,0.142c0.271,0.095,0.498,0.247,0.687,0.462s0.325,0.506,0.421,0.875
			c0.093,0.369,0.14,0.824,0.14,1.365v4.354H233.271z M239.234,59.042c0-0.187-0.08-0.336-0.237-0.448
			c-0.159-0.111-0.354-0.215-0.588-0.308c-0.234-0.093-0.49-0.188-0.771-0.287c-0.281-0.099-0.537-0.233-0.771-0.406
			s-0.432-0.392-0.59-0.657c-0.157-0.267-0.236-0.608-0.236-1.028c0-0.69,0.205-1.22,0.616-1.582
			c0.409-0.364,1.003-0.548,1.776-0.548c0.531,0,1.012,0.058,1.441,0.168c0.43,0.113,0.766,0.238,1.008,0.38l-0.406,1.315
			c-0.215-0.084-0.483-0.174-0.812-0.267s-0.658-0.14-0.994-0.14c-0.541,0-0.812,0.209-0.812,0.63c0,0.168,0.078,0.303,0.238,0.405
			c0.157,0.104,0.354,0.197,0.588,0.287c0.231,0.09,0.488,0.185,0.77,0.286c0.279,0.104,0.536,0.236,0.77,0.399
			c0.234,0.162,0.432,0.376,0.588,0.637c0.16,0.264,0.238,0.598,0.238,1.01c0,0.709-0.227,1.266-0.679,1.672
			c-0.453,0.405-1.132,0.608-2.037,0.608c-0.495,0-0.959-0.063-1.394-0.188c-0.436-0.125-0.787-0.272-1.059-0.44l0.506-1.358
			c0.213,0.121,0.498,0.24,0.854,0.357c0.354,0.117,0.719,0.175,1.092,0.175c0.271,0,0.486-0.051,0.65-0.153
			C239.152,59.457,239.234,59.285,239.234,59.042z"/>
		<path id="vieth" fill="#333333" d="M57.598,18.702h3.282l3.873,13.056c0.885,2.877,1.438,5.163,2.36,8.003h0.147
			c0.885-2.84,1.475-5.126,2.324-8.003l3.872-13.056h3.135L68.92,42.896h-3.577L57.598,18.702z M77.046,19.329
			c0-1.18,0.837-1.955,1.909-1.955c1.072,0,1.909,0.774,1.909,1.955c0,1.143-0.837,1.955-1.909,1.955
			C77.883,21.284,77.046,20.473,77.046,19.329z M77.406,24.972h3.024v17.924h-3.024V24.972z M82.938,33.971
			c0-5.864,3.946-9.441,8.04-9.441c4.573,0,7.155,3.282,7.155,8.409c0,0.627-0.037,1.291-0.11,1.733H85.926
			c0.222,3.799,2.545,6.233,5.975,6.233c1.696,0,3.135-0.554,4.462-1.401l1.069,1.991c-1.549,0.996-3.467,1.844-5.901,1.844
			C86.737,43.339,82.938,39.835,82.938,33.971z M95.478,32.496c0-3.614-1.623-5.569-4.426-5.569c-2.508,0-4.794,2.028-5.163,5.569
			H95.478z M101.234,37.364v-9.921h-2.655v-2.287l2.803-0.184l0.369-5.016h2.545v5.016h4.832v2.471h-4.832v9.958
			c0,2.213,0.701,3.467,2.766,3.467c0.627,0,1.438-0.259,2.028-0.479l0.59,2.286c-0.996,0.332-2.213,0.664-3.319,0.664
			C102.525,43.339,101.234,40.905,101.234,37.364z M110.973,16.637h3.024v7.155l-0.11,3.688c1.696-1.623,3.503-2.95,5.975-2.95
			c3.762,0,5.458,2.434,5.458,7.007v11.359h-3.024V31.943c0-3.356-1.033-4.794-3.393-4.794c-1.844,0-3.098,0.959-4.905,2.766v12.981
			h-3.024L110.973,16.637L110.973,16.637z"/>
		<path id="consulting" fill="#355729" d="M132.662,31.021c0-7.966,5.274-12.613,11.359-12.613c3.098,0,5.606,1.475,7.229,3.135
			l-2.876,3.467c-1.217-1.106-2.508-1.918-4.241-1.918c-3.283,0-5.901,2.914-5.901,7.745c0,4.942,2.287,7.819,5.827,7.819
			c1.955,0,3.503-0.996,4.684-2.25l2.876,3.393c-1.991,2.323-4.646,3.541-7.782,3.541C137.751,43.339,132.662,39.097,132.662,31.021
			z M150.81,33.75c0-6.085,4.278-9.589,8.924-9.589c4.611,0,8.889,3.504,8.889,9.589s-4.277,9.589-8.889,9.589
			C155.088,43.339,150.81,39.835,150.81,33.75z M163.091,33.75c0-3.172-1.143-5.2-3.356-5.2c-2.25,0-3.354,2.028-3.354,5.2
			s1.104,5.2,3.354,5.2C161.948,38.95,163.091,36.922,163.091,33.75z M170.139,24.603h4.426l0.369,2.323h0.146
			c1.549-1.475,3.393-2.766,5.863-2.766c3.983,0,5.681,2.803,5.681,7.376v11.358h-5.421V32.238c0-2.655-0.701-3.467-2.25-3.467
			c-1.365,0-2.213,0.627-3.393,1.77v12.355h-5.422V24.603L170.139,24.603z M187.4,40.794l2.435-3.393
			c1.66,1.254,3.172,1.918,4.722,1.918c1.623,0,2.323-0.59,2.323-1.549c0-1.217-1.844-1.77-3.726-2.508
			c-2.213-0.848-4.831-2.36-4.831-5.385c0-3.393,2.766-5.716,7.007-5.716c2.803,0,4.869,1.143,6.454,2.323l-2.435,3.245
			c-1.328-0.959-2.582-1.549-3.871-1.549c-1.402,0-2.065,0.516-2.065,1.438c0,1.18,1.696,1.623,3.577,2.323
			c2.324,0.848,4.941,2.139,4.941,5.495c0,3.319-2.617,5.901-7.522,5.901C192.012,43.339,189.246,42.307,187.4,40.794z
			 M202.967,35.962V24.603h5.422v10.658c0,2.619,0.7,3.467,2.286,3.467c1.365,0,2.177-0.59,3.246-2.028V24.603h5.421v18.293h-4.426
			l-0.406-2.545H214.4c-1.549,1.844-3.246,2.985-5.754,2.985C204.664,43.339,202.967,40.536,202.967,35.962z M221.152,37.217V17.043
			h5.422v20.395c0,1.143,0.516,1.512,0.958,1.512c0.222,0,0.368,0,0.663-0.074l0.664,4.021c-0.59,0.259-1.512,0.442-2.729,0.442
			C222.407,43.339,221.152,40.905,221.152,37.217z M230.227,36.258v-7.413h-2.508v-4.02l2.803-0.221l0.627-4.868h4.5v4.868h4.391
			v4.241h-4.391v7.339c0,2.065,0.922,2.914,2.36,2.914c0.591,0,1.255-0.184,1.733-0.369l0.848,3.946
			c-0.958,0.295-2.285,0.664-4.057,0.664C231.997,43.339,230.227,40.499,230.227,36.258z M240.96,19.071
			c0-1.66,1.328-2.803,3.136-2.803c1.844,0,3.135,1.143,3.135,2.803c0,1.66-1.291,2.84-3.135,2.84
			C242.288,21.911,240.96,20.731,240.96,19.071z M241.402,24.603h5.422v18.293h-5.422V24.603z M249.371,24.603h4.425l0.369,2.323
			h0.147c1.549-1.475,3.393-2.766,5.862-2.766c3.983,0,5.681,2.803,5.681,7.376v11.358h-5.42V32.238c0-2.655-0.701-3.467-2.25-3.467
			c-1.365,0-2.213,0.627-3.395,1.77v12.355h-5.421L249.371,24.603L249.371,24.603z M267.113,46.031c0-1.512,0.922-2.729,2.619-3.688
			v-0.147c-0.959-0.627-1.697-1.586-1.697-3.097c0-1.328,0.885-2.619,2.064-3.43V35.52c-1.291-0.885-2.472-2.619-2.472-4.758
			c0-4.389,3.615-6.602,7.562-6.602c1.033,0,2.028,0.148,2.84,0.443h6.676v3.946h-2.914c0.332,0.553,0.59,1.438,0.59,2.397
			c0,4.204-3.172,6.159-7.191,6.159c-0.664,0-1.4-0.111-2.213-0.369c-0.479,0.406-0.664,0.738-0.664,1.365
			c0,0.922,0.738,1.365,2.768,1.365h2.949c4.5,0,6.972,1.365,6.972,4.647c0,3.799-3.944,6.563-10.216,6.563
			C270.506,50.678,267.113,49.275,267.113,46.031z M279.836,45.035c0-1.143-0.996-1.438-2.803-1.438h-1.881
			c-1.254,0-1.992-0.074-2.582-0.223c-0.664,0.59-0.996,1.145-0.996,1.809c0,1.363,1.623,2.102,4.057,2.102
			S279.836,46.289,279.836,45.035z M277.698,30.762c0-1.918-1.07-2.95-2.509-2.95s-2.508,0.996-2.508,2.95
			c0,2.028,1.069,3.061,2.508,3.061S277.698,32.791,277.698,30.762z"/>
	</g>
</g>
<g id="Guides">
</g>
</svg>
