<svg id="Layer_1" data-name="Layer 1" xmlns="http://www.w3.org/2000/svg" xmlns:xlink="http://www.w3.org/1999/xlink" viewBox="0 0 1927.297 550">
  <defs>
    <style>
      .cls-1 {
        fill: url(#linear-gradient);
      }

      .cls-2 {
        fill: url(#radial-gradient);
      }

      .cls-3 {
        fill: none;
        stroke: #fff;
        stroke-miterlimit: 10;
        stroke-width: 4px;
      }
    </style>
    <linearGradient id="linear-gradient" x1="1032.225" y1="168.097" x2="1032.225" y2="477.132" gradientUnits="userSpaceOnUse">
      <stop offset="0" stop-color="#f39a18"/>
      <stop offset="1" stop-color="#dc381d"/>
    </linearGradient>
    <radialGradient id="radial-gradient" cx="122.888" cy="337.588" r="279.679" gradientUnits="userSpaceOnUse">
      <stop offset="0" stop-color="#f39a18"/>
      <stop offset="0.183" stop-color="#f29518"/>
      <stop offset="0.395" stop-color="#ef8719"/>
      <stop offset="0.622" stop-color="#e9701a"/>
      <stop offset="0.857" stop-color="#e14f1c"/>
      <stop offset="1" stop-color="#dc381d"/>
    </radialGradient>
  </defs>
  <title>wrap-services-logo</title>
  <g>
    <path class="cls-1" d="M405.3,313.1,367.94,174.679h30.923l14.943,62.053c2.7,11.622,4.15,18.056,7.678,34.451,2.284-15.773,3.736-24.074,5.811-34.451l13.075-62.053h29.885l12.867,63.091c2.7,13.7,4.15,21.168,6.019,33.413,1.245-6.018,3.528-17.225,7.056-33.413l15.358-63.091h30.923L503.876,313.1H474.821l-12.66-57.694c-3.113-14.32-6.018-29.262-6.848-35.9-2.7,14.942-4.359,23.866-7.056,35.9L435.182,313.1Z"/>
    <path class="cls-1" d="M565.512,212.866l-.83,17.848c5.811-16.188,13.282-20.754,34.658-20.546v27.81a51.786,51.786,0,0,0-7.471-.415c-10.17,0-18.471,4.565-21.792,12.036-2.9,6.641-3.942,15.981-3.942,35.281V313.1H536.664V212.866Z"/>
    <path class="cls-1" d="M602.661,244.411c1.868-23.036,16.188-34.243,44.412-34.243,15.151,0,26.773,3.528,34.658,10.376,7.264,6.434,9.962,14.528,9.962,29.263v46.072c0,10.792.415,12.245,3.736,17.225H665.337c-1.245-3.528-1.245-4.15-2.283-7.885-9.754,8.094-16.811,10.584-28.64,10.584-22.206,0-36.941-12.452-36.941-31.338s11.829-28.64,39.846-33.2l15.981-2.7c6.64-1.038,8.924-2.7,8.924-6.849,0-5.6-5.811-9.131-15.358-9.131-10.792,0-16.6,3.735-17.848,11.829Zm60.393,20.961a58.054,58.054,0,0,1-10.792,3.113l-10.584,2.283c-10.584,2.49-15.151,6.019-15.151,12.037,0,6.641,5.6,10.584,14.943,10.584,9.755,0,16.81-4.151,21.584-12.66Z"/>
    <path class="cls-1" d="M734.238,212.866l-.83,11.829c8.509-10.584,15.773-14.527,28.225-14.527,26.357,0,44.2,21.168,44.2,52.506,0,31.96-17.641,53.129-44,53.129-11,0-18.679-3.114-26.98-10.792v39.846h-29.47V212.866Zm-.415,50.015c0,17.848,8.3,29.056,21.584,29.056,12.867,0,21.376-11.208,21.376-28.64,0-18.056-8.094-29.263-21.584-29.263C742.125,234.034,733.823,245.241,733.823,262.881Z"/>
    <path class="cls-1" d="M941.77,218.054v-2.283c0-11.622-9.131-18.263-24.9-18.263-14.734,0-23.658,5.4-23.658,14.113,0,5.811,4.15,9.754,12.659,11.829l28.018,6.433c15.357,3.736,23.866,7.472,30.508,13.7,7.055,6.434,10.584,15.357,10.584,26.357,0,28.639-22,46.28-57.9,46.28-37.356,0-58.939-17.848-59.147-48.771h31.13c.623,15.773,9.547,22.829,28.432,22.829,15.981,0,25.735-5.811,25.735-15.565,0-6.849-4.981-11.622-14.943-14.112l-25.112-6.226c-14.734-3.528-23.866-7.472-30.092-12.868-7.056-5.811-11-15.98-11-27.187,0-26.772,20.546-42.752,55.62-42.752,22.413,0,38.186,6.642,47.111,19.716,4.565,6.849,6.848,14.32,8.093,26.772Z"/>
    <path class="cls-1" d="M1009.422,271.6c1.867,13.7,9.962,21.169,22.621,21.169,7.887,0,13.49-2.7,17.433-8.924h29.885c-5.6,19.508-24.282,31.96-48.148,31.96-30.923,0-51.469-21.169-51.469-52.714,0-31.338,20.961-52.921,51.261-52.921,21.169,0,37.149,10.584,44.62,29.47,3.528,8.716,4.981,18.055,4.981,31.96Zm40.884-20.753c-1.245-11.83-8.094-18.263-19.508-18.263s-18.886,6.433-21.169,18.263Z"/>
    <path class="cls-1" d="M1118.17,212.866l-.83,17.848c5.811-16.188,13.282-20.754,34.658-20.546v27.81a51.779,51.779,0,0,0-7.471-.415c-10.17,0-18.47,4.565-21.792,12.036-2.9,6.641-3.942,15.981-3.942,35.281V313.1h-29.471V212.866Z"/>
    <path class="cls-1" d="M1188.938,313.1l-35.9-100.238h30.922l11.207,38.394c2.075,7.056,4.566,16.6,7.887,28.847,2.282-11.207,4.773-22.829,6.225-28.847l10.17-38.394h31.545L1216.954,313.1Z"/>
    <path class="cls-1" d="M1282.535,198.961h-29.471V174.679h29.471Zm0,114.143h-29.471V212.866h29.471Z"/>
    <path class="cls-1" d="M1359.738,248.977c-1.66-9.547-8.3-14.943-18.263-14.943-13.49,0-20.753,10.17-20.753,28.432,0,19.3,7.263,29.471,20.961,29.471,10.584,0,16.395-5.4,18.677-17.226l28.64,1.453c-4.15,25.318-21.583,39.639-48.147,39.639-30.508,0-49.809-20.339-49.809-52.506,0-33.206,19.094-53.129,50.846-53.129,26.149,0,44,14.942,45.865,38.809Z"/>
    <path class="cls-1" d="M1420.128,271.6c1.867,13.7,9.962,21.169,22.621,21.169,7.887,0,13.49-2.7,17.433-8.924h29.885c-5.6,19.508-24.282,31.96-48.148,31.96-30.923,0-51.469-21.169-51.469-52.714,0-31.338,20.961-52.921,51.261-52.921,21.169,0,37.149,10.584,44.62,29.47,3.528,8.716,4.982,18.055,4.982,31.96Zm40.884-20.753c-1.245-11.83-8.094-18.263-19.508-18.263s-18.886,6.433-21.169,18.263Z"/>
    <path class="cls-1" d="M1555.024,242.958c-1.245-7.471-7.263-11.414-17.017-11.414-8.509,0-14.112,3.32-14.112,8.3,0,3.736,2.9,5.6,12.244,7.679l18.47,3.943c12.245,2.491,18.471,5.188,22.829,9.754,4.774,4.566,7.471,12.037,7.471,20.131,0,21.169-17.224,34.451-45.035,34.451s-45.034-13.075-46.695-35.281h27.6c1.66,9.547,7.887,13.905,19.716,13.905,9.339,0,15.357-3.736,15.357-9.754,0-4.774-3.32-7.264-11.207-9.132l-18.262-4.15c-22-4.774-30.508-12.868-30.508-28.848,0-20.131,15.98-32.375,42.752-32.375,25.734,0,41.3,11.622,44,32.79Z"/>
  </g>
  <g id="Logomark_remove_stroke_" data-name="Logomark (remove stroke)">
    <path class="cls-2" d="M285.266,368.708s-46.484,19.854-46.484-35.553,60.346-88.84,60.346-151.933c0-30.921-13.158-54.445-26.577-70.4,37.907,36.219,67.828,88.791,67.828,156.023C340.379,306.663,318.5,345.4,285.266,368.708ZM289.127,176.6c0-63.093-54.782-95.411-54.782-95.411l0-.109A209.677,209.677,0,0,0,190.257,59.9c13.1,5.926,38.525,25.028,38.525,82.534,0,77.467-82.523,88.8-82.523,188.533,0,40.409,26.481,53.626,45.709,57.9q4.256.728,8.61,1.2c.611.026.95.028.95.028s-.339,0-.95-.028a147.062,147.062,0,0,0,15.87.853,118.308,118.308,0,0,0,58.818-15.864s-46.484,15.864-46.484-46.523C228.782,273.125,289.127,239.694,289.127,176.6ZM136.259,326.345c0-99.73,82.522-111.066,82.522-188.532,0-55.624-18.628-72.753-29.133-77.991-.476-.207-.936-.4-1.374-.571-13.221-4.26-25.559-6.434-36.1-6.434,0,0,21.128,14.379,21.128,57.8,0,57.749-78.207,63.818-80.724,162.056-.036,1.141-.06,0-.06,3.433,0,54.693,35.716,95.519,85.18,109.529C159.049,379.274,136.259,363.832,136.259,326.345Z"/>
    <path class="cls-3" d="M256.913,96.005c6.709,7.978,37.214,35.9,37.214,82.906,0,63.094-60.345,96.524-60.345,151.933,0,58.9,46.482,41.039,46.484,41.039l22.418-9.485"/>
  </g>
</svg>
