<?xml version="1.0" encoding="utf-8"?>
<!-- Generator: Adobe Illustrator 15.0.2, SVG Export Plug-In . SVG Version: 6.00 Build 0)  -->
<!DOCTYPE svg PUBLIC "-//W3C//DTD SVG 1.1//EN" "http://www.w3.org/Graphics/SVG/1.1/DTD/svg11.dtd">
<svg version="1.1" id="Layer_1" xmlns="http://www.w3.org/2000/svg" xmlns:xlink="http://www.w3.org/1999/xlink" x="0px" y="0px"
	 width="1735.3px" height="474px" viewBox="0 0 1735.3 474" enable-background="new 0 0 1735.3 474" xml:space="preserve">
<rect x="155.935" y="324.568" fill="#E3551C" width="1408.519" height="31.271"/>
<g>
	<defs>
		<rect id="SVGID_1_" width="1735.297" height="474"/>
	</defs>
	<clipPath id="SVGID_2_">
		<use xlink:href="#SVGID_1_"  overflow="visible"/>
	</clipPath>
	<path clip-path="url(#SVGID_2_)" fill="#FFFFFF" d="M1579.791,226.346c0,61.035-49.479,110.514-110.514,110.514
		s-110.515-49.479-110.515-110.514c0-61.035,49.479-110.515,110.515-110.515S1579.791,165.311,1579.791,226.346"/>
	<path clip-path="url(#SVGID_2_)" fill="#EC7B1A" d="M184.537,282.604l-37.356-138.426h30.922l14.943,62.053
		c2.698,11.622,4.15,18.056,7.678,34.451c2.284-15.773,3.736-24.074,5.811-34.451l13.075-62.053h29.885l12.867,63.091
		c2.698,13.697,4.151,21.169,6.019,33.413c1.245-6.018,3.528-17.225,7.056-33.413l15.358-63.091h30.923l-38.602,138.426h-29.055
		l-12.66-57.695c-3.113-14.32-6.018-29.262-6.848-35.903c-2.699,14.942-4.359,23.866-7.056,35.903l-13.075,57.695H184.537z"/>
	<path clip-path="url(#SVGID_2_)" fill="#EC7B1A" d="M344.752,182.366l-0.83,17.849c5.811-16.189,13.282-20.754,34.658-20.547v27.81
		c-3.528-0.416-4.98-0.416-7.471-0.416c-10.17,0-18.47,4.567-21.792,12.037c-2.905,6.641-3.942,15.981-3.942,35.282v28.224h-29.471
		V182.366H344.752z"/>
	<path clip-path="url(#SVGID_2_)" fill="#EC7B1A" d="M381.9,213.912c1.869-23.037,16.188-34.244,44.413-34.244
		c15.15,0,26.772,3.528,34.658,10.377c7.264,6.433,9.962,14.527,9.962,29.262v46.073c0,10.792,0.415,12.244,3.735,17.225h-30.092
		c-1.245-3.528-1.245-4.15-2.283-7.886c-9.754,8.093-16.811,10.584-28.64,10.584c-22.206,0-36.941-12.451-36.941-31.337
		c0-18.886,11.83-28.641,39.847-33.207l15.98-2.698c6.641-1.038,8.924-2.698,8.924-6.849c0-5.604-5.811-9.131-15.357-9.131
		c-10.792,0-16.603,3.735-17.849,11.83H381.9z M442.293,234.873c-3.113,1.244-5.811,2.074-10.792,3.112l-10.584,2.284
		c-10.584,2.49-15.15,6.018-15.15,12.036c0,6.641,5.603,10.585,14.942,10.585c9.755,0,16.811-4.152,21.584-12.66V234.873z"/>
	<path clip-path="url(#SVGID_2_)" fill="#EC7B1A" d="M510.978,182.365l-0.83,11.829c8.509-10.583,15.772-14.527,28.225-14.527
		c26.357,0,44.205,21.169,44.205,52.506c0,31.96-17.641,53.128-43.997,53.128c-11,0-18.679-3.111-26.98-10.791v39.847h-29.471
		V182.365H510.978z M510.563,232.381c0,17.85,8.302,29.057,21.584,29.057c12.867,0,21.376-11.207,21.376-28.642
		c0-18.055-8.094-29.262-21.584-29.262C518.864,203.534,510.563,214.741,510.563,232.381"/>
	<path clip-path="url(#SVGID_2_)" fill="#EC7B1A" d="M697.755,187.554v-2.283c0-11.621-9.131-18.263-24.904-18.263
		c-14.735,0-23.659,5.396-23.659,14.112c0,5.811,4.151,9.754,12.66,11.83l28.017,6.433c15.358,3.735,23.866,7.472,30.508,13.698
		c7.056,6.434,10.584,15.358,10.584,26.355c0,28.641-21.999,46.281-57.902,46.281c-37.357,0-58.94-17.848-59.148-48.771h31.13
		c0.623,15.773,9.547,22.831,28.433,22.831c15.98,0,25.734-5.813,25.734-15.567c0-6.847-4.98-11.621-14.942-14.111l-25.113-6.227
		c-14.734-3.527-23.866-7.47-30.091-12.867c-7.057-5.81-11-15.98-11-27.187c0-26.772,20.546-42.752,55.62-42.752
		c22.413,0,38.185,6.641,47.11,19.717c4.566,6.847,6.849,14.319,8.094,26.771H697.755z"/>
	<path clip-path="url(#SVGID_2_)" fill="#EC7B1A" d="M765.407,241.098c1.867,13.697,9.962,21.169,22.621,21.169
		c7.887,0,13.491-2.697,17.433-8.924h29.886c-5.604,19.508-24.283,31.959-48.149,31.959c-30.923,0-51.469-21.168-51.469-52.713
		c0-31.338,20.961-52.922,51.261-52.922c21.169,0,37.15,10.584,44.62,29.471c3.529,8.716,4.982,18.055,4.982,31.959H765.407z
		 M806.291,220.345c-1.245-11.83-8.094-18.264-19.508-18.264c-11.414,0-18.886,6.434-21.169,18.264H806.291z"/>
	<path clip-path="url(#SVGID_2_)" fill="#EC7B1A" d="M874.154,182.366l-0.83,17.849c5.811-16.189,13.282-20.754,34.658-20.547v27.81
		c-3.528-0.416-4.98-0.416-7.471-0.416c-10.171,0-18.471,4.567-21.793,12.037c-2.904,6.641-3.941,15.981-3.941,35.282v28.224
		h-29.471V182.366H874.154z"/>
	<path clip-path="url(#SVGID_2_)" fill="#EC7B1A" d="M944.922,282.604l-35.903-100.239h30.922l11.207,38.393
		c2.075,7.057,4.566,16.604,7.887,28.848c2.282-11.207,4.773-22.828,6.226-28.848l10.17-38.393h31.545l-34.036,100.239H944.922z"/>
	<path clip-path="url(#SVGID_2_)" fill="#EC7B1A" d="M1038.52,168.46h-29.471v-24.281h29.471V168.46z M1038.52,282.605h-29.471
		V182.366h29.471V282.605z"/>
	<path clip-path="url(#SVGID_2_)" fill="#EC7B1A" d="M1115.723,218.476c-1.66-9.546-8.302-14.941-18.264-14.941
		c-13.489,0-20.754,10.169-20.754,28.431c0,19.301,7.265,29.471,20.962,29.471c10.584,0,16.396-5.396,18.678-17.227l28.64,1.453
		c-4.15,25.319-21.583,39.639-48.147,39.639c-30.509,0-49.809-20.338-49.809-52.506c0-33.205,19.093-53.129,50.845-53.129
		c26.15,0,43.998,14.944,45.866,38.809H1115.723z"/>
	<path clip-path="url(#SVGID_2_)" fill="#EC7B1A" d="M1176.112,241.098c1.866,13.697,9.962,21.169,22.621,21.169
		c7.887,0,13.49-2.697,17.433-8.924h29.886c-5.604,19.508-24.282,31.959-48.148,31.959c-30.923,0-51.47-21.168-51.47-52.713
		c0-31.338,20.961-52.922,51.262-52.922c21.169,0,37.149,10.584,44.62,29.471c3.528,8.716,4.981,18.055,4.981,31.959H1176.112z
		 M1216.996,220.345c-1.245-11.83-8.094-18.264-19.508-18.264s-18.887,6.434-21.169,18.264H1216.996z"/>
	<path clip-path="url(#SVGID_2_)" fill="#EC7B1A" d="M1311.009,212.458c-1.245-7.472-7.264-11.414-17.019-11.414
		c-8.508,0-14.111,3.32-14.111,8.301c0,3.736,2.904,5.603,12.244,7.678l18.471,3.944c12.244,2.49,18.471,5.188,22.829,9.754
		c4.772,4.565,7.471,12.038,7.471,20.131c0,21.168-17.225,34.45-45.035,34.45c-27.81,0-45.034-13.074-46.695-35.281h27.603
		c1.66,9.547,7.887,13.906,19.716,13.906c9.339,0,15.357-3.737,15.357-9.755c0-4.773-3.32-7.264-11.207-9.133l-18.263-4.149
		c-21.999-4.774-30.508-12.868-30.508-28.848c0-20.131,15.98-32.375,42.751-32.375c25.735,0,41.301,11.622,43.999,32.791H1311.009z"
		/>
</g>
<g>
	<defs>
		<path id="SVGID_3_" d="M1547.097,170.083c-8.762,50.27-61.486,68.525-69.182,112.673c-7.696,44.146,32.096,34.784,32.099,34.784
			c29.713-13.959,52.529-41.781,58.061-73.507c9.337-53.568-7.202-99.612-32.373-133.735
			C1544.176,124.876,1551.391,145.446,1547.097,170.083 M1496.436,129.406c-10.759,61.723-78.086,59.295-91.936,138.757
			c-5.612,32.196,13.652,46.405,28.376,52.479c2.195,0.78,4.425,1.501,6.695,2.155c4.061,1.171,8.241,2.136,12.525,2.883
			c16.96,2.956,33.735,1.062,49.067-4.47c0,0-39.24,6.183-30.575-43.524c7.695-44.148,60.419-62.403,69.183-112.673
			c8.763-50.27-30.397-83.629-30.397-83.629l0.018-0.087c-10.594-9.527-21.604-17.267-32.188-23.001
			C1486.818,64.837,1504.423,83.587,1496.436,129.406 M1456.648,96.353c-8.021,46.011-71.177,39.986-86.825,117.909
			c-0.188,0.903-0.047-0.009-0.525,2.727c-7.596,43.578,15.19,81.065,52.656,99.099c-13.974-7.659-29.987-23.127-24.781-52.996
			c13.852-79.462,81.178-77.033,91.937-138.755c7.726-44.319-4.738-60.554-12.381-66.187c-0.351-0.231-0.69-0.448-1.015-0.646
			c-9.942-5.231-19.472-8.676-27.872-10.14C1447.842,47.364,1462.679,61.755,1456.648,96.353"/>
	</defs>
	<clipPath id="SVGID_4_">
		<use xlink:href="#SVGID_3_"  overflow="visible"/>
	</clipPath>
	
		<radialGradient id="SVGID_5_" cx="0" cy="474" r="1" gradientTransform="matrix(184.7789 -182.9633 -182.9633 -184.7789 88109.5781 87855.3125)" gradientUnits="userSpaceOnUse">
		<stop  offset="0" style="stop-color:#F39A18"/>
		<stop  offset="0.1825" style="stop-color:#F29518"/>
		<stop  offset="0.3947" style="stop-color:#EF8719"/>
		<stop  offset="0.6217" style="stop-color:#E9701A"/>
		<stop  offset="0.8575" style="stop-color:#E14F1C"/>
		<stop  offset="1" style="stop-color:#DC381D"/>
	</radialGradient>
	<polygon clip-path="url(#SVGID_4_)" fill="url(#SVGID_5_)" points="1221.073,186.611 1470.621,-60.485 1718.04,189.389 
		1468.491,436.485 	"/>
</g>
<g>
	<defs>
		<rect id="SVGID_6_" width="1735.297" height="474"/>
	</defs>
	<clipPath id="SVGID_7_">
		<use xlink:href="#SVGID_6_"  overflow="visible"/>
	</clipPath>
	<path clip-path="url(#SVGID_7_)" fill="none" stroke="#FFFFFF" stroke-width="4" stroke-miterlimit="10" d="M1525.298,96.322
		c4.237,7.288,24.665,33.771,18.137,71.226c-8.763,50.27-61.487,68.525-69.183,112.673c-8.182,46.927,31.335,39.155,31.337,39.154
		l19.18-4.444"/>
</g>
</svg>
